<?xml version="1.0" encoding="UTF-8"?>
<svg width="75px" height="75px" viewBox="0 0 75 75" version="1.1" xmlns="http://www.w3.org/2000/svg" xmlns:xlink="http://www.w3.org/1999/xlink">
    <!-- Generator: Sketch 44 (41411) - http://www.bohemiancoding.com/sketch -->
    <title>LingoAsset</title>
    <desc>Created with Sketch.</desc>
    <defs></defs>
    <g id="web" stroke="none" stroke-width="1" fill="none" fill-rule="evenodd">
        <g id="product_fla:-about" transform="translate(-399.000000, -459.000000)" fill-rule="nonzero">
            <g id="LingoAsset" transform="translate(399.000000, 459.000000)">
                <g id="Group">
                    <path d="M75,35.6857143 C69.0785714,34.447619 62.9880952,33.8035714 57.047619,34.4666667 C51.1595238,35.1035714 45.3166667,37.202381 41.2964286,41.252381 C39.3047619,43.2488095 37.7904762,45.6988095 37.0964286,48.3059524 C36.925,48.9547619 36.7988095,49.6095238 36.7416667,50.2595238 C36.6761905,50.9345238 36.6904762,51.472619 36.7392857,52.2869048 L36.9642857,56.8285714 L37.8619048,75 L31.9095238,75 L32.8083333,56.827381 L33.0333333,52.2857143 C33.0654762,51.5857143 33.097619,50.6059524 33.2547619,49.7809524 C33.3964286,48.9285714 33.6214286,48.1047619 33.8964286,47.3083333 C35.0130952,44.1190476 37.0333333,41.4 39.4738095,39.2869048 C41.9238095,37.1666667 44.8,35.6630952 47.7821429,34.6892857 C50.7714286,33.7095238 53.8714286,33.2488095 56.947619,33.1297619 C63.1166667,32.902381 69.1785714,34.0166667 74.9952381,35.6857143" id="Shape" fill="#75A843"></path>
                    <path d="M1.19047619,0 C7.44047619,3.77857143 13.0559524,8.59404762 18.0988095,13.9202381 C23.127381,19.2702381 27.6464286,25.1321429 31.3702381,31.5452381 C33.2047619,34.772619 34.9083333,38.0940476 35.9690476,41.8488095 C36.2261905,42.7940476 36.4321429,43.775 36.5142857,44.8392857 L36.6416667,47.65 L36.8869048,53.1202381 L37.8678571,75 L31.9154762,75 L32.8952381,53.1190476 L33.1404762,47.6488095 L33.2011905,46.2809524 C33.2178571,45.8452381 33.2511905,45.3178571 33.247619,44.9892857 C33.2345238,44.2321429 33.1202381,43.4095238 32.9440476,42.5845238 C32.2142857,39.2559524 30.7702381,35.9238095 29.1785714,32.7297619 C25.9297619,26.327381 21.8238095,20.3011905 17.1666667,14.7535714 C12.4928571,9.21904762 7.21190476,4.13214286 1.18809524,0.00476190476" id="Shape" fill="#75A843"></path>
                    <path d="M57.4971774,44.8406955 C47.8076613,44.8406955 45.225,36.9019032 45.225,36.9019032 C45.225,36.9019032 47.8125,27.0050752 57.4971774,27.0050752 C64.1709677,27.0050752 75,35.921687 75,35.921687 C75,35.921687 64.1709677,44.8406955 57.4971774,44.8406955" id="Shape" fill="#83BF4F"></path>
                    <path d="M20.5971774,6.78841635 C28.1612903,14.3988722 23.6830645,23.0758224 23.6830645,23.0758224 C23.6830645,23.0758224 14.3129032,28.3304041 6.74758065,20.7199483 C1.53508065,15.4761513 0,0 0,0 C0,0 15.3846774,1.54461936 20.5971774,6.78841635 Z" id="Shape" fill="#83BF4F"></path>
                </g>
            </g>
        </g>
    </g>
</svg>