<?xml version="1.0" encoding="UTF-8"?>
<svg width="72px" height="72px" viewBox="0 0 72 72" version="1.1" xmlns="http://www.w3.org/2000/svg" xmlns:xlink="http://www.w3.org/1999/xlink">
    <!-- Generator: Sketch 44 (41411) - http://www.bohemiancoding.com/sketch -->
    <title>LingoAsset</title>
    <desc>Created with Sketch.</desc>
    <defs></defs>
    <g id="web" stroke="none" stroke-width="1" fill="none" fill-rule="evenodd">
        <g id="product_inter:-about" transform="translate(-1059.000000, -504.000000)">
            <g id="LingoAsset" transform="translate(1059.000000, 504.000000)">
                <g id="g10" transform="translate(36.000000, 36.000000) scale(-1, 1) rotate(-180.000000) translate(-36.000000, -36.000000) ">
                    <g id="g12">
                        <g id="g14-Clipped">
                            <g id="g14">
                                <g id="g20" transform="translate(8.000000, 0.000000)" fill-rule="nonzero" fill="#99AAB5">
                                    <path d="M58,0 L0,0 C8,0 6,18 6,18 C6,22.418 9.582,48 14,48 L56,48 C56,48 64,48 64,40 L64,6 C64,6 64,0 58,0" id="path22"></path>
                                </g>
                                <g id="g24">
                                    <path d="M60,6 C60,0 66,0 66,0 L6,0 C6,0 0,0 0,8 L0,64 C0,68.418 3.582,72 8,72 L52,72 C56.418,72 60,68.418 60,64 L60,6 Z" id="path26" fill="#CCD6DD" fill-rule="nonzero"></path>
                                    <g id="Group-4" transform="translate(29.500000, 43.500000) scale(1, -1) translate(-29.500000, -43.500000) translate(13.000000, 21.000000)">
                                        <polygon id="Rectangle-38" fill="#60ABDD" points="8.85365854 25.7142857 24.1463415 25.7142857 24.1463415 45.8035714 16.5 37.7678571 8.85365854 45.8035714"></polygon>
                                        <polygon id="Rectangle-39" fill="#FFFFFF" points="12.8780488 24.7142857 20.1219512 24.7142857 20.1219512 41.5892857 16.5 37.7780846 12.8780488 41.5892857"></polygon>
                                        <g id="Group-2">
                                            <polygon id="Star-2" fill="#F3AF4F" points="16.5 29.5478121 13.0694571 32.5864493 11.173435 28.4174537 6.80154334 29.8003246 6.7678814 25.2218278 2.21058084 24.7098214 4.04509956 20.5134872 0.0903887264 18.1951341 3.47588316 15.1065467 0.807567481 11.3827111 5.15865488 9.93591538 4.23811038 5.45048242 8.8024482 5.89564246 9.78884539 1.4241842 13.7772182 3.68432781 16.5 0 19.2227818 3.68432781 23.2111546 1.4241842 24.1975518 5.89564246 28.7618896 5.45048242 27.8413451 9.93591538 32.1924325 11.3827111 29.5241168 15.1065467 32.9096113 18.1951341 28.9549004 20.5134872 30.7894192 24.7098214 26.2321186 25.2218278 26.1984567 29.8003246 21.826565 28.4174537 19.9305429 32.5864493"></polygon>
                                            <ellipse id="Oval-2" fill="#F6C343" cx="16.5" cy="16.4732143" rx="11" ry="10.9821429"></ellipse>
                                            <circle id="Oval" fill="#D0011B" cx="16.5" cy="16.5" r="3.5"></circle>
                                        </g>
                                    </g>
                                </g>
                                <g id="g44" transform="translate(6.000000, 14.000000)" fill-rule="nonzero" fill="#99AAB5">
                                    <path d="M48,2 C48,0.894 47.106,0 46,0 L2,0 C0.896,0 0,0.894 0,2 C0,3.106 0.896,4 2,4 L46,4 C47.106,4 48,3.106 48,2" id="path46"></path>
                                </g>
                                <g id="g48" transform="translate(6.000000, 6.000000)" fill-rule="nonzero" fill="#99AAB5">
                                    <path d="M48,2 C48,0.894 47.106,0 46,0 L2,0 C0.896,0 0,0.894 0,2 C0,3.106 0.896,4 2,4 L46,4 C47.106,4 48,3.106 48,2" id="path50"></path>
                                </g>
                            </g>
                        </g>
                    </g>
                </g>
            </g>
        </g>
    </g>
</svg>