<?xml version="1.0" encoding="UTF-8"?>
<svg width="53px" height="80px" viewBox="0 0 53 80" version="1.1" xmlns="http://www.w3.org/2000/svg" xmlns:xlink="http://www.w3.org/1999/xlink">
    <!-- Generator: Sketch 44 (41411) - http://www.bohemiancoding.com/sketch -->
    <title>LingoAsset</title>
    <desc>Created with Sketch.</desc>
    <defs></defs>
    <g id="web" stroke="none" stroke-width="1" fill="none" fill-rule="evenodd">
        <g id="product_inter:-about" transform="translate(-810.000000, -501.000000)" fill-rule="nonzero">
            <g id="LingoAsset" transform="translate(826.500000, 540.500000) rotate(-30.000000) translate(-826.500000, -540.500000) translate(794.000000, 508.000000)">
                <g id="Group" transform="translate(45.000000, 0.000000)" fill="#42ADE2">
                    <path d="M7.799,51.802 C5.799,51.094 4.211,49.507 3.504,47.507 C3.246,46.774 3.102,45.987 3.104,45.167 L3.104,44.472 L3.106,7.072 C3.104,4.734 5.008,2.83 7.344,2.832 C9.615,2.83 11.473,4.622 11.582,6.862 L11.555,6.862 L11.563,40.172 C11.563,40.96 10.924,41.598 10.137,41.596 C9.369,41.598 8.746,40.992 8.713,40.233 C8.713,40.233 8.674,11.838 8.672,11.375 C8.672,10.604 8.031,9.964 7.26,9.962 C6.49,9.962 5.901,10.607 5.903,11.375 C5.905,12.017 5.887,39.776 5.887,40.111 C5.887,40.846 6.057,41.524 6.387,42.18 C6.76,42.927 7.448,43.594 8.2,43.955 C9.13,44.402 10.124,44.517 11.134,44.293 C13.009,43.87 14.376,42.091 14.39,40.193 L14.38,7.073 L14.413,7.072 C14.413,3.176 11.243,0.002 7.343,0.002 C3.443,0.002 0.273,3.174 0.273,7.072 L0.273,44.282 L0.273,45.17 C0.275,45.832 0.341,46.481 0.464,47.108 C1.241,50.983 4.294,54.043 8.161,54.833 C8.184,54.605 8.196,54.376 8.198,54.143 C8.193,53.323 8.053,52.535 7.793,51.804" id="Shape"></path>
                    <path d="M17.17,11.369 C17.17,11.915 17.17,43.699 17.168,44.729 C17.17,44.875 17.17,45.021 17.17,45.167 C17.17,48.813 14.381,51.819 10.824,52.167 C10.955,52.805 11.021,53.465 11.021,54.141 C11.023,54.427 11.007,54.711 10.984,54.992 C16.024,54.558 19.994,50.317 19.994,45.168 C19.994,44.621 19.992,11.517 19.994,11.369 C19.994,10.6 19.349,9.957 18.58,9.956 C17.81,9.958 17.168,10.601 17.168,11.37" id="Shape"></path>
                </g>
                <g id="Group" transform="translate(0.000000, 44.000000)" fill="#ED4C5C">
                    <path d="M45.28,0.28 C39.942,0.279 12.505,0.28 12.37,0.28 C11.6,0.28 10.958,0.922 10.958,1.692 C10.958,2.463 11.601,3.106 12.372,3.104 C12.897,3.105 42.267,3.104 45.472,3.105 C45.349,2.478 45.283,1.83 45.281,1.167 L45.281,0.28 L45.28,0.28 Z" id="Shape"></path>
                    <path d="M55.828,8.17 C55.039,4.302 51.976,1.249 48.103,0.475 L48.103,1.17 C48.101,1.99 48.246,2.776 48.503,3.51 C50.503,4.217 52.091,5.804 52.798,7.805 C53.058,8.536 53.198,9.325 53.202,10.143 C53.2,10.376 53.188,10.606 53.165,10.833 C52.819,14.389 49.811,17.178 46.165,17.179 L8.065,17.177 C5.725,17.178 3.823,15.275 3.825,12.936 C3.823,10.669 5.616,8.81 7.855,8.7 L7.853,8.729 L41.163,8.719 L41.161,8.719 C41.948,8.719 42.585,9.358 42.585,10.144 C42.587,10.912 41.981,11.536 41.224,11.567 C41.224,11.567 12.828,11.609 12.365,11.61 C11.594,11.61 10.951,12.25 10.953,13.021 C10.951,13.791 11.594,14.38 12.365,14.377 C13.006,14.377 40.763,14.393 41.099,14.393 C41.833,14.393 42.511,14.223 43.169,13.896 C43.915,13.522 44.583,12.833 44.946,12.082 C45.391,11.154 45.507,10.158 45.282,9.148 C44.86,7.275 43.083,5.908 41.182,5.892 L8.062,5.902 L8.064,5.869 C4.169,5.867 0.994,9.039 0.994,12.939 C0.994,16.839 4.166,20.009 8.064,20.009 L46.164,20.009 C51.314,20.01 55.555,16.039 55.986,10.999 C56.009,10.719 56.025,10.435 56.023,10.148 C56.023,9.473 55.957,8.813 55.826,8.175" id="Shape"></path>
                </g>
            </g>
        </g>
    </g>
</svg>