<?xml version="1.0" encoding="utf-8"?>
<!-- Generator: Adobe Illustrator 16.0.0, SVG Export Plug-In . SVG Version: 6.00 Build 0)  -->
<!DOCTYPE svg PUBLIC "-//W3C//DTD SVG 1.1//EN" "http://www.w3.org/Graphics/SVG/1.1/DTD/svg11.dtd">
<svg version="1.1" id="레이어_1" xmlns="http://www.w3.org/2000/svg" xmlns:xlink="http://www.w3.org/1999/xlink" x="0px"
	 y="0px" width="612px" height="792px" viewBox="0 0 612 792" enable-background="new 0 0 612 792" xml:space="preserve">
<g opacity="0.5">
	<g>
		<path fill="#3356E8" d="M579.534,609.734c5.281,2.95,5.281,7.922,0,10.873L323.706,769.257c-5.126,2.951-13.669,2.951-18.795,0
			L17.707,603.521c-5.281-2.951-5.281-7.923,0-10.873l255.829-148.65c5.126-2.951,13.669-2.951,18.795,0L579.534,609.734z"/>
	</g>
</g>
<g>
	<g>
		<g>
			<g enable-background="new    ">
				<g enable-background="new    ">
					<g>
						<g>
							<defs>
								<path id="SVGID_1_" d="M0.777,518.089v-8.854c0,2.33,1.555,4.814,4.66,6.523v8.854
									C2.33,522.904,0.777,520.419,0.777,518.089z"/>
							</defs>
							<clipPath id="SVGID_2_">
								<use xlink:href="#SVGID_1_"  overflow="visible"/>
							</clipPath>
							<g clip-path="url(#SVGID_2_)" enable-background="new    ">
								<path fill="#A5A5A5" d="M5.437,515.76v8.854c-2.796-1.555-4.35-3.729-4.66-5.747v-8.854
									C1.087,512.188,2.641,514.206,5.437,515.76"/>
								<path fill="#A1A1A1" d="M0.777,510.012v8.854c0-0.312,0-0.466,0-0.777v-8.854C0.777,509.546,0.777,509.701,0.777,510.012"/>
							</g>
						</g>
					</g>
				</g>
				<g enable-background="new    ">
					<g>
						<g>
							<defs>
								<path id="SVGID_3_" d="M609.824,542.32v8.854c0,2.33-1.554,4.66-4.66,6.523v-8.854
									C608.272,546.98,609.67,544.65,609.824,542.32z"/>
							</defs>
							<clipPath id="SVGID_4_">
								<use xlink:href="#SVGID_3_"  overflow="visible"/>
							</clipPath>
							<g clip-path="url(#SVGID_4_)" enable-background="new    ">
								<path fill="#9D9D9D" d="M609.824,542.32v8.854c0,2.33-1.554,4.66-4.66,6.523v-8.854
									C608.272,546.98,609.67,544.65,609.824,542.32"/>
							</g>
						</g>
					</g>
				</g>
				<g>
					<polygon fill="#9A9A9A" points="605.164,548.845 605.164,557.698 345.919,708.213 345.919,699.359 					"/>
				</g>
				<g>
					<polygon fill="#ACACAC" points="323.397,699.359 323.397,708.213 5.437,524.613 5.437,515.76 					"/>
				</g>
				<g>
					<path fill="#F8F8F8" d="M605.01,535.797c6.213,3.572,6.213,9.477,0,13.048l-259.091,150.67c-6.214,3.572-16.311,3.572-22.522,0
						L5.437,515.76c-6.214-3.572-6.214-9.476,0-13.048l259.09-150.67c6.215-3.572,16.311-3.572,22.523,0L605.01,535.797z"/>
				</g>
				<g enable-background="new    ">
					<g>
						<g>
							<defs>
								<path id="SVGID_5_" d="M345.919,699.359v8.854c-6.214,3.573-16.311,3.573-22.522,0v-8.854
									C329.61,702.932,339.705,702.932,345.919,699.359z"/>
							</defs>
							<clipPath id="SVGID_6_">
								<use xlink:href="#SVGID_5_"  overflow="visible"/>
							</clipPath>
							<g clip-path="url(#SVGID_6_)" enable-background="new    ">
								<path fill="#9D9D9D" d="M345.919,699.359v8.854c-3.417,2.021-7.923,2.796-12.427,2.641V702
									C337.996,702.311,342.502,701.379,345.919,699.359"/>
								<path fill="#A1A1A1" d="M333.492,702v8.854c-2.02-0.154-4.193-0.466-6.058-0.932v-8.854
									C329.453,701.689,331.474,702,333.492,702"/>
								<path fill="#A5A5A5" d="M327.436,701.068v8.854c-1.398-0.466-2.797-0.932-4.039-1.709v-8.854
									C324.639,700.136,326.036,700.602,327.436,701.068"/>
							</g>
						</g>
					</g>
				</g>
			</g>
		</g>
		<g>
			<polygon fill="#2D47E6" points="573.787,534.865 320.601,681.963 34.794,517.002 287.982,369.749 			"/>
		</g>
		<g>
			<path fill="#B1B1B2" d="M478.415,606.006c4.505,2.641,4.505,6.835,0,9.477c-4.505,2.641-11.806,2.641-16.153,0
				c-4.505-2.642-4.505-6.836,0-9.477C466.766,603.365,473.91,603.365,478.415,606.006z"/>
		</g>
		<g>
			<path fill="#C98CF9" d="M157.659,431.726c1.088,0.622,1.088,1.709,0,2.33s-2.797,0.621-3.884,0s-1.087-1.708,0-2.33
				C154.864,431.104,156.573,431.104,157.659,431.726z"/>
		</g>
	</g>
</g>
<g>
	<g>
		<path fill="#2D47E6" d="M514.918,553.039l-138.089,81.237c-31.688,18.64-70.829,18.64-102.518,0.154L102.984,534.243
			c-31.843-18.64-17.086-46.288,14.758-64.928l165.426-97.393c14.756-8.698,15.998,13.979,30.755,22.678l183.756,97.703
			C529.675,510.789,546.761,534.243,514.918,553.039z"/>
	</g>
	<path fill="#2D47E5" d="M514.763,552.883l-137.934,81.238c-31.531,18.64-70.675,18.64-102.361,0.155L103.294,534.088
		c-31.843-18.64-17.086-46.288,14.757-65.083l165.271-97.236c14.757-8.699,16.154,13.824,30.755,22.367l183.756,97.703
		C529.52,510.634,546.449,534.088,514.763,552.883z"/>
	<path fill="#2C46E4" d="M514.451,552.729L376.52,633.966c-31.532,18.483-70.52,18.641-102.052,0.155L103.449,534.088
		c-31.844-18.64-17.241-46.443,14.602-65.083l165.115-97.236c14.756-8.699,16.153,13.669,30.909,22.212l183.602,97.703
		C529.365,510.479,546.295,534.088,514.451,552.729z"/>
	<path fill="#2C46E3" d="M514.142,552.729l-137.777,81.082c-31.377,18.483-70.363,18.483-101.74,0.155L103.76,534.088
		c-31.842-18.639-17.241-46.443,14.446-65.083l164.805-97.081c14.601-8.698,16.31,13.514,30.91,22.057l183.444,97.703
		C529.209,510.168,545.985,534.088,514.142,552.729z"/>
	<path fill="#2C46E2" d="M513.987,552.572l-137.622,81.083c-31.377,18.482-70.209,18.482-101.431,0.155l-170.862-99.879
		c-31.688-18.64-17.396-46.599,14.29-65.237l164.649-96.926c14.601-8.699,16.465,13.203,31.064,21.901l183.29,97.858
		C529.054,510.012,545.674,533.933,513.987,552.572z"/>
	<path fill="#2C45E1" d="M513.676,552.572l-137.622,80.927c-31.222,18.329-69.898,18.484-101.275,0.156l-170.552-99.724
		c-31.688-18.483-17.396-46.599,14.135-65.237l164.494-96.771c14.603-8.543,16.465,13.048,31.222,21.591l183.135,97.858
		C528.899,509.856,545.364,533.933,513.676,552.572z"/>
	<path fill="#2B45E0" d="M513.365,552.417l-137.467,80.927c-31.222,18.329-69.743,18.329-100.965,0.155l-170.396-99.722
		c-31.688-18.484-17.554-46.754,14.135-65.238l164.184-96.615c14.603-8.543,16.62,12.893,31.222,21.436l183.135,97.857
		C528.899,509.701,545.053,533.933,513.365,552.417z"/>
	<path fill="#2B45DF" d="M513.21,552.417l-137.313,80.927c-31.066,18.329-69.588,18.329-100.653,0.156l-170.396-99.723
		c-31.688-18.484-17.708-46.754,13.979-65.395l163.873-96.46c14.601-8.543,16.774,12.737,31.375,21.28l182.979,97.856
		C528.741,509.391,544.741,533.777,513.21,552.417z"/>
	<path fill="#2B45DE" d="M512.9,552.262l-137.313,80.771c-30.91,18.174-69.433,18.329-100.498,0.155l-170.086-99.566
		c-31.532-18.484-17.708-46.909,13.824-65.394l163.873-96.46c14.601-8.543,16.774,12.582,31.375,21.125L496.9,490.75
		C528.587,509.235,544.431,533.622,512.9,552.262z"/>
	<path fill="#2B44DD" d="M512.588,552.106l-137.156,80.771c-30.91,18.174-69.276,18.174-100.188,0.155l-170.086-99.411
		c-31.532-18.484-17.863-46.909,13.669-65.549l163.563-96.305c14.602-8.543,16.931,12.271,31.531,20.814L496.59,490.44
		C528.432,508.925,544.119,533.622,512.588,552.106z"/>
	<path fill="#2A44DC" d="M512.433,551.951l-137.001,80.616c-30.755,18.174-68.966,18.174-99.877,0.154l-169.931-99.256
		c-31.532-18.483-17.863-47.063,13.514-65.549l163.407-96.149c14.601-8.543,17.086,12.116,31.53,20.659l182.669,97.858
		C528.277,508.77,543.81,533.467,512.433,551.951z"/>
	<path fill="#2A44DB" d="M512.121,551.951L375.12,632.567c-30.755,18.019-68.811,18.174-99.722,0.154l-169.62-99.256
		c-31.531-18.329-18.019-47.063,13.358-65.549l163.252-95.994c14.601-8.543,17.086,11.96,31.687,20.503l182.515,97.858
		C528.12,508.614,543.498,533.467,512.121,551.951z"/>
	<path fill="#2A43DA" d="M511.967,551.796L375.12,632.412c-30.6,18.019-68.654,18.174-99.41,0.155l-169.62-99.257
		c-31.376-18.328-18.018-47.22,13.358-65.703l162.94-95.994c14.445-8.543,17.241,11.805,31.687,20.348l182.357,97.858
		C527.966,508.304,543.189,533.313,511.967,551.796z"/>
	<path fill="#2943D9" d="M511.656,551.796l-136.689,80.461c-30.601,18.02-68.5,18.02-99.1,0.155L106.4,533.311
		c-31.376-18.328-18.173-47.22,13.203-65.703l162.786-95.839c14.445-8.543,17.396,11.65,31.843,20.038l182.201,97.858
		C527.811,508.148,543.032,533.313,511.656,551.796z"/>
	<path fill="#2943D8" d="M511.346,551.641l-136.69,80.461c-30.443,18.02-68.345,18.02-98.788,0.155l-169.312-98.944
		c-31.376-18.484-18.173-47.377,13.048-65.859l162.631-95.684c14.445-8.543,17.396,11.494,31.998,19.882l182.201,97.858
		C527.656,507.993,542.723,533.313,511.346,551.641z"/>
	<path fill="#2942D7" d="M511.191,551.485l-136.535,80.306c-30.443,17.863-68.188,18.019-98.634,0.155l-169.153-98.79
		c-31.377-18.329-18.329-47.376,12.892-65.859l162.32-95.528c14.444-8.543,17.552,11.184,31.997,19.727l182.046,97.858
		C527.5,507.683,542.411,533.156,511.191,551.485z"/>
	<path fill="#2942D6" d="M510.88,551.485L374.5,631.791c-30.289,17.863-67.88,17.863-98.323,0.155l-168.999-98.79
		c-31.222-18.329-18.484-47.531,12.736-65.859l162.165-95.528c14.444-8.543,17.706,11.028,32.152,19.571l181.891,98.015
		C527.345,507.527,542.102,533.156,510.88,551.485z"/>
	<path fill="#2842D5" d="M510.57,551.33l-136.225,80.306c-30.289,17.862-67.725,17.862-98.013,0.155l-168.999-98.79
		c-31.223-18.174-18.484-47.531,12.735-65.86l162.011-95.372c14.444-8.543,17.706,10.873,32.152,19.261l181.735,98.014
		C527.19,507.371,541.789,533.001,510.57,551.33z"/>
	<path fill="#2841D4" d="M510.413,551.33L374.19,631.48c-30.134,17.707-67.568,17.861-97.856,0.154L107.645,533
		c-31.222-18.174-18.64-47.688,12.582-66.016l161.698-95.217c14.445-8.543,17.861,10.718,32.309,19.105l181.58,98.014
		C527.033,507.061,541.48,533.001,510.413,551.33z"/>
	<path fill="#2841D3" d="M510.104,551.175l-136.069,80.15c-30.134,17.707-67.413,17.707-97.547,0.155l-168.532-98.636
		c-31.223-18.174-18.641-47.687,12.427-66.016l161.543-95.062c14.445-8.388,18.018,10.563,32.309,18.95l181.58,98.015
		C526.879,506.905,541.169,532.846,510.104,551.175z"/>
	<path fill="#2841D2" d="M509.791,551.175L373.724,631.17c-29.979,17.707-67.258,17.707-97.236,0.155L108.11,532.846
		c-31.065-18.174-18.795-47.842,12.271-66.016l161.388-94.906c14.29-8.388,18.018,10.407,32.464,18.795l181.425,98.014
		C526.724,506.75,540.859,532.846,509.791,551.175z"/>
	<path fill="#2741D1" d="M509.637,551.02l-135.913,79.995c-29.979,17.553-66.947,17.707-96.926,0.155L108.42,532.69
		c-31.065-18.175-18.795-47.843,12.116-66.172l161.076-94.906c14.29-8.388,18.173,10.096,32.463,18.484l181.427,98.167
		C526.569,506.439,540.548,532.69,509.637,551.02z"/>
	<path fill="#2740D0" d="M509.325,550.864l-135.758,79.995c-29.823,17.552-66.792,17.552-96.771,0.154L108.575,532.69
		c-31.065-18.175-18.95-47.997,11.961-66.172l160.922-94.75c14.29-8.388,18.327,9.941,32.617,18.329l181.115,98.013
		C526.412,506.284,540.238,532.69,509.325,550.864z"/>
	<path fill="#2740CF" d="M509.016,550.864l-135.758,79.839c-29.824,17.553-66.638,17.553-96.46,0.156l-167.912-98.324
		c-30.91-18.174-19.105-47.997,11.961-66.171l160.767-94.596c14.29-8.388,18.328,9.786,32.774,18.173l181.114,98.013
		C526.258,506.129,540.081,532.535,509.016,550.864z"/>
	<path fill="#2640CE" d="M508.861,550.709l-135.603,79.839c-29.668,17.397-66.481,17.553-96.149,0.155l-167.912-98.168
		c-30.909-18.174-19.104-48.152,11.807-66.326l160.456-94.44c14.29-8.388,18.482,9.63,32.773,18.018L495.192,487.8
		C526.103,505.818,539.772,532.535,508.861,550.709z"/>
	<path fill="#263FCD" d="M508.55,550.709l-135.448,79.839c-29.512,17.397-66.325,17.397-95.993,0.155L109.352,532.69
		c-30.91-18.02-19.261-48.152,11.65-66.326l160.301-94.44c14.29-8.388,18.639,9.475,32.93,17.708l180.804,98.013
		C525.948,505.663,539.461,532.535,508.55,550.709z"/>
	<path fill="#263FCC" d="M508.24,550.554l-135.448,79.685c-29.513,17.396-66.17,17.396-95.683,0.154L109.663,532.38
		c-30.911-18.019-19.263-48.308,11.494-66.326l160.146-94.285c14.29-8.388,18.639,9.165,32.93,17.552l180.648,98.013
		C525.791,505.508,539.15,532.38,508.24,550.554z"/>
	<path fill="#263FCB" d="M508.084,550.398l-135.293,79.684c-29.357,17.396-65.859,17.396-95.372,0.155L109.974,532.38
		c-30.756-18.019-19.417-48.308,11.339-66.48l159.834-94.13c14.291-8.388,18.795,9.009,33.086,17.397l180.493,98.013
		C525.636,505.197,538.839,532.38,508.084,550.398z"/>
	<path fill="#253ECA" d="M507.774,550.398l-135.138,79.527c-29.357,17.242-65.704,17.397-95.063,0.155l-167.289-97.857
		c-30.757-18.019-19.416-48.463,11.184-66.48l159.679-93.975c14.291-8.388,18.95,8.854,33.086,17.242l180.493,98.167
		C525.481,505.042,538.529,532.225,507.774,550.398z"/>
	<path fill="#253EC9" d="M507.463,550.242l-135.139,79.529c-29.202,17.241-65.549,17.241-94.905,0.154L110.44,532.225
		c-30.756-18.019-19.57-48.463,11.185-66.48l159.522-93.975c14.137-8.388,18.95,8.698,33.241,16.931l180.183,98.169
		C525.324,504.887,538.218,532.225,507.463,550.242z"/>
	<path fill="#253EC8" d="M507.307,550.242l-134.981,79.529c-29.202,17.241-65.394,17.241-94.596,0.154L110.75,532.069
		c-30.755-18.02-19.728-48.618,11.027-66.638l159.214-93.819c14.136-8.388,19.104,8.543,33.24,16.775l180.183,98.168
		C525.17,504.575,537.906,532.069,507.307,550.242z"/>
	<path fill="#253DC7" d="M506.995,550.087L372.17,629.461c-29.048,17.086-65.238,17.241-94.285,0.155l-166.979-97.547
		c-30.6-17.863-19.727-48.618,10.873-66.638l159.059-93.664c14.136-8.388,19.261,8.388,33.396,16.62l180.027,98.168
		C525.015,504.42,537.597,532.069,506.995,550.087z"/>
	<path fill="#243DC6" d="M506.841,549.932l-134.826,79.374c-29.047,17.086-64.928,17.086-94.13,0.155l-166.669-97.547
		c-30.6-17.863-19.882-48.774,10.718-66.792l158.902-93.509c14.136-8.388,19.261,8.077,33.552,16.465l180.026,98.169
		C524.86,504.265,537.285,532.069,506.841,549.932z"/>
	<path fill="#243DC5" d="M506.531,549.932L371.86,629.15c-28.892,17.086-64.771,17.086-93.818,0.154l-166.515-97.392
		c-30.6-17.863-19.882-48.774,10.563-66.792l158.592-93.354c14.136-8.388,19.416,7.922,33.552,16.154l179.872,98.169
		C524.703,503.954,536.976,531.914,506.531,549.932z"/>
	<path fill="#243DC4" d="M506.22,549.776l-134.517,79.219c-28.892,16.931-64.616,17.086-93.509,0.155l-166.514-97.236
		c-30.6-17.863-20.037-48.93,10.563-66.792l158.437-93.354c14.136-8.232,19.571,7.767,33.707,15.999l179.717,98.167
		C524.549,503.799,536.821,531.914,506.22,549.776z"/>
	<path fill="#233CC3" d="M506.065,549.776l-134.516,79.219c-28.736,16.931-64.462,16.931-93.198,0.155l-166.202-97.236
		c-30.444-17.863-20.038-48.93,10.406-66.947l158.281-93.198c14.136-8.232,19.57,7.611,33.707,15.844l179.405,98.168
		C524.394,503.644,536.509,531.759,506.065,549.776z"/>
	<path fill="#233CC2" d="M505.754,549.621l-134.36,79.063c-28.736,16.932-64.307,16.932-93.043,0.155l-166.047-97.081
		c-30.445-17.863-20.193-49.085,10.251-66.947l158.126-93.042c14.136-8.232,19.727,7.456,33.862,15.688l179.405,98.168
		C524.239,503.488,536.198,531.759,505.754,549.621z"/>
	<path fill="#233CC1" d="M505.444,549.466l-134.205,79.063c-28.581,16.774-64.15,16.931-92.73,0.154L112.46,531.602
		c-30.445-17.861-20.193-49.084,10.096-66.945l157.815-92.888c13.979-8.232,19.882,7.145,33.861,15.377l179.405,98.168
		C524.239,503.178,535.888,531.604,505.444,549.466z"/>
	<path fill="#233BC0" d="M505.287,549.466l-134.205,78.908c-28.58,16.775-63.841,16.775-92.42,0.155L112.77,531.604
		c-30.444-17.862-20.349-49.239,9.94-67.104l157.66-92.731c13.979-8.232,19.882,6.99,34.018,15.222l179.25,98.324
		C524.082,503.022,535.576,531.604,505.287,549.466z"/>
	<path fill="#223BBF" d="M504.978,549.311l-134.05,78.907c-28.426,16.776-63.687,16.776-92.266,0.156L113.08,531.447
		c-30.289-17.707-20.504-49.239,9.786-67.104l157.504-92.73c13.979-8.232,20.036,6.834,34.018,15.067l179.095,98.324
		C523.928,502.867,535.267,531.447,504.978,549.311z"/>
	<path fill="#223BBE" d="M504.666,549.311l-133.895,78.907c-28.426,16.621-63.53,16.776-91.955,0.156l-165.582-96.927
		c-30.289-17.707-20.504-49.396,9.786-67.104l157.193-92.576c13.979-8.232,20.191,6.679,34.173,14.912l178.938,98.324
		C523.773,502.557,534.955,531.447,504.666,549.311z"/>
	<path fill="#223ABD" d="M504.511,549.155l-133.895,78.752c-28.271,16.621-63.375,16.621-91.645,0.155l-165.427-96.615
		c-30.289-17.707-20.659-49.396,9.631-67.258l157.038-92.421c13.979-8.232,20.191,6.524,34.173,14.601l178.938,98.324
		C523.616,502.401,534.646,531.447,504.511,549.155z"/>
	<path fill="#223ABC" d="M504.199,549.155l-133.737,78.752c-28.271,16.621-63.221,16.621-91.334,0.155l-165.271-96.771
		c-30.289-17.707-20.659-49.55,9.477-67.258l156.883-92.266c13.979-8.232,20.348,6.369,34.328,14.446l178.783,98.324
		C523.462,502.246,534.335,531.292,504.199,549.155z"/>
	<path fill="#213ABB" d="M503.89,549l-133.584,78.597c-28.114,16.62-62.908,16.62-91.178,0.155l-165.116-96.46
		c-30.134-17.707-20.813-49.55,9.32-67.258l156.571-92.11c13.979-8.232,20.503,6.058,34.483,14.291l178.629,98.324
		C523.306,501.935,534.024,531.292,503.89,549z"/>
	<path fill="#2139BA" d="M503.735,548.845l-133.584,78.598c-27.959,16.465-62.753,16.619-90.866,0.154l-164.962-96.46
		c-30.134-17.707-20.813-49.705,9.165-67.413l156.417-92.11c13.979-8.232,20.503,5.902,34.483,14.135l178.474,98.324
		C523.151,501.779,533.713,531.137,503.735,548.845z"/>
	<path fill="#2139B9" d="M503.424,548.845l-133.43,78.598c-27.959,16.465-62.598,16.465-90.557,0.154l-164.806-96.46
		c-30.134-17.552-20.969-49.705,9.165-67.413l156.262-91.955c13.824-8.232,20.659,5.747,34.639,13.824l178.475,98.324
		C522.994,501.624,533.558,531.137,503.424,548.845z"/>
	<path fill="#2039B8" d="M503.114,548.689L369.84,627.131c-27.805,16.465-62.442,16.465-90.401,0.155L114.79,530.981
		c-30.136-17.553-21.125-49.86,9.009-67.413l155.951-91.8c13.824-8.232,20.813,5.592,34.639,13.669l178.317,98.324
		C522.84,501.313,533.246,530.981,503.114,548.689z"/>
	<path fill="#2039B7" d="M502.957,548.689l-133.272,78.44c-27.804,16.311-62.287,16.465-90.091,0.155L115.1,530.981
		c-29.979-17.553-21.125-49.86,8.854-67.568l155.796-91.645c13.824-8.232,20.813,5.437,34.794,13.514l178.162,98.324
		C522.685,501.158,532.937,530.981,502.957,548.689z"/>
	<path fill="#2038B6" d="M502.648,548.534L369.53,626.976c-27.647,16.311-62.132,16.311-89.779,0.155l-164.34-96.149
		c-29.979-17.553-21.28-50.017,8.697-67.568l155.642-91.645c13.824-8.077,20.97,5.281,34.794,13.358l178.008,98.324
		C522.53,501.003,532.625,530.981,502.648,548.534z"/>
	<path fill="#2038B5" d="M502.337,548.534L369.373,626.82c-27.647,16.31-61.82,16.31-89.47,0.154l-164.339-96.148
		c-29.979-17.552-21.279-50.016,8.543-67.568l155.33-91.489c13.824-8.077,21.124,4.971,34.949,13.048l178.008,98.479
		C522.373,500.848,532.316,530.826,502.337,548.534z"/>
	<path fill="#1F38B4" d="M502.182,548.379l-132.963,78.286c-27.493,16.154-61.666,16.31-89.314,0.155l-164.027-95.994
		c-29.979-17.552-21.437-50.172,8.388-67.725l155.175-91.333c13.824-8.077,21.124,4.815,34.949,12.893l177.853,98.323
		C522.219,500.537,532.005,530.826,502.182,548.379z"/>
	<path fill="#1F37B3" d="M501.87,548.224l-132.808,78.132c-27.493,16.153-61.511,16.153-89.004,0.154l-164.028-95.839
		c-29.822-17.396-21.436-50.171,8.389-67.724l155.02-91.179c13.824-8.077,21.28,4.66,35.104,12.737l177.696,98.479
		C522.064,500.382,531.695,530.671,501.87,548.224z"/>
	<path fill="#1F37B2" d="M501.56,548.224l-132.651,78.132c-27.338,16.153-61.354,16.153-88.692,0.154l-163.873-95.839
		c-29.823-17.396-21.591-50.327,8.232-67.879l154.709-91.023c13.823-8.077,21.436,4.504,35.26,12.582l177.542,98.479
		C521.907,500.227,531.383,530.671,501.56,548.224z"/>
	<path fill="#1F37B1" d="M501.405,548.068l-132.65,78.131c-27.339,15.999-61.2,16.153-88.538,0.154l-163.563-95.839
		c-29.822-17.396-21.745-50.326,8.077-67.879l154.555-91.023c13.823-8.077,21.436,4.349,35.26,12.271l177.387,98.479
		C521.753,499.916,531.073,530.671,501.405,548.068z"/>
	<path fill="#1E36B0" d="M501.094,548.068l-132.496,77.976c-27.184,15.999-60.891,15.999-88.228,0.155l-163.563-95.685
		c-29.823-17.396-21.746-50.481,7.922-67.879l154.398-90.868c13.669-8.077,21.591,4.039,35.414,12.116l177.388,98.479
		C521.598,499.761,530.762,530.516,501.094,548.068z"/>
	<path fill="#1E36AF" d="M500.782,547.913l-132.341,77.976c-27.183,15.999-60.734,15.999-87.917,0.155l-163.406-95.528
		c-29.668-17.396-21.901-50.481,7.767-68.033l154.088-90.713c13.669-8.077,21.746,3.883,35.415,11.96l177.387,98.479
		C521.443,499.605,530.45,530.516,500.782,547.913z"/>
	<path fill="#1E36AE" d="M500.628,547.913l-132.342,77.82c-27.026,15.843-60.579,15.999-87.605,0.154L117.429,530.36
		c-29.668-17.396-21.901-50.639,7.611-68.034l153.933-90.558c13.669-8.077,21.746,3.728,35.57,11.805l177.075,98.479
		C521.286,499.45,530.296,530.36,500.628,547.913z"/>
	<path fill="#1D35AD" d="M500.318,547.758l-132.186,77.819c-27.027,15.844-60.425,15.844-87.451,0.156L117.585,530.36
		c-29.668-17.396-22.059-50.639,7.609-68.034l153.777-90.558c13.669-8.077,21.9,3.573,35.569,11.65l176.922,98.479
		C521.132,499.139,529.986,530.36,500.318,547.758z"/>
	<path fill="#1D35AC" d="M500.161,547.602l-132.029,77.82c-26.872,15.844-60.27,15.844-87.141,0.156l-163.097-95.373
		c-29.668-17.241-22.058-50.793,7.455-68.189l153.467-90.401c13.669-8.077,22.057,3.417,35.727,11.339l176.766,98.479
		C520.977,498.983,529.675,530.205,500.161,547.602z"/>
	<path fill="#1D35AC" d="M499.852,547.602l-132.03,77.665c-26.872,15.845-60.112,15.845-86.829,0.155l-162.785-95.217
		c-29.514-17.241-22.212-50.793,7.3-68.189l153.312-90.247c13.669-8.077,22.058,3.262,35.727,11.184l176.766,98.479
		C520.821,498.828,529.365,530.205,499.852,547.602z"/>
	<path fill="#1D35AB" d="M499.54,547.446l-131.875,77.665c-26.717,15.688-59.803,15.844-86.675,0.154l-162.63-95.062
		c-29.513-17.241-22.366-50.948,7.146-68.189l153.156-90.092c13.669-8.077,22.211,2.951,35.881,11.028l176.608,98.479
		C520.666,498.518,529.054,530.205,499.54,547.446z"/>
	<path fill="#1C34AA" d="M499.386,547.446l-131.722,77.51c-26.716,15.688-59.802,15.688-86.519,0.155L118.672,530.05
		c-29.513-17.242-22.367-50.948,6.99-68.346l152.845-89.936c13.669-8.077,22.366,2.796,36.036,10.873l176.453,98.479
		C520.51,498.362,528.741,530.05,499.386,547.446z"/>
	<path fill="#1C34A9" d="M499.073,547.291l-131.72,77.51c-26.563,15.688-59.491,15.688-86.052,0.155l-162.32-94.906
		c-29.513-17.242-22.521-51.104,6.99-68.346l152.689-89.936c13.514-7.922,22.366,2.641,36.035,10.563l176.299,98.479
		C520.355,498.207,528.432,530.05,499.073,547.291z"/>
	<path fill="#1C34A8" d="M498.764,547.291l-131.564,77.51c-26.405,15.533-59.336,15.688-85.74,0.155l-162.32-95.062
		c-29.356-17.242-22.521-51.104,6.835-68.347l152.533-89.78c13.515-7.922,22.522,2.485,36.191,10.407l176.145,98.636
		C520.198,498.052,528.12,529.895,498.764,547.291z"/>
	<path fill="#1B33A7" d="M498.609,547.136l-131.41,77.354c-26.405,15.533-59.181,15.533-85.586,0.154l-162.01-94.75
		c-29.356-17.242-22.678-51.26,6.681-68.502l152.223-89.625c13.515-7.922,22.679,2.33,36.191,10.252l175.988,98.634
		C520.044,497.741,527.811,529.895,498.609,547.136z"/>
	<path fill="#1B33A6" d="M498.298,547.136L366.889,624.49c-26.251,15.533-58.87,15.533-85.275,0.154l-161.854-94.75
		c-29.357-17.088-22.678-51.26,6.524-68.502l152.066-89.47c13.515-7.922,22.679,2.019,36.348,10.096l175.988,98.634
		C519.889,497.586,527.5,529.895,498.298,547.136z"/>
	<path fill="#1B33A5" d="M497.988,546.98L366.734,624.18c-26.251,15.378-58.715,15.533-84.965,0.155l-161.854-94.596
		c-29.201-17.087-22.833-51.414,6.369-68.501l151.911-89.314c13.515-7.922,22.834,1.864,36.349,9.786l175.833,98.634
		C519.734,497.431,527.19,529.739,497.988,546.98z"/>
	<path fill="#1B32A4" d="M497.831,546.825L366.577,624.18c-26.096,15.378-58.56,15.378-84.81,0.155l-161.543-94.596
		c-29.202-17.087-22.834-51.414,6.213-68.656l151.603-89.314c13.514-7.922,22.988,1.708,36.503,9.63l175.832,98.634
		C519.577,497.12,527.033,529.739,497.831,546.825z"/>
	<path fill="#1A32A3" d="M497.522,546.825l-131.099,77.199c-26.097,15.378-58.404,15.378-84.499,0.154l-161.543-94.439
		c-29.202-17.087-22.989-51.569,6.213-68.656l151.446-89.159c13.514-7.922,23.145,1.553,36.503,9.475l175.678,98.634
		C519.423,496.965,526.724,529.584,497.522,546.825z"/>
	<path fill="#1A32A2" d="M497.211,546.67l-130.943,77.044c-25.94,15.222-58.249,15.378-84.188,0.155l-161.389-94.285
		c-29.201-17.087-23.145-51.57,6.059-68.656l151.291-89.004c13.514-7.922,23.145,1.398,36.657,9.32l175.522,98.634
		C519.268,496.81,526.412,529.584,497.211,546.67z"/>
	<path fill="#1A31A1" d="M497.056,546.67l-130.788,77.044c-25.94,15.222-58.094,15.222-84.033,0.155l-161.231-94.285
		c-29.047-17.087-23.146-51.725,5.901-68.813l150.98-88.849c13.514-7.922,23.3,1.243,36.813,9.009l175.367,98.634
		C519.113,496.653,526.103,529.584,497.056,546.67z"/>
	<path fill="#1A31A0" d="M496.744,546.515l-130.788,77.044c-25.784,15.223-57.782,15.223-83.723,0.155l-160.922-94.285
		c-29.047-16.932-23.3-51.726,5.747-68.812l150.825-88.849c13.358-7.922,23.455,0.932,36.813,8.854l175.212,98.635
		C518.956,496.343,525.791,529.429,496.744,546.515z"/>
	<path fill="#19319F" d="M496.434,546.515l-130.632,76.89c-25.785,15.222-57.628,15.222-83.412,0.154l-160.922-94.13
		c-29.047-16.932-23.3-51.881,5.592-68.812l150.67-88.693c13.358-7.922,23.455,0.777,36.969,8.698l175.212,98.635
		C518.802,496.188,525.481,529.429,496.434,546.515z"/>
	<path fill="#19319E" d="M496.279,546.359l-130.477,76.889c-25.63,15.066-57.474,15.222-83.102,0.155l-160.923-94.13
		c-29.047-16.933-23.454-51.882,5.438-68.968l150.359-88.538c13.357-7.922,23.609,0.621,36.969,8.543l175.212,98.79
		C518.647,496.032,525.17,529.429,496.279,546.359z"/>
	<path fill="#19309D" d="M495.968,546.359L365.49,623.092c-25.63,15.066-57.316,15.066-82.945,0.155l-160.611-93.975
		c-28.892-16.933-23.455-52.036,5.438-68.968l150.204-88.383c13.357-7.922,23.766,0.466,37.123,8.232L489.6,478.791
		C518.647,495.877,524.86,529.273,495.968,546.359z"/>
	<path fill="#18309C" d="M495.656,546.204l-130.32,76.733c-25.476,15.065-57.162,15.065-82.636,0.154l-160.456-93.818
		c-28.892-16.933-23.61-52.036,5.28-68.968l150.05-88.228c13.357-7.922,23.766,0.311,37.123,8.077l174.746,98.79
		C518.49,495.566,524.549,529.273,495.656,546.204z"/>
	<path fill="#18309B" d="M495.502,546.204l-130.166,76.733c-25.476,14.91-56.853,15.065-82.325,0.154l-160.456-93.975
		c-28.891-16.932-23.765-52.191,5.126-69.122l149.738-88.228c13.357-7.922,23.921,0.155,37.278,7.922l174.746,98.791
		C518.336,495.411,524.239,529.118,495.502,546.204z"/>
	<path fill="#182F9A" d="M495.192,546.049l-130.166,76.577c-25.319,14.912-56.696,14.912-82.17,0.155L122.71,529.118
		c-28.892-16.933-23.766-52.191,4.971-69.122l149.583-88.072c13.358-7.767,24.076-0.155,37.279,7.767l174.745,98.635
		C518.181,495.256,523.928,529.118,495.192,546.049z"/>
	<path fill="#182F99" d="M494.881,546.049l-130.013,76.577c-25.317,14.912-56.54,14.912-81.857,0.155l-159.989-93.663
		c-28.735-16.776-23.921-52.347,4.814-69.277l149.428-87.917c13.358-7.767,24.076-0.311,37.435,7.456l174.437,98.79
		C518.026,495.101,523.773,529.118,494.881,546.049z"/>
	<path fill="#172F98" d="M494.726,545.894l-129.856,76.423c-25.163,14.757-56.385,14.911-81.548,0.154l-159.988-93.508
		c-28.736-16.775-23.921-52.347,4.813-69.277l149.117-87.762c13.203-7.767,24.23-0.466,37.59,7.3l174.28,98.79
		C517.868,494.79,523.462,528.963,494.726,545.894z"/>
	<path fill="#172E97" d="M494.414,545.894l-129.855,76.423c-25.008,14.757-56.229,14.757-81.237,0.154l-159.834-93.508
		c-28.735-16.775-24.075-52.502,4.659-69.277l148.962-87.762c13.203-7.767,24.387-0.621,37.59,7.145l174.125,98.792
		C517.714,494.635,523.151,528.963,494.414,545.894z"/>
	<path fill="#172E96" d="M494.105,545.738L364.404,622.16c-25.008,14.757-55.919,14.757-81.082,0.155l-159.522-93.354
		c-28.736-16.776-24.076-52.502,4.505-69.433l148.806-87.606c13.203-7.767,24.387-0.777,37.745,6.99l174.125,98.79
		C517.559,494.479,522.84,528.963,494.105,545.738z"/>
	<path fill="#172E95" d="M493.948,545.738l-129.701,76.267c-24.853,14.603-55.764,14.757-80.771,0.155l-159.368-93.354
		c-28.581-16.774-24.23-52.655,4.351-69.432l148.495-87.451c13.202-7.767,24.541-1.087,37.744,6.679l173.971,98.79
		C517.404,494.324,522.53,528.807,493.948,545.738z"/>
	<path fill="#162D94" d="M493.638,545.583L364.093,621.85c-24.854,14.603-55.608,14.603-80.461,0.155l-159.368-93.198
		c-28.581-16.774-24.387-52.655,4.194-69.432l148.34-87.296c13.203-7.767,24.696-1.243,37.899,6.524l173.813,98.79
		C517.247,494.014,522.219,528.807,493.638,545.583z"/>
	<path fill="#162D93" d="M493.326,545.583l-129.39,76.111c-24.697,14.601-55.453,14.601-80.306,0.154l-159.058-93.197
		c-28.58-16.775-24.388-52.813,4.038-69.588l148.186-87.141c13.203-7.767,24.696-1.398,37.899,6.369l173.658,98.79
		C517.093,493.857,521.907,528.807,493.326,545.583z"/>
	<path fill="#162D92" d="M493.172,545.428l-129.234,76.111c-24.697,14.445-55.297,14.601-79.994,0.155l-159.059-93.043
		c-28.58-16.62-24.542-52.813,4.039-69.589l147.874-87.14c13.203-7.767,24.853-1.553,38.056,6.213l173.658,98.79
		C516.938,493.702,521.598,528.651,493.172,545.428z"/>
	<path fill="#152D91" d="M492.862,545.428l-129.233,76.111c-24.542,14.445-55.144,14.445-79.685,0.155L125.04,528.651
		c-28.425-16.62-24.542-52.968,3.884-69.743l147.719-86.984c13.203-7.767,25.008-1.708,38.056,5.902l173.503,98.79
		C516.781,493.547,521.286,528.651,492.862,545.428z"/>
	<path fill="#152C90" d="M492.551,545.271l-129.079,75.956c-24.542,14.445-54.831,14.445-79.373,0.155l-158.748-92.888
		c-28.425-16.62-24.697-52.967,3.729-69.743l147.563-86.829c13.203-7.767,25.008-1.864,38.211,5.747l173.348,98.945
		C516.627,493.236,520.977,528.496,492.551,545.271z"/>
	<path fill="#152C8F" d="M492.396,545.271l-129.079,75.956c-24.387,14.445-54.676,14.445-79.218,0.155l-158.437-92.888
		c-28.427-16.62-24.698-53.123,3.571-69.743l147.253-86.674c13.049-7.767,25.163-2.175,38.211,5.592l173.192,98.945
		C516.472,493.081,520.666,528.496,492.396,545.271z"/>
	<path fill="#152C8E" d="M492.085,545.117L363.16,620.918c-24.387,14.29-54.521,14.445-78.906,0.155l-158.438-92.577
		c-28.426-16.62-24.854-53.123,3.417-69.743l147.099-86.519c13.048-7.767,25.317-2.33,38.365,5.437l173.192,98.945
		C516.317,492.926,520.355,528.496,492.085,545.117z"/>
	<path fill="#142B8D" d="M491.775,545.117l-128.769,75.801c-24.231,14.29-54.365,14.29-78.597,0.155l-158.281-92.732
		c-28.271-16.62-24.854-53.277,3.417-69.897l146.941-86.52c13.049-7.767,25.318-2.485,38.521,5.126l173.037,98.945
		C516.16,492.771,520.198,528.341,491.775,545.117z"/>
	<path fill="#142B8C" d="M491.618,544.961L362.85,620.763c-24.231,14.29-54.21,14.29-78.44,0.155l-157.972-92.577
		c-28.271-16.465-25.008-53.278,3.263-69.897l146.632-86.363c13.048-7.611,25.474-2.641,38.521,4.971l172.882,98.945
		C516.006,492.615,519.889,528.341,491.618,544.961z"/>
	<path fill="#142B8B" d="M491.309,544.961l-128.613,75.646c-24.076,14.135-53.898,14.289-78.131,0.154L126.594,528.34
		c-28.271-16.465-25.163-53.434,3.106-69.897l146.477-86.208c13.047-7.611,25.629-2.796,38.677,4.815l172.727,98.945
		C515.851,492.305,519.577,528.341,491.309,544.961z"/>
	<path fill="#142A8A" d="M491.153,544.806l-128.613,75.646c-24.075,14.135-53.743,14.135-77.819,0.155l-157.815-92.422
		c-28.271-16.466-25.162-53.435,2.951-70.055l146.321-86.053c13.047-7.611,25.629-3.106,38.677,4.66l172.571,98.944
		C515.696,492.149,519.268,528.186,491.153,544.806z"/>
	<path fill="#132A89" d="M490.842,544.806l-128.457,75.646c-23.921,14.135-53.589,14.135-77.51,0.155L127.06,528.186
		c-28.114-16.465-25.317-53.589,2.796-70.054l146.012-86.053c13.047-7.611,25.783-3.262,38.831,4.349l172.571,98.946
		C515.539,491.994,518.956,528.186,490.842,544.806z"/>
	<path fill="#132A88" d="M490.531,544.65l-128.303,75.49c-23.92,13.979-53.433,14.136-77.354,0.155l-157.504-92.11
		c-28.114-16.465-25.318-53.589,2.641-70.054l145.855-85.897c13.047-7.611,25.938-3.417,38.831,4.194l172.416,98.946
		C515.385,491.839,518.647,528.186,490.531,544.65z"/>
	<path fill="#132987" d="M490.376,544.65l-128.147,75.49c-23.765,13.979-53.277,13.979-77.043,0.155L127.681,528.03
		c-28.114-16.311-25.474-53.589,2.485-70.055l145.7-85.742c12.892-7.611,25.938-3.572,38.986,4.039l172.261,98.945
		C515.229,491.684,518.336,528.186,490.376,544.65z"/>
	<path fill="#122986" d="M490.066,544.495l-128.146,75.49c-23.609,13.979-53.122,13.979-76.732,0.155l-157.35-92.11
		c-28.114-16.465-25.475-53.744,2.484-70.209l145.39-85.587c12.893-7.611,26.096-3.728,38.987,3.883l172.105,98.944
		C515.073,491.373,518.026,528.03,490.066,544.495z"/>
	<path fill="#122985" d="M489.755,544.495L361.763,619.83c-23.61,13.825-52.813,13.979-76.577,0.155L128.147,528.03
		c-27.959-16.311-25.629-53.899,2.33-70.209L275.71,372.39c12.893-7.611,26.251-3.883,39.144,3.573l172.105,99.101
		C514.918,491.217,517.714,528.03,489.755,544.495z"/>
	<path fill="#122984" d="M489.6,544.34l-127.837,75.335c-23.454,13.824-52.656,13.824-76.267,0.155l-157.038-91.8
		c-27.96-16.311-25.785-53.899,2.174-70.364l145.078-85.432c12.893-7.611,26.251-4.194,39.299,3.417l171.95,99.1
		C514.763,491.063,517.404,528.03,489.6,544.34z"/>
	<path fill="#122883" d="M489.288,544.34l-127.837,75.18c-23.455,13.824-52.501,13.824-75.955,0.155l-156.884-91.8
		c-27.96-16.31-25.784-54.055,2.02-70.364L275.4,372.234c12.894-7.611,26.406-4.349,39.299,3.262l171.795,99.1
		C514.608,490.906,517.093,527.875,489.288,544.34z"/>
	<path fill="#112882" d="M488.979,544.34l-127.682,75.18c-23.301,13.824-52.347,13.824-75.646,0.155l-156.728-91.8
		c-27.96-16.31-25.94-54.055,1.863-70.52L275.4,372.234c12.894-7.611,26.563-4.504,39.454,3.107l171.795,99.101
		C514.451,490.751,516.781,527.875,488.979,544.34z"/>
	<path fill="#112881" d="M488.823,544.185l-127.525,75.024c-23.301,13.669-52.19,13.669-75.49,0.155l-156.572-91.489
		c-27.804-16.31-25.939-54.21,1.864-70.52l144.456-84.966c12.893-7.611,26.562-4.66,39.454,2.796l171.483,99.101
		C514.297,490.596,516.627,527.875,488.823,544.185z"/>
	<path fill="#112780" d="M488.512,544.185l-127.525,75.024c-23.145,13.669-51.88,13.669-75.18,0.155L129.39,527.72
		c-27.804-16.31-26.096-54.21,1.709-70.52L275.4,372.234c12.894-7.611,26.717-4.815,39.609,2.641l171.483,99.101
		C514.142,490.285,516.317,527.72,488.512,544.185z"/>
	<path fill="#11277F" d="M488.2,544.029l-127.37,75.023c-23.145,13.669-51.725,13.669-74.868,0.155L129.7,527.72
		c-27.805-16.31-26.097-54.364,1.554-70.675l143.99-84.811c12.893-7.611,26.871-4.971,39.608,2.485l171.329,99.256
		C513.987,490.13,516.006,527.72,488.2,544.029z"/>
	<path fill="#10277E" d="M488.046,544.029l-127.37,74.869c-22.989,13.514-51.569,13.669-74.714,0.154L130.011,527.72
		c-27.648-16.153-26.251-54.364,1.398-70.675l143.835-84.655c12.736-7.611,26.871-5.281,39.765,2.33l171.174,99.102
		C513.83,489.975,515.696,527.72,488.046,544.029z"/>
	<path fill="#10267D" d="M487.736,543.874l-127.215,74.869c-22.989,13.514-51.414,13.514-74.402,0.155L130.166,527.72
		c-27.648-16.153-26.406-54.521,1.243-70.675l143.68-84.5c12.737-7.456,27.026-5.437,39.765,2.02l171.019,99.101
		C513.676,489.819,515.385,527.72,487.736,543.874z"/>
	<path fill="#10267C" d="M487.425,543.874l-127.061,74.714c-22.834,13.514-51.259,13.514-74.093,0.155l-155.796-91.179
		c-27.647-16.154-26.405-54.521,1.243-70.83l143.369-84.345c12.736-7.456,27.183-5.592,39.92,1.864l171.019,99.101
		C513.521,489.664,515.073,527.564,487.425,543.874z"/>
	<path fill="#0F267B" d="M487.27,543.874l-126.904,74.714c-22.834,13.358-51.104,13.514-73.78,0.155l-155.952-91.179
		c-27.648-16.154-26.562-54.677,1.088-70.83l143.214-84.345c12.737-7.456,27.183-5.747,40.075,1.709l170.861,99.101
		C513.365,489.509,514.763,527.564,487.27,543.874z"/>
	<path fill="#0F257A" d="M486.959,543.719l-126.904,74.714c-22.679,13.358-50.793,13.358-73.627,0.155l-155.484-91.022
		c-27.493-16.154-26.562-54.677,0.933-70.83l143.059-84.189c12.737-7.456,27.338-5.902,40.075,1.554l170.708,99.101
		C513.21,489.354,514.451,527.564,486.959,543.719z"/>
	<path fill="#0F2579" d="M486.649,543.719L359.9,618.277c-22.679,13.357-50.638,13.357-73.315,0.154l-155.329-90.867
		c-27.494-16.154-26.717-54.831,0.775-70.985l142.748-84.034c12.737-7.456,27.493-6.213,40.23,1.243l170.552,99.256
		C513.055,489.043,514.142,527.564,486.649,543.719z"/>
	<path fill="#0F2578" d="M486.492,543.563L359.9,618.122c-22.522,13.203-50.481,13.358-73.005,0.155l-155.33-90.868
		c-27.493-15.999-26.717-54.831,0.621-70.986l142.593-83.878c12.737-7.456,27.493-6.368,40.23,1.087l170.396,99.256
		C512.9,488.888,513.83,527.409,486.492,543.563z"/>
	<path fill="#0E2577" d="M486.183,543.563l-126.595,74.403c-22.522,13.203-50.326,13.203-72.85,0.155l-155.175-90.713
		c-27.493-15.999-26.872-54.987,0.466-70.986l142.438-83.878c12.737-7.456,27.647-6.523,40.386,0.932l170.396,99.256
		C512.743,488.732,513.521,527.409,486.183,543.563z"/>
	<path fill="#0E2476" d="M485.87,543.563l-126.438,74.403c-22.367,13.203-50.171,13.203-72.538,0.155l-154.864-90.713
		c-27.338-15.999-27.026-54.987,0.467-71.143l142.127-83.722c12.582-7.456,27.804-6.679,40.386,0.776l170.241,99.256
		C512.588,488.576,513.21,527.409,485.87,543.563z"/>
	<path fill="#0E2475" d="M485.717,543.408l-126.284,74.402c-22.212,13.048-49.86,13.203-72.228,0.155l-154.864-90.558
		c-27.338-15.999-27.027-54.987,0.311-71.143l141.973-83.566c12.582-7.456,27.804-6.834,40.54,0.466l170.087,99.255
		C512.433,488.421,512.9,527.409,485.717,543.408z"/>
	<path fill="#0E2474" d="M485.406,543.408l-126.283,74.248c-22.212,13.047-49.704,13.047-71.916,0.154l-154.709-90.401
		c-27.338-15.999-27.184-55.144,0.154-71.143l141.816-83.412c12.582-7.456,27.959-6.99,40.541,0.311l169.931,99.255
		C512.278,488.266,512.743,527.409,485.406,543.408z"/>
	<path fill="#0D2373" d="M485.095,543.408l-126.128,74.248c-22.058,13.047-49.55,13.047-71.762,0.154l-154.555-90.401
		c-27.338-15.999-27.183-55.144,0-71.297l141.507-83.256c12.581-7.456,28.113-7.301,40.695,0.155l169.931,99.254
		C512.121,488.11,512.433,527.409,485.095,543.408z"/>
	<g>
		<path fill="#0D2372" d="M484.94,543.253L358.812,617.5c-22.057,13.048-49.395,13.048-71.451,0.156l-154.397-90.402
			c-27.184-15.999-27.338-55.298-0.155-71.297l141.352-83.256c12.582-7.456,28.113-7.456,40.852,0l169.774,99.255
			C511.967,487.955,512.121,527.254,484.94,543.253z"/>
	</g>
</g>
<g opacity="0.98">
	<path fill="#2E49ED" d="M525.948,464.345c19.571,11.961,19.728,31.223,0.155,43.184L357.57,610.821
		c-19.417,11.96-51.104,11.96-70.675,0L116.497,507.061c-19.571-11.96-19.728-31.221-0.155-43.182l168.533-103.294
		c19.416-11.96,51.104-11.96,70.675,0L525.948,464.345z"/>
</g>
<g enable-background="new    ">
	<g>
		<path id="SVGID_7_" fill="#F39800" d="M318.271,350.333l-0.155,30.134c-6.058-3.417-15.688-3.417-21.745,0l0.154-30.134
			C302.581,346.916,312.213,346.916,318.271,350.333z"/>
	</g>
	<g>
		<g>
			<defs>
				<path id="SVGID_8_" d="M318.271,350.333l-0.155,30.134c-6.058-3.417-15.688-3.417-21.745,0l0.154-30.134
					C302.581,346.916,312.213,346.916,318.271,350.333z"/>
			</defs>
			<clipPath id="SVGID_10_">
				<use xlink:href="#SVGID_8_"  overflow="visible"/>
			</clipPath>
			<g clip-path="url(#SVGID_10_)" enable-background="new    ">
				<path fill="#F39800" d="M318.271,350.333l-0.155,30.134c-6.058-3.417-15.688-3.417-21.745,0l0.154-30.134
					C302.581,346.916,312.213,346.916,318.271,350.333"/>
			</g>
		</g>
	</g>
</g>
<g>
	<g enable-background="new    ">
		<g enable-background="new    ">
			<g>
				<path id="SVGID_9_" fill="#2E49ED" d="M318.271,344.741l-0.155,30.134c-6.058-3.417-15.688-3.417-21.745,0l0.154-30.134
					C302.581,341.168,312.213,341.168,318.271,344.741z"/>
			</g>
			<g>
				<g>
					<defs>
						<path id="SVGID_12_" d="M318.271,344.741l-0.155,30.134c-6.058-3.417-15.688-3.417-21.745,0l0.154-30.134
							C302.581,341.168,312.213,341.168,318.271,344.741z"/>
					</defs>
					<clipPath id="SVGID_14_">
						<use xlink:href="#SVGID_12_"  overflow="visible"/>
					</clipPath>
					<g clip-path="url(#SVGID_14_)" enable-background="new    ">
						<path fill="#2E49ED" d="M318.271,344.741l-0.155,30.134c-6.058-3.417-15.688-3.417-21.745,0l0.154-30.134
							C302.581,341.168,312.213,341.168,318.271,344.741"/>
					</g>
				</g>
			</g>
		</g>
		<g>
			<polygon fill="#2E49ED" points="366.423,345.052 366.268,375.186 342.656,389.01 342.813,358.876 			"/>
		</g>
		<g>
			<polygon fill="#2E49ED" points="342.813,358.876 342.656,389.01 318.271,374.875 318.271,344.741 			"/>
		</g>
		<g>
			<polygon fill="#2E49ED" points="296.525,344.741 296.525,374.875 208.764,425.823 208.764,395.689 			"/>
		</g>
		<g>
			<polygon fill="#2E49ED" points="424.983,406.407 424.983,436.541 366.113,402.523 366.268,372.39 			"/>
		</g>
		<g>
			<polygon fill="#2E49ED" points="334.891,406.407 334.736,436.541 288.448,409.824 288.448,379.69 			"/>
		</g>
		<g>
			<polygon fill="#2E49ED" points="288.603,406.096 288.448,436.23 257.693,454.094 257.848,423.959 			"/>
		</g>
		<g>
			<polygon fill="#2E49ED" points="210.472,423.959 210.317,454.094 185.154,439.492 185.154,409.357 			"/>
		</g>
		<g>
			<polygon fill="#2E49ED" points="257.848,423.959 257.693,454.094 255.673,455.336 255.828,425.202 			"/>
		</g>
		<g>
			<polygon fill="#2E49ED" points="471.737,433.279 471.58,463.413 448.747,450.21 448.747,420.076 			"/>
		</g>
		<g>
			<polygon fill="#2E49ED" points="185.154,409.357 185.154,439.492 121.623,476.461 121.779,446.327 			"/>
		</g>
		<g>
			<polygon fill="#2E49ED" points="507.152,453.783 506.995,483.917 495.347,477.082 495.502,446.948 			"/>
		</g>
		<g enable-background="new    ">
			<g>
				<path id="SVGID_11_" fill="#2E49ED" d="M116.187,484.072l0.155-30.135c0-2.796,1.864-5.593,5.437-7.61l-0.154,30.134
					C118.051,478.636,116.187,481.276,116.187,484.072z"/>
			</g>
			<g>
				<g>
					<defs>
						<path id="SVGID_16_" d="M116.187,484.072l0.155-30.135c0-2.796,1.864-5.593,5.437-7.61l-0.154,30.134
							C118.051,478.636,116.187,481.276,116.187,484.072z"/>
					</defs>
					<clipPath id="SVGID_18_">
						<use xlink:href="#SVGID_16_"  overflow="visible"/>
					</clipPath>
					<g clip-path="url(#SVGID_18_)" enable-background="new    ">
						<path fill="#2E49ED" d="M121.779,446.327l-0.154,30.134c-3.572,2.175-5.438,4.815-5.438,7.611l0.155-30.135
							C116.187,451.143,118.051,448.502,121.779,446.327"/>
					</g>
				</g>
			</g>
		</g>
		<g>
			<polygon fill="#2E49ED" points="382.267,406.407 382.112,436.541 298.234,485.314 298.389,455.181 			"/>
		</g>
		<g enable-background="new    ">
			<g>
				<path id="SVGID_13_" fill="#2E49ED" d="M511.346,459.53l-0.155,30.134c0-2.175-1.397-4.194-4.194-5.902l0.155-30.135
					C509.948,455.336,511.346,457.511,511.346,459.53z"/>
			</g>
			<g>
				<g>
					<defs>
						<path id="SVGID_20_" d="M511.346,459.53l-0.155,30.134c0-2.175-1.397-4.194-4.194-5.902l0.155-30.135
							C509.948,455.336,511.346,457.511,511.346,459.53z"/>
					</defs>
					<clipPath id="SVGID_21_">
						<use xlink:href="#SVGID_20_"  overflow="visible"/>
					</clipPath>
					<g clip-path="url(#SVGID_21_)" enable-background="new    ">
						<path fill="#2E49ED" d="M511.346,459.53l-0.155,30.134c0-2.175-1.397-4.194-4.194-5.902l0.155-30.135
							C509.948,455.336,511.346,457.511,511.346,459.53"/>
					</g>
				</g>
			</g>
		</g>
		<g>
			<polygon fill="#2E49ED" points="255.828,425.202 255.673,455.336 182.513,497.896 182.513,467.763 			"/>
		</g>
		<g>
			<polygon fill="#2E49ED" points="182.513,467.763 182.513,497.896 158.747,484.228 158.747,454.094 			"/>
		</g>
		<g enable-background="new    ">
			<g>
				<path id="SVGID_15_" fill="#2E49ED" d="M82.636,484.072l0.155-30.135c0,7.767,5.126,15.688,15.377,21.592l-0.155,30.134
					C87.761,499.605,82.636,491.839,82.636,484.072z"/>
			</g>
			<g>
				<g>
					<defs>
						<path id="SVGID_22_" d="M82.636,484.072l0.155-30.135c0,7.767,5.126,15.688,15.377,21.592l-0.155,30.134
							C87.761,499.605,82.636,491.839,82.636,484.072z"/>
					</defs>
					<clipPath id="SVGID_23_">
						<use xlink:href="#SVGID_22_"  overflow="visible"/>
					</clipPath>
					<g clip-path="url(#SVGID_23_)" enable-background="new    ">
						<path fill="#2E49ED" d="M98.168,475.529l-0.155,30.134c-10.252-5.902-15.377-13.824-15.377-21.591l0.155-30.135
							C82.791,461.704,87.917,469.471,98.168,475.529"/>
					</g>
				</g>
			</g>
		</g>
		<g enable-background="new    ">
			<g>
				<path id="SVGID_17_" fill="#2E49ED" d="M544.741,459.686l-0.155,30.135c0,6.989-4.659,13.979-13.824,19.416l0.155-30.135
					C540.081,473.665,544.741,466.675,544.741,459.686z"/>
			</g>
			<g>
				<g>
					<defs>
						<path id="SVGID_24_" d="M544.741,459.686l-0.155,30.135c0,6.989-4.659,13.979-13.824,19.416l0.155-30.135
							C540.081,473.665,544.741,466.675,544.741,459.686z"/>
					</defs>
					<clipPath id="SVGID_25_">
						<use xlink:href="#SVGID_24_"  overflow="visible"/>
					</clipPath>
					<g clip-path="url(#SVGID_25_)" enable-background="new    ">
						<path fill="#2E49ED" d="M544.741,459.686l-0.155,30.135c0,6.989-4.659,13.979-13.824,19.416l0.155-30.135
							C540.081,473.665,544.741,466.675,544.741,459.686"/>
					</g>
				</g>
			</g>
		</g>
		<g>
			<polygon fill="#2E49ED" points="448.747,420.076 448.747,450.21 319.669,525.079 319.823,494.945 			"/>
		</g>
		<g>
			<polygon fill="#2E49ED" points="319.823,494.945 319.669,525.079 250.858,485.314 250.858,455.181 			"/>
		</g>
		<g>
			<polygon fill="#2E49ED" points="409.605,496.965 409.448,527.099 385.684,513.274 385.839,483.14 			"/>
		</g>
		<g>
			<polygon fill="#2E49ED" points="495.502,446.948 495.347,477.082 409.448,527.099 409.605,496.965 			"/>
		</g>
		<g>
			<polygon fill="#2E49ED" points="249.46,507.683 249.305,537.816 204.104,511.721 204.259,481.587 			"/>
		</g>
		<g>
			<polygon fill="#2E49ED" points="388.169,534.399 388.014,564.533 342.656,538.438 342.656,508.304 			"/>
		</g>
		<g>
			<polygon fill="#2E49ED" points="273.226,521.507 273.07,551.641 249.15,565.465 249.305,535.331 			"/>
		</g>
		<g>
			<polygon fill="#2E49ED" points="312.99,544.495 312.834,574.63 273.07,551.641 273.226,521.507 			"/>
		</g>
		<g>
			<polygon fill="#2E49ED" points="336.6,530.671 336.445,560.805 312.834,574.63 312.99,544.495 			"/>
		</g>
		<g>
			<polygon fill="#2E49ED" points="390.189,560.805 390.189,590.939 366.423,577.271 366.423,547.136 			"/>
		</g>
		<g>
			<polygon fill="#2E49ED" points="530.916,479.102 530.916,509.235 390.189,590.939 390.189,560.805 			"/>
		</g>
		<g>
			<path fill="#0F6FFC" d="M530.762,439.958c18.64,10.718,18.795,28.271,0.155,38.988l-140.729,81.703l-23.766-13.669l21.746-12.581
				l-45.513-26.251l23.61-13.669l45.512,26.249l95.372-55.451c5.438-3.263,5.438-8.389,0-11.65l-11.648-6.679l-85.897,49.86
				l-23.766-13.669l85.896-49.86l-22.833-13.203L319.98,495.101l-68.967-39.765l84.033-48.773l-46.6-26.872l23.61-13.669
				l70.209,40.541l-83.878,48.773l21.28,12.271l105.313-61.2l-58.87-34.018l23.61-13.669L530.762,439.958z"/>
		</g>
		<g>
			<polygon fill="#2E49ED" points="365.49,575.096 365.49,605.229 357.413,609.89 357.57,579.755 			"/>
		</g>
		<g>
			<polygon fill="#2E49ED" points="278.973,579.755 278.818,609.89 98.168,505.663 98.168,475.529 			"/>
		</g>
		<g enable-background="new    ">
			<g>
				<path id="SVGID_19_" fill="#2E49ED" d="M357.57,579.755l-0.155,30.135c-21.591,12.581-56.852,12.581-78.597,0l0.155-30.135
					C300.719,592.337,335.979,592.337,357.57,579.755z"/>
			</g>
			<g>
				<g>
					<defs>
						<path id="SVGID_26_" d="M357.57,579.755l-0.155,30.135c-21.591,12.581-56.852,12.581-78.597,0l0.155-30.135
							C300.719,592.337,335.979,592.337,357.57,579.755z"/>
					</defs>
					<clipPath id="SVGID_27_">
						<use xlink:href="#SVGID_26_"  overflow="visible"/>
					</clipPath>
					<g clip-path="url(#SVGID_27_)" enable-background="new    ">
						<path fill="#2E49ED" d="M357.57,579.755l-0.155,30.135c-21.591,12.581-56.852,12.581-78.597,0l0.155-30.135
							C300.719,592.337,335.979,592.337,357.57,579.755"/>
					</g>
				</g>
			</g>
		</g>
		<g>
			<path fill="#0F6FFC" d="M366.423,345.052l-23.61,13.669l-24.387-14.135c-6.059-3.417-15.688-3.417-21.746,0l-87.761,50.948
				l25.317,14.601l30.756-17.863l23.766,13.669l-30.91,18.018l-2.02,1.243l-73.16,42.561l-23.767-13.669l51.726-29.979
				l-25.318-14.602l-63.53,36.813c-7.301,4.192-7.301,11.184,0.155,15.377l103.761,59.803l23.922-13.824l-45.201-26.096
				l23.609-13.669l57.006,32.93l11.806,6.835l39.765,22.988l-23.61,13.669l-39.765-22.988l-23.92,13.824l53.276,30.755
				c8.698,4.972,22.68,4.972,31.223,0l7.922-4.659l23.766,13.67l-7.922,4.658c-21.591,12.582-56.851,12.582-78.597,0L98.168,475.529
				c-20.503-11.807-20.503-31.066-0.312-42.871l174.901-101.586c18.95-11.029,50.017-11.029,69.122,0L366.423,345.052z"/>
		</g>
	</g>
</g>
<g>
	
		<linearGradient id="SVGID_28_" gradientUnits="userSpaceOnUse" x1="145.4397" y1="267.7842" x2="402.5954" y2="267.7842" gradientTransform="matrix(1.5533 0 0 1.5533 16.2464 -29.6559)">
		<stop  offset="0" style="stop-color:#DDFFFF"/>
		<stop  offset="0.8822" style="stop-color:#FFFFFF;stop-opacity:0"/>
		<stop  offset="1" style="stop-color:#F5FFFF;stop-opacity:0"/>
	</linearGradient>
	<polygon fill="url(#SVGID_28_)" points="347.318,386.214 366.113,397.242 366.268,375.341 	"/>
	
		<linearGradient id="SVGID_29_" gradientUnits="userSpaceOnUse" x1="145.4397" y1="321.4341" x2="402.5856" y2="321.4341" gradientTransform="matrix(1.5533 0 0 1.5533 16.2464 -29.6559)">
		<stop  offset="0" style="stop-color:#DDFFFF"/>
		<stop  offset="0.8822" style="stop-color:#FFFFFF;stop-opacity:0"/>
		<stop  offset="1" style="stop-color:#F5FFFF;stop-opacity:0"/>
	</linearGradient>
	<polygon fill="url(#SVGID_29_)" points="250.858,481.121 250.858,458.132 230.976,469.781 	"/>
	
		<linearGradient id="SVGID_30_" gradientUnits="userSpaceOnUse" x1="145.4509" y1="315.5342" x2="402.657" y2="315.5342" gradientTransform="matrix(1.5533 0 0 1.5533 16.2464 -29.6559)">
		<stop  offset="0" style="stop-color:#DDFFFF"/>
		<stop  offset="0.8822" style="stop-color:#FFFFFF;stop-opacity:0"/>
		<stop  offset="1" style="stop-color:#F5FFFF;stop-opacity:0"/>
	</linearGradient>
	<path fill="url(#SVGID_30_)" d="M150.981,459.375c2.485,2.329,5.126,4.659,7.768,6.834v-11.494L150.981,459.375z"/>
	
		<linearGradient id="SVGID_31_" gradientUnits="userSpaceOnUse" x1="145.4431" y1="338.5342" x2="402.587" y2="338.5342" gradientTransform="matrix(1.5533 0 0 1.5533 16.2464 -29.6559)">
		<stop  offset="0" style="stop-color:#DDFFFF"/>
		<stop  offset="0.8822" style="stop-color:#FFFFFF;stop-opacity:0"/>
		<stop  offset="1" style="stop-color:#F5FFFF;stop-opacity:0"/>
	</linearGradient>
	<polygon fill="url(#SVGID_31_)" points="385.684,505.663 385.839,486.713 369.373,496.343 	"/>
	
		<linearGradient id="SVGID_32_" gradientUnits="userSpaceOnUse" x1="145.4397" y1="290.584" x2="402.5954" y2="290.584" gradientTransform="matrix(1.5533 0 0 1.5533 16.2464 -29.6559)">
		<stop  offset="0" style="stop-color:#DDFFFF"/>
		<stop  offset="0.8822" style="stop-color:#FFFFFF;stop-opacity:0"/>
		<stop  offset="1" style="stop-color:#F5FFFF;stop-opacity:0"/>
	</linearGradient>
	<polygon fill="url(#SVGID_32_)" points="288.448,433.435 308.796,421.63 288.448,409.979 	"/>
	
		<linearGradient id="SVGID_33_" gradientUnits="userSpaceOnUse" x1="145.4417" y1="270.1338" x2="402.5856" y2="270.1338" gradientTransform="matrix(1.5533 0 0 1.5533 16.2464 -29.6559)">
		<stop  offset="0" style="stop-color:#DDFFFF"/>
		<stop  offset="0.8822" style="stop-color:#FFFFFF;stop-opacity:0"/>
		<stop  offset="1" style="stop-color:#F5FFFF;stop-opacity:0"/>
	</linearGradient>
	<path fill="url(#SVGID_33_)" d="M265.459,392.894l22.987,13.202V379.69l10.098-5.903c-0.777,0.311-1.398,0.622-2.021,0.932
		L265.459,392.894z"/>
	
		<linearGradient id="SVGID_34_" gradientUnits="userSpaceOnUse" x1="145.4402" y1="333.6338" x2="402.5959" y2="333.6338" gradientTransform="matrix(1.5533 0 0 1.5533 16.2464 -29.6559)">
		<stop  offset="0" style="stop-color:#DDFFFF"/>
		<stop  offset="0.8822" style="stop-color:#FFFFFF;stop-opacity:0"/>
		<stop  offset="1" style="stop-color:#F5FFFF;stop-opacity:0"/>
	</linearGradient>
	<path fill="url(#SVGID_34_)" d="M197.424,489.198c2.175,0.932,4.505,1.862,6.835,2.796v-6.835L197.424,489.198z"/>
	
		<linearGradient id="SVGID_35_" gradientUnits="userSpaceOnUse" x1="145.4397" y1="290.4839" x2="402.5954" y2="290.4839" gradientTransform="matrix(1.5533 0 0 1.5533 16.2464 -29.6559)">
		<stop  offset="0" style="stop-color:#DDFFFF"/>
		<stop  offset="0.8822" style="stop-color:#FFFFFF;stop-opacity:0"/>
		<stop  offset="1" style="stop-color:#F5FFFF;stop-opacity:0"/>
	</linearGradient>
	<polygon fill="url(#SVGID_35_)" points="382.112,431.26 399.041,421.474 382.267,411.844 	"/>
	
		<linearGradient id="SVGID_36_" gradientUnits="userSpaceOnUse" x1="145.4417" y1="249.8716" x2="402.5883" y2="249.8716" gradientTransform="matrix(1.5533 0 0 1.5533 16.2464 -29.6559)">
		<stop  offset="0" style="stop-color:#DDFFFF"/>
		<stop  offset="0.8822" style="stop-color:#FFFFFF;stop-opacity:0"/>
		<stop  offset="1" style="stop-color:#F5FFFF;stop-opacity:0"/>
	</linearGradient>
	<path fill="url(#SVGID_36_)" d="M296.525,344.741l-0.154,30.134c0.621-0.311,1.396-0.776,2.02-0.932l13.514-7.921l6.059,3.572
		v-24.853C312.213,341.168,302.581,341.168,296.525,344.741z"/>
	
		<linearGradient id="SVGID_37_" gradientUnits="userSpaceOnUse" x1="145.4397" y1="254.4839" x2="402.5954" y2="254.4839" gradientTransform="matrix(1.5533 0 0 1.5533 16.2464 -29.6559)">
		<stop  offset="0" style="stop-color:#DDFFFF"/>
		<stop  offset="0.8822" style="stop-color:#FFFFFF;stop-opacity:0"/>
		<stop  offset="1" style="stop-color:#F5FFFF;stop-opacity:0"/>
	</linearGradient>
	<polygon fill="url(#SVGID_37_)" points="342.656,383.574 347.318,386.214 366.268,375.341 366.268,372.39 366.268,372.39 
		366.423,345.052 342.813,358.876 	"/>
	
		<linearGradient id="SVGID_38_" gradientUnits="userSpaceOnUse" x1="145.4397" y1="253.5342" x2="402.5954" y2="253.5342" gradientTransform="matrix(1.5533 0 0 1.5533 16.2464 -29.6559)">
		<stop  offset="0" style="stop-color:#DDFFFF"/>
		<stop  offset="0.8822" style="stop-color:#FFFFFF;stop-opacity:0"/>
		<stop  offset="1" style="stop-color:#F5FFFF;stop-opacity:0"/>
	</linearGradient>
	<polygon fill="url(#SVGID_38_)" points="318.271,344.741 318.271,369.438 342.656,383.574 342.813,358.876 	"/>
	
		<linearGradient id="SVGID_39_" gradientUnits="userSpaceOnUse" x1="145.4402" y1="262.1343" x2="402.5937" y2="262.1343" gradientTransform="matrix(1.5533 0 0 1.5533 16.2464 -29.6559)">
		<stop  offset="0" style="stop-color:#DDFFFF"/>
		<stop  offset="0.8822" style="stop-color:#FFFFFF;stop-opacity:0"/>
		<stop  offset="1" style="stop-color:#F5FFFF;stop-opacity:0"/>
	</linearGradient>
	<polygon fill="url(#SVGID_39_)" points="296.525,344.741 208.764,395.689 234.082,410.291 264.682,392.427 265.459,392.894 
		296.525,374.875 	"/>
	
		<linearGradient id="SVGID_40_" gradientUnits="userSpaceOnUse" x1="145.4397" y1="274.6338" x2="402.5954" y2="274.6338" gradientTransform="matrix(1.5533 0 0 1.5533 16.2464 -29.6559)">
		<stop  offset="0" style="stop-color:#DDFFFF"/>
		<stop  offset="0.8822" style="stop-color:#FFFFFF;stop-opacity:0"/>
		<stop  offset="1" style="stop-color:#F5FFFF;stop-opacity:0"/>
	</linearGradient>
	<polygon fill="url(#SVGID_40_)" points="366.113,397.242 382.267,406.407 382.267,411.844 399.041,421.474 424.983,406.407 
		366.268,372.39 366.268,375.341 	"/>
	
		<linearGradient id="SVGID_41_" gradientUnits="userSpaceOnUse" x1="145.4397" y1="277.0342" x2="402.5954" y2="277.0342" gradientTransform="matrix(1.5533 0 0 1.5533 16.2464 -29.6559)">
		<stop  offset="0" style="stop-color:#DDFFFF"/>
		<stop  offset="0.8822" style="stop-color:#FFFFFF;stop-opacity:0"/>
		<stop  offset="1" style="stop-color:#F5FFFF;stop-opacity:0"/>
	</linearGradient>
	<polygon fill="url(#SVGID_41_)" points="288.603,406.096 288.448,409.979 308.796,421.63 334.891,406.407 288.448,379.69 
		288.448,406.096 	"/>
	
		<linearGradient id="SVGID_42_" gradientUnits="userSpaceOnUse" x1="145.4402" y1="295.084" x2="402.5896" y2="295.084" gradientTransform="matrix(1.5533 0 0 1.5533 16.2464 -29.6559)">
		<stop  offset="0" style="stop-color:#DDFFFF"/>
		<stop  offset="0.8822" style="stop-color:#FFFFFF;stop-opacity:0"/>
		<stop  offset="1" style="stop-color:#F5FFFF;stop-opacity:0"/>
	</linearGradient>
	<polygon fill="url(#SVGID_42_)" points="288.603,406.096 257.848,423.959 257.693,451.298 288.448,433.435 288.448,409.979 	"/>
	
		<linearGradient id="SVGID_43_" gradientUnits="userSpaceOnUse" x1="145.4392" y1="292.084" x2="402.5872" y2="292.084" gradientTransform="matrix(1.5533 0 0 1.5533 16.2464 -29.6559)">
		<stop  offset="0" style="stop-color:#DDFFFF"/>
		<stop  offset="0.8822" style="stop-color:#FFFFFF;stop-opacity:0"/>
		<stop  offset="1" style="stop-color:#F5FFFF;stop-opacity:0"/>
	</linearGradient>
	<polygon fill="url(#SVGID_43_)" points="210.472,423.959 185.154,409.357 185.154,438.716 	"/>
	
		<linearGradient id="SVGID_44_" gradientUnits="userSpaceOnUse" x1="145.4397" y1="301.1836" x2="402.5954" y2="301.1836" gradientTransform="matrix(1.5533 0 0 1.5533 16.2464 -29.6559)">
		<stop  offset="0" style="stop-color:#DDFFFF"/>
		<stop  offset="0.8822" style="stop-color:#FFFFFF;stop-opacity:0"/>
		<stop  offset="1" style="stop-color:#F5FFFF;stop-opacity:0"/>
	</linearGradient>
	<polygon fill="url(#SVGID_44_)" points="255.828,425.202 255.673,452.385 257.693,451.298 257.848,423.959 	"/>
	
		<linearGradient id="SVGID_45_" gradientUnits="userSpaceOnUse" x1="145.4255" y1="298.084" x2="402.5812" y2="298.084" gradientTransform="matrix(1.5533 0 0 1.5533 16.2464 -29.6559)">
		<stop  offset="0" style="stop-color:#DDFFFF"/>
		<stop  offset="0.8822" style="stop-color:#FFFFFF;stop-opacity:0"/>
		<stop  offset="1" style="stop-color:#F5FFFF;stop-opacity:0"/>
	</linearGradient>
	<polygon fill="url(#SVGID_45_)" points="471.737,433.279 448.747,420.076 448.747,446.638 	"/>
	
		<linearGradient id="SVGID_46_" gradientUnits="userSpaceOnUse" x1="145.4407" y1="298.8345" x2="402.6002" y2="298.8345" gradientTransform="matrix(1.5533 0 0 1.5533 16.2464 -29.6559)">
		<stop  offset="0" style="stop-color:#DDFFFF"/>
		<stop  offset="0.8822" style="stop-color:#FFFFFF;stop-opacity:0"/>
		<stop  offset="1" style="stop-color:#F5FFFF;stop-opacity:0"/>
	</linearGradient>
	<path fill="url(#SVGID_46_)" d="M158.747,454.094l26.251-15.223l0.154-29.357l-50.793,29.514
		c4.193,7.146,9.63,14.135,16.466,20.504l7.922-4.505V454.094L158.747,454.094z"/>
	
		<linearGradient id="SVGID_47_" gradientUnits="userSpaceOnUse" x1="145.5837" y1="307.834" x2="402.5112" y2="307.834" gradientTransform="matrix(1.5533 0 0 1.5533 16.2464 -29.6559)">
		<stop  offset="0" style="stop-color:#DDFFFF"/>
		<stop  offset="0.8822" style="stop-color:#FFFFFF;stop-opacity:0"/>
		<stop  offset="1" style="stop-color:#F5FFFF;stop-opacity:0"/>
	</linearGradient>
	<path fill="url(#SVGID_47_)" d="M495.502,450.055c0.62-0.775,1.088-1.396,1.709-2.175l-1.709-0.932V450.055z"/>
	
		<linearGradient id="SVGID_48_" gradientUnits="userSpaceOnUse" x1="145.4397" y1="300.4346" x2="402.5954" y2="300.4346" gradientTransform="matrix(1.5533 0 0 1.5533 16.2464 -29.6559)">
		<stop  offset="0" style="stop-color:#DDFFFF"/>
		<stop  offset="0.8822" style="stop-color:#FFFFFF;stop-opacity:0"/>
		<stop  offset="1" style="stop-color:#F5FFFF;stop-opacity:0"/>
	</linearGradient>
	<polygon fill="url(#SVGID_48_)" points="382.267,406.407 298.389,455.181 319.669,467.607 382.112,431.26 382.267,411.844 	"/>
	
		<linearGradient id="SVGID_49_" gradientUnits="userSpaceOnUse" x1="145.4402" y1="313.335" x2="402.5985" y2="313.335" gradientTransform="matrix(1.5533 0 0 1.5533 16.2464 -29.6559)">
		<stop  offset="0" style="stop-color:#DDFFFF"/>
		<stop  offset="0.8822" style="stop-color:#FFFFFF;stop-opacity:0"/>
		<stop  offset="1" style="stop-color:#F5FFFF;stop-opacity:0"/>
	</linearGradient>
	<path fill="url(#SVGID_49_)" d="M204.259,481.587l23.61-13.669l3.105,1.708l19.882-11.649v-2.95l4.815-2.796v-27.184l-73.16,42.562
		v14.135c4.815,2.641,9.785,4.971,14.911,7.301l6.835-3.884L204.259,481.587L204.259,481.587z"/>
	
		<linearGradient id="SVGID_50_" gradientUnits="userSpaceOnUse" x1="145.4377" y1="320.3838" x2="402.5852" y2="320.3838" gradientTransform="matrix(1.5533 0 0 1.5533 16.2464 -29.6559)">
		<stop  offset="0" style="stop-color:#DDFFFF"/>
		<stop  offset="0.8822" style="stop-color:#FFFFFF;stop-opacity:0"/>
		<stop  offset="1" style="stop-color:#F5FFFF;stop-opacity:0"/>
	</linearGradient>
	<path fill="url(#SVGID_50_)" d="M158.747,454.094v0.776v11.494c6.988,5.592,14.911,10.873,23.766,15.532v-14.135L158.747,454.094z"
		/>
	
		<linearGradient id="SVGID_51_" gradientUnits="userSpaceOnUse" x1="145.4402" y1="319.2832" x2="402.5944" y2="319.2832" gradientTransform="matrix(1.5533 0 0 1.5533 16.2464 -29.6559)">
		<stop  offset="0" style="stop-color:#DDFFFF"/>
		<stop  offset="0.8822" style="stop-color:#FFFFFF;stop-opacity:0"/>
		<stop  offset="1" style="stop-color:#F5FFFF;stop-opacity:0"/>
	</linearGradient>
	<path fill="url(#SVGID_51_)" d="M366.268,494.479l3.105,1.709l16.311-9.476v-3.573l62.909-36.502v-26.562l-128.924,75.023v17.396
		c7.766,0,15.377-0.312,22.987-0.776v-3.417L366.268,494.479z"/>
	
		<linearGradient id="SVGID_52_" gradientUnits="userSpaceOnUse" x1="145.4397" y1="330.584" x2="402.5954" y2="330.584" gradientTransform="matrix(1.5533 0 0 1.5533 16.2464 -29.6559)">
		<stop  offset="0" style="stop-color:#DDFFFF"/>
		<stop  offset="0.8822" style="stop-color:#FFFFFF;stop-opacity:0"/>
		<stop  offset="1" style="stop-color:#F5FFFF;stop-opacity:0"/>
	</linearGradient>
	<path fill="url(#SVGID_52_)" d="M250.858,455.181v2.951v22.989l34.019,19.727l11.805,6.835l7.767,4.505
		c4.66,0.154,9.476,0.311,14.29,0.311c0.312,0,0.621,0,0.934,0v-17.396L250.858,455.181z"/>
	
		<linearGradient id="SVGID_53_" gradientUnits="userSpaceOnUse" x1="145.4363" y1="337.4336" x2="402.6001" y2="337.4336" gradientTransform="matrix(1.5533 0 0 1.5533 16.2464 -29.6559)">
		<stop  offset="0" style="stop-color:#DDFFFF"/>
		<stop  offset="0.8822" style="stop-color:#FFFFFF;stop-opacity:0"/>
		<stop  offset="1" style="stop-color:#F5FFFF;stop-opacity:0"/>
	</linearGradient>
	<path fill="url(#SVGID_53_)" d="M385.839,483.14v3.573v18.95l0.466,0.155c8.077-1.555,15.844-3.572,23.455-5.747v-3.263
		L385.839,483.14z"/>
	
		<linearGradient id="SVGID_55_" gradientUnits="userSpaceOnUse" x1="145.4392" y1="324.0342" x2="402.595" y2="324.0342" gradientTransform="matrix(1.5533 0 0 1.5533 16.2464 -29.6559)">
		<stop  offset="0" style="stop-color:#DDFFFF"/>
		<stop  offset="0.8822" style="stop-color:#FFFFFF;stop-opacity:0"/>
		<stop  offset="1" style="stop-color:#F5FFFF;stop-opacity:0"/>
	</linearGradient>
	<path fill="url(#SVGID_55_)" d="M409.605,496.965v3.262c37.9-11.027,68.346-28.58,85.897-50.017v-3.106L409.605,496.965z"/>
	
		<linearGradient id="SVGID_57_" gradientUnits="userSpaceOnUse" x1="145.4402" y1="336.3838" x2="402.5959" y2="336.3838" gradientTransform="matrix(1.5533 0 0 1.5533 16.2464 -29.6559)">
		<stop  offset="0" style="stop-color:#DDFFFF"/>
		<stop  offset="0.8822" style="stop-color:#FFFFFF;stop-opacity:0"/>
		<stop  offset="1" style="stop-color:#F5FFFF;stop-opacity:0"/>
	</linearGradient>
	<path fill="url(#SVGID_57_)" d="M204.259,481.587v3.572v6.835c11.96,4.814,25.008,8.854,38.987,12.115L204.259,481.587z"/>
	
		<linearGradient id="SVGID_59_" gradientUnits="userSpaceOnUse" x1="145.4397" y1="347.4341" x2="402.5954" y2="347.4341" gradientTransform="matrix(1.5533 0 0 1.5533 16.2464 -29.6559)">
		<stop  offset="0" style="stop-color:#DDFFFF"/>
		<stop  offset="0.8822" style="stop-color:#FFFFFF;stop-opacity:0"/>
		<stop  offset="1" style="stop-color:#F5FFFF;stop-opacity:0"/>
	</linearGradient>
	<path fill="url(#SVGID_59_)" d="M342.656,508.304v3.417c1.709-0.154,3.573-0.311,5.281-0.466L342.656,508.304z"/>
	
		<linearGradient id="SVGID_61_" gradientUnits="userSpaceOnUse" x1="145.4397" y1="342.9341" x2="402.5954" y2="342.9341" gradientTransform="matrix(1.5533 0 0 1.5533 16.2464 -29.6559)">
		<stop  offset="0" style="stop-color:#DDFFFF"/>
		<stop  offset="0.8822" style="stop-color:#FFFFFF;stop-opacity:0"/>
		<stop  offset="1" style="stop-color:#F5FFFF;stop-opacity:0"/>
	</linearGradient>
	<path fill="url(#SVGID_61_)" d="M369.373,496.343l-3.105-1.708l-23.61,13.669l5.281,3.106c13.203-1.087,25.94-2.951,38.056-5.281
		l-0.466-0.155L369.373,496.343z"/>
	
		<linearGradient id="SVGID_63_" gradientUnits="userSpaceOnUse" x1="145.4397" y1="294.4854" x2="402.5938" y2="294.4854" gradientTransform="matrix(1.5533 0 0 1.5533 16.2464 -29.6559)">
		<stop  offset="0" style="stop-color:#DDFFFF"/>
		<stop  offset="0.8822" style="stop-color:#FFFFFF;stop-opacity:0"/>
		<stop  offset="1" style="stop-color:#F5FFFF;stop-opacity:0"/>
	</linearGradient>
	<path fill="url(#SVGID_63_)" d="M366.268,372.39L366.268,372.39l58.715,34.018l-26.096,15.065l-16.775,9.786l-62.441,36.349
		l-21.28-12.271l83.878-48.772l-16.154-9.32l-18.95-10.873l-4.659-2.641l-24.388-14.135l-6.058-3.572l-13.514,7.921l-10.098,5.903
		l46.443,26.717l-26.095,15.066l-20.35,11.805l-30.755,17.863l-2.02,1.242l-4.815,2.796l68.967,39.765l128.924-75.023l22.833,13.203
		l-22.987,13.357l-62.909,36.502l23.766,13.671l85.897-49.861l1.709,0.932c5.126-6.522,9.009-13.514,11.494-20.813l-118.673-68.346
		L366.268,372.39z"/>
	
		<linearGradient id="SVGID_65_" gradientUnits="userSpaceOnUse" x1="145.4407" y1="273.4727" x2="402.5948" y2="273.4727" gradientTransform="matrix(1.5533 0 0 1.5533 16.2464 -29.6559)">
		<stop  offset="0" style="stop-color:#DDFFFF"/>
		<stop  offset="0.8822" style="stop-color:#FFFFFF;stop-opacity:0"/>
		<stop  offset="1" style="stop-color:#F5FFFF;stop-opacity:0"/>
	</linearGradient>
	<path fill="url(#SVGID_65_)" d="M210.472,423.959l-25.318,14.757l-26.251,15.224l23.767,13.669l73.16-42.562l2.02-1.243
		l30.755-17.862h-0.154l-22.988-13.203l-0.777-0.466l-30.755,17.863l-25.319-14.601l87.763-50.948
		c5.901-3.417,15.688-3.417,21.745,0l24.388,14.135l23.609-13.669l-24.387-14.135c-19.105-11.028-50.172-11.028-69.122,0
		L126.13,416.039c1.087,7.922,3.883,15.533,8.077,22.834L185,409.359L210.472,423.959z"/>
	
		<linearGradient id="SVGID_67_" gradientUnits="userSpaceOnUse" x1="145.4402" y1="334.5835" x2="402.5939" y2="334.5835" gradientTransform="matrix(1.5533 0 0 1.5533 16.2464 -29.6559)">
		<stop  offset="0" style="stop-color:#DDFFFF"/>
		<stop  offset="0.8822" style="stop-color:#FFFFFF;stop-opacity:0"/>
		<stop  offset="1" style="stop-color:#F5FFFF;stop-opacity:0"/>
	</linearGradient>
	<path fill="url(#SVGID_67_)" d="M284.875,500.848l-34.019-19.727l-19.882-11.495l-3.105-1.708l-23.61,13.669l38.987,22.522
		c19.104,4.35,39.765,7.146,61.354,8.076l-7.767-4.504L284.875,500.848z"/>
</g>
<g opacity="0.98">
	<path fill="#2E49ED" d="M525.948,464.345c19.571,11.961,19.728,31.223,0.155,43.184L357.57,610.821
		c-19.417,11.96-51.104,11.96-70.675,0L116.497,507.061c-19.571-11.96-19.728-31.221-0.155-43.182l168.533-103.294
		c19.416-11.96,51.104-11.96,70.675,0L525.948,464.345z"/>
</g>
<g enable-background="new    ">
	<g>
		<path id="SVGID_54_" fill="#F39800" d="M318.271,350.333l-0.155,30.134c-6.058-3.417-15.688-3.417-21.745,0l0.154-30.134
			C302.581,346.916,312.213,346.916,318.271,350.333z"/>
	</g>
	<g>
		<g>
			<defs>
				<path id="SVGID_68_" d="M318.271,350.333l-0.155,30.134c-6.058-3.417-15.688-3.417-21.745,0l0.154-30.134
					C302.581,346.916,312.213,346.916,318.271,350.333z"/>
			</defs>
			<clipPath id="SVGID_69_">
				<use xlink:href="#SVGID_68_"  overflow="visible"/>
			</clipPath>
			<g clip-path="url(#SVGID_69_)" enable-background="new    ">
				<path fill="#F39800" d="M318.271,350.333l-0.155,30.134c-6.058-3.417-15.688-3.417-21.745,0l0.154-30.134
					C302.581,346.916,312.213,346.916,318.271,350.333"/>
			</g>
		</g>
	</g>
</g>
<g enable-background="new    ">
	<g enable-background="new    ">
		<g>
			<path id="SVGID_56_" fill="#2E49ED" d="M318.271,344.741l-0.155,30.134c-6.058-3.417-15.688-3.417-21.745,0l0.154-30.134
				C302.581,341.168,312.213,341.168,318.271,344.741z"/>
		</g>
		<g>
			<g>
				<defs>
					<path id="SVGID_70_" d="M318.271,344.741l-0.155,30.134c-6.058-3.417-15.688-3.417-21.745,0l0.154-30.134
						C302.581,341.168,312.213,341.168,318.271,344.741z"/>
				</defs>
				<clipPath id="SVGID_71_">
					<use xlink:href="#SVGID_70_"  overflow="visible"/>
				</clipPath>
				<g clip-path="url(#SVGID_71_)" enable-background="new    ">
					<path fill="#2E49ED" d="M318.271,344.741l-0.155,30.134c-6.058-3.417-15.688-3.417-21.745,0l0.154-30.134
						C302.581,341.168,312.213,341.168,318.271,344.741"/>
				</g>
			</g>
		</g>
	</g>
	<g>
		<polygon fill="#2E49ED" points="366.423,345.052 366.268,375.186 342.656,389.01 342.813,358.876 		"/>
	</g>
	<g>
		<polygon fill="#2E49ED" points="342.813,358.876 342.656,389.01 318.271,374.875 318.271,344.741 		"/>
	</g>
	<g>
		<polygon fill="#2E49ED" points="296.525,344.741 296.525,374.875 208.764,425.823 208.764,395.689 		"/>
	</g>
	<g>
		<polygon fill="#2E49ED" points="424.983,406.407 424.983,436.541 366.113,402.523 366.268,372.39 		"/>
	</g>
	<g>
		<polygon fill="#2E49ED" points="334.891,406.407 334.736,436.541 288.448,409.824 288.448,379.69 		"/>
	</g>
	<g>
		<polygon fill="#2E49ED" points="288.603,406.096 288.448,436.23 257.693,454.094 257.848,423.959 		"/>
	</g>
	<g>
		<polygon fill="#2E49ED" points="210.472,423.959 210.317,454.094 185.154,439.492 185.154,409.357 		"/>
	</g>
	<g>
		<polygon fill="#2E49ED" points="257.848,423.959 257.693,454.094 255.673,455.336 255.828,425.202 		"/>
	</g>
	<g>
		<polygon fill="#2E49ED" points="471.737,433.279 471.58,463.413 448.747,450.21 448.747,420.076 		"/>
	</g>
	<g>
		<polygon fill="#2E49ED" points="185.154,409.357 185.154,439.492 121.623,476.461 121.779,446.327 		"/>
	</g>
	<g>
		<polygon fill="#2E49ED" points="507.152,453.783 506.995,483.917 495.347,477.082 495.502,446.948 		"/>
	</g>
	<g enable-background="new    ">
		<g>
			<path id="SVGID_58_" fill="#2E49ED" d="M116.187,484.072l0.155-30.135c0-2.796,1.864-5.593,5.437-7.61l-0.154,30.134
				C118.051,478.636,116.187,481.276,116.187,484.072z"/>
		</g>
		<g>
			<g>
				<defs>
					<path id="SVGID_72_" d="M116.187,484.072l0.155-30.135c0-2.796,1.864-5.593,5.437-7.61l-0.154,30.134
						C118.051,478.636,116.187,481.276,116.187,484.072z"/>
				</defs>
				<clipPath id="SVGID_73_">
					<use xlink:href="#SVGID_72_"  overflow="visible"/>
				</clipPath>
				<g clip-path="url(#SVGID_73_)" enable-background="new    ">
					<path fill="#2E49ED" d="M121.779,446.327l-0.154,30.134c-3.572,2.175-5.438,4.815-5.438,7.611l0.155-30.135
						C116.187,451.143,118.051,448.502,121.779,446.327"/>
				</g>
			</g>
		</g>
	</g>
	<g>
		<polygon fill="#2E49ED" points="382.267,406.407 382.112,436.541 298.234,485.314 298.389,455.181 		"/>
	</g>
	<g enable-background="new    ">
		<g>
			<path id="SVGID_60_" fill="#2E49ED" d="M511.346,459.53l-0.155,30.134c0-2.175-1.397-4.194-4.194-5.902l0.155-30.135
				C509.948,455.336,511.346,457.511,511.346,459.53z"/>
		</g>
		<g>
			<g>
				<defs>
					<path id="SVGID_74_" d="M511.346,459.53l-0.155,30.134c0-2.175-1.397-4.194-4.194-5.902l0.155-30.135
						C509.948,455.336,511.346,457.511,511.346,459.53z"/>
				</defs>
				<clipPath id="SVGID_75_">
					<use xlink:href="#SVGID_74_"  overflow="visible"/>
				</clipPath>
				<g clip-path="url(#SVGID_75_)" enable-background="new    ">
					<path fill="#2E49ED" d="M511.346,459.53l-0.155,30.134c0-2.175-1.397-4.194-4.194-5.902l0.155-30.135
						C509.948,455.336,511.346,457.511,511.346,459.53"/>
				</g>
			</g>
		</g>
	</g>
	<g>
		<polygon fill="#2E49ED" points="255.828,425.202 255.673,455.336 182.513,497.896 182.513,467.763 		"/>
	</g>
	<g>
		<polygon fill="#2E49ED" points="182.513,467.763 182.513,497.896 158.747,484.228 158.747,454.094 		"/>
	</g>
	<g enable-background="new    ">
		<g>
			<path id="SVGID_62_" fill="#2E49ED" d="M82.636,484.072l0.155-30.135c0,7.767,5.126,15.688,15.377,21.592l-0.155,30.134
				C87.761,499.605,82.636,491.839,82.636,484.072z"/>
		</g>
		<g>
			<g>
				<defs>
					<path id="SVGID_76_" d="M82.636,484.072l0.155-30.135c0,7.767,5.126,15.688,15.377,21.592l-0.155,30.134
						C87.761,499.605,82.636,491.839,82.636,484.072z"/>
				</defs>
				<clipPath id="SVGID_77_">
					<use xlink:href="#SVGID_76_"  overflow="visible"/>
				</clipPath>
				<g clip-path="url(#SVGID_77_)" enable-background="new    ">
					<path fill="#2E49ED" d="M98.168,475.529l-0.155,30.134c-10.252-5.902-15.377-13.824-15.377-21.591l0.155-30.135
						C82.791,461.704,87.917,469.471,98.168,475.529"/>
				</g>
			</g>
		</g>
	</g>
	<g enable-background="new    ">
		<g>
			<path id="SVGID_64_" fill="#2E49ED" d="M544.741,459.686l-0.155,30.135c0,6.989-4.659,13.979-13.824,19.416l0.155-30.135
				C540.081,473.665,544.741,466.675,544.741,459.686z"/>
		</g>
		<g>
			<g>
				<defs>
					<path id="SVGID_78_" d="M544.741,459.686l-0.155,30.135c0,6.989-4.659,13.979-13.824,19.416l0.155-30.135
						C540.081,473.665,544.741,466.675,544.741,459.686z"/>
				</defs>
				<clipPath id="SVGID_79_">
					<use xlink:href="#SVGID_78_"  overflow="visible"/>
				</clipPath>
				<g clip-path="url(#SVGID_79_)" enable-background="new    ">
					<path fill="#2E49ED" d="M544.741,459.686l-0.155,30.135c0,6.989-4.659,13.979-13.824,19.416l0.155-30.135
						C540.081,473.665,544.741,466.675,544.741,459.686"/>
				</g>
			</g>
		</g>
	</g>
	<g>
		<polygon fill="#2E49ED" points="448.747,420.076 448.747,450.21 319.669,525.079 319.823,494.945 		"/>
	</g>
	<g>
		<polygon fill="#2E49ED" points="319.823,494.945 319.669,525.079 250.858,485.314 250.858,455.181 		"/>
	</g>
	<g>
		<polygon fill="#2E49ED" points="409.605,496.965 409.448,527.099 385.684,513.274 385.839,483.14 		"/>
	</g>
	<g>
		<polygon fill="#2E49ED" points="495.502,446.948 495.347,477.082 409.448,527.099 409.605,496.965 		"/>
	</g>
	<g>
		<polygon fill="#2E49ED" points="249.46,507.683 249.305,537.816 204.104,511.721 204.259,481.587 		"/>
	</g>
	<g>
		<polygon fill="#2E49ED" points="388.169,534.399 388.014,564.533 342.656,538.438 342.656,508.304 		"/>
	</g>
	<g>
		<polygon fill="#2E49ED" points="273.226,521.507 273.07,551.641 249.15,565.465 249.305,535.331 		"/>
	</g>
	<g>
		<polygon fill="#2E49ED" points="312.99,544.495 312.834,574.63 273.07,551.641 273.226,521.507 		"/>
	</g>
	<g>
		<polygon fill="#2E49ED" points="336.6,530.671 336.445,560.805 312.834,574.63 312.99,544.495 		"/>
	</g>
	<g>
		<polygon fill="#2E49ED" points="390.189,560.805 390.189,590.939 366.423,577.271 366.423,547.136 		"/>
	</g>
	<g>
		<polygon fill="#2E49ED" points="530.916,479.102 530.916,509.235 390.189,590.939 390.189,560.805 		"/>
	</g>
	<g>
		<path fill="#0F6FFC" d="M530.762,439.958c18.64,10.718,18.795,28.271,0.155,38.988l-140.729,81.703l-23.766-13.669l21.746-12.581
			l-45.513-26.251l23.61-13.669l45.512,26.249l95.372-55.451c5.438-3.263,5.438-8.389,0-11.65l-11.648-6.679l-85.897,49.86
			l-23.766-13.669l85.896-49.86l-22.833-13.203L319.98,495.101l-68.967-39.765l84.033-48.773l-46.6-26.872l23.61-13.669
			l70.209,40.541l-83.878,48.773l21.28,12.271l105.313-61.2l-58.87-34.018l23.61-13.669L530.762,439.958z"/>
	</g>
	<g>
		<polygon fill="#2E49ED" points="365.49,575.096 365.49,605.229 357.413,609.89 357.57,579.755 		"/>
	</g>
	<g>
		<polygon fill="#2E49ED" points="278.973,579.755 278.818,609.89 98.168,505.663 98.168,475.529 		"/>
	</g>
	<g enable-background="new    ">
		<g>
			<path id="SVGID_66_" fill="#2E49ED" d="M357.57,579.755l-0.155,30.135c-21.591,12.581-56.852,12.581-78.597,0l0.155-30.135
				C300.719,592.337,335.979,592.337,357.57,579.755z"/>
		</g>
		<g>
			<g>
				<defs>
					<path id="SVGID_80_" d="M357.57,579.755l-0.155,30.135c-21.591,12.581-56.852,12.581-78.597,0l0.155-30.135
						C300.719,592.337,335.979,592.337,357.57,579.755z"/>
				</defs>
				<clipPath id="SVGID_81_">
					<use xlink:href="#SVGID_80_"  overflow="visible"/>
				</clipPath>
				<g clip-path="url(#SVGID_81_)" enable-background="new    ">
					<path fill="#2E49ED" d="M357.57,579.755l-0.155,30.135c-21.591,12.581-56.852,12.581-78.597,0l0.155-30.135
						C300.719,592.337,335.979,592.337,357.57,579.755"/>
				</g>
			</g>
		</g>
	</g>
	<g>
		<path fill="#0F6FFC" d="M366.423,345.052l-23.61,13.669l-24.387-14.135c-6.059-3.417-15.688-3.417-21.746,0l-87.761,50.948
			l25.317,14.601l30.756-17.863l23.766,13.669l-30.91,18.018l-2.02,1.243l-73.16,42.561l-23.767-13.669l51.726-29.979
			l-25.318-14.602l-63.53,36.813c-7.301,4.192-7.301,11.184,0.155,15.377l103.761,59.803l23.922-13.824l-45.201-26.096
			l23.609-13.669l57.006,32.93l11.806,6.835l39.765,22.988l-23.61,13.669l-39.765-22.988l-23.92,13.824l53.276,30.755
			c8.698,4.972,22.68,4.972,31.223,0l7.922-4.659l23.766,13.67l-7.922,4.658c-21.591,12.582-56.851,12.582-78.597,0L98.168,475.529
			c-20.503-11.807-20.503-31.066-0.312-42.871l174.901-101.586c18.95-11.029,50.017-11.029,69.122,0L366.423,345.052z"/>
	</g>
</g>
<linearGradient id="SVGID_82_" gradientUnits="userSpaceOnUse" x1="145.5837" y1="307.834" x2="402.5112" y2="307.834" gradientTransform="matrix(1.5533 0 0 1.5533 16.2464 -29.6559)">
	<stop  offset="0" style="stop-color:#00FFE6"/>
	<stop  offset="0.8822" style="stop-color:#6ABDFF;stop-opacity:0"/>
	<stop  offset="1" style="stop-color:#66F7FF;stop-opacity:0"/>
</linearGradient>
<path fill="url(#SVGID_82_)" d="M495.502,450.055c0.62-0.775,1.088-1.396,1.709-2.175l-1.709-0.932V450.055z"/>
<path fill="#FFFFFF" d="M42.871,213.953L42.871,213.953c4.038,0,7.3-3.262,7.3-7.3l0,0c0,4.039,3.263,7.3,7.301,7.3l0,0
	c-4.038,0-7.301,3.262-7.301,7.301l0,0C50.171,217.215,46.909,213.953,42.871,213.953z"/>
<path fill="#FFFFFF" d="M250.548,260.154L250.548,260.154c4.038,0,7.3-3.262,7.3-7.3l0,0c0,4.039,3.263,7.3,7.301,7.3l0,0
	c-4.038,0-7.301,3.262-7.301,7.301l0,0C257.847,263.416,254.586,260.154,250.548,260.154z"/>
<path fill="#FFFFFF" d="M453.454,377.377L453.454,377.377c5.206,0,9.411-4.205,9.411-9.41l0,0c0,5.207,4.204,9.41,9.411,9.41l0,0
	c-5.207,0-9.411,4.205-9.411,9.411l0,0C462.865,381.582,458.66,377.377,453.454,377.377z"/>
<path fill="#FFFFFF" d="M433.99,101.886L433.99,101.886c3.146,0,5.685-2.54,5.685-5.684l0,0c0,3.145,2.54,5.684,5.685,5.684l0,0
	c-3.145,0-5.685,2.54-5.685,5.684l0,0C439.675,104.425,437.136,101.886,433.99,101.886z"/>
</svg>
