<?xml version="1.0" encoding="UTF-8"?>
<svg width="52px" height="79px" viewBox="0 0 52 79" version="1.1" xmlns="http://www.w3.org/2000/svg" xmlns:xlink="http://www.w3.org/1999/xlink">
    <!-- Generator: Sketch 44 (41411) - http://www.bohemiancoding.com/sketch -->
    <title>LingoAsset</title>
    <desc>Created with Sketch.</desc>
    <defs></defs>
    <g id="web" stroke="none" stroke-width="1" fill="none" fill-rule="evenodd">
        <g id="product_inter:-about" transform="translate(-320.000000, -473.000000)" fill-rule="nonzero">
            <g id="LingoAsset" transform="translate(319.000000, 472.000000)">
                <path d="M26.8438537,34.0853226 C26.8438537,34.0853226 21.2155122,35.220629 25.8704634,25.4457581 C29.2417805,18.3674032 28.9069756,10.1485161 25.8704634,5.78366129 C21.0138537,-1.19801613 11.5604634,1.0908871 12.5416098,5.1003871 C15.9116341,18.8782258 8.29643902,22.9830968 4.3615122,31.6801452 C0.372292683,40.4921613 0.810512195,53.0014355 2.64482927,64.1402419 C3.79143902,71.1010161 6.70126829,79.6857097 17.4434634,79.6857097 L32.2925122,79.6857097 L26.8438537,34.0840161" id="Shape" fill="#FFE1BD"></path>
                <path d="M19.0670732,77.76 C8.32487805,77.76 5.97090244,69.1779194 4.82170732,62.2171452 C2.98739024,51.0809516 2.69395122,42.1918548 6.22039024,33.1877903 C10.0583659,23.3933226 14.101878,23.1059032 14.101878,3.73775806 C14.101878,2.76837097 14.6086098,2.12951613 15.1269756,1.70230645 C13.3081707,2.31372581 12.3011707,3.38632258 12.3011707,4.95798387 C12.3011707,19.4465323 8.29256098,22.9935484 4.35763415,31.6892903 C0.369707317,40.5013065 0.807926829,53.0105806 2.6422439,64.1493871 C3.78885366,71.1101613 6.69868293,79.6948548 17.440878,79.6948548 L32.2899268,79.6948548 L32.2899268,77.7573871 L19.0644878,77.7573871" id="Shape" fill="#E6B796"></path>
                <path d="M45.2413171,45.4854194 L26.8438537,45.4854194 C20.4256829,45.4854194 20.4256829,34.0918548 26.8438537,34.0918548 L45.2413171,34.0918548 C51.6594878,34.0918548 51.6594878,45.4854194 45.2413171,45.4854194" id="Shape" fill="#FFE1BD"></path>
                <path d="M46.6658537,43.5962903 L28.2683902,43.5962903 C23.9366098,43.5962903 22.5392195,38.4175161 24.0542439,35.0429516 C20.6234634,37.760371 21.5412683,45.4906452 26.8309268,45.4906452 L45.2270976,45.4906452 C47.3134878,45.4906452 48.7095854,44.2795645 49.4399512,42.6517258 C48.710878,43.2344032 47.7930732,43.5962903 46.6658537,43.5962903" id="Shape" fill="#E6B796"></path>
                <path d="M47.2242927,56.9260161 L25.1452683,56.9260161 C17.4447561,56.9260161 17.4447561,45.5311452 25.1452683,45.5311452 L47.2242927,45.5311452 C54.9248049,45.5324516 54.9248049,56.9260161 47.2242927,56.9260161" id="Shape" fill="#FFE1BD"></path>
                <path d="M48.9370976,55.0408065 L26.8580732,55.0408065 C21.6614878,55.0408065 19.984878,49.8581129 21.8036829,46.4861613 C17.6839024,49.2035806 18.786561,56.9325484 25.1336341,56.9325484 L47.2126585,56.9325484 C49.717878,56.9325484 51.3931951,55.7214677 52.2683415,54.0962419 C51.3931951,54.6763065 50.2892439,55.0408065 48.9370976,55.0408065" id="Shape" fill="#E6B796"></path>
                <path d="M45.1547073,68.3274194 L26.4922439,68.3274194 C19.977122,68.3274194 19.977122,56.9312419 26.4922439,56.9312419 L45.1547073,56.9312419 C51.6698293,56.9312419 51.6698293,68.3274194 45.1547073,68.3274194" id="Shape" fill="#FFE1BD"></path>
                <path d="M46.6012195,66.4304516 L27.9400488,66.4304516 C23.5475122,66.4304516 22.1333171,61.2464516 23.6651463,57.8718871 C20.1852439,60.5919194 21.1159756,68.3221935 26.4831951,68.3221935 L45.1469512,68.3221935 C47.2617805,68.3221935 48.6772683,67.1085 49.420561,65.4819677 C48.6772683,66.0633387 47.7465366,66.4304516 46.6012195,66.4304516" id="Shape" fill="#E6B796"></path>
                <path d="M43.1497561,79.6935484 L31.0916098,79.6935484 C24.1292195,79.6935484 24.1292195,68.2999839 31.0916098,68.2999839 L43.1497561,68.2999839 C50.1147317,68.2999839 50.1147317,79.6935484 43.1497561,79.6935484" id="Shape" fill="#FFE1BD"></path>
                <path d="M44.7009756,77.7991935 L32.6376585,77.7991935 C27.9426341,77.7991935 26.4263171,72.6151935 28.0719024,69.240629 C24.3476829,71.9606613 25.3443415,79.689629 31.0838537,79.689629 L43.142,79.689629 C45.4041951,79.689629 46.9205122,78.4772419 47.7116341,76.8520161 C46.9192195,77.4307742 45.926439,77.7991935 44.7009756,77.7991935" id="Shape" fill="#E6B796"></path>
            </g>
        </g>
    </g>
</svg>