<?xml version="1.0" encoding="UTF-8"?>
<svg width="56px" height="35px" viewBox="0 0 56 35" version="1.1" xmlns="http://www.w3.org/2000/svg" xmlns:xlink="http://www.w3.org/1999/xlink">
    <!-- Generator: Sketch 43.2 (39069) - http://www.bohemiancoding.com/sketch -->
    <title>icon copy</title>
    <desc>Created with Sketch.</desc>
    <defs>
        <linearGradient x1="50%" y1="0%" x2="50%" y2="100%" id="linearGradient-1">
            <stop stop-color="#5190FF" offset="0%"></stop>
            <stop stop-color="#005DFF" offset="100%"></stop>
        </linearGradient>
    </defs>
    <g id="web_2" stroke="none" stroke-width="1" fill="none" fill-rule="evenodd">
        <g id="product_max:-feature" transform="translate(-568.000000, -572.000000)">
            <g id="Group-2" transform="translate(220.000000, 513.000000)">
                <g id="2" transform="translate(250.000000, 0.000000)">
                    <g id="icon-copy" transform="translate(127.500000, 76.500000) scale(-1, 1) translate(-127.500000, -76.500000) translate(98.000000, 59.000000)">
                        <path d="M58.3146465,32.7619515 C58.8412458,33.2885535 58.8412458,34.0784499 58.3146465,34.6050518 C58.0513468,34.8683502 57.7222222,35 57.3930976,35 C57.0639731,35 56.7348485,34.8683522 56.4715488,34.6050518 L49.6257576,27.7592593 C48.1776094,28.8124579 46.4661616,29.4048822 44.5572391,29.4048822 C39.8178451,29.4048822 36,25.587037 36,20.8476431 C36,16.1082492 39.8178445,12.290404 44.5572391,12.290404 C49.296633,12.290404 53.1144781,16.1082492 53.1144781,20.8476431 C53.1144781,22.7565657 52.5220539,24.5338384 51.4688552,25.9161616 L58.3146465,32.7619515 Z M3.56666667,29.788887 L13.3888889,19.9666667 C11.8777778,17.9833333 11.0277778,15.4333333 11.0277778,12.6944444 C11.0277778,5.89444444 16.5055556,0.416666667 23.3055556,0.416666667 C30.1055565,0.416666667 35.5833333,5.89444444 35.5833333,12.6944444 C35.5833333,19.4944444 30.1055556,24.9722222 23.3055556,24.9722222 C20.5666667,24.9722222 18.1111111,24.1222222 16.0333333,22.6111111 L6.21111111,32.4333352 C5.83333333,32.811114 5.36111111,33 4.88888889,33 C4.41666667,33 3.94444444,32.8111111 3.56666667,32.4333352 C2.81111111,31.6777759 2.81111111,30.5444463 3.56666667,29.788887 Z M44.5572391,26.7718855 C41.2659933,26.7718855 38.6329966,24.1388889 38.6329966,20.8476431 C38.6329966,17.5563973 41.2659933,14.9234007 44.5572391,14.9234007 C47.8484848,14.9234007 50.4814815,17.5563973 50.4814815,20.8476431 C50.4814815,24.1388889 47.8484848,26.7718855 44.5572391,26.7718855 Z M23.3055556,21.1944444 C18.5833333,21.1944444 14.8055556,17.4166667 14.8055556,12.6944444 C14.8055556,7.97222222 18.5833333,4.19444444 23.3055556,4.19444444 C28.0277778,4.19444444 31.8055556,7.97222222 31.8055556,12.6944444 C31.8055556,17.4166667 28.0277778,21.1944444 23.3055556,21.1944444 Z" id="Combined-Shape" fill="url(#linearGradient-1)"></path>
                        <g id="icon" transform="translate(16.500000, 16.500000) scale(-1, 1) translate(-16.500000, -16.500000) "></g>
                    </g>
                </g>
            </g>
        </g>
    </g>
</svg>