<?xml version="1.0" encoding="UTF-8" standalone="no"?>
<svg width="31px" height="38px" viewBox="0 0 31 38" version="1.1" xmlns="http://www.w3.org/2000/svg" xmlns:xlink="http://www.w3.org/1999/xlink">
    <!-- Generator: Sketch 42 (36781) - http://www.bohemiancoding.com/sketch -->
    <title>7</title>
    <desc>Created with Sketch.</desc>
    <defs>
        <linearGradient x1="50%" y1="0%" x2="50%" y2="100%" id="linearGradient-1">
            <stop stop-color="#5190FF" offset="0%"></stop>
            <stop stop-color="#005DFF" offset="100%"></stop>
        </linearGradient>
    </defs>
    <g id="web_2" stroke="none" stroke-width="1" fill="none" fill-rule="evenodd">
        <g id="product_max:-feature" transform="translate(-830.000000, -866.000000)">
            <g id="Group-2" transform="translate(220.000000, 513.000000)">
                <g id="7" transform="translate(585.000000, 333.000000)">
                    <rect id="Rectangle-3-Copy-5" x="0" y="0" width="80" height="80"></rect>
                    <g id="icon" transform="translate(25.000000, 20.000000)">
                        <path d="M3,35 L28,35 L28,3 L3,3 L3,35 Z M0,0 L31,0 L31,38 L0,38 L0,0 Z" id="Rectangle-17" fill="url(#linearGradient-1)" fill-rule="nonzero"></path>
                        <path d="M16.25,7 L16.25,9.2692582 C18.7925,9.6324893 20.75,11.8118759 20.75,14.4518545 C20.75,15.1221469 20.61875,15.7624822 20.39,16.3503923 L22.34,17.5 C22.75625,16.567582 23,15.5415478 23,14.4518545 C23,10.5686519 20.04125,7.3782097 16.25,7 Z M15.4792244,19.7443609 C12.5885042,19.7443609 10.2437673,17.387218 10.2437673,14.481203 C10.2437673,11.8308271 12.1958449,9.64285714 14.7313019,9.27819549 L14.7313019,7 C10.9468144,7.37593985 8,10.5827068 8,14.481203 C8,18.6353383 11.3432133,22 15.4754848,22 C17.951108,22 20.1387812,20.7857143 21.5,18.924812 L19.5591413,17.7744361 C18.6018006,18.9736842 17.132133,19.7443609 15.4792244,19.7443609 Z" id="Page-1" fill="url(#linearGradient-1)"></path>
                        <rect id="Rectangle-18" fill="#005DFF" x="6" y="26" width="16" height="2"></rect>
                        <rect id="Rectangle-18-Copy" fill="#005DFF" x="6" y="30" width="9" height="2"></rect>
                    </g>
                </g>
            </g>
        </g>
    </g>
</svg>