<?xml version="1.0" encoding="UTF-8" standalone="no"?>
<!-- Created with Keyshape -->
<svg xmlns="http://www.w3.org/2000/svg" xmlns:xlink="http://www.w3.org/1999/xlink" viewBox="0 0 376 399" text-rendering="geometricPrecision" shape-rendering="geometricPrecision" style="white-space: pre;">
    <defs>
        <linearGradient id="Gradient-0" x1="89.5" y1="28.5" x2="94.5" y2="36" gradientUnits="userSpaceOnUse">
            <stop offset="0" stop-color="#ffffff"/>
            <stop offset="0" stop-color="#b152ff"/>
            <stop offset="1" stop-color="#b152ff" stop-opacity="0"/>
        </linearGradient>
    </defs>
    <g id="message">
        <path class="st4" d="M233.1,245.1C239,248.5,239,254,233.2,257.4C227.4,260.8,217.9,260.8,212,257.4C206.1,254,206.1,248.5,211.9,245.1C217.8,241.7,227.3,241.7,233.1,245.1Z" fill="#34017c" transform="translate(6.33758,9.05)"/>
        <g id="_a0" transform="translate(222.581,252.55) rotate(-6) translate(-15.0188,-10)">
            <g transform="translate(-207.562,-242.55)">
                <path class="st3" d="M237.6,251.3L237.6,253.9C237.6,256.1,236.1,258.3,233.3,260C227.5,263.4,218,263.4,212.1,260C209.2,258.3,207.7,256.1,207.7,253.8L207.7,251.2C207.7,253.4,209.2,249.5,212.1,251.2C218,254.6,227.4,254.6,233.3,251.2C236.1,249.5,237.5,253.5,237.6,251.3" fill="#c46f00"/>
                <path class="st4" d="M233.1,245.1C239,248.5,239,254,233.2,257.4C227.4,260.8,217.9,260.8,212,257.4C206.1,254,206.1,248.5,211.9,245.1C217.8,241.7,227.3,241.7,233.1,245.1Z" fill="#fcae00"/>
            </g>
            <g transform="translate(-207.562,-242.55)">
                <path class="st6" d="M220,250L213.9,250.2C213.9,250.4,214,250.5,214.2,250.6L223.3,255.8C223.5,255.9,223.8,256,224.2,256L224.5,252.5C223,252.5,221.9,252.4,221.7,252.5C221.3,252.5,220.9,252.4,220.7,252.3C220.5,252.2,220.4,252,220.3,251.8C220.1,251.7,220,251,220,250" fill="#ffffff"/>
                <path class="st6" d="M219.7,246.1L219.7,246.1L214.1,249.3L214.1,249.3L219.9,249.1C219.9,248.1,219.8,247,219.7,246.1" fill="#ffffff"/>
                <path class="st6" d="M230.7,252.9C229.2,252.9,227.3,252.8,225.7,252.8L225.4,256L230.7,252.9" fill="#ffffff"/>
                <path class="st6" d="M230.8,251.5L221.7,246.3C221.5,246.2,221.2,246.1,220.9,246.1C221,248.5,221.2,251.3,221.3,251.5C221.4,251.6,221.4,251.7,221.5,251.8C221.6,251.8,221.7,251.9,222,251.9C222.4,251.9,227.8,252,231.1,252.1C231.2,251.8,231.1,251.6,230.8,251.5" fill="#ffffff"/>
            </g>
        </g>
    </g>
    <g id="picture" transform="translate(100.656,280.5) translate(-100.656,-280.5)">
        <path class="st4" d="M108.1,270.8C113.7,274,113.7,279.2,108.2,282.4C102.7,285.6,93.7,285.6,88.1,282.4C82.5,279.2,82.5,274,88,270.8C93.6,267.6,102.6,267.6,108.1,270.8Z" fill="#34017c" transform="translate(5.11258,7.8)"/>
        <g id="_a1" transform="translate(98.1,277.95) rotate(-11) translate(-14.2126,-9.55)">
            <g transform="translate(-83.8874,-268.4)">
                <path class="st3" d="M112.3,276.7L112.3,279.3C112.3,281.4,110.9,283.5,108.2,285.1C102.7,288.3,93.7,288.3,88.1,285.1C85.3,283.5,83.9,281.4,83.9,279.2L83.9,276.6C83.9,278.7,85.3,277.5,88.1,279.2C93.7,282.4,102.6,282.4,108.2,279.2C110.9,277.5,112.3,278.8,112.3,276.7" fill="#c46f00"/>
                <path class="st4" d="M108.1,270.8C113.7,274,113.7,279.2,108.2,282.4C102.7,285.6,93.7,285.6,88.1,282.4C82.5,279.2,82.5,274,88,270.8C93.6,267.6,102.6,267.6,108.1,270.8Z" fill="#fcae00"/>
            </g>
            <g transform="translate(-83.8874,-268.4)">
                <path class="st6" d="M100.6,273.3C100.4,273.2,100,273.1,99.7,273.1L89.5,274.4C88.7,274.5,88.4,275.1,89,275.4L97.1,280.1L94.6,278.6C94.2,278.3,94.4,277.9,95,277.8L99.8,277.2L101,273.8C101,273.6,100.9,273.4,100.6,273.3" fill="#ffffff"/>
                <path class="st6" d="M103.4,277C103.2,276.9,103,276.8,102.7,276.9L99.7,277.3L94.9,277.9C94.3,278,94.1,278.4,94.5,278.7L97,280.2L100.7,282.3C101.1,282.6,101.9,282.4,102,282.1L103.6,277.6C103.7,277.2,103.6,277.1,103.4,277" fill="#ffffff"/>
                <path class="st6" d="M107.4,275.7C106.9,275.4,106.1,275.4,105.6,275.7C105.1,276,105.1,276.4,105.6,276.7C106.1,277,106.9,277,107.4,276.7C107.9,276.5,107.9,276,107.4,275.7" fill="#ffffff"/>
            </g>
        </g>
    </g>
    <g id="play">
        <path class="st4" d="M240.1,313.4C246.8,317.3,246.8,323.5,240.2,327.4C233.6,331.3,222.8,331.3,216.1,327.4C209.4,323.5,209.4,317.3,216,313.4C222.6,309.6,233.4,309.6,240.1,313.4Z" fill="#34017c" transform="translate(5,10.0064)"/>
        <g id="_a2" transform="translate(228.069,321.738) rotate(9) translate(-17.0688,-11.1875)">
            <g transform="translate(-211,-310.55)">
                <path class="st3" d="M245.1,320.5L245.1,323.1C245.1,325.6,243.4,328.1,240.1,330C233.5,333.9,222.7,333.9,216,330C212.6,328.1,211,325.5,211,323L211,320.4C211,322.9,216.7,321.1,220,323C226.7,326.9,233.5,326.9,240.1,323C243.4,321.1,245.1,323,245.1,320.5" fill="#c46f00"/>
                <path class="st4" d="M240.1,313.4C246.8,317.3,246.8,323.5,240.2,327.4C233.6,331.3,222.8,331.3,216.1,327.4C209.4,323.5,209.4,317.3,216,313.4C222.6,309.6,233.4,309.6,240.1,313.4Z" fill="#fcae00"/>
            </g>
            <path class="st10" d="M233.7,316.8C233.4,316.6,233.1,316.6,232.6,316.6L221.1,318C220.2,318.1,219.9,318.7,220.5,319.1L229.6,324.3C230.2,324.7,231.3,324.5,231.5,324L233.9,317.4C234.1,317.2,234,317,233.7,316.8" fill="#ffffff" transform="translate(-211,-310.55)"/>
        </g>
    </g>
    <g id="fishing">
        <g>
            <g class="st2">
                <clipPath id="SVGID_6_">
                    <use overflow="visible"/>
                </clipPath>
                <g class="st11"/>
            </g>
        </g>
        <g>
            <g class="st2">
                <clipPath id="SVGID_8_">
                    <use overflow="visible"/>
                </clipPath>
                <g class="st13"/>
            </g>
        </g>
        <path fill="#aeabc6" stroke="none" d="M0,-6L3.1,-6L3.1,232.1L0,234.1Z" transform="translate(60.9,10.05) translate(-1.55,-2.05)"/>
        <path fill="#aeabc6" stroke="none" d="M0,-6L3.1,-6L3.1,231.1L0,233.1Z" transform="translate(33.15,25.05) translate(-1.55,-2.05)"/>
        <g>
            <g class="st2">
                <g>
                    <path class="st14" d="M110.2,28.5L80.9,45.5L31.6,17L60.9,0Z" fill="#f8f7f9"/>
                </g>
                <g>
                    <path class="st15" d="M110.2,28.5L110.2,29.3L80.9,46.3L80.9,45.5Z" fill="#a296b4"/>
                </g>
                <g>
                    <path class="st16" d="M80.9,45.5L80.9,46.3L31.6,17.8L31.6,17Z" fill="#8c7da3"/>
                </g>
            </g>
        </g>
        <g id="line" transform="translate(128.069,138.55) translate(-42.3686,-130.65)">
            <path class="st29" d="M85.7,8.9C85.7,8.9,88.8,10.6,89.1,10.1C89.3,9.7,88.2,8.3,88.2,8.3L86.5,7.9L85.9,8.4Z" fill="#6a13e8" transform="translate(-85.7,-7.9)"/>
            <path class="st33" d="M169.945,226C166.371,224.1,160.695,224.1,157.226,226C153.758,227.9,153.758,231.1,157.226,233C160.8,234.9,166.476,234.9,169.945,233C173.518,231,173.518,227.9,169.945,226" fill="#5f00ba" opacity="0.47" transform="translate(-87.8875,-7.6)"/>
            <path fill="#8852dd" stroke="none" d="M0,0L1,-1L1,38.4L0,39.4Z" transform="translate(75.8,222.35) translate(-0.5,-0.45)"/>
            <path id="wave" class="st33" d="M169.945,226C166.371,224.1,160.695,224.1,157.226,226C153.758,227.9,153.758,231.1,157.226,233C160.8,234.9,166.476,234.9,169.945,233C173.518,231,173.518,227.9,169.945,226" fill="none" opacity="0.6" stroke="#e6c7ff" stroke-width="0.5" transform="translate(75.7374,221.9) scale(0,0) translate(-163.625,-229.5)"/>
            <path id="wave" class="st33" d="M169.945,226C166.371,224.1,160.695,224.1,157.226,226C153.758,227.9,153.758,231.1,157.226,233C160.8,234.9,166.476,234.9,169.945,233C173.518,231,173.518,227.9,169.945,226" fill="none" opacity="0.6" stroke="#e6c7ff" stroke-width="0.5" transform="translate(75.8001,221.9) scale(0,0) translate(-163.625,-229.5)"/>
            <path fill="#d9abff" stroke="none" d="M0,3.6L1,3.6L1,177.4L0,178.4Z" transform="translate(75.8,43.95) translate(-0.5,-0.45)"/>
            <path fill="#d9abff" stroke="none" d="M0.148077,-0.135699L-0.915703,-0.663149L-0.183475,72.3948L0.673683,71.8798Z" transform="translate(74.6167,47.7402) rotate(121) translate(-0.5,-0.45)"/>
        </g>
        <g>
            <g>
                <g class="st2">
                    <g>
                        <path class="st17" d="M84.4,29.4L84.4,36.6L75.2,31.3L75.2,24.1Z" fill="#bf70ff"/>
                    </g>
                    <g>
                        <path class="st18" d="M84.4,29.4L92.9,24.5L92.9,31.7L84.4,36.6Z" fill="#d7a6ff"/>
                    </g>
                    <g>
                        <path class="st19" d="M75.2,24.1L83.7,19.1L92.9,24.5L84.4,29.4Z" fill="#f0deff"/>
                    </g>
                </g>
            </g>
            <path class="st18" d="M92.9,24.5L91.2,23.3L91.4,25.4Z" fill="#d7a6ff"/>
            <path class="st20" d="M92.6,29.4L105.5,31L92.8,38.3C92.8,38.3,88.1,34.8,88,34.8C87.9,34.8,91.3,30.8,91.3,30.8Z" fill="url(#Gradient-0)"/>
            <path class="st21" d="M92.9,24.5L91.6,25.3L92,32.5L92.9,31.7Z" fill="#b04fff"/>
            <path class="st23" d="M97.5,18C97.5,18,98.5,17.7,98.9,17.9C99.3,18.1,100,18.3,100.1,18.7C100.2,19.1,100.4,19.6,100.4,19.6C100.4,19.6,100.3,19.7,99.5,19.7C98.7,19.7,98.1,19.5,97.7,19.4C97.3,19.3,96.6,19.6,96.6,19.6Z" fill="#f9e5e1"/>
            <path class="st24" d="M89.1,11.4C89.1,11.4,90.3,11.7,90.7,12.1C91.1,12.5,92.4,13.8,93,14.6C93.6,15.4,93.8,16.1,95.1,16.4C96.4,16.6,97.6,17.3,97.6,17.6C97.6,17.9,97.2,18.4,97,18.8C96.8,19.2,96.9,19.6,96.6,19.7C96.3,19.8,95.7,19.1,95.1,19C94.5,18.9,93.1,18.3,91.8,18.3C90.5,18.3,89.3,17,89.3,17Z" fill="#e5c4ff"/>
            <path class="st25" d="M81.1,26C81.1,26,82,26.6,87,26.1C87,26.1,87.4,26.4,87.4,27.3C87.4,28.2,87.3,33.1,87.3,33.1C87.3,33.1,86.9,34.4,88,34.8C89.2,35.2,92.1,36,93.2,35.7C94.2,35.5,95.2,34.1,94.4,33.6C93.6,33.1,92.2,32.9,92.2,32.9C92.2,32.9,92.2,28.2,92.2,27.7C92.2,27.3,92.1,26.8,92,26.1C91.8,25.4,91.8,24.9,91.9,24.3C92,23.7,92,22.5,92,22C91.9,21.5,90.6,21.8,90.2,21.3C89.8,20.9,86.9,21.5,86.9,21.5L82.9,21.8L81.5,24.6Z" fill="#841bea"/>
            <path class="st25" d="M91.7,23.7C91.7,23.7,93.5,22.8,93.8,22.7C93.8,22.7,94,23.6,94,24.2C94,24.8,94,26.1,94.4,26.8C94.8,27.5,95,28.2,95,28.7C95,29.2,94.9,29.7,95.4,30C95.9,30.3,96.1,30.5,97.6,30.6C99.1,30.7,100.7,30.8,101,30.2C101.3,29.6,101.8,29.1,100.9,28.7C100,28.3,100,28.4,99.5,28.1C99,27.8,98.6,27.1,98.6,27.1C98.6,27.1,98,24.9,98,24.1C98,23.4,97.4,21.9,97.3,21.3C97.2,20.7,97,20,96.7,19.5C96.5,19,93.9,17.8,92.6,17.8C91.3,17.8,89.5,17.8,89.5,17.8L88.8,18.5L88.7,19.7L89.9,22.2Z" fill="#841bea"/>
            <path class="st26" d="M86.2,8C86.2,8,85.4,9,84.8,9.2C84.2,9.4,84.2,7.6,84.2,7.6L84.9,6.9Z"/>
            <path class="st27" d="M84,10.6L82.8,11.6C82.8,11.6,82.9,12.8,84,12.9C85,13,85.7,12.5,85.7,12.5L85.8,11.9Z"/>
            <path class="st28" d="M83.1,10.4C83.1,10.4,81,10.7,80,11.3C78.2,12.3,77.5,13.9,77.6,17.5C77.7,21.2,78,22,78,23C78,24,78.8,24.5,79.7,25.1C80.6,25.7,81.1,26.1,81.1,26.1C81.1,26.1,82.5,22.6,83.1,22.3C83.8,22,84.5,20.8,84.5,20.8L86.3,19.9L86.9,19.1L88.6,19.3C88.6,19.3,88.9,18.1,89.5,18C90,17.9,89.6,13.2,89.5,12.7C89.4,12.2,89.9,11.3,88.6,11.2C87.3,11.1,85.3,11.6,85.3,11.6L84.9,12C84.9,12,86.1,11.5,84.9,11.2C83.7,10.9,83.1,10.4,83.1,10.4Z" fill="#daadff"/>
            <path class="st23" d="M89,8C89,8,88.7,10.3,88.6,11.1C88.5,11.9,87.3,13.1,86.1,13.1C84.9,13.1,85,12.1,84.3,11.6C83.7,11.2,84.9,8.6,84.9,8.6Z" fill="#f9e5e1"/>
            <path class="st26" d="M85.1,8.8C85.1,8.8,88.7,9.4,88.9,9.4C89.1,9.4,89.2,8.2,89.2,8.2L88.5,7.2L85.8,6.6Z"/>
            <path class="st29" d="M89.1,9.8C89.1,9.8,89.7,7.9,89.3,6.8C88.9,5.8,87.5,4.2,85.8,4.3C84.1,4.4,83.7,4.4,83.2,5.4C82.7,6.4,82.1,6.9,82.2,7.7C82.3,8.5,82.8,10.2,82.7,10.3C82.6,10.4,83.8,10.6,83.8,10.6C83.8,10.6,84.1,10.8,84.5,9.9C84.9,9,84.4,8.5,84.9,8.3C85.5,8.1,85.4,8.5,85.4,8.5C85.4,8.5,86.8,7.9,87.9,8.5C89.3,9.1,88.9,10.2,89.1,9.8Z" fill="#6a13e8"/>
            <path class="st29" d="M89.1,10.1C89.1,10.1,89.7,8.3,89.5,7.5C89.3,6.7,88.7,4.6,86.9,4.5C85.1,4.4,83.8,4.2,83,5.2C82.3,6.2,81.6,7.5,82.1,9.3C82.6,11.1,84,12,84,12L84.4,11.4L85.3,9.6L85.9,8.9Z" fill="#6a13e8"/>
            <path class="st30" d="M84.2,11.6L83.8,12C83.8,12,83.7,12.7,84.1,12.8C84.5,12.9,85.4,13.8,85.9,13.8C86.5,13.7,86.8,13.1,86.8,13.1C86.8,13.1,86.4,13.3,85.9,13.2C85.5,13.1,84.9,12.1,84.6,12C84.4,11.9,84.2,11.6,84.2,11.6Z" fill="#d8a8ff"/>
            <path class="st23" d="M85.2,10C85.2,10,84.5,9.4,84.3,10C84.1,10.5,83.9,11.3,84.4,11.4Z" fill="#f9e5e1"/>
            <path class="st29" d="M90.4,21.3C90.4,21.3,91.2,21.5,91.5,21.9C91.8,22.3,92,22.5,92,22.8C92,23.1,92,23.5,92,23.5C92,23.5,93.7,22.8,93.8,22.6C93.9,22.5,93.9,21,93.6,20.7C93.2,20.4,91.3,20.9,91.3,20.9Z" fill="#6a13e8"/>
            <path class="st23" d="M89.9,19.7C89.9,19.7,90.9,19.5,91.2,19.3C91.6,19.1,92,18.8,92,19.3C92,19.8,91.5,20,91.9,20C92.3,20,92.7,19.6,93.2,19.9C93.6,20.2,93.7,20.7,93.5,21.2C93.3,21.7,91.8,21.8,90,21.1C88.2,20.4,89.9,19.7,89.9,19.7Z" fill="#f9e5e1"/>
            <path class="st24" d="M82.5,13.1C82.5,13.1,83.4,13.8,83.4,14.6C83.3,15.5,83.2,17.6,83.5,17.8C83.8,18,84.4,18.7,85.5,18.7C86.6,18.8,89.8,18.7,89.9,19.2C90,19.7,91.1,21.2,90.1,21.4C89.2,21.6,86.2,22.3,84.6,22.3C82.9,22.3,80.8,21.4,79.9,20.1C79,18.8,77.3,14.2,78.7,12.3C80.1,10.4,82.5,13.1,82.5,13.1Z" fill="#e5c4ff"/>
        </g>
    </g>
    <script><![CDATA[var ids=['_a0','_a1','_a2','wave','wave'];var anims=[[[1,222.581],[2,252.55],[7,0,-1,[0,700,1400],[-6,6,-6],[[0.42,0,0.58,1],[0.42,0,0.58,1],[-1]]],[1,-15.0188],[2,-10]],[[1,98.1],[2,277.95],[7,0,-1,[0,600,1200],[-11,11,-11],[[0.42,0,0.58,1],[0.42,0,0.58,1],[-1]]],[1,-14.2126],[2,-9.55]],[[1,228.069],[2,321.738],[7,0,-1,[0,700,1400],[9,-9,9],[[0.42,0,0.58,1],[0.42,0,0.58,1],[-1]]],[1,-17.0688],[2,-11.1875]],[[1,75.7374],[2,221.9],[3,0,-1,[0,2000],[0,4],[[0,0,0.58,1],[-1]]],[4,0,-1,[0,2000],[0,4],[[0,0,0.58,1],[-1]]],[1,-163.625],[2,-229.5],[8,0,-1,[0,1000,2000],[0.6,0.6,0]]],[[1,75.8001],[2,221.9],[3,1000,-1,[0,2000],[0,4],[[0,0,0.58,1],[-1]]],[4,1000,-1,[0,2000],[0,4],[[0,0,0.58,1],[-1]]],[1,-163.625],[2,-229.5],[8,1000,-1,[0,1000,2000],[0.6,0.6,0]]]];var end=-1;var v="- translate translate scale scale skewX skewY rotate opacity stroke-opacity fill-opacity stroke-width stroke-miterlimit stroke-dasharray stroke-dashoffset stroke fill filter".split(" "),w=[0,0,0,0,0,0,0,0,0,0,0,0,0,3,0,2,2,4],A="url blur brightness contrast drop-shadow grayscale hue-rotate invert opacity saturate sepia".split(" ");
(function(){function x(){0>t&&(t=(new Date).getTime());for(var d=(new Date).getTime()-t+B,a,e=u.length,b=0;b<e;++b){for(var c=u[b],h="",k=anims[b].length,n=0;n<k;++n){var g=anims[b][n],f=g[0];if(2==g.length)a=g[1];else{a=g[1];var l=g[3].length,m=g[3][l-1];a=d<=a?g[4][0]:0<=g[2]&&d>=a+g[2]?0!=m&&g[2]%m?z(g[2]%m,g):g[4][l-1]:z((d-a)%m,g)}0==f?(a=a*g[7]/100,f=g[6].getPointAtLength(a),h+="translate("+f.x+","+f.y+") ",g[8]&&(a?a=g[6].getPointAtLength(a-.001):(a=f,f=g[6].getPointAtLength(.001)),h+="rotate("+
180*Math.atan2(f.y-a.y,f.x-a.x)/Math.PI+") ")):7>=f?(g=v[f]+"(",g=3>f?g+(f&1?a+",0":"0,"+a):5>f?g+(f&1?a+",1":"1,"+a):g+a,h+=g+") "):(g=c,l=v[f],f=C(w[f],a),g.getAttribute("id"),g.setAttribute(l,f))}""!=h&&(c.getAttribute("id"),c.setAttribute("transform",h))}(0>end||d<end)&&p(x)}function q(d){return 0<=d?Math.pow(d,1/3):-Math.pow(-d,1/3)}function D(d,a,e,b){if(0==d)return 0==a?a=-b/e:(d=Math.sqrt(e*e-4*a*b),b=(-e+d)/(2*a),0<=b&&1>=b?a=b:(b=(-e-d)/(2*a),a=0<=b&&1>=b?b:0)),a;var c=e/d-a*a/(d*d)/3;e=
a*a*a/(d*d*d)/13.5-a*e/(d*d)/3+b/d;var h=e*e/4+c*c*c/27;a=-a/(3*d);if(0>=h)if(c||e){d=Math.sqrt(e*e/4-h);b=Math.acos(-e/2/d);e=Math.cos(b/3);b=Math.sqrt(3)*Math.sin(b/3);d=q(d);c=2*d*e+a;if(0<=c&&1>=c)return c;c=-d*(e+b)+a;if(0<=c&&1>=c)return c;c=d*(b-e)+a;if(0<=c&&1>=c)return c}else return-q(b/d);else{d=q(-e/2+Math.sqrt(h));e=q(-e/2-Math.sqrt(h));b=d+e+a;if(0<=b&&1>=b)return b;b=-(d+e)/2+a;if(0<=b&&1>=b)return b}return 0}function C(d,a){if(2==d&&"number"===typeof a)return"#"+("000000"+a.toString(16)).substr(-6);
if(3==d)return a.join(",");if(4==d){if(99==a[0])return"none";for(var e="",b=a.length,c=0;c<b;)e+=A[a[c]],0==a[c]?e+="("+a[c+1]+") ":4==a[c]?(e+="("+a[c+1]+"px "+a[c+2]+"px "+a[c+3]+"px #"+("00000000"+a[c+4].toString(16)).substr(-8)+") ",c+=3):e=1==a[c]?e+("("+a[c+1]+"px) "):6==a[c]?e+("("+a[c+1]+"deg) "):e+("("+(0>a[c+1]?0:a[c+1])+") "),c+=2;return e}return a}function k(d){return 0>=d?0:255<=d?255:d}function E(d,a,e,b){if(0==d)return(e-a)*b+a;if(1==d)return 1>b?a:e;if(2==d){if("number"===typeof a&&
"number"===typeof e){var c=1-b,h,y,n;return k(c*(a>>16)+b*(e>>16))<<16|k(c*(a>>8&255)+b*(e>>8&255))<<8|k(c*(a&255)+b*(e&255))}return 1>b?a:e}if(3==d){0==a.length&&(a=[0]);0==e.length&&(e=[0]);d=a.length;a.length!=e.length&&(d=a.length*e.length);for(var g=Array(d),f=0;f<d;++f)c=a[f%a.length],h=(e[f%e.length]-c)*b+c,0>h&&(h=0),g[f]=h;return g}if(4==d){d=a.length;if(d!=e.length)return a;g=Array(d);for(f=0;f<d;){if(a[f]!=e[f]||0==a[f])return a;g[f]=a[f];g[f+1]=(e[f+1]-a[f+1])*b+a[f+1];if(4==a[f]){g[f+
2]=(e[f+2]-a[f+2])*b+a[f+2];g[f+3]=(e[f+3]-a[f+3])*b+a[f+3];var c=1-b,l=a[f+4],m=e[f+4];h=c*(l>>>24)+b*(m>>>24);y=c*(l>>16&255)+b*(m>>16&255);n=c*(l>>8&255)+b*(m>>8&255);g[f+4]=(k(y)<<16|k(n)<<8|k(c*(l&255)+b*(m&255)))+16777216*(k(h)|0);f+=3}f+=2}return g}return 0}function z(d,a){var e;a:{e=a[3].length;for(var b=0;b<e;++b)if(d<a[3][b]){e=b;break a}--e}b=a[3][e-1];b=(d-b)/(a[3][e]-b);if(5<a.length&&a[5].length>e-1){var c=a[5][e-1];if(0<=c[0])if(0>=b)b=0;else if(1<=b)b=1;else var h=c[0],k=c[2],b=D(3*
h-3*k+1,-6*h+3*k,3*h,-b),b=3*b*(1-b)*(1-b)*c[1]+3*b*b*(1-b)*c[3]+b*b*b;else-1!=c[0]&&(-2==c[0]?(c=c[1],b=Math.ceil(b*c)/c):-3==c[0]?(c=c[1],b=Math.floor(b*c)/c):-4==c[0]&&(c=c[1],b=Math.floor(b*c)/(c-1)))}return E(w[a[0]],a[4][e-1],a[4][e],b)}var p=window.requestAnimationFrame||window.webkitRequestAnimationFrame||window.mozRequestAnimationFrame||window.oRequestAnimationFrame||window.msRequestAnimationFrame||null;p||(p=function(d){window.setTimeout(d,16)});for(var B=0,t=-1,u=Array(ids.length),r=0;r<
ids.length;++r)u[r]=document.getElementById(ids[r]);anims.forEach(function(d){if(0==d[0][0]){var a=document.createElementNS("http://www.w3.org/2000/svg","path");a.setAttribute("d",d[0][6]);d[0][8]=" "==d[0][6].charAt(0);d[0][7]=a.getTotalLength();d[0][6]=a}});p(x)})();
]]></script>
</svg>
