<?xml version="1.0" encoding="UTF-8"?>
<svg width="84px" height="84px" viewBox="0 0 84 84" version="1.1" xmlns="http://www.w3.org/2000/svg" xmlns:xlink="http://www.w3.org/1999/xlink">
    <!-- Generator: Sketch 44 (41411) - http://www.bohemiancoding.com/sketch -->
    <title>LingoAsset</title>
    <desc>Created with Sketch.</desc>
    <defs></defs>
    <g id="web" stroke="none" stroke-width="1" fill="none" fill-rule="evenodd">
        <g id="product_inter:-about" transform="translate(-545.000000, -506.000000)" fill-rule="nonzero">
            <g id="LingoAsset" transform="translate(544.000000, 505.000000)">
                <path d="M1.30769231,27.8538462 C1.30769231,27.8538462 38.1715385,67.014 42.0553846,85 C42.0553846,85 52.5953846,61.5556923 84.9947692,51.8264615 C84.9947692,51.8264615 73.5106154,24.8317692 42.9001538,3.44184615 C42.9001538,3.44184615 11.6240769,12.7643846 1.30115385,27.8538462" id="Shape" fill="#EFD8B1"></path>
                <path d="M5.45438462,11.6070769 C5.45438462,11.6070769 34.1974615,61.5086154 34.7453846,80.2216923 C34.7453846,80.2216923 49.1823077,60.8665385 82.3806923,61.8747692 C82.3806923,61.8747692 76.0854615,31.9704615 50.2140769,1.32861538 C50.2153846,1.32861538 18.1847692,0.287692308 5.45176923,11.6018462" id="Shape" fill="#FFF6D7"></path>
                <g id="Group" transform="translate(14.384615, 3.923077)" fill="#7D8B91">
                    <path d="M12.9265385,9.66646154 C12.5930769,10.1947692 13.26,9.14076923 12.9265385,9.66646154" id="Shape"></path>
                    <path d="M12.9265385,9.66646154 C13.1789231,9.26892308 13.2586923,8.58107692 13.6523077,8.28292308 C14.1544615,7.90630769 14.7533846,8.11946154 15.2346154,7.77161538 C16.2336923,7.04976923 16.7816154,5.62830769 17.7126923,4.77830769 C18.7876154,3.79753846 20.0966154,3.13715385 21.4592308,2.652 C22.8375385,2.108 24.2786154,1.05269231 25.8243077,1.139 C25.2332308,3.15938462 23.8353077,4.84238462 23.5423846,6.96607692 C23.3841538,8.11161538 23.5633077,9.32515385 23.63,10.4733077 C23.8967692,9.60761538 24.089,8.66346154 24.4760769,7.84484615 C25.0148462,6.70061538 26.1342308,6.82746154 27.183,6.43907692 C28.2762308,5.92123077 29.138,5.05161538 30.0259231,4.25392308 C30.3842308,4.87638462 31.8279231,3.80669231 32.0842308,4.76392308 C32.1953846,5.17584615 35.7954615,4.68023077 36.0635385,4.55076923 C35.3233846,4.50892308 32.5196923,4.69461538 32.3993846,4.00415385 C31.9966154,3.81976923 31.2865385,3.73346154 30.6392308,3.68507692 C30.668,3.41438462 30.6143846,3.06653846 30.702,2.81546154 C29.8951538,3.39084615 29.1523846,4.04207692 28.3677692,4.64753846 C27.2052308,5.54592308 25.7157692,5.35238462 24.6186154,6.15792308 C25.058,4.83323077 25.8596154,3.672 26.3656923,2.37476923 C26.5866923,1.80853846 26.7357692,1.22792308 26.8299231,0.627692308 C26.9175385,0.0706153846 26.8665385,0.350461538 26.4912308,0.104615385 C24.7258462,-0.368769231 22.7760769,0.997769231 21.2343077,1.72223077 C19.8206923,2.31723077 18.4776923,3.10576923 17.3896923,4.19769231 C16.7227692,4.86723077 15.6896923,7.25246154 14.7978462,7.46692308 C13.0154615,7.51530769 13.5594615,9.11723077 12.4191538,9.68476923 C11.8267692,9.979 11.3259231,9.93976923 10.7583846,10.3791538 C10.0430769,10.9362308 9.16169231,11.7666154 8.18223077,11.7169231 C8.20838462,10.8904615 8.22276923,10.0914615 7.87623077,9.31992308 C6.88892308,9.81161538 6.38023077,10.7557692 5.57730769,11.4527692 C5.86238462,9.40492308 6.72807692,7.59638462 6.75553846,5.48446154 C5.63223077,6.23638462 4.87507692,7.18707692 4.25392308,8.38492308 C3.502,9.83515385 2.83115385,12.1667692 1.26453846,12.9487692 C1.23446154,10.9375385 2.11976923,9.01261538 1.87784615,6.98830769 C1.62938462,7.86576923 1.57184615,9.11984615 1.29853846,10.1306923 C0.974230769,11.3324615 0.734923077,12.512 0.808153846,13.7634615 C3.62492308,13.3528462 4.23561538,9.12507692 5.88984615,7.31784615 C5.55769231,9.20353846 4.79530769,10.863 4.94830769,12.8206154 C6.12,12.1131538 6.62738462,10.8786923 7.68923077,10.0836154 C8.05930769,11.2631538 7.22630769,12.8127692 9.08976923,11.9523077 C9.911,11.5717692 10.5112308,10.8760769 11.2605385,10.3909231 C11.7927692,10.0509231 12.5446923,10.2693077 12.9226154,9.67038462" id="Shape"></path>
                    <path d="M41.1138462,15.4791538 C40.5920769,15.0214615 39.6413846,14.8684615 39.0385385,14.3035385 C38.3114615,13.6209231 37.0076923,13.9452308 36.1563846,14.144 C34.0222308,14.6422308 32.6334615,15.2372308 30.6235385,14.1060769 C30.6313846,14.7455385 30.7373077,17.4197692 29.7120769,17.2523846 C28.7509231,17.2366923 29.0281538,14.5088462 28.9444615,13.6523077 C28.4789231,14.3976923 27.9702308,15.0646154 27.9702308,15.9891538 C27.9702308,16.6730769 28.2618462,17.0823846 27.6773077,17.6355385 C26.9515385,18.3233846 25.7079231,18.1599231 24.8160769,18.0317692 C24.6029231,16.5488462 24.9743077,14.8488462 25.0723846,13.3567692 C24.7650769,14.6893077 24.4564615,16.0218462 24.1478462,17.3556923 C23.919,18.3443077 23.035,18.5443846 22.1418462,18.2789231 C21.9666154,18.0474615 22.2281538,16.9398462 22.2464615,16.6652308 C21.4409231,18.156 20.9256923,19.9148462 19.9083077,21.2643846 C19.4336154,21.8907692 18.2187692,22.5485385 17.7087692,21.5403077 C17.3517692,20.8328462 17.5570769,19.9083077 17.6577692,19.1563846 C17.0614615,19.9226923 16.4154615,22.1836923 15.2699231,22.1366154 C15.4072308,21.5808462 15.8505385,21.1257692 15.1901538,20.7896923 C14.8854615,21.3729231 14.6265385,22.0058462 14.3349231,22.6021538 C14.6513846,21.7678462 14.8357692,20.9165385 15.0096923,20.0456154 C13.2809231,21.0747692 12.2308462,22.5236923 11.3010769,24.2851538 C11.3520769,23.9686923 11.4200769,23.341 11.3808462,23.12 C11.2409231,23.6901538 10.2052308,25.6333846 10.8355385,25.9786154 C11.7600769,24.5074615 12.5433846,22.9303846 13.8916154,21.7874615 C13.1736923,23.7071538 12.4113077,25.4215385 12.0307692,27.4458462 C12.8624615,26.4768462 13.6496923,25.5287692 14.2329231,24.378 C14.4225385,24.0026923 14.5990769,23.6221538 14.7625385,23.2363846 C15.1862308,22.2516923 15.1705385,22.9879231 15.8923846,22.4661538 C16.5867692,21.9705385 16.8953846,21.0106923 17.2824615,20.2888462 C17.1909231,22.5825385 19.159,22.9983846 20.4196154,21.2173077 C20.9361538,20.4889231 21.2918462,19.6650769 21.6893846,18.8713077 C21.7142308,18.8595385 22.7093846,19.1786154 22.7983077,19.1877692 C23.2703846,19.2335385 23.6927692,19.1524615 24.0693846,18.8608462 C25.5431538,19.3760769 27.7858462,19.4597692 28.6737692,17.8565385 C30.2861538,19.5565385 31.2891538,16.9136923 31.3833077,15.6164615 C32.9708462,16.2075385 34.4393846,15.5013846 35.9301538,14.9665385 C36.7853846,14.6592308 38.5193846,13.9504615 39.1483846,15.0123077 C39.7930769,15.2463846 40.4560769,15.2947692 41.1138462,15.4791538" id="Shape"></path>
                    <path d="M27.2156923,28.8869231 C27.2470769,28.8986923 27.2823846,28.9 27.3150769,28.9104615 C27.3098462,28.8973846 27.2143846,28.8542308 27.2156923,28.8869231" id="Shape"></path>
                    <path d="M27.2156923,28.8869231 C27.2091538,28.4174615 26.7763077,28.101 26.3133846,28.4684615 C25.7170769,28.9392308 26.0426923,28.0643846 26.0845385,27.5766154 C26.1355385,26.9842308 26.1865385,26.3918462 26.2375385,25.8007692 C25.9406923,26.3316923 25.6006923,26.8547692 25.3404615,27.404 C24.837,28.2984615 24.9926154,29.9749231 23.6025385,30.1396923 C23.8052308,29.4832308 23.9896154,28.832 24.1648462,28.1637692 C23.4495385,28.7692308 22.7211538,29.2046923 22.6897692,30.2364615 C22.6492308,31.5114615 21.3585385,34.6355385 19.6650769,34.3086154 C19.8128462,31.7324615 21.2526154,29.3550769 21.8253846,26.8534615 C19.1838462,28.4383846 16.9607692,32.2856154 16.6613077,35.2645385 C18.003,33.1042308 18.8856923,30.5777692 20.7086154,28.7483077 C20.2417692,30.6823846 19.5290769,32.5366923 19.3656154,34.5348462 C19.3381538,34.8774615 20.3816923,34.6852308 20.5320769,34.6368462 C21.4383077,34.3413077 22.0869231,33.4586154 22.5433077,32.6700769 C22.7211538,32.3601538 22.8833077,32.0410769 23.0284615,31.7141538 C23.3933077,30.8968462 23.5319231,31.4251538 24.2681538,31.0956154 C25.1560769,30.6993846 25.2096923,29.5538462 26.0727692,29.6597692 C27.0234615,29.7774615 28.9954615,29.5564615 29.6323077,29.1262308 C28.8738462,29.0412308 28.0552308,29.1340769 27.3163846,28.9078462 C27.3163846,28.9156923 27.3006923,28.917 27.2156923,28.8869231 M26.5304615,28.4253077 C26.5997692,28.5011538 26.6991538,28.5312308 26.7344615,28.6436923 C26.6664615,28.5704615 26.5971538,28.4985385 26.5304615,28.4253077" id="Shape"></path>
                    <path d="M44.5792308,52.8307692 C45.2343846,51.9114615 44.2758462,52.7078462 44.5792308,52.8307692" id="Shape"></path>
                    <path d="M42.1207692,55.6867692 C42.1364615,55.6736923 42.1482308,55.658 42.1639231,55.6436154 C42.1050769,55.6933077 42.0462308,55.7443077 41.9991538,55.7861538 C42.0383846,55.7534615 42.0828462,55.7194615 42.1207692,55.6867692" id="Shape"></path>
                    <path d="M63.3446154,49.2372308 C60.9724615,47.4993077 58.2485385,46.4923846 55.6867692,45.0683077 C56.2621538,45.8816923 57.0206154,46.7068462 57.3684615,47.6523077 C55.998,47.7791538 56.1967692,50.0833077 56.0254615,50.099 C55.4003846,49.6530769 53.5970769,50.1081538 52.7536154,50.2114615 C52.7797692,50.0663077 52.8059231,49.9198462 52.8320769,49.7746923 C50.4128462,51.3766154 48.5742308,53.6559231 45.3939231,53.0661538 C46.8284615,50.8574615 48.0616154,48.3623846 47.8746154,45.6659231 C45.5783077,46.4858462 44.2261538,48.7298462 43.2035385,50.8103846 C42.9838462,49.9983077 41.9298462,49.3353077 41.1975385,49.9813077 C40.3697692,50.6743846 40.0454615,51.9153846 39.7564615,52.9053077 C39.4020769,54.1175385 39.1889231,55.3676923 39.1196154,56.6283077 C39.0712308,57.4900769 38.9391538,57.6862308 39.8976923,57.6626923 C42.109,57.6116923 44.0404615,55.1035385 45.1546154,53.448 C47.9936154,54.2182308 49.7276154,52.8608462 51.9572308,51.3465385 C52.0043077,52.3743846 52.7353077,53.0439231 53.7631538,52.8346923 C54.8014615,52.5940769 55.2683077,51.2759231 56.0856154,51.2236154 C56.6858462,51.1856923 57.0676923,51.4877692 57.7385385,51.4707692 C58.4486154,51.4472308 59.1560769,51.3439231 59.8609231,51.2641538 C59.1312308,50.3056154 58.8330769,49.7446154 58.5257692,48.4853077 C60.2009231,48.9338462 61.6132308,49.2843077 63.3472308,49.2372308 M42.1626154,55.6436154 C42.3509231,55.4827692 42.5104615,55.3454615 42.1194615,55.6867692 C41.8330769,55.9313077 41.8749231,55.8920769 41.9978462,55.7861538 C41.3361538,56.3393077 40.5306154,56.9395385 39.6361538,56.916 C39.6348462,54.9662308 39.8584615,52.6084615 40.8693077,50.8914615 C41.3649231,50.0493077 42.0736923,49.7982308 42.7955385,50.558 C43.3107692,51.1281538 42.6922308,51.6407692 42.6713077,52.1468462 C42.7994615,51.9114615 42.9315385,51.6813077 43.0701538,51.4511538 C43.2244615,52.2723846 43.6036923,52.7745385 44.3608462,53.1498462 C43.7096154,54.0456154 42.9956154,54.9086923 42.1626154,55.6436154 M44.5857692,52.8307692 C41.4407692,51.544 45.5469231,47.4966923 47.2887692,46.7133846 C47.0952308,48.9338462 45.8529231,51.0536154 44.5857692,52.8307692 M53.6323846,51.8421538 C52.5587692,52.1324615 52.5692308,51.1072308 52.7287692,50.3696923 C53.4100769,50.5985385 54.0887692,50.8365385 54.774,51.0523077 C54.4902308,51.4171538 54.0848462,51.7270769 53.6323846,51.8421538 M57.1213077,50.9333077 L57.1801538,50.7436923 C57.1553077,50.9411538 57.1343846,50.8888462 57.1213077,50.9333077 M57.3632308,50.1434615 C57.4416923,49.9943846 57.4678462,49.8034615 57.5175385,49.6413077 C57.1840769,49.7864615 56.8388462,49.9237692 56.4883846,50.0192308 C56.4609231,49.5824615 56.3641538,48.6409231 56.8728462,48.3924615 C57.9137692,47.8419231 57.8549231,49.5249231 58.0837692,50.1813846 C57.8431538,50.1683077 57.6038462,50.1552308 57.3632308,50.1434615 M58.5571538,47.7425385 C58.4747692,47.7333846 58.3923846,47.719 58.31,47.7072308 C58.2393846,47.5516154 58.3217692,47.5633846 58.5571538,47.7425385" id="Shape"></path>
                </g>
                <polygon id="Shape" fill="#FFCE31" transform="translate(63.385496, 22.922643) rotate(-44.991897) translate(-63.385496, -22.922643) " points="48.4504853 15.9232868 78.3205068 15.9232868 78.3205068 29.9219988 48.4504853 29.9219988"></polygon>
                <path d="M83.2084615,4.35723077 L81.9504615,3.09792308 C79.5626154,0.712692308 75.6983846,0.714 73.3105385,3.09792308 L68.9951538,7.41723077 L78.8917692,17.3138462 L83.2084615,12.9958462 C85.595,10.6106154 85.5936923,6.74376923 83.2084615,4.35723077" id="Shape" fill="#ED4C5C"></path>
                <polygon id="Shape" fill="#93A2AA" transform="translate(72.593333, 13.719912) rotate(-44.991897) translate(-72.593333, -13.719912) " points="70.6834665 6.72120967 74.5031991 6.72120967 74.5031991 20.718614 70.6834665 20.718614"></polygon>
                <polygon id="Shape" fill="#C7D3D8" transform="translate(72.590906, 13.724157) rotate(-45.000000) translate(-72.590906, -13.724157) " points="70.6810398 8.22340234 74.5007724 8.22340234 74.5007724 19.2249122 70.6810398 19.2249122"></polygon>
                <polygon id="Shape" fill="#FED0AC" points="47.8733077 28.5364615 43.5853846 39.7603846 46.5368462 42.7275385 57.7738462 38.4356923"></polygon>
                <path d="M42.8308462,41.7193077 C42.2384615,43.2793846 43.0283077,44.0679231 44.5857692,43.4729231 L50.0336154,41.3923846 L44.9179231,36.2740769 L42.8308462,41.7193077" id="Shape" fill="#333333"></path>
                <polygon id="Shape" fill="#FFDF85" transform="translate(58.732434, 20.975952) rotate(45.000000) translate(-58.732434, -20.975952) " points="56.400187 7.95015406 61.0646807 7.95015406 61.0646807 34.0017504 56.400187 34.0017504"></polygon>
                <polygon id="Shape" fill="#FF8736" transform="translate(65.338626, 27.576713) rotate(44.991897) translate(-65.338626, -27.576713) " points="63.0057255 14.5509144 67.6715269 14.5509144 67.6715269 40.602511 63.0057255 40.602511"></polygon>
            </g>
        </g>
    </g>
</svg>