<?xml version="1.0" encoding="UTF-8" standalone="no"?>
<svg width="35px" height="35px" viewBox="0 0 35 35" version="1.1" xmlns="http://www.w3.org/2000/svg" xmlns:xlink="http://www.w3.org/1999/xlink">
    <!-- Generator: Sketch 42 (36781) - http://www.bohemiancoding.com/sketch -->
    <title>6</title>
    <desc>Created with Sketch.</desc>
    <defs>
        <linearGradient x1="50%" y1="0%" x2="50%" y2="100%" id="linearGradient-1">
            <stop stop-color="#5190FF" offset="0%"></stop>
            <stop stop-color="#005DFF" offset="100%"></stop>
        </linearGradient>
        <path d="M0,7.33333333 L0,30.6666667 C0,32.5083325 1.49166667,34 3.33333333,34 L26.6666667,34 C28.5083333,34 30,32.5083325 30,30.6666667 L30,7.33333333 C30,5.49166667 28.5083333,4 26.6666667,4 L3.33333333,4 C1.49166667,4 0,5.49166667 0,7.33333333 Z M20,14 C20,16.7666667 17.7583333,19 15,19 C12.2416667,19 10,16.7666667 10,14 C10,11.2416667 12.2416667,9 15,9 C17.7583333,9 20,11.2416667 20,14 Z M5,27.3333333 C5,24 11.6666667,22.1666667 15,22.1666667 C18.3333333,22.1666667 25,24 25,27.3333333 L25,29 L5,29 L5,27.3333333 Z" id="path-2"></path>
        <mask id="mask-3" maskContentUnits="userSpaceOnUse" maskUnits="objectBoundingBox" x="-1" y="-1" width="32" height="32">
            <rect x="-1" y="3" width="32" height="32" fill="white"></rect>
            <use xlink:href="#path-2" fill="black"></use>
        </mask>
    </defs>
    <g id="web_2" stroke="none" stroke-width="1" fill="none" fill-rule="evenodd">
        <g id="product_max:-feature" transform="translate(-578.000000, -867.000000)">
            <g id="Group-2" transform="translate(220.000000, 513.000000)">
                <g id="6" transform="translate(335.000000, 333.000000)">
                    <rect id="Rectangle-3-Copy-6" x="0" y="0" width="80" height="80"></rect>
                    <g id="icon" transform="translate(24.000000, 21.000000)">
                        <path d="M4,3.33333333 L4,26.6666667 C4,28.5083325 5.49166667,30 7.33333333,30 L30.6666667,30 C32.5083333,30 34,28.5083325 34,26.6666667 L34,3.33333333 C34,1.49166667 32.5083333,0 30.6666667,0 L7.33333333,0 C5.49166667,0 4,1.49166667 4,3.33333333 Z" id="Page-1" fill="url(#linearGradient-1)"></path>
                        <rect id="Rectangle-2" fill="#FFFFFF" x="3" y="6" width="24" height="25"></rect>
                        <g id="Page-1-Copy-2">
                            <use fill="url(#linearGradient-1)" fill-rule="evenodd" xlink:href="#path-2"></use>
                            <use stroke="#FFFFFF" mask="url(#mask-3)" stroke-width="2" xlink:href="#path-2"></use>
                        </g>
                    </g>
                </g>
            </g>
        </g>
    </g>
</svg>