<?xml version="1.0" encoding="UTF-8" standalone="no"?>
<svg width="35px" height="34px" viewBox="0 0 35 34" version="1.1" xmlns="http://www.w3.org/2000/svg" xmlns:xlink="http://www.w3.org/1999/xlink">
    <!-- Generator: Sketch 42 (36781) - http://www.bohemiancoding.com/sketch -->
    <title>5</title>
    <desc>Created with Sketch.</desc>
    <defs>
        <linearGradient x1="50%" y1="0%" x2="50%" y2="100%" id="linearGradient-1">
            <stop stop-color="#5190FF" offset="0%"></stop>
            <stop stop-color="#005DFF" offset="100%"></stop>
        </linearGradient>
    </defs>
    <g id="web_2" stroke="none" stroke-width="1" fill="none" fill-rule="evenodd">
        <g id="product_max:-feature" transform="translate(-328.000000, -869.000000)">
            <g id="Group-2" transform="translate(220.000000, 513.000000)">
                <g id="5" transform="translate(85.000000, 333.000000)">
                    <rect id="Rectangle-3-Copy-7" x="0" y="0" width="80" height="80"></rect>
                    <g id="icon" transform="translate(23.000000, 23.000000)" fill="url(#linearGradient-1)">
                        <path d="M9.25833333,3.3 L6.875,0.916666667 C2.88333333,3.95833333 0.25,8.65833333 0,14 L3.33333333,14 C3.59166667,9.58333333 5.86666667,5.71666667 9.25833333,3.3 Z M31.5833333,14 L34.9166667,14 C34.6666667,8.65833333 32.0333333,3.95833333 28.0416667,0.916666667 L25.6666667,3.29166667 C29.05,5.71666667 31.325,9.58333333 31.5833333,14 Z M28.2916667,14.8333333 C28.2916667,9.70833333 24.7333333,5.43333333 19.9583333,4.3 L19.9583333,3.16666667 C19.9583333,1.78333333 18.8416667,0.666666667 17.4583333,0.666666667 C16.075,0.666666667 14.9583333,1.78333333 14.9583333,3.16666667 L14.9583333,4.3 C10.1833333,5.43333333 6.625,9.70833333 6.625,14.8333333 L6.625,24 L3.29166667,27.3333333 L3.29166667,29 L31.625,29 L31.625,27.3333333 L28.2916667,24 L28.2916667,14.8333333 Z M17.4583333,34 C17.6916667,34 17.9166667,33.9750008 18.1333333,33.9333317 C19.2166667,33.7083317 20.1083333,32.9583333 20.5333333,31.966665 C20.7,31.566665 20.7916667,31.1333317 20.7916667,30.6666633 L14.125,30.6666633 C14.125,32.5083292 15.6166667,33.9999967 17.4583333,33.9999967 L17.4583333,34 Z" id="Page-1"></path>
                    </g>
                </g>
            </g>
        </g>
    </g>
</svg>