<?xml version="1.0" encoding="UTF-8"?>
<svg width="80px" height="98px" viewBox="0 0 80 98" version="1.1" xmlns="http://www.w3.org/2000/svg" xmlns:xlink="http://www.w3.org/1999/xlink">
    <!-- Generator: Sketch 44 (41411) - http://www.bohemiancoding.com/sketch -->
    <title>Group 5</title>
    <desc>Created with Sketch.</desc>
    <defs></defs>
    <g id="web" stroke="none" stroke-width="1" fill="none" fill-rule="evenodd">
        <g id="product_max:-about" transform="translate(-805.000000, -482.000000)">
            <g id="Group-5" transform="translate(805.000000, 482.000000)">
                <rect id="Rectangle-37" fill="#AEB8BE" x="0" y="95" width="80" height="3"></rect>
                <g id="Group-2" transform="translate(4.000000, 29.000000)">
                    <polygon id="Rectangle" fill="#DCE3E9" points="0 4 20 0 20 66 0 66"></polygon>
                    <rect id="Rectangle-3" fill="#9EA4A8" x="12" y="7" width="4" height="5"></rect>
                    <rect id="Rectangle-3-Copy" fill="#9EA4A8" x="4" y="7" width="4" height="5"></rect>
                    <rect id="Rectangle-3-Copy-3" fill="#9EA4A8" x="12" y="15" width="4" height="5"></rect>
                    <rect id="Rectangle-3-Copy-2" fill="#9EA4A8" x="4" y="15" width="4" height="5"></rect>
                    <rect id="Rectangle-3-Copy-5" fill="#9EA4A8" x="12" y="23" width="4" height="5"></rect>
                    <rect id="Rectangle-3-Copy-4" fill="#9EA4A8" x="4" y="23" width="4" height="5"></rect>
                    <rect id="Rectangle-3-Copy-7" fill="#9EA4A8" x="12" y="31" width="4" height="5"></rect>
                    <rect id="Rectangle-3-Copy-6" fill="#9EA4A8" x="4" y="31" width="4" height="5"></rect>
                    <rect id="Rectangle-3-Copy-9" fill="#9EA4A8" x="12" y="40" width="4" height="5"></rect>
                    <rect id="Rectangle-3-Copy-8" fill="#9EA4A8" x="4" y="40" width="4" height="5"></rect>
                    <rect id="Rectangle-3-Copy-11" fill="#9EA4A8" x="12" y="49" width="4" height="5"></rect>
                    <rect id="Rectangle-3-Copy-10" fill="#9EA4A8" x="4" y="49" width="4" height="5"></rect>
                    <rect id="Rectangle-3-Copy-13" fill="#9EA4A8" x="12" y="58" width="4" height="5"></rect>
                    <rect id="Rectangle-3-Copy-12" fill="#9EA4A8" x="4" y="58" width="4" height="5"></rect>
                </g>
                <rect id="Rectangle-4" fill="#D8D8D8" x="26" y="20" width="28" height="75"></rect>
                <g id="Group-3" transform="translate(30.000000, 24.000000)">
                    <rect id="Rectangle-3-Copy" fill="#848484" x="8" y="0" width="4" height="5"></rect>
                    <rect id="Rectangle-3-Copy-15" fill="#848484" x="0" y="0" width="4" height="5"></rect>
                    <rect id="Rectangle-3-Copy-14" fill="#848484" x="16" y="0" width="4" height="5"></rect>
                    <rect id="Rectangle-3-Copy-18" fill="#848484" x="8" y="7" width="4" height="5"></rect>
                    <rect id="Rectangle-3-Copy-17" fill="#848484" x="0" y="7" width="4" height="5"></rect>
                    <rect id="Rectangle-3-Copy-16" fill="#848484" x="16" y="7" width="4" height="5"></rect>
                    <rect id="Rectangle-3-Copy-21" fill="#848484" x="8" y="14" width="4" height="5"></rect>
                    <rect id="Rectangle-3-Copy-20" fill="#848484" x="0" y="14" width="4" height="5"></rect>
                    <rect id="Rectangle-3-Copy-19" fill="#848484" x="16" y="14" width="4" height="5"></rect>
                    <rect id="Rectangle-3-Copy-24" fill="#848484" x="8" y="21" width="4" height="5"></rect>
                    <rect id="Rectangle-3-Copy-23" fill="#848484" x="0" y="21" width="4" height="5"></rect>
                    <rect id="Rectangle-3-Copy-22" fill="#848484" x="16" y="21" width="4" height="5"></rect>
                    <rect id="Rectangle-3-Copy-27" fill="#848484" x="8" y="28" width="4" height="5"></rect>
                    <rect id="Rectangle-3-Copy-26" fill="#848484" x="0" y="28" width="4" height="5"></rect>
                    <rect id="Rectangle-3-Copy-25" fill="#848484" x="16" y="28" width="4" height="5"></rect>
                    <rect id="Rectangle-3-Copy-30" fill="#848484" x="8" y="35" width="4" height="5"></rect>
                    <rect id="Rectangle-3-Copy-29" fill="#848484" x="0" y="35" width="4" height="5"></rect>
                    <rect id="Rectangle-3-Copy-28" fill="#848484" x="16" y="35" width="4" height="5"></rect>
                    <rect id="Rectangle-3-Copy-33" fill="#848484" x="8" y="42" width="4" height="5"></rect>
                    <rect id="Rectangle-3-Copy-32" fill="#848484" x="0" y="42" width="4" height="5"></rect>
                    <rect id="Rectangle-3-Copy-31" fill="#848484" x="16" y="42" width="4" height="5"></rect>
                    <rect id="Rectangle-3-Copy-36" fill="#848484" x="8" y="49" width="4" height="5"></rect>
                    <rect id="Rectangle-3-Copy-35" fill="#848484" x="0" y="49" width="4" height="5"></rect>
                    <rect id="Rectangle-3-Copy-34" fill="#848484" x="16" y="49" width="4" height="5"></rect>
                    <rect id="Rectangle-3-Copy-37" fill="#595E64" x="2" y="59" width="7" height="12"></rect>
                    <rect id="Rectangle-3-Copy-38" fill="#595E64" x="11" y="59" width="7" height="12"></rect>
                </g>
                <rect id="Rectangle-4-Copy" fill="#B3B3B3" x="29" y="17" width="22" height="3"></rect>
                <rect id="Rectangle-4-Copy-2" fill="#9F9F9F" x="32" y="14" width="16" height="3"></rect>
                <rect id="Rectangle-4-Copy-3" fill="#737373" x="37" y="12" width="6" height="2"></rect>
                <g id="Group-2-Copy" transform="translate(66.000000, 62.000000) scale(-1, 1) translate(-66.000000, -62.000000) translate(56.000000, 29.000000)">
                    <polygon id="Rectangle" fill="#DCE3E9" points="0 4 20 0 20 66 0 66"></polygon>
                    <rect id="Rectangle-3" fill="#9FA4A7" x="12" y="7" width="4" height="5"></rect>
                    <rect id="Rectangle-3-Copy" fill="#9FA4A7" x="4" y="7" width="4" height="5"></rect>
                    <rect id="Rectangle-3-Copy-3" fill="#9FA4A7" x="12" y="15" width="4" height="5"></rect>
                    <rect id="Rectangle-3-Copy-2" fill="#9FA4A7" x="4" y="15" width="4" height="5"></rect>
                    <rect id="Rectangle-3-Copy-5" fill="#9FA4A7" x="12" y="23" width="4" height="5"></rect>
                    <rect id="Rectangle-3-Copy-4" fill="#9FA4A7" x="4" y="23" width="4" height="5"></rect>
                    <rect id="Rectangle-3-Copy-7" fill="#9FA4A7" x="12" y="31" width="4" height="5"></rect>
                    <rect id="Rectangle-3-Copy-6" fill="#9FA4A7" x="4" y="31" width="4" height="5"></rect>
                    <rect id="Rectangle-3-Copy-9" fill="#9FA4A7" x="12" y="40" width="4" height="5"></rect>
                    <rect id="Rectangle-3-Copy-8" fill="#9FA4A7" x="4" y="40" width="4" height="5"></rect>
                    <rect id="Rectangle-3-Copy-11" fill="#9FA4A7" x="12" y="49" width="4" height="5"></rect>
                    <rect id="Rectangle-3-Copy-10" fill="#9FA4A7" x="4" y="49" width="4" height="5"></rect>
                    <rect id="Rectangle-3-Copy-13" fill="#9FA4A7" x="12" y="58" width="4" height="5"></rect>
                    <rect id="Rectangle-3-Copy-12" fill="#9FA4A7" x="4" y="58" width="4" height="5"></rect>
                </g>
                <polygon id="Triangle-3" fill="#737373" points="40 0 42 12 38 12"></polygon>
            </g>
        </g>
    </g>
</svg>