<?xml version="1.0" encoding="UTF-8" standalone="no"?>
<svg width="39px" height="30px" viewBox="0 0 39 30" version="1.1" xmlns="http://www.w3.org/2000/svg" xmlns:xlink="http://www.w3.org/1999/xlink">
    <!-- Generator: Sketch 42 (36781) - http://www.bohemiancoding.com/sketch -->
    <title>1</title>
    <desc>Created with Sketch.</desc>
    <defs>
        <linearGradient x1="50%" y1="0%" x2="50%" y2="100%" id="linearGradient-1">
            <stop stop-color="#5190FF" offset="0%"></stop>
            <stop stop-color="#005DFF" offset="100%"></stop>
        </linearGradient>
    </defs>
    <g id="web_2" stroke="none" stroke-width="1" fill="none" fill-rule="evenodd">
        <g id="product_max:-feature" transform="translate(-326.000000, -576.000000)">
            <g id="Group-2" transform="translate(220.000000, 513.000000)">
                <g id="1" transform="translate(84.000000, 37.000000)">
                    <rect id="Rectangle-3" x="0" y="0" width="80" height="80"></rect>
                    <g id="icon" transform="translate(22.000000, 26.000000)" fill="url(#linearGradient-1)">
                        <path d="M11.1635099,17.4304556 L4.76952658,16.1900653 L5.26508857,13.6456952 L11.6590719,14.8860854 L11.6595765,14.8834946 L15.2610357,15.5821537 L15.260524,15.5847432 L29.2847162,18.3053432 L30.788041,16.7133912 L29.9389733,21.0727707 L14.7580532,18.1277731 L13.5748064,24.1162442 L3.6688666,24.1162442 L3.6688666,29.7916667 L0,29.7916667 L0,16.6100402 L3.6688666,16.6100402 L3.6688666,20.8208375 L10.5031718,20.8208375 L11.1635099,17.4304556 Z M38.1938695,6.10286168 L28.5150041,16.3913101 L3.39566278,11.5086048 L4.5770597,5.4308445 C5.22571533,2.0938006 8.44789197,-0.0533733164 11.7776738,0.635759161 L38.1938695,6.10286168 Z M36.7933899,11.1172692 L38.9984335,11.5458863 L37.4277295,19.6264579 L35.2226859,19.1978408 L36.7933899,11.1172692 Z" id="Combined-Shape"></path>
                    </g>
                </g>
            </g>
        </g>
    </g>
</svg>