<?xml version="1.0" encoding="utf-8"?>
<!-- Generator: Adobe Illustrator 21.1.0, SVG Export Plug-In . SVG Version: 6.00 Build 0)  -->
<svg version="1.1" id="레이어_1" xmlns="http://www.w3.org/2000/svg" xmlns:xlink="http://www.w3.org/1999/xlink" x="0px"
	 y="0px" viewBox="0 0 612 600" style="enable-background:new 0 0 612 600;" xml:space="preserve">
<style type="text/css">
	.st0{opacity:0.22;fill:#231815;}
	.st1{enable-background:new    ;}
	.st2{clip-path:url(#SVGID_2_);enable-background:new    ;}
	.st3{fill:#A5A5A5;}
	.st4{fill:#A1A1A1;}
	.st5{clip-path:url(#SVGID_4_);enable-background:new    ;}
	.st6{fill:#9D9D9D;}
	.st7{fill:#9A9A9A;}
	.st8{fill:#ACACAC;}
	.st9{fill:#F8F8F8;}
	.st10{clip-path:url(#SVGID_6_);enable-background:new    ;}
	.st11{fill:#DC4214;}
	.st12{fill:#B1B1B2;}
	.st13{fill:#C98CF9;}
	.st14{fill:#FF9700;}
	.st15{clip-path:url(#SVGID_10_);}
	.st16{clip-path:url(#SVGID_13_);enable-background:new    ;}
	.st17{opacity:0.51;}
	.st18{fill:#FFF2D1;}
	.st19{clip-path:url(#SVGID_16_);enable-background:new    ;}
	.st20{fill:#FFFFFF;}
	.st21{opacity:0.2588;fill:#FF7945;enable-background:new    ;}
	.st22{fill:#FF7945;}
	.st23{opacity:0.4118;fill:#FF4800;enable-background:new    ;}
	.st24{opacity:0.7;}
	.st25{fill:#EE7800;}
	.st26{clip-path:url(#SVGID_20_);}
	.st27{fill:#FFF0F0;}
	.st28{fill:#FFD4D4;}
	.st29{fill:#FFBE69;}
	.st30{fill:#FFAA00;}
	.st31{clip-path:url(#SVGID_22_);enable-background:new    ;}
	.st32{fill:#EE761E;}
	.st33{clip-path:url(#SVGID_24_);enable-background:new    ;}
	.st34{opacity:0.82;}
	.st35{clip-path:url(#SVGID_26_);enable-background:new    ;}
	.st36{opacity:0.45;}
	.st37{opacity:0.45;fill:#FFC73B;enable-background:new    ;}
	.st38{opacity:0.3608;fill:#FFFFFF;enable-background:new    ;}
	.st39{fill:#FFBB04;}
	.st40{fill:#FF7300;}
	.st41{opacity:0.35;fill:#FFFFFF;enable-background:new    ;}
	.st42{opacity:0.9;}
	.st43{fill:#FFB852;}
	.st44{opacity:0.47;fill:#FFFFFF;enable-background:new    ;}
	.st45{opacity:0.25;fill:#FFFFFF;enable-background:new    ;}
	.st46{opacity:0.2;fill:#231815;}
	.st47{opacity:0.51;fill:#FFFFFF;enable-background:new    ;}
</style>
<g>
	<g>
		<path class="st0" d="M593.2,455c5,2.9,5,7.6,0,10.4l-228,132.4c-5,2.9-13.1,2.9-18.1,0L91.2,450.1c-5-2.9-5-7.6,0-10.4l228-132.4
			c5-2.9,13.1-2.9,18.1,0L593.2,455z"/>
	</g>
</g>
<g>
	<g>
		<g>
			<g class="st1">
				<g class="st1">
					<g>
						<g>
							<g>
								<g>
									<defs>
										<path id="SVGID_1_" d="M65.8,369.6v-7.9c0,2.1,1.4,4.3,4.2,5.8v7.9C67.2,373.9,65.8,371.7,65.8,369.6z"/>
									</defs>
									<clipPath id="SVGID_2_">
										<use xlink:href="#SVGID_1_"  style="overflow:visible;"/>
									</clipPath>
									<g class="st2">
										<path class="st3" d="M70,367.5v7.9c-2.5-1.4-3.9-3.3-4.2-5.1v-7.9C66.1,364.3,67.5,366.1,70,367.5"/>
										<path class="st4" d="M65.8,362.4v7.9c0-0.3,0-0.4,0-0.7v-7.9C65.8,361.9,65.8,362.1,65.8,362.4"/>
									</g>
								</g>
							</g>
						</g>
					</g>
				</g>
				<g class="st1">
					<g>
						<g>
							<g>
								<g>
									<defs>
										<path id="SVGID_3_" d="M611.6,391.3v7.9c0,2.1-1.4,4.2-4.2,5.8v-7.9C610.2,395.5,611.6,393.4,611.6,391.3z"/>
									</defs>
									<clipPath id="SVGID_4_">
										<use xlink:href="#SVGID_3_"  style="overflow:visible;"/>
									</clipPath>
									<g class="st5">
										<path class="st6" d="M611.6,391.3v7.9c0,2.1-1.4,4.2-4.2,5.8v-7.9C610.2,395.5,611.6,393.4,611.6,391.3"/>
									</g>
								</g>
							</g>
						</g>
					</g>
				</g>
				<g>
					<polygon class="st7" points="607.4,397.1 607.4,405.1 375.1,540 375.1,532 					"/>
				</g>
				<g>
					<polygon class="st8" points="355,532 355,540 70,375.4 70,367.5 					"/>
				</g>
				<g>
					<path class="st9" d="M607.4,385.4c5.6,3.2,5.6,8.5,0,11.7L375.1,532c-5.6,3.2-14.6,3.2-20.2,0L70,367.5
						c-5.6-3.2-5.6-8.5,0-11.7l232.3-134.9c5.6-3.2,14.6-3.2,20.2,0L607.4,385.4z"/>
				</g>
				<g class="st1">
					<g>
						<g>
							<g>
								<g>
									<defs>
										<path id="SVGID_5_" d="M375.1,532v7.9c-5.6,3.2-14.6,3.2-20.2,0V532C360.5,535.2,369.6,535.2,375.1,532z"/>
									</defs>
									<clipPath id="SVGID_6_">
										<use xlink:href="#SVGID_5_"  style="overflow:visible;"/>
									</clipPath>
									<g class="st10">
										<path class="st6" d="M375.1,532v7.9c-3.1,1.8-7.1,2.5-11.1,2.4v-7.9C368,534.7,372.1,533.9,375.1,532"/>
										<path class="st4" d="M364,534.6v7.9c-1.8-0.1-3.8-0.4-5.4-0.8v-7.9C360.4,534.1,362.2,534.4,364,534.6"/>
										<path class="st3" d="M358.6,533.6v7.9c-1.3-0.4-2.5-0.8-3.6-1.5v-8C356.1,532.7,357.3,533.2,358.6,533.6"/>
									</g>
								</g>
							</g>
						</g>
					</g>
				</g>
			</g>
		</g>
		<g>
			<polygon class="st11" points="579.3,384.6 352.3,516.5 96.3,368.6 323.2,236.8 			"/>
		</g>
		<g>
			<path class="st12" d="M493.9,448.3c4,2.4,4,6.1,0,8.5s-10.6,2.4-14.6,0s-4-6.1,0-8.5C483.3,446,489.9,446.1,493.9,448.3z"/>
		</g>
		<g>
			<path class="st13" d="M206.4,292.3c1,0.6,1,1.5,0,2.1s-2.5,0.6-3.5,0s-1-1.5,0-2.1C203.9,291.7,205.4,291.7,206.4,292.3z"/>
		</g>
	</g>
</g>
<g>
	<g class="st1">
		<g>
			<g>
				<g>
					<g>
						<g>
							<path id="SVGID_7_" class="st14" d="M158.7,322l-4.9-2.8c-3.1-1.8-5-5.6-5-11l4.9,2.8C153.7,316.5,155.6,320.2,158.7,322z"/>
						</g>
						<g>
							<defs>
								<path id="SVGID_8_" d="M158.7,322l-4.9-2.8c-3.1-1.8-5-5.6-5-11l4.9,2.8C153.7,316.5,155.6,320.2,158.7,322z"/>
							</defs>
							<clipPath id="SVGID_10_">
								<use xlink:href="#SVGID_8_"  style="overflow:visible;"/>
							</clipPath>
							<g class="st15">
								<path class="st11" d="M158.7,322l-4.9-2.8c-3.1-1.8-5-5.6-5-11l4.9,2.8C153.7,316.5,155.6,320.2,158.7,322"/>
							</g>
						</g>
					</g>
				</g>
			</g>
		</g>
		<g>
			<g>
				<g>
					<g>
						<g>
							<path id="SVGID_9_" class="st14" d="M303.9,41.2l4.9,2.8c-3.1-1.8-7.4-1.5-12.1,1.3l-4.9-2.8
								C296.5,39.7,300.9,39.4,303.9,41.2z"/>
						</g>
						<g>
							<defs>
								<path id="SVGID_12_" d="M303.9,41.2l4.9,2.8c-3.1-1.8-7.4-1.5-12.1,1.3l-4.9-2.8C296.5,39.7,300.9,39.4,303.9,41.2z"/>
							</defs>
							<clipPath id="SVGID_13_">
								<use xlink:href="#SVGID_12_"  style="overflow:visible;"/>
							</clipPath>
							<g class="st16">
								<path class="st14" d="M296.7,45.2l-4.9-2.8c0,0,0,0,0.1,0L296.7,45.2L296.7,45.2"/>
								<path class="st11" d="M296.8,45.2l-4.9-2.8c1.3-0.7,2.5-1.3,3.8-1.7l4.9,2.8C299.3,43.8,298.1,44.4,296.8,45.2"/>
								<path class="st11" d="M300.6,43.6l-4.9-2.8c2.4-0.7,4.4-0.8,6.4-0.3l4.9,2.8C305,42.7,302.8,42.7,300.6,43.6"/>
								<path class="st14" d="M306.8,43.1l-4.9-2.8c0.4,0.1,0.8,0.3,1.3,0.4l4.9,2.8C307.8,43.6,307.3,43.3,306.8,43.1"/>
								<path class="st14" d="M308.2,43.7l-4.9-2.8c0.3,0.1,0.4,0.3,0.7,0.3l4.9,2.8C308.6,43.8,308.4,43.8,308.2,43.7"/>
							</g>
						</g>
					</g>
				</g>
			</g>
		</g>
		<g>
			<polygon class="st11" points="153.7,311 148.8,308.3 148.4,144.8 153.3,147.6 			"/>
		</g>
		<g>
			<polygon class="st11" points="170.2,118.3 165.4,115.3 291.8,42.3 296.7,45.2 			"/>
		</g>
		<g class="st17">
			<path class="st18" d="M296.7,45.2c9.5-5.4,17.1-1.1,17.1,9.7l0.4,163.4c0,10.8-7.6,24.1-17,29.5l-126.4,73
				c-9.5,5.4-17.1,1.1-17.1-9.7l-0.4-163.4c0-10.8,7.6-24.1,17-29.5L296.7,45.2z"/>
		</g>
		<g>
			<g>
				<g>
					<g>
						<g>
							<path id="SVGID_11_" class="st14" d="M153.3,147.6l-4.9-2.8c0-10.9,7.6-24.1,17-29.5l4.9,2.8
								C160.9,123.7,153.3,136.9,153.3,147.6z"/>
						</g>
						<g>
							<defs>
								<path id="SVGID_14_" d="M153.3,147.6l-4.9-2.8c0-10.9,7.6-24.1,17-29.5l4.9,2.8C160.9,123.7,153.3,136.9,153.3,147.6z"/>
							</defs>
							<clipPath id="SVGID_16_">
								<use xlink:href="#SVGID_14_"  style="overflow:visible;"/>
							</clipPath>
							<g class="st19">
								<path class="st11" d="M153.3,147.6l-4.9-2.8c0-8.1,4.2-17.2,10.2-23.8l4.9,2.8C157.4,130.4,153.3,139.7,153.3,147.6"/>
								<path class="st11" d="M163.4,123.8l-4.9-2.8c1.1-1.3,2.4-2.4,3.6-3.3l4.9,2.8C165.7,121.5,164.5,122.6,163.4,123.8"/>
								<path class="st11" d="M166.9,120.5l-4.9-2.8c1.1-0.8,2.2-1.7,3.3-2.4l4.9,2.8C169.1,118.8,168,119.6,166.9,120.5"/>
							</g>
						</g>
					</g>
				</g>
			</g>
		</g>
	</g>
</g>
<g>
	<g>
		<g class="st1">
			<g>
				<path class="st20" d="M213.6,174.2l-33.2,19.2c-1,0.6-1.7,1.8-1.7,2.9v0.3c0,1.1,0.8,1.5,1.7,1l33.2-19.2c1-0.6,1.7-1.8,1.7-2.9
					v-0.3C215.3,174.2,214.6,173.8,213.6,174.2"/>
				<path class="st21" d="M257.3,114.1l-49.9,28.8c-1,0.6-1.7,1.8-1.7,2.9v0.3c0,1.1,0.8,1.5,1.7,1l49.9-28.8c1-0.6,1.7-1.8,1.7-2.9
					v-0.3C259.1,113.9,258.3,113.5,257.3,114.1"/>
				<path class="st22" d="M197.9,148.3l-17.7,10.2c-1,0.6-1.7,1.8-1.7,2.9v0.3c0,1.1,0.8,1.5,1.7,1l17.7-10.2c1-0.6,1.7-1.8,1.7-2.9
					v-0.3C199.6,148.2,198.9,147.7,197.9,148.3"/>
				<path class="st23" d="M244.4,187.9l-64,36.9c-1,0.6-1.7,1.8-1.7,2.9v0.3c0,1.1,0.8,1.5,1.7,1l64-36.9c1-0.6,1.7-1.8,1.7-2.9
					v-0.3C246.2,187.8,245.4,187.4,244.4,187.9"/>
				<path class="st20" d="M280.7,166.9l-25.2,14.6c-1,0.6-1.7,1.8-1.7,2.9v0.3c0,1.1,0.8,1.5,1.7,1l25.2-14.6c1-0.6,1.7-1.8,1.7-2.9
					v-0.3C282.4,166.9,281.7,166.5,280.7,166.9"/>
				<path class="st20" d="M286.7,183.5l-44,25.5c-1,0.6-1.7,1.8-1.7,2.9v0.3c0,1.1,0.8,1.5,1.7,1l44-25.5c1-0.6,1.7-1.8,1.7-2.9
					v-0.3C288.3,183.5,287.6,183.1,286.7,183.5"/>
				<path class="st20" d="M234.2,213.8l-53.7,31c-1,0.6-1.7,1.8-1.7,2.9v0.3c0,1.1,0.8,1.5,1.7,1l53.7-31c1-0.6,1.7-1.8,1.7-2.9
					v-0.3C235.9,213.7,235.2,213.3,234.2,213.8"/>
				<path class="st20" d="M189.6,259.2l-9,5.1c-1,0.6-1.7,1.8-1.7,2.9v0.3c0,1.1,0.8,1.5,1.7,1l9-5.1c1-0.6,1.7-1.8,1.7-2.9v-0.3
					C191.4,259,190.6,258.6,189.6,259.2"/>
				<path class="st22" d="M200.4,271.4l-19.8,11.4c-1,0.6-1.7,1.8-1.7,2.9v0.3c0,1.1,0.8,1.5,1.7,1l19.8-11.4c1-0.6,1.7-1.8,1.7-2.9
					v-0.3C202.1,271.4,201.4,270.8,200.4,271.4"/>
			</g>
		</g>
	</g>
</g>
<g class="st24">
	<g>
		<g class="st1">
			<g>
				<path class="st25" d="M168,161.4c8.5-4.9,15.4-1,15.4,8.8l0.1,66.9c0,9.7-6.8,21.7-15.3,26.6L118,292.8
					c-8.5,4.9-15.4,1-15.4-8.8l-0.1-66.9c0-9.7,6.8-21.7,15.3-26.6L168,161.4z"/>
			</g>
		</g>
	</g>
	<g>
		<g class="st1">
			<g>
				<g>
					<g>
						<g>
							<defs>
								<polygon id="SVGID_18_" points="120.9,269 120.7,217.1 171.4,187.9 171.5,239.8 								"/>
							</defs>
							<clipPath id="SVGID_20_">
								<use xlink:href="#SVGID_18_"  style="overflow:visible;"/>
							</clipPath>
							<g class="st26">
								<path class="st20" d="M135.8,208.4l-13.4,7.6c-1,0.6-1.8,1.9-1.8,3.1v0.3c0,1.1,0.8,1.5,1.8,1l13.4-7.6
									c1-0.6,1.8-1.9,1.8-3.1v-0.3C137.6,208.2,136.7,207.8,135.8,208.4"/>
								<path class="st27" d="M143,227.7l-20.4,11.8c-1,0.6-1.8,1.9-1.8,3.1v0.3c0,1.1,0.8,1.5,1.8,1L143,232c1-0.6,1.8-1.9,1.8-3.1
									v-0.3C144.7,227.6,144,227.2,143,227.7"/>
								<path class="st20" d="M134.6,256.8l-12.1,7c-1,0.6-1.8,1.9-1.8,3.1v0.3c0,1.1,0.8,1.5,1.8,1l12.1-7c1-0.6,1.8-1.9,1.8-3.1
									v-0.3C136.4,256.6,135.6,256.2,134.6,256.8"/>
								<path class="st28" d="M169.7,236.5l-24.8,14.3c-1,0.6-1.8,1.9-1.8,3.1v0.3c0,1.1,0.8,1.5,1.8,1l24.8-14.3
									c1-0.6,1.8-1.9,1.8-3.1v-0.3C171.5,236.3,170.7,235.9,169.7,236.5"/>
							</g>
						</g>
					</g>
				</g>
			</g>
		</g>
	</g>
</g>
<g>
	<path class="st29" d="M153.4,169.9l0.3,102.4l14.6-8.5c8.5-4.9,15.4-16.8,15.3-26.6l-0.1-67c0-9.7-7-13.8-15.4-8.8L153.4,169.9z"/>
</g>
<path class="st20" d="M555.8,219.2L555.8,219.2c7,0,12.7-5.7,12.7-12.7l0,0c0,7,5.7,12.7,12.7,12.7l0,0c-7,0-12.7,5.7-12.7,12.7l0,0
	C568.5,224.9,562.8,219.2,555.8,219.2z"/>
<path class="st20" d="M1.3,252.8L1.3,252.8c6.7,0,12.2-5.4,12.2-12.2l0,0c0,6.7,5.4,12.2,12.2,12.2l0,0c-6.7,0-12.2,5.4-12.2,12.2
	l0,0C13.5,258.3,8.1,252.8,1.3,252.8z"/>
<path class="st20" d="M85.4,94.1L85.4,94.1c5.1,0,9.2-4.2,9.2-9.2l0,0c0,5.1,4.2,9.2,9.2,9.2l0,0c-5.1,0-9.2,4.2-9.2,9.2l0,0
	C94.6,98.2,90.4,94.1,85.4,94.1z"/>
<g>
	<g class="st1">
		<g>
			<g>
				<g>
					<g>
						<g>
							<path id="SVGID_15_" class="st30" d="M240.1,374l-4.9-2.8c-4-2.4-6.5-7.2-6.5-14.3l4.9,2.8
								C233.7,366.8,236.2,371.7,240.1,374z"/>
						</g>
						<g>
							<defs>
								<path id="SVGID_21_" d="M240.1,374l-4.9-2.8c-4-2.4-6.5-7.2-6.5-14.3l4.9,2.8C233.7,366.8,236.2,371.7,240.1,374z"/>
							</defs>
							<clipPath id="SVGID_22_">
								<use xlink:href="#SVGID_21_"  style="overflow:visible;"/>
							</clipPath>
							<g class="st31">
								<path class="st32" d="M240.1,374l-4.9-2.8c-4-2.4-6.5-7.2-6.5-14.3l4.9,2.8C233.7,366.8,236.2,371.7,240.1,374"/>
							</g>
						</g>
					</g>
				</g>
			</g>
		</g>
		<g>
			<g>
				<g>
					<g>
						<g>
							<path id="SVGID_17_" class="st30" d="M400,65.8l4.9,2.8c-4-2.4-9.7-2.1-15.9,1.5l-4.9-2.8C390.4,63.7,396,63.5,400,65.8z"/>
						</g>
						<g>
							<defs>
								<path id="SVGID_23_" d="M400,65.8l4.9,2.8c-4-2.4-9.7-2.1-15.9,1.5l-4.9-2.8C390.4,63.7,396,63.5,400,65.8z"/>
							</defs>
							<clipPath id="SVGID_24_">
								<use xlink:href="#SVGID_23_"  style="overflow:visible;"/>
							</clipPath>
							<g class="st33">
								<path class="st30" d="M389,70.3l-4.9-2.8c6.3-3.6,11.8-3.9,15.9-1.5l4.9,2.8C400.9,66.2,395.3,66.7,389,70.3"/>
							</g>
						</g>
					</g>
				</g>
			</g>
		</g>
		<g>
			<polygon class="st32" points="233.7,359.7 228.7,356.9 228.2,177.5 233.1,180.4 			"/>
		</g>
		<g>
			<polygon class="st32" points="250.5,150.2 245.6,147.3 384.2,67.3 389,70.3 			"/>
		</g>
		<g class="st34">
			<path class="st18" d="M389,70.3c12.4-7.1,22.4-1.4,22.4,12.8l0.6,173.7c0,14.2-9.9,31.4-22.3,38.5L256,372.5
				c-12.4,7.1-22.4,1.4-22.4-12.8L233,180.3c0-11.1,7.8-24.6,17.4-30.2L389,70.3z"/>
		</g>
		<g>
			<g>
				<g>
					<g>
						<g>
							<path id="SVGID_19_" class="st30" d="M233.1,180.4l-4.9-2.8c0-11.1,7.8-24.6,17.4-30.2l4.9,2.8
								C240.9,155.8,233.1,169.3,233.1,180.4z"/>
						</g>
						<g>
							<defs>
								<path id="SVGID_25_" d="M233.1,180.4l-4.9-2.8c0-11.1,7.8-24.6,17.4-30.2l4.9,2.8C240.9,155.8,233.1,169.3,233.1,180.4z"/>
							</defs>
							<clipPath id="SVGID_26_">
								<use xlink:href="#SVGID_25_"  style="overflow:visible;"/>
							</clipPath>
							<g class="st35">
								<path class="st32" d="M233.1,180.4l-4.9-2.8c0-11.1,7.8-24.6,17.4-30.2l4.9,2.8C240.9,155.8,233.1,169.3,233.1,180.4"/>
							</g>
						</g>
					</g>
				</g>
			</g>
		</g>
	</g>
</g>
<g class="st36">
	<path class="st37" d="M314.3,218.4L314,113.5l-63.4,36.6c-9.6,5.6-17.5,19.1-17.4,30.2l0.3,104.3l63.8-36.9
		C306.7,242.5,314.3,229.2,314.3,218.4z"/>
</g>
<g>
	<g>
		<g class="st1">
			<g>
				<path class="st38" d="M320.5,273.1l-57.6,33.2c-1,0.6-1.7,1.8-1.7,2.9v0.3c0,1.1,0.8,1.5,1.7,1l57.6-33.2c1-0.6,1.7-1.8,1.7-2.9
					V274C322.1,272.9,321.4,272.5,320.5,273.1"/>
				<path class="st39" d="M296,262.6l-33.2,19.2c-1,0.6-1.7,1.8-1.7,2.9v0.3c0,1.1,0.8,1.5,1.7,1l33.2-19.2c1-0.6,1.7-1.8,1.7-2.9
					v-0.3C297.8,262.6,297,262.1,296,262.6"/>
				<path class="st40" d="M339.9,279.9L290,308.7c-1,0.6-1.7,1.8-1.7,2.9v0.3c0,1.1,0.8,1.5,1.7,1l49.9-28.8c1-0.6,1.7-1.8,1.7-2.9
					v-0.3C341.6,279.7,340.9,279.3,339.9,279.9"/>
				<path class="st39" d="M280.5,314.1l-17.7,10.2c-1,0.6-1.7,1.8-1.7,2.9v0.3c0,1.1,0.8,1.5,1.7,1l17.7-10.2c1-0.6,1.7-1.8,1.7-2.9
					v-0.3C282.2,314,281.5,313.5,280.5,314.1"/>
				<path class="st41" d="M326.7,219.7l-64,36.9c-1,0.6-1.7,1.8-1.7,2.9v0.3c0,1.1,0.8,1.5,1.7,1l64-36.9c1-0.6,1.7-1.8,1.7-2.9
					v-0.3C328.4,219.5,327.6,219.1,326.7,219.7"/>
				<path class="st20" d="M376.8,170.7l-44,25.5c-1,0.6-1.7,1.8-1.7,2.9v0.3c0,1.1,0.8,1.5,1.7,1l44-25.5c1-0.6,1.7-1.8,1.7-2.9
					v-0.3C378.6,170.6,377.8,170.1,376.8,170.7"/>
				<path class="st39" d="M316.4,205.6l-53.7,31c-1,0.6-1.7,1.8-1.7,2.9v0.3c0,1.1,0.8,1.5,1.7,1l53.7-31c1-0.6,1.7-1.8,1.7-2.9
					v-0.3C318.1,205.5,317.3,205,316.4,205.6"/>
				<path class="st40" d="M271.6,206.3l-9,5.1c-1,0.6-1.7,1.8-1.7,2.9v0.3c0,1.1,0.8,1.5,1.7,1l9-5.1c1-0.6,1.7-1.8,1.7-2.9v-0.3
					C273.3,206.2,272.6,205.7,271.6,206.3"/>
				<path class="st20" d="M282.4,173.2l-19.8,11.4c-1,0.6-1.7,1.8-1.7,2.9v0.3c0,1.1,0.8,1.5,1.7,1l19.8-11.4c1-0.6,1.7-1.8,1.7-2.9
					v-0.3C284,173.1,283.3,172.6,282.4,173.2"/>
			</g>
		</g>
	</g>
</g>
<g class="st42">
	<g>
		<g class="st1">
			<g>
				<path class="st25" d="M451.5,4.6c8.5-4.9,15.4-1,15.4,8.8l0.1,66.9c0,9.7-6.8,21.7-15.3,26.6L401.5,136
					c-8.5,4.9-15.4,1-15.4-8.8L386,60.3c0-9.7,6.8-21.7,15.3-26.6L451.5,4.6z"/>
			</g>
			<path class="st40" d="M453.9,3.5c0.3-0.1,0.7-0.3,1-0.4s0.4-0.1,0.7-0.1c0.3-0.1,0.6-0.1,0.8-0.1s0.4-0.1,0.7-0.1
				c0.3,0,0.6-0.1,0.8-0.1s0.4,0,0.7,0c0.3,0,0.6,0,0.7,0s0.4,0,0.6,0.1c0.3,0,0.4,0.1,0.7,0.1c0.1,0,0.4,0.1,0.6,0.1
				c0.1,0,0.4,0.1,0.6,0.3c0.3,0.1,0.6,0.3,0.8,0.4l0,0l0,0L458,1.1c-0.1-0.1-0.4-0.3-0.6-0.3c-0.1,0-0.1,0-0.3-0.1
				c-0.1-0.1-0.4-0.1-0.6-0.3c-0.1,0-0.3-0.1-0.3-0.1c-0.1,0-0.1,0-0.3,0c-0.3,0-0.4-0.1-0.7-0.1c-0.1,0-0.4,0-0.6-0.1
				c-0.3,0-0.6,0-0.7,0c-0.3,0-0.4,0-0.7,0s-0.6,0-0.8,0.1c-0.3,0-0.4,0-0.7,0.1c-0.3,0-0.6,0.1-0.8,0.1c-0.1,0-0.3,0.1-0.6,0.1
				h-0.1c-0.3,0.1-0.7,0.3-1,0.4c-0.1,0.1-0.4,0.1-0.6,0.3c-0.4,0.1-0.8,0.4-1.3,0.6c-0.1,0.1-0.3,0.1-0.4,0.3c0,0,0,0-0.1,0
				l-50.2,29.1c-0.6,0.3-1,0.7-1.5,1c-0.1,0.1-0.3,0.3-0.6,0.4c-0.3,0.3-0.7,0.4-1,0.7l0,0c-0.6,0.4-1.1,0.8-1.5,1.4
				c-0.1,0.1-0.3,0.3-0.4,0.4c-0.4,0.4-0.7,0.7-1.1,1.1l-0.1,0.1c-0.4,0.4-0.7,0.8-1.1,1.3c-0.1,0.1-0.1,0.1-0.3,0.3
				c-0.3,0.4-0.7,0.8-1,1.3c-0.1,0.1-0.3,0.3-0.3,0.4c-0.3,0.4-0.6,0.8-0.8,1.3c-0.1,0.1-0.1,0.3-0.3,0.3c-0.3,0.6-0.7,1.1-1,1.5
				c-0.1,0.1-0.1,0.3-0.3,0.4c-0.3,0.4-0.4,0.8-0.7,1.3c-0.1,0.1-0.1,0.3-0.3,0.6c-0.3,0.4-0.4,1-0.7,1.4c0,0.1-0.1,0.1-0.1,0.3
				c-0.3,0.6-0.4,1.1-0.7,1.7c0,0.1-0.1,0.3-0.1,0.4c-0.1,0.4-0.3,0.8-0.4,1.3c0,0.1-0.1,0.3-0.1,0.6c-0.1,0.6-0.3,1-0.4,1.5V52
				c-0.1,0.6-0.3,1.1-0.3,1.7c0,0.1,0,0.3-0.1,0.4c0,0.4-0.1,0.8-0.1,1.3c0,0.1,0,0.3,0,0.6c0,0.6,0,1.1,0,1.7l0.1,66.9
				c0,4.9,1.7,8.2,4.5,9.9l4.5,2.5c-2.8-1.7-4.5-5-4.5-9.9l-0.1-66.9c0-0.6,0-1.1,0-1.7c0-0.1,0-0.3,0-0.6c0-0.4,0.1-0.8,0.1-1.3
				c0-0.1,0-0.3,0.1-0.4c0.1-0.6,0.1-1.1,0.3-1.7v-0.1c0.1-0.6,0.3-1,0.4-1.5c0-0.1,0.1-0.3,0.1-0.6c0.1-0.4,0.3-0.8,0.4-1.3
				c0-0.1,0.1-0.3,0.1-0.4c0.3-0.6,0.4-1.1,0.7-1.7c0-0.1,0.1-0.1,0.1-0.3c0.1-0.4,0.4-1,0.7-1.4c0.1-0.1,0.1-0.3,0.3-0.6
				c0.3-0.4,0.4-0.8,0.7-1.3c0.1-0.1,0.1-0.3,0.3-0.4c0.3-0.6,0.7-1.1,1-1.5c0.1-0.1,0.1-0.3,0.3-0.3c0.3-0.4,0.6-0.8,0.8-1.3
				c0.1-0.1,0.3-0.3,0.3-0.4c0.3-0.4,0.6-0.8,1-1.3c0.1-0.1,0.1-0.1,0.3-0.3c0.4-0.4,0.8-0.8,1.1-1.4c0.4-0.4,0.7-0.8,1.1-1.1
				c0.1-0.1,0.3-0.3,0.4-0.4c0.6-0.4,1-1,1.5-1.4c0.3-0.3,0.7-0.6,1-0.7c0.1-0.1,0.3-0.3,0.6-0.4c0.6-0.4,1-0.7,1.5-1l50.2-29.1
				c0.1-0.1,0.3-0.1,0.6-0.3c0.4-0.3,0.8-0.4,1.3-0.6C453.4,3.6,453.6,3.6,453.9,3.5z"/>
		</g>
	</g>
</g>
<path class="st43" d="M401.6,136.1l10.2-5.8l-0.1-47.2c0-14.2-10-19.9-22.4-12.8l-3.2,1.8l0.1,55.2
	C386.1,137,392.9,140.9,401.6,136.1z"/>
<g>
	<g>
		<g class="st1">
			<g>
				<path class="st20" d="M135.8,208.4l-13.4,7.6c-1,0.6-1.8,1.9-1.8,3.1v0.3c0,1.1,0.8,1.5,1.8,1l13.4-7.6c1-0.6,1.8-1.9,1.8-3.1
					v-0.3C137.6,208.2,136.7,207.8,135.8,208.4"/>
				<path class="st20" d="M134.6,256.8l-12.1,7c-1,0.6-1.8,1.9-1.8,3.1v0.3c0,1.1,0.8,1.5,1.8,1l12.1-7c1-0.6,1.8-1.9,1.8-3.1v-0.3
					C136.4,256.6,135.6,256.2,134.6,256.8"/>
				<path class="st20" d="M169.7,236.5l-24.8,14.3c-1,0.6-1.8,1.9-1.8,3.1v0.3c0,1.1,0.8,1.5,1.8,1l24.8-14.3c1-0.6,1.8-1.9,1.8-3.1
					v-0.3C171.5,236.3,170.7,235.9,169.7,236.5"/>
			</g>
		</g>
	</g>
</g>
<g>
	<g class="st1">
		<g>
			<path class="st20" d="M415.6,56.1l-13.4,7.7c-1,0.6-1.8,1.9-1.8,3.1v0.3c0,1.1,0.8,1.5,1.8,1l13.4-7.7c1-0.6,1.8-1.9,1.8-3.1
				v-0.3C417.4,55.9,416.6,55.5,415.6,56.1"/>
			<path class="st44" d="M422.7,73.1l-20.4,11.8c-1,0.6-1.8,1.9-1.8,3.1v0.3c0,1.1,0.8,1.5,1.8,1l20.4-11.8c1-0.6,1.8-1.9,1.8-3.1
				V74C424.5,72.9,423.7,72.5,422.7,73.1"/>
			<path class="st45" d="M447.3,38.1L431.9,47c-1,0.6-1.8,1.9-1.8,3.1v0.3c0,1.1,0.8,1.5,1.8,1l15.4-8.9c1-0.6,1.8-1.9,1.8-3.1v-0.3
				C449,38.1,448.3,37.6,447.3,38.1"/>
			<path class="st20" d="M414.5,99.1l-12.1,7c-1,0.6-1.8,1.9-1.8,3.1v0.3c0,1.1,0.8,1.5,1.8,1l12.1-7c1-0.6,1.8-1.9,1.8-3.1V100
				C416.3,98.9,415.5,98.5,414.5,99.1"/>
			<path class="st44" d="M449.5,78.9l-24.8,14.3c-1,0.6-1.8,1.9-1.8,3.1v0.3c0,1.1,0.8,1.5,1.8,1l24.8-14.3c1-0.6,1.8-1.9,1.8-3.1
				v-0.3C451.2,78.8,450.5,78.3,449.5,78.9"/>
		</g>
	</g>
</g>
<ellipse transform="matrix(0.866 -0.5 0.5 0.866 -138.4562 224.6622)" class="st46" cx="350" cy="370.7" rx="59.1" ry="9.2"/>
<path class="st11" d="M169.7,160.5c0.1-0.1,0.4-0.1,0.6-0.3c0.3-0.1,0.7-0.3,1-0.4c0.3-0.1,0.4-0.1,0.7-0.1c0.3-0.1,0.6-0.1,0.8-0.1
	c0.3,0,0.4-0.1,0.7-0.1s0.6-0.1,0.8-0.1s0.4,0,0.7,0s0.6,0,0.7,0s0.4,0,0.6,0.1c0.3,0,0.4,0.1,0.7,0.1c0.1,0,0.4,0.1,0.6,0.1
	c0.1,0,0.4,0.1,0.6,0.3c0.3,0.1,0.6,0.3,0.8,0.4l-4.5-2.5c-0.1-0.1-0.4-0.3-0.6-0.3s-0.1,0-0.3-0.1c-0.1-0.1-0.4-0.1-0.6-0.3
	c-0.1,0-0.3-0.1-0.3-0.1c-0.1,0-0.1,0-0.3,0c-0.3,0-0.4-0.1-0.7-0.1c-0.1,0-0.4,0-0.6-0.1c-0.3,0-0.6,0-0.7,0c-0.3,0-0.4,0-0.7,0
	s-0.6,0-0.8,0.1c-0.3,0-0.4,0-0.7,0.1c-0.3,0-0.6,0.1-0.8,0.1c-0.1,0-0.3,0.1-0.6,0.1h-0.1c-0.3,0.1-0.7,0.3-1,0.4
	c-0.1,0.1-0.4,0.1-0.6,0.3c-0.4,0.1-0.8,0.4-1.1,0.6c-0.1,0.1-0.3,0.1-0.4,0.3c0,0,0,0-0.1,0L113.3,188c-0.6,0.3-1,0.7-1.5,1
	c-0.1,0.1-0.3,0.3-0.6,0.4c-0.3,0.3-0.7,0.4-1,0.7l0,0c-0.6,0.4-1.1,0.8-1.5,1.4c-0.1,0.1-0.3,0.3-0.4,0.4c-0.4,0.4-0.8,0.7-1.1,1.1
	l-0.1,0.1c-0.4,0.4-0.7,0.8-1.1,1.3c-0.1,0.1-0.1,0.1-0.3,0.3c-0.3,0.4-0.6,0.8-1,1.3c-0.1,0.1-0.3,0.3-0.3,0.4
	c-0.3,0.4-0.6,0.8-0.8,1.3c-0.1,0.1-0.1,0.3-0.3,0.4c-0.3,0.6-0.7,1.1-1,1.5c-0.1,0.1-0.1,0.3-0.3,0.4c-0.3,0.4-0.4,0.8-0.7,1.3
	c-0.1,0.1-0.1,0.3-0.3,0.6c-0.3,0.4-0.4,1-0.7,1.4c0,0.1-0.1,0.1-0.1,0.3c-0.3,0.6-0.4,1.1-0.7,1.7c0,0.1-0.1,0.3-0.1,0.4
	c-0.1,0.4-0.3,0.8-0.4,1.3c0,0.1-0.1,0.3-0.1,0.6c-0.1,0.6-0.3,1-0.4,1.5v0.1c-0.1,0.6-0.3,1.1-0.3,1.7c0,0.1,0,0.3-0.1,0.4
	c0,0.4-0.1,0.8-0.1,1.3c0,0.1,0,0.3,0,0.6c0,0.6,0,1.1,0,1.7l0.1,66.9c0,4.9,1.7,8.3,4.5,9.9l4.5,2.5c-2.8-1.7-4.5-5-4.5-9.9
	l-0.1-66.9c0-0.6,0-1.1,0-1.7c0-0.1,0-0.3,0-0.6c0-0.4,0.1-0.8,0.1-1.3c0-0.1,0-0.3,0.1-0.4c0.1-0.6,0.1-1.1,0.3-1.7v-0.1
	c0.1-0.6,0.3-1,0.4-1.5c0-0.1,0.1-0.3,0.1-0.6c0.1-0.4,0.3-0.8,0.4-1.3c0-0.1,0.1-0.3,0.1-0.4c0.3-0.6,0.4-1.1,0.7-1.7
	c0-0.1,0.1-0.1,0.1-0.3c0.3-0.4,0.4-1,0.7-1.4c0.1-0.1,0.1-0.3,0.3-0.6c0.3-0.4,0.4-0.8,0.7-1.3c0.1-0.1,0.1-0.3,0.3-0.4
	c0.3-0.6,0.7-1.1,1-1.5c0.1-0.1,0.1-0.3,0.3-0.3c0.3-0.4,0.6-0.8,0.8-1.3c0.1-0.1,0.3-0.3,0.3-0.4c0.3-0.4,0.6-0.8,1-1.3
	c0.1-0.1,0.1-0.1,0.3-0.3c0.4-0.4,0.8-0.8,1.1-1.4c0.4-0.4,0.7-0.8,1.1-1.1c0.1-0.1,0.3-0.3,0.4-0.4c0.6-0.4,1-1,1.5-1.4
	c0.3-0.3,0.7-0.6,1-0.7c0.1-0.1,0.3-0.3,0.6-0.4c0.6-0.4,1-0.7,1.5-1l50.2-29.1c0.1-0.1,0.3-0.1,0.6-0.3
	C168.9,161,169.3,160.7,169.7,160.5z"/>
<path class="st47" d="M158.6,195.2l-15.4,8.9c-1,0.6-1.8,1.9-1.8,3.1v0.3c0,1.1,0.8,1.5,1.8,1l15.4-8.9c1-0.6,1.8-1.9,1.8-3.1v-0.3
	C160.4,195,159.5,194.6,158.6,195.2"/>
</svg>
