<?xml version="1.0" encoding="UTF-8" standalone="no"?>
<svg width="45px" height="25px" viewBox="0 0 45 25" version="1.1" xmlns="http://www.w3.org/2000/svg" xmlns:xlink="http://www.w3.org/1999/xlink">
    <!-- Generator: Sketch 42 (36781) - http://www.bohemiancoding.com/sketch -->
    <title>8</title>
    <desc>Created with Sketch.</desc>
    <defs>
        <linearGradient x1="50%" y1="3.16964773%" x2="50%" y2="100%" id="linearGradient-1">
            <stop stop-color="#89B4FF" offset="0%"></stop>
            <stop stop-color="#005DFF" offset="100%"></stop>
        </linearGradient>
    </defs>
    <g id="web_2" stroke="none" stroke-width="1" fill="none" fill-rule="evenodd">
        <g id="product_max:-feature" transform="translate(-1073.000000, -874.000000)">
            <g id="Group-2" transform="translate(220.000000, 513.000000)">
                <g id="8" transform="translate(835.000000, 333.000000)">
                    <rect id="Rectangle-3-Copy-4" x="0" y="0" width="80" height="80"></rect>
                    <g id="icon" transform="translate(18.000000, 28.000000)" fill="url(#linearGradient-1)">
                        <path d="M35.08155,25 L5.0769,25 C2.27745,25 0,22.7059687 0,19.8865903 C0,17.4941981 1.63935,15.4802915 3.8457,14.9250281 C4.8303,12.4460601 7.1073,10.6705769 9.76275,10.3519237 C10.04265,4.59622149 14.77935,0 20.56185,0 C24.7995,0 28.58175,2.50933749 30.3372,6.23526852 C31.77855,5.44203503 33.4026,5.01958154 35.08155,5.01958154 C40.5504,5.01958154 45,9.50112413 45,15.0097908 C45,20.5184574 40.55085,25 35.08155,25 L35.08155,25 Z" id="Path"></path>
                    </g>
                </g>
            </g>
        </g>
    </g>
</svg>