<?xml version="1.0" encoding="UTF-8"?>
<svg width="27px" height="36px" viewBox="0 0 27 36" version="1.1" xmlns="http://www.w3.org/2000/svg" xmlns:xlink="http://www.w3.org/1999/xlink">
    <!-- Generator: Sketch 43.2 (39069) - http://www.bohemiancoding.com/sketch -->
    <title>icon copy 2</title>
    <desc>Created with Sketch.</desc>
    <defs></defs>
    <g id="web_2" stroke="none" stroke-width="1" fill="none" fill-rule="evenodd">
        <g id="product_max:-spec" transform="translate(-221.000000, -1739.000000)">
            <g id="Group-20" transform="translate(220.000000, 1676.000000)">
                <g id="Group-19" transform="translate(0.000000, 63.000000)">
                    <g id="Group-18" transform="translate(1.000000, 0.000000)">
                        <g id="Group-15">
                            <g id="icon-copy-2">
                                <path d="M18.78,0.0104 L18.78,0 L18.7696,0 L17.3404,0 L0,0 L0,36 L27,36 L27,8.1996 L18.78,0.0104 Z M18.78,2.0432 L24.9504,8.19 L18.78,8.19 L18.78,2.0432 Z M1.44,34.56 L1.44,1.44 L17.3404,1.44 L17.3404,9.63 L25.5604,9.63 L25.5604,34.56 L1.44,34.56 Z" id="Shape" fill="#515151" fill-rule="nonzero"></path>
                                <g id="logo_1" transform="translate(8.000000, 16.000000)">
                                    <polygon id="Fill-18" fill="#4A4A4A" points="5.30563528 2.03166616 3.93655702 0.195627891 0.33283528 0.195627891 3.50389615 4.44824269"></polygon>
                                    <polygon id="Fill-20" fill="#4A4A4A" points="6.09099876 3.08491488 4.28925963 5.50149141 8.23945093 10.7994072 11.8431727 10.7994072"></polygon>
                                    <polygon id="Fill-22" fill="#4A4A4A" points="6.08802832 7.91391616 8.23940224 10.7992886 11.843124 10.7992886 7.88976745 5.49733963"></polygon>
                                    <polygon id="Fill-24" fill="#9B9B9B" points="6.08802832 7.91391616 7.88976745 5.49733963 8.44708919 6.24394932"></polygon>
                                    <polygon id="Fill-26" fill="#4A4A4A" points="8.23937789 0.195580442 0.332908323 10.7992412 3.93663006 10.7992412 11.8430996 0.195580442"></polygon>
                                </g>
                            </g>
                        </g>
                    </g>
                </g>
            </g>
        </g>
    </g>
</svg>