<?xml version="1.0" encoding="UTF-8" standalone="no"?>
<svg width="81px" height="20px" viewBox="0 0 81 20" version="1.1" xmlns="http://www.w3.org/2000/svg" xmlns:xlink="http://www.w3.org/1999/xlink">
    <!-- Generator: Sketch 42 (36781) - http://www.bohemiancoding.com/sketch -->
    <title>logo_2</title>
    <desc>Created with Sketch.</desc>
    <defs></defs>
    <g id="web_2" stroke="none" stroke-width="1" fill="none" fill-rule="evenodd">
        <g id="logo" transform="translate(-20.000000, -61.000000)">
            <g id="logo_2" transform="translate(20.000000, 61.000000)">
                <g id="logo-white">
                    <g id="Group-3" transform="translate(34.434783, 0.081849)" fill="#FFFFFF">
                        <path d="M3.57225652,5.37426913 C5.7033,2.41028954 9.6359087,1.55304464 12.7499087,3.22008546 L4.3803,14.860111 C1.84973478,12.3828788 1.44121304,8.33824872 3.57225652,5.37426913 L3.57225652,5.37426913 Z M16.1867348,12.0297793 C15.9601696,12.6885293 15.6369522,13.3251365 15.2104304,13.9186441 C13.079387,16.8826237 9.14677826,17.7394732 6.03277826,16.0732232 L14.402387,4.4328023 L14.402387,4.4331977 L15.6126913,2.74994515 C15.3626478,2.52060842 15.0993,2.3015523 14.8199087,2.09633546 C10.693213,-0.93288648 4.91756087,-0.00842219388 1.91977826,4.16115689 C-1.07839565,8.33113138 -0.163526087,14.1669605 3.96277826,17.1965778 C8.08947391,20.2261952 13.8651261,19.3017309 16.8633,15.1321518 C17.4017348,14.3828533 17.8110391,13.5793839 18.1009957,12.7486314 L16.1867348,12.0297793 Z" id="Fill-1"></path>
                    </g>
                    <g id="Group-11" transform="translate(0.000000, 0.081849)" fill="#FFFFFF">
                        <path d="M3.41694783,5.37426913 C5.5479913,2.41028954 9.4809913,1.55304464 12.5949913,3.22008546 L4.22538261,14.860111 C1.69442609,12.3828788 1.28590435,8.33824872 3.41694783,5.37426913 L3.41694783,5.37426913 Z M16.0314261,12.0297793 C15.8052522,12.6885293 15.4820348,13.3251365 15.055513,13.9186441 C12.9240783,16.8826237 8.99146957,17.7394732 5.87746957,16.0732232 L14.2470783,4.4328023 L14.2470783,4.4331977 L15.4573826,2.74994515 C15.2073391,2.52060842 14.9439913,2.3015523 14.6646,2.09633546 C10.5382957,-0.93288648 4.76264348,-0.00842219388 1.76446957,4.16115689 C-1.23370435,8.33113138 -0.318834783,14.1669605 3.80786087,17.1965778 C7.93416522,20.2261952 13.7098174,19.3017309 16.7079913,15.1321518 C17.2464261,14.3828533 17.6557304,13.5793839 17.945687,12.7486314 L16.0314261,12.0297793 Z" id="Fill-9"></path>
                    </g>
                    <path d="M68.1615783,18.5694745 L65.9385783,18.5694745 L65.9385783,7.83928316 C65.9385783,4.9785051 63.6349696,2.65034184 60.8031,2.65034184 C57.972013,2.65034184 55.6684043,4.9785051 55.6684043,7.83928316 L55.6684043,18.5694745 L53.4454043,18.5694745 L53.4454043,7.83928316 C53.4454043,3.73969133 56.7460565,0.404028061 60.8031,0.404028061 C64.8609261,0.404028061 68.1615783,3.73969133 68.1615783,7.83928316 L68.1615783,18.5694745 Z" id="Fill-12" fill="#FFFFFF"></path>
                    <path d="M80.6336217,18.5694745 L78.4536652,18.5694745 C78.4415348,18.5694745 78.4321435,18.5599847 78.4321435,18.5473316 L78.4321435,8.04173214 C78.4321435,5.26992092 76.3672304,2.83578827 73.6292739,2.66141327 C70.6475348,2.47082653 68.1615783,4.86739541 68.1615783,7.83928316 L68.1615783,18.5473316 C68.1615783,18.5599847 68.152187,18.5694745 68.1400565,18.5694745 L65.9604913,18.5694745 C65.9483609,18.5694745 65.9385783,18.5599847 65.9385783,18.5473316 L65.9385783,8.07613265 C65.9385783,4.06550765 68.9817522,0.599755102 72.9460565,0.412727041 C77.1619696,0.213045918 80.6551435,3.62185969 80.6551435,7.83928316 L80.6551435,18.5473316 C80.6551435,18.5599847 80.6453609,18.5694745 80.6336217,18.5694745" id="Fill-14" fill="#FFFFFF"></path>
                    <polygon id="Fill-18" fill="#FF470E" points="25.0575261 3.94166582 22.8572217 0.881602041 17.0655261 0.881602041 22.1618739 7.96929337"></polygon>
                    <polygon id="Fill-20" fill="#E84B1F" points="26.3197174 5.69708036 23.4240652 9.72470791 29.772587 18.5545676 35.5642826 18.5545676"></polygon>
                    <polygon id="Fill-22" fill="#FFE100" points="26.3149435 13.7454158 29.7725087 18.5543699 35.5642043 18.5543699 29.2105957 9.71778827"></polygon>
                    <polygon id="Fill-24" fill="#F9BE00" points="26.3149435 13.7454158 29.2105957 9.71778827 30.1062913 10.9621378"></polygon>
                    <polygon id="Fill-26" fill="#3E81F7" points="29.7724696 0.881522959 17.0656435 18.5542908 22.8573391 18.5542908 35.5641652 0.881522959"></polygon>
                </g>
            </g>
        </g>
    </g>
</svg>