<?xml version="1.0" encoding="UTF-8"?>
<svg width="48px" height="23px" viewBox="0 0 48 23" version="1.1" xmlns="http://www.w3.org/2000/svg" xmlns:xlink="http://www.w3.org/1999/xlink">
    <!-- Generator: Sketch 53.2 (72643) - https://sketchapp.com -->
    <title>Group 49</title>
    <desc>Created with Sketch.</desc>
    <defs>
        <polygon id="path-1" points="0 0.459 47.50281 0.459 47.50281 11.7855 0 11.7855"></polygon>
        <polygon id="path-3" points="0.00027 0.459 47.5029 0.459 47.5029 22.5 0.00027 22.5"></polygon>
    </defs>
    <g id="Page-1" stroke="none" stroke-width="1" fill="none" fill-rule="evenodd">
        <g id="엑셈홈페이지" transform="translate(-2457.000000, -508.000000)">
            <g id="Group-49" transform="translate(2457.000000, 507.485294)">
                <g id="Group-3" transform="translate(0.000000, 0.441000)">
                    <mask id="mask-2" fill="white">
                        <use xlink:href="#path-1"></use>
                    </mask>
                    <g id="Clip-2"></g>
                    <path d="M46.83951,11.7855 L0.66321,11.7855 C0.29691,11.7855 -9e-05,11.4885 -9e-05,11.1222 L-9e-05,1.1223 C-9e-05,0.756 0.29691,0.459 0.66321,0.459 L46.83951,0.459 C47.20581,0.459 47.50281,0.756 47.50281,1.1223 L47.50281,11.1222 C47.50281,11.4885 47.20581,11.7855 46.83951,11.7855" id="Fill-1" fill="#FFFFFF" mask="url(#mask-2)"></path>
                </g>
                <g id="Group-6" transform="translate(0.000000, 0.441000)">
                    <mask id="mask-4" fill="white">
                        <use xlink:href="#path-3"></use>
                    </mask>
                    <g id="Clip-5"></g>
                    <path d="M46.82547,0.459 L0.67797,0.459 C0.30537,0.459 0.00027,0.7641 0.00027,1.1367 L0.00027,21.8223 C0.00027,22.1949 0.30537,22.5 0.67797,22.5 L46.82547,22.5 C47.19807,22.5 47.50317,22.1949 47.50317,21.8223 L47.50317,1.1367 C47.50317,0.7641 47.19807,0.459 46.82547,0.459 M46.82547,0.9666 C46.91727,0.9666 46.99377,1.0449 46.99377,1.1367 L46.99377,21.8223 C46.99377,21.9141 46.91727,21.9915 46.82547,21.9915 L0.67797,21.9915 C0.58617,21.9915 0.50787,21.9141 0.50787,21.8223 L0.50787,1.1367 C0.50787,1.0449 0.58617,0.9666 0.67797,0.9666 L46.82547,0.9666" id="Fill-4" fill="#FFFFFF" mask="url(#mask-4)"></path>
                </g>
                <path d="M27.95976,5.52744 C27.94626,5.87484 27.78066,6.05754 27.43686,6.10884 C27.26316,6.13584 27.08766,6.12324 26.91306,6.12414 C26.57826,6.12684 26.24256,6.12324 25.90686,6.12594 C25.84566,6.12684 25.82226,6.11424 25.82316,6.04674 C25.82676,5.67234 25.82676,5.29884 25.82316,4.92534 C25.82226,4.85694 25.84476,4.84524 25.90686,4.84614 C26.14716,4.84974 26.38836,4.84704 26.62956,4.84704 L26.62956,4.84974 C26.86356,4.84974 27.09846,4.84344 27.33246,4.85154 C27.78516,4.86684 27.97686,5.07564 27.95976,5.52744 M29.05056,8.26074 C29.02626,8.05644 29.03886,7.84764 28.99296,7.64604 C28.89666,7.22214 28.70316,6.87474 28.25316,6.73884 C28.23336,6.73254 28.21266,6.72714 28.20366,6.70284 C28.57086,6.58404 28.83636,6.35454 28.96596,5.98554 C29.06586,5.70384 29.10726,5.41404 29.05686,5.11884 C28.97046,4.62114 28.69326,4.28274 28.20456,4.12974 C28.00026,4.06584 27.78966,4.03254 27.57546,4.03074 C26.68356,4.02444 25.79256,4.02534 24.90066,4.01904 C24.82236,4.01904 24.81876,4.05324 24.81876,4.11354 C24.82056,5.62734 24.82056,7.14204 24.81786,8.65674 C24.81786,8.73414 24.84306,8.74854 24.91326,8.74764 C25.17876,8.74314 25.44516,8.74224 25.71066,8.74764 C25.80066,8.75034 25.82856,8.73324 25.82766,8.63604 C25.82136,8.10414 25.82496,7.57224 25.82406,7.04124 C25.82406,6.99534 25.81416,6.95124 25.88886,6.95304 C26.25246,6.96204 26.61606,6.93594 26.97876,6.97104 C27.44766,7.01514 27.70596,7.22124 27.82836,7.63884 C27.86256,7.75314 27.88146,7.87014 27.89946,7.98714 C27.93366,8.21124 27.93276,8.43984 27.98766,8.66214 C28.00206,8.71884 28.02276,8.74854 28.09116,8.74764 C28.41696,8.74314 28.74186,8.74494 29.06676,8.74674 C29.12706,8.74674 29.14776,8.73954 29.12616,8.67204 C29.08296,8.53884 29.06676,8.39934 29.05056,8.26074" id="Fill-7" fill="#797980"></path>
                <path d="M12.39957,7.30287 C12.27087,7.67367 11.99907,7.84827 11.62197,7.88967 C11.20257,7.93557 10.78317,7.89957 10.36377,7.91307 C10.28817,7.91487 10.31247,7.86357 10.31247,7.82757 C10.31067,7.43517 10.31157,7.04457 10.31157,6.65217 L10.31157,6.36957 C10.31157,5.89347 10.31337,5.41737 10.30977,4.94217 C10.30887,4.86297 10.32687,4.84317 10.40607,4.84587 C10.80117,4.85937 11.19537,4.83147 11.59137,4.86567 C12.01077,4.90167 12.28257,5.12307 12.41577,5.51547 C12.61647,6.11217 12.60567,6.70887 12.39957,7.30287 M12.85407,4.35267 C12.46977,4.11417 12.04407,4.03227 11.60307,4.02777 C10.86867,4.02057 10.13427,4.02417 9.39987,4.01967 C9.31347,4.01877 9.29907,4.04487 9.29907,4.12407 C9.30267,4.87557 9.30087,5.62797 9.30087,6.38037 C9.30087,7.13187 9.30357,7.88427 9.29817,8.63577 C9.29817,8.73297 9.32607,8.74827 9.41517,8.74737 C10.14237,8.74467 10.86957,8.74647 11.59677,8.74647 C11.78577,8.74647 11.97387,8.73927 12.16107,8.70957 C12.82077,8.60607 13.29147,8.27397 13.49127,7.61247 C13.72437,6.83577 13.73877,6.05817 13.50927,5.27967 C13.39587,4.89717 13.20507,4.57047 12.85407,4.35267" id="Fill-9" fill="#797980"></path>
                <path d="M36.05364,7.52085 C35.90424,7.84215 35.64594,7.99515 35.29584,8.00055 C35.07264,8.00415 34.84854,7.99785 34.62534,8.00325 C34.55514,8.00415 34.53714,7.98345 34.53804,7.91415 C34.54164,7.61085 34.53894,7.30755 34.53894,7.00335 C34.53894,6.70635 34.54074,6.40935 34.53804,6.11235 C34.53714,6.04395 34.55424,6.02145 34.62534,6.02415 C34.88994,6.03495 35.15634,6.00705 35.42094,6.03945 C35.83404,6.09075 36.05364,6.29415 36.13374,6.70185 C36.18864,6.98085 36.17694,7.25805 36.05364,7.52085 M35.70714,5.30685 C35.35434,5.27265 35.00064,5.29335 34.64784,5.29065 C34.56504,5.28975 34.53534,5.27535 34.53714,5.18355 C34.54254,4.82805 34.53714,4.46985 34.54074,4.11435 C34.54164,4.04235 34.52724,4.01805 34.45074,4.01895 C34.19874,4.02435 33.94674,4.02435 33.69474,4.01895 C33.61194,4.01715 33.59124,4.04145 33.59124,4.12425 C33.59484,4.87215 33.59304,5.62095 33.59304,6.36975 C33.59304,7.12755 33.59304,7.88715 33.59394,8.64675 C33.59394,8.69715 33.57594,8.74935 33.66594,8.74755 C34.29864,8.73855 34.93224,8.76285 35.56404,8.73045 C36.24894,8.69535 36.78444,8.29935 37.00134,7.66485 C37.10574,7.35615 37.12644,7.03935 37.09854,6.71445 C37.02744,5.91435 36.50364,5.38155 35.70714,5.30685" id="Fill-11" fill="#797980"></path>
                <path d="M16.58061,7.47954 C16.57251,7.62894 16.57071,7.78014 16.57251,7.92954 C16.57341,7.98894 16.55091,7.99704 16.49961,7.99704 C16.30071,7.99434 16.10181,7.99524 15.90201,7.99524 C15.72381,7.99524 15.54561,7.99704 15.36741,7.99524 C15.31521,7.99434 15.26211,7.98804 15.21171,7.97814 C15.03171,7.94034 14.95971,7.85214 14.96511,7.68384 C14.97051,7.52004 15.06681,7.41024 15.23601,7.39044 C15.33951,7.37964 15.44571,7.38234 15.55011,7.38234 C15.86151,7.38144 16.17291,7.38504 16.48431,7.37964 C16.56351,7.37874 16.58511,7.40214 16.58061,7.47954 M17.27451,5.73624 C17.06931,5.43564 16.75161,5.33394 16.41321,5.31054 C15.71571,5.26014 15.01551,5.29794 14.31621,5.28714 C14.26491,5.28624 14.25231,5.30334 14.25321,5.35284 C14.25591,5.54814 14.25681,5.74434 14.25231,5.94054 C14.25141,6.00714 14.26761,6.02874 14.33781,6.02784 C14.60421,6.02334 14.86971,6.02334 15.13521,6.02694 C15.46011,6.03144 15.78501,6.00804 16.10991,6.04224 C16.42941,6.07554 16.56081,6.22494 16.57341,6.55074 C16.57701,6.63174 16.55721,6.64704 16.47981,6.64704 C16.00011,6.64434 15.52131,6.64164 15.04251,6.65244 C14.62941,6.66144 14.28831,6.80004 14.09841,7.20594 C13.82571,7.78644 14.02641,8.75304 15.03261,8.73504 C15.41421,8.72784 15.79581,8.73414 16.17651,8.73414 L16.17651,8.73774 C16.59321,8.73774 17.00901,8.73594 17.42481,8.73954 C17.51031,8.74044 17.52831,8.71524 17.52741,8.63424 C17.52201,7.95294 17.52021,7.27164 17.51841,6.58944 C17.51751,6.28164 17.45001,5.99274 17.27451,5.73624" id="Fill-13" fill="#797980"></path>
                <path d="M23.15745,7.9137 C23.15925,7.9731 23.15025,7.9983 23.08095,7.9983 C22.69935,7.9938 22.31865,7.9965 21.93885,7.9956 C21.89025,7.9947 21.84165,7.9875 21.79395,7.9776 C21.61395,7.9389 21.53745,7.8498 21.54285,7.686 C21.54825,7.5222 21.65085,7.4007 21.82365,7.3908 C22.04325,7.3782 22.26285,7.3881 22.48335,7.3881 L22.48335,7.3818 C22.67865,7.3818 22.87485,7.3836 23.06925,7.38 C23.13405,7.3791 23.16105,7.3899 23.15835,7.4637 C23.15115,7.6131 23.15385,7.7643 23.15745,7.9137 M24.08355,6.3576 C24.02685,5.805 23.72535,5.4567 23.18715,5.3379 C23.07195,5.3118 22.95225,5.2974 22.83525,5.2956 C22.19445,5.2902 21.55455,5.2911 20.91465,5.2866 C20.84175,5.2857 20.82915,5.3109 20.83095,5.3766 C20.83455,5.562 20.83725,5.7474 20.83005,5.9319 C20.82645,6.0165 20.85615,6.0291 20.92995,6.0273 C21.10905,6.0219 21.28725,6.0228 21.46545,6.0264 C21.87045,6.0327 22.27635,6.0057 22.68225,6.0417 C23.00265,6.0705 23.13855,6.2217 23.15565,6.543 C23.16015,6.6231 23.14215,6.6483 23.05755,6.6474 C22.57515,6.6447 22.09095,6.6429 21.60945,6.6537 C21.18915,6.6627 20.85075,6.813 20.66895,7.2279 C20.33595,7.9893 20.78145,8.7138 21.60495,8.7318 C21.99015,8.7408 22.37535,8.7336 22.75965,8.7336 L22.75965,8.7381 C23.17635,8.7381 23.59125,8.7354 24.00795,8.7399 C24.08625,8.7408 24.10605,8.7219 24.10605,8.6436 C24.10155,8.1252 24.10425,7.6077 24.10335,7.0902 C24.10245,6.8454 24.10875,6.6015 24.08355,6.3576" id="Fill-15" fill="#797980"></path>
                <path d="M32.05017,7.41798 C31.96827,7.83108 31.64697,8.07498 31.21857,8.05518 C30.75867,8.03358 30.49407,7.79958 30.41667,7.34238 C30.37167,7.08048 30.38157,6.82038 30.44367,6.56298 C30.53457,6.18228 30.81357,5.98068 31.24017,5.98068 C31.69377,5.98068 31.97187,6.21378 32.05647,6.65838 C32.10507,6.91218 32.09967,7.16598 32.05017,7.41798 M31.88997,5.32368 C31.55157,5.22648 31.20687,5.21208 30.86307,5.26788 C30.27447,5.36418 29.81727,5.64858 29.56527,6.20838 C29.40507,6.56658 29.38347,6.94458 29.43297,7.32798 C29.50587,7.90578 29.76777,8.35938 30.31047,8.61678 C30.63357,8.76978 30.98097,8.80758 31.33287,8.79228 C31.79187,8.77338 32.21847,8.65458 32.56137,8.33328 C32.93217,7.98678 33.06987,7.54308 33.06627,7.00848 C33.07077,6.92748 33.05637,6.80958 33.04377,6.69078 C32.96817,6.01398 32.54427,5.50998 31.88997,5.32368" id="Fill-17" fill="#797980"></path>
                <path d="M40.03857,7.44606 C39.94407,7.84836 39.63447,8.07426 39.21687,8.05536 C38.72547,8.03196 38.44017,7.74936 38.39697,7.23996 C38.39067,7.16706 38.38977,7.09416 38.38617,7.02036 C38.38797,6.86646 38.39967,6.71436 38.43927,6.56496 C38.52387,6.24366 38.72277,6.04116 39.05757,5.99166 C39.21057,5.96826 39.36447,5.97096 39.51477,6.01326 C39.78837,6.09066 39.95217,6.27786 40.02597,6.54516 C40.10877,6.84306 40.10877,7.14636 40.03857,7.44606 M39.96747,5.34726 C39.73257,5.26806 39.49137,5.24106 39.22047,5.23926 C39.11607,5.24106 38.98737,5.24826 38.85867,5.26536 C38.17827,5.35986 37.64997,5.80626 37.47807,6.44436 C37.37457,6.82776 37.38447,7.21206 37.48167,7.59456 C37.63107,8.17866 37.99917,8.55576 38.58237,8.71326 C39.04227,8.83746 39.50397,8.83116 39.95577,8.68176 C40.51287,8.49906 40.87107,8.11566 41.00877,7.54506 C41.10507,7.15176 41.08527,6.75216 40.96647,6.36516 C40.80987,5.85486 40.47237,5.51736 39.96747,5.34726" id="Fill-19" fill="#797980"></path>
                <path d="M7.01541,6.22881 C7.01451,6.51501 6.83631,6.68691 6.54651,6.68691 C5.63751,6.68781 4.72851,6.68781 3.81861,6.68691 C3.52521,6.68691 3.35151,6.51141 3.35061,6.21621 L3.35061,4.62141 C3.35151,4.33521 3.53061,4.15791 3.81501,4.15791 C4.27041,4.15701 4.72491,4.15791 5.17941,4.15791 C5.63751,4.15791 6.09561,4.15701 6.55371,4.15791 C6.83631,4.15791 7.01451,4.33161 7.01541,4.61241 C7.01811,5.15151 7.01721,5.68971 7.01541,6.22881 M7.25571,4.89591 C7.13061,4.85901 7.15851,4.76271 7.15761,4.67631 C7.15671,4.61691 7.15941,4.55841 7.15671,4.49811 C7.14591,4.19661 6.92901,3.96441 6.64911,3.96351 C5.67351,3.96171 4.69701,3.96171 3.72141,3.96351 C3.44421,3.96441 3.21831,4.19481 3.21381,4.47381 C3.21291,4.57191 3.21111,4.67001 3.21471,4.76721 C3.21741,4.81941 3.20751,4.84911 3.15351,4.86801 C3.07521,4.89681 3.04641,4.96431 3.04641,5.04441 L3.04641,5.60061 C3.04641,5.68521 3.08061,5.75361 3.16161,5.78151 C3.20931,5.79861 3.21471,5.82381 3.21471,5.86611 C3.21291,6.03351 3.21381,6.20181 3.21381,6.36921 C3.21471,6.68871 3.43431,6.91101 3.75201,6.91191 C4.00041,6.91281 4.24881,6.91281 4.49721,6.91191 C4.53771,6.91101 4.56831,6.91641 4.55931,6.96681 C4.55481,7.00011 4.57911,7.03521 4.51161,7.05681 C4.37121,7.10271 4.20111,7.11351 4.13181,7.28451 C4.12371,7.30251 4.10211,7.29711 4.08591,7.30161 C3.87891,7.36011 3.77901,7.48341 3.77721,7.69311 C3.77631,7.74801 3.76821,7.78491 3.71421,7.81821 C3.64041,7.86231 3.59271,7.93071 3.61161,8.02791 C3.62061,8.07291 3.61971,8.12061 3.61161,8.16381 C3.59271,8.26821 3.66111,8.33841 3.73041,8.36361 C3.81591,8.39601 3.92121,8.39151 4.01571,8.36091 C4.04091,8.35191 4.04991,8.32041 4.05171,8.28981 C4.05711,8.22951 4.01481,8.14041 4.13541,8.14311 C4.13991,8.14311 4.14711,8.11251 4.14711,8.09541 C4.14801,8.02251 4.14711,7.94871 4.14711,7.87491 C4.14711,7.83621 4.13271,7.80561 4.09311,7.79661 C4.05711,7.78761 4.01751,7.79391 4.02111,7.73361 C4.02471,7.66881 4.02651,7.60581 4.08681,7.56621 C4.13091,7.53741 4.13631,7.56531 4.13901,7.60401 C4.14171,7.63281 4.11381,7.68681 4.17681,7.67961 C4.25781,7.66971 4.24431,7.72101 4.24611,7.76961 C4.24971,7.93251 4.20741,8.10261 4.36671,8.23131 C4.41441,8.27091 4.39101,8.35911 4.37931,8.42301 C4.37031,8.48061 4.30911,8.45091 4.27221,8.45721 C4.08321,8.48961 3.99951,8.58411 4.01301,8.74971 C4.01661,8.79111 4.02921,8.80101 4.06881,8.80101 C4.39821,8.80011 4.72671,8.79921 5.05521,8.80191 C5.11551,8.80191 5.12361,8.77671 5.12181,8.72631 C5.12001,8.63901 5.12451,8.55081 5.12091,8.46351 C5.11821,8.41041 5.13351,8.39421 5.18931,8.39151 C5.25411,8.38971 5.25411,8.42211 5.25321,8.46711 C5.25141,8.55891 5.25501,8.64891 5.25231,8.74071 C5.25141,8.78301 5.26041,8.80191 5.30901,8.80191 C5.64111,8.79921 5.97411,8.80101 6.30621,8.80011 C6.33141,8.80011 6.35841,8.80911 6.36651,8.76501 C6.39261,8.63721 6.36471,8.57151 6.24861,8.50851 C6.19011,8.47701 6.12801,8.45541 6.05961,8.45451 C6.03621,8.45451 6.00021,8.45991 6.00021,8.42841 C6.00021,8.35461 5.95971,8.26641 6.02901,8.20971 C6.13251,8.12601 6.14421,8.02071 6.13521,7.90191 C6.13161,7.84701 6.13431,7.79031 6.13431,7.73451 C6.13431,7.71471 6.12981,7.67961 6.15411,7.68411 C6.27021,7.70391 6.23601,7.61571 6.24681,7.55901 C6.29001,7.55271 6.30891,7.57611 6.32601,7.59771 C6.37101,7.65441 6.37101,7.78491 6.32421,7.78761 C6.22431,7.79661 6.22881,7.86231 6.23241,7.93161 C6.23511,8.00091 6.22071,8.07021 6.24141,8.13861 C6.24321,8.14491 6.25941,8.15031 6.26841,8.14941 C6.34491,8.14311 6.32781,8.19801 6.32871,8.24031 C6.32961,8.28531 6.32061,8.33391 6.36561,8.36451 C6.40971,8.39421 6.64101,8.36991 6.68601,8.34021 C6.80391,8.26101 6.75351,8.14131 6.76881,8.03601 C6.78231,7.93521 6.74271,7.85961 6.66351,7.81641 C6.60501,7.78311 6.60231,7.74351 6.60321,7.68951 C6.60591,7.51761 6.52401,7.39881 6.37101,7.32411 C6.31791,7.29711 6.21891,7.32141 6.23871,7.20891 C6.23961,7.20621 6.22971,7.19991 6.22341,7.19721 C6.11541,7.14861 6.01011,7.09191 5.89761,7.05861 C5.83911,7.04151 5.80761,7.03701 5.81211,6.96681 C5.81841,6.87951 5.88051,6.91461 5.92011,6.91371 C6.16221,6.91101 6.40251,6.91461 6.64461,6.91101 C6.90201,6.90741 7.11261,6.71931 7.14681,6.46551 C7.17201,6.27381 7.15311,6.08121 7.15581,5.88861 C7.15671,5.83371 7.16031,5.79321 7.22601,5.77071 C7.28541,5.75181 7.31601,5.69421 7.31601,5.62941 C7.31781,5.42241 7.31691,5.21631 7.31601,5.01021 C7.31601,4.96251 7.29621,4.90851 7.25571,4.89591" id="Fill-21" fill="#797980"></path>
                <path d="M43.59195,8.00595 C43.45065,8.01675 43.30665,8.02395 43.16355,7.99695 C42.91245,7.95015 42.79095,7.81515 42.78825,7.55955 C42.78555,7.07715 42.78555,6.59385 42.78195,6.11145 C42.78105,6.04215 42.79995,6.02325 42.86925,6.02415 C43.10685,6.02865 43.34535,6.02415 43.58205,6.02685 C43.64235,6.02775 43.66845,6.01965 43.66665,5.94945 C43.66125,5.75325 43.66215,5.55705 43.66665,5.36175 C43.66755,5.30145 43.64865,5.28615 43.59015,5.28705 C43.35255,5.28975 43.11495,5.28435 42.87735,5.28975 C42.79455,5.29245 42.78105,5.26635 42.78195,5.19075 C42.78555,4.83075 42.78105,4.46985 42.78555,4.10985 C42.78555,4.03515 42.76395,4.01805 42.69195,4.01895 C42.43725,4.02435 42.18165,4.02435 41.92515,4.01895 C41.85225,4.01805 41.83335,4.03785 41.83425,4.11075 C41.83875,4.47435 41.83425,4.83795 41.83785,5.20245 C41.83785,5.26725 41.82615,5.29335 41.75325,5.28975 C41.60385,5.28435 41.45265,5.28975 41.30235,5.28705 C41.24835,5.28615 41.23035,5.30235 41.23125,5.35815 C41.23485,5.55705 41.23485,5.75685 41.23215,5.95575 C41.23035,6.01065 41.24835,6.02865 41.30235,6.02685 C41.44635,6.02325 41.58945,6.03045 41.73345,6.02415 C41.81085,6.02145 41.84055,6.03675 41.83875,6.12405 C41.83155,6.37515 41.83605,6.62805 41.83605,6.91515 C41.83965,7.19415 41.82165,7.50915 41.85585,7.82325 C41.90445,8.27775 42.09975,8.59545 42.57135,8.69985 C42.91785,8.77545 43.26885,8.73495 43.61625,8.74575 C43.67385,8.74755 43.66485,8.70885 43.66485,8.67465 C43.66485,8.47485 43.66305,8.27685 43.66575,8.07705 C43.66665,8.02215 43.66125,8.00055 43.59195,8.00595" id="Fill-23" fill="#797980"></path>
                <path d="M20.22192,5.2875 C19.98792,5.2902 19.75302,5.2848 19.51992,5.2902 C19.44252,5.292 19.42002,5.2731 19.42092,5.1939 C19.42542,4.8294 19.42092,4.4667 19.42452,4.1031 C19.42452,4.0401 19.41282,4.0185 19.34442,4.0194 C19.08252,4.0239 18.81972,4.0248 18.55782,4.0194 C18.48582,4.0185 18.47412,4.0428 18.47502,4.1076 C18.47772,4.4757 18.47412,4.842 18.47772,5.2092 C18.47862,5.274 18.46242,5.292 18.39762,5.2902 C18.24732,5.2848 18.09612,5.2902 17.94582,5.2875 C17.89812,5.2866 17.87832,5.2974 17.87922,5.3496 C17.88192,5.553 17.88192,5.7564 17.87922,5.958 C17.87832,6.0165 17.89902,6.0273 17.95212,6.0264 C18.09162,6.0237 18.23112,6.0318 18.37062,6.0228 C18.46062,6.0183 18.47772,6.048 18.47862,6.1326 C18.48132,6.6888 18.45882,7.245 18.49392,7.8003 C18.52722,8.3241 18.78552,8.622 19.30212,8.7165 C19.61712,8.7732 19.93662,8.7363 20.25432,8.7462 C20.31012,8.7489 20.30472,8.7138 20.30472,8.6778 C20.30472,8.4744 20.30292,8.2719 20.30562,8.0694 C20.30652,8.0109 20.28762,8.0055 20.23452,8.0064 C20.09142,8.0118 19.94832,8.0244 19.80522,7.9974 C19.54782,7.947 19.43172,7.8156 19.42812,7.551 C19.42542,7.3125 19.42812,7.0749 19.42812,6.8373 L19.42272,6.8373 C19.42272,6.5997 19.42632,6.3612 19.42092,6.1245 C19.41912,6.048 19.43532,6.021 19.51812,6.0228 C19.75482,6.03 19.99332,6.0237 20.23092,6.0264 C20.29032,6.0273 20.30742,6.0111 20.30652,5.9508 C20.30292,5.7564 20.30112,5.5602 20.30652,5.364 C20.30922,5.2929 20.28042,5.2866 20.22192,5.2875" id="Fill-25" fill="#797980"></path>
                <path d="M5.75154,5.28228 C5.64804,5.39658 5.64534,5.63868 5.74614,5.75748 C5.81814,5.84298 5.92434,5.84478 5.99724,5.76018 C6.05574,5.69448 6.07464,5.61348 6.07464,5.51628 C6.07644,5.43438 6.05484,5.34798 5.99004,5.27868 C5.91984,5.20398 5.81994,5.20668 5.75154,5.28228" id="Fill-27" fill="#797980"></path>
                <path d="M4.34709,5.31648 C4.30659,5.38038 4.29219,5.45058 4.29219,5.53788 C4.29129,5.58918 4.30299,5.64948 4.33179,5.70618 C4.36599,5.77098 4.41099,5.82048 4.49199,5.82138 C4.57389,5.82228 4.62159,5.77368 4.65219,5.70798 C4.71519,5.57658 4.71339,5.44428 4.64049,5.31828 C4.56669,5.19048 4.42719,5.19228 4.34709,5.31648" id="Fill-29" fill="#797980"></path>
                <path d="M33.08994,15.30351 C32.85504,15.30621 32.62104,15.30441 32.38614,15.30441 L32.31324,15.30441 C32.28804,15.30441 32.27364,15.31521 32.27454,15.34221 L32.27454,15.42591 L32.27454,17.44101 L32.27454,17.54181 C32.26734,17.54271 32.26014,17.54361 32.25384,17.54451 C32.23404,17.51121 32.21424,17.47881 32.19534,17.44551 C31.80564,16.75971 31.41504,16.07301 31.02804,15.38631 C30.99204,15.32241 30.95154,15.30171 30.88044,15.30261 C30.65634,15.30711 30.43224,15.30351 30.20904,15.30441 C30.07044,15.30531 30.09024,15.28911 30.09024,15.41961 C30.08934,16.44111 30.09024,17.46261 30.09024,18.48411 C30.09024,18.62811 30.09204,18.77211 30.08844,18.91521 C30.08754,18.96921 30.10464,18.98631 30.15954,18.98631 C30.40524,18.98271 30.65004,18.98541 30.89484,18.98451 C30.97314,18.98451 30.97314,18.98361 30.97494,18.90531 L30.97494,18.85221 L30.97494,16.82631 L30.97494,16.73811 C31.02084,16.78221 31.04874,16.82811 31.07664,16.87491 C31.46094,17.55171 31.84704,18.22851 32.23044,18.90621 C32.26464,18.96651 32.30064,18.98811 32.36904,18.98631 C32.59314,18.98181 32.81634,18.98541 33.04044,18.98451 C33.17364,18.98361 33.15924,19.00251 33.15924,18.86931 L33.15924,16.03431 C33.15924,15.81381 33.15744,15.59421 33.16104,15.37371 C33.16104,15.31791 33.14304,15.30261 33.08994,15.30351" id="Fill-31" fill="#FFFFFF"></path>
                <path d="M39.6018,16.50321 C39.5982,16.56171 39.5919,16.62291 39.5766,16.67871 C39.5262,16.86141 39.3777,16.98021 39.1743,16.98921 C38.9799,16.99731 38.7837,16.99101 38.5875,16.99281 C38.5461,16.99371 38.5344,16.97661 38.5344,16.93701 C38.5362,16.79031 38.5353,16.64361 38.5353,16.49691 C38.5353,16.35471 38.5344,16.21161 38.5353,16.06851 C38.5362,15.99201 38.5371,15.99021 38.6082,15.99021 C38.79,15.99021 38.9718,15.98571 39.1527,15.99561 C39.3777,16.00641 39.519,16.11621 39.5757,16.30701 C39.5937,16.37091 39.6063,16.43751 39.6018,16.50321 M39.8511,17.46081 C39.8907,17.44011 39.9204,17.42301 39.9519,17.40591 C40.1499,17.29161 40.3092,17.13951 40.3992,16.92351 C40.4694,16.75251 40.4901,16.57341 40.4874,16.38981 C40.482,15.93531 40.2696,15.62031 39.8565,15.43761 C39.6252,15.33681 39.3804,15.30531 39.1302,15.30441 C38.6757,15.30351 38.2203,15.30441 37.7658,15.30441 C37.6299,15.30441 37.6506,15.29091 37.6506,15.42321 C37.6497,16.56981 37.6497,17.71821 37.6497,18.86571 C37.6497,18.88641 37.6515,18.90801 37.6497,18.92871 C37.6479,18.96561 37.6587,18.98541 37.7028,18.98541 C37.9611,18.98361 38.2203,18.98361 38.4786,18.98541 C38.5281,18.98631 38.5362,18.96471 38.5353,18.92241 C38.5335,18.83151 38.5353,18.74061 38.5353,18.64971 C38.5353,18.34911 38.5362,18.04851 38.5344,17.74701 C38.5335,17.69661 38.5479,17.68041 38.5992,17.68221 C38.7117,17.68491 38.8233,17.68671 38.9349,17.68131 C38.9979,17.67771 39.0267,17.70201 39.0537,17.75601 C39.2391,18.13491 39.4317,18.51111 39.6144,18.89181 C39.6513,18.96921 39.6954,18.98811 39.7737,18.98631 C40.0077,18.98181 40.2426,18.98451 40.4775,18.98451 C40.6386,18.98451 40.6386,18.98451 40.5621,18.83781 C40.3272,18.38241 40.0914,17.92611 39.8511,17.46081" id="Fill-33" fill="#FFFFFF"></path>
                <path d="M24.47577,16.68339 C24.42267,16.86249 24.28137,16.97859 24.08157,16.98849 C23.88357,16.99749 23.68377,16.99029 23.48397,16.99299 C23.43807,16.99389 23.43627,16.96779 23.43627,16.93359 C23.43717,16.78689 23.43627,16.64019 23.43627,16.49349 C23.43627,16.35039 23.43807,16.20729 23.43537,16.06419 C23.43537,16.01469 23.44167,15.98679 23.50287,15.98859 C23.68737,15.99309 23.87277,15.98589 24.05727,15.99489 C24.28047,16.00749 24.42357,16.11999 24.47757,16.31079 C24.49467,16.37109 24.50367,16.43409 24.50367,16.49709 C24.50277,16.56009 24.49377,16.62309 24.47577,16.68339 M24.75567,17.46279 C24.82227,17.42229 24.87897,17.38989 24.93477,17.35389 C25.15077,17.21079 25.29207,17.01459 25.35237,16.75989 C25.38207,16.63299 25.39107,16.50519 25.38837,16.37469 C25.37937,15.94989 25.18497,15.64299 24.80157,15.45849 C24.56397,15.34419 24.30837,15.30639 24.04737,15.30459 C23.57937,15.30369 23.10957,15.30459 22.64157,15.30459 C22.53987,15.30459 22.55067,15.30369 22.55067,15.39459 L22.55067,15.41619 L22.55067,18.87039 C22.55067,18.89019 22.55247,18.91179 22.55067,18.93249 C22.54617,18.97479 22.56777,18.98559 22.60737,18.98559 C22.86567,18.98469 23.12487,18.98379 23.38317,18.98559 C23.42547,18.98559 23.43987,18.96849 23.43717,18.92889 C23.43537,18.90549 23.43627,18.88029 23.43627,18.85599 C23.43627,18.48879 23.43717,18.12159 23.43537,17.75349 C23.43537,17.70129 23.44617,17.67879 23.50377,17.68059 C23.61537,17.68509 23.72787,17.68689 23.83947,17.68059 C23.89797,17.67699 23.92587,17.69949 23.95017,17.75079 C24.07887,18.01449 24.20937,18.27639 24.34077,18.53919 C24.40287,18.66339 24.46857,18.78669 24.52617,18.91449 C24.55227,18.97119 24.58647,18.98829 24.64677,18.98649 C24.79437,18.98199 24.94107,18.98469 25.08777,18.98469 L25.50717,18.98469 C25.50897,18.96849 25.51527,18.95589 25.51167,18.94869 C25.27227,18.44829 25.00407,17.96319 24.75567,17.46279" id="Fill-35" fill="#FFFFFF"></path>
                <path d="M8.26344,17.59482 C8.38224,17.18532 8.51454,16.78392 8.65584,16.37532 C8.78184,16.77942 8.90784,17.18262 9.03654,17.59482 L8.26344,17.59482 Z M9.44964,16.34742 C9.33084,16.02342 9.21114,15.70032 9.09324,15.37542 C9.07704,15.33312 9.06444,15.30252 9.00864,15.30342 C8.76744,15.30612 8.52624,15.30522 8.28414,15.30342 C8.23644,15.30342 8.21844,15.32592 8.20494,15.36642 C8.16984,15.46992 8.13114,15.56982 8.09424,15.67152 C7.70094,16.74252 7.30764,17.81262 6.91704,18.88362 C6.90534,18.91332 6.87924,18.94392 6.89724,18.98442 C7.19154,18.98442 7.48494,18.98352 7.77834,18.98532 C7.83054,18.98622 7.84044,18.95832 7.85304,18.91782 C7.90704,18.73782 7.96284,18.55692 8.01864,18.37782 C8.04474,18.29142 8.04474,18.29142 8.12934,18.29142 L9.16794,18.29142 C9.25344,18.29142 9.25344,18.29142 9.27954,18.37602 C9.33534,18.55512 9.39384,18.73512 9.44514,18.91602 C9.46134,18.97092 9.48564,18.98712 9.53964,18.98532 C9.64134,18.98172 9.74304,18.98442 9.84474,18.98442 L10.41354,18.98442 C10.41534,18.93852 10.39554,18.90432 10.38204,18.86922 C10.07244,18.02772 9.76104,17.18802 9.44964,16.34742 L9.44964,16.34742 Z" id="Fill-37" fill="#FFFFFF"></path>
                <path d="M19.61019,17.59743 C19.73889,17.18433 19.86489,16.77753 19.99809,16.34643 C20.13219,16.77843 20.25999,17.18523 20.38779,17.59743 L19.61019,17.59743 Z M20.44899,15.38253 C20.42739,15.32583 20.40219,15.30063 20.33739,15.30243 C20.11599,15.30693 19.89549,15.30333 19.67589,15.30423 C19.56789,15.30513 19.58589,15.28983 19.54539,15.39783 C19.12059,16.55613 18.69489,17.71533 18.27099,18.87453 C18.25929,18.90603 18.23679,18.93573 18.24939,18.98433 C18.54279,18.98433 18.83349,18.98343 19.12329,18.98613 C19.17279,18.98613 19.18899,18.96723 19.20159,18.92403 C19.25649,18.73683 19.31769,18.55143 19.37169,18.36333 C19.38609,18.31203 19.40499,18.29043 19.46259,18.29043 C19.81899,18.29223 20.17629,18.29223 20.53269,18.29043 C20.58849,18.29043 20.61009,18.30753 20.62629,18.36153 C20.67939,18.54963 20.74239,18.73503 20.79729,18.92223 C20.81169,18.96993 20.83419,18.98613 20.88459,18.98613 C21.10869,18.98343 21.33279,18.98433 21.55599,18.98433 L21.76479,18.98433 C21.76389,18.94383 21.75039,18.91683 21.73959,18.88713 C21.30849,17.71893 20.87739,16.55163 20.44899,15.38253 L20.44899,15.38253 Z" id="Fill-39" fill="#FFFFFF"></path>
                <path d="M35.2863,15.98904 C35.7552,15.98904 36.2241,15.98994 36.6921,15.98904 C36.774,15.98904 36.7758,15.98814 36.7758,15.91254 C36.7767,15.73434 36.7767,15.55614 36.7758,15.37704 C36.7758,15.30594 36.774,15.30414 36.7002,15.30414 L34.317,15.30414 C34.236,15.30414 34.236,15.30594 34.2342,15.38424 L34.2342,15.44724 L34.2342,17.13744 L34.2342,18.89154 C34.2342,18.98334 34.2351,18.98334 34.3242,18.98424 L34.3764,18.98424 L36.2556,18.98424 C36.3996,18.98424 36.5427,18.98514 36.6867,18.98424 C36.7686,18.98424 36.7695,18.98334 36.7695,18.89694 C36.7704,18.72594 36.7695,18.55494 36.7695,18.38304 C36.7704,18.29304 36.7758,18.29484 36.6876,18.29484 L35.4807,18.29484 C35.379,18.29484 35.2773,18.29394 35.1756,18.29484 C35.1423,18.29574 35.1252,18.28674 35.1252,18.24804 C35.127,17.98974 35.1261,17.73054 35.1252,17.47134 C35.1252,17.43084 35.1414,17.41374 35.1819,17.41734 C35.2062,17.41914 35.2305,17.41734 35.2557,17.41734 C35.6508,17.41734 36.0468,17.41824 36.4419,17.41734 C36.5166,17.41734 36.5175,17.41554 36.5175,17.34444 C36.5184,17.17974 36.5175,17.01504 36.5184,16.85034 C36.5184,16.75224 36.5211,16.76124 36.4266,16.76124 L35.2395,16.76124 C35.1261,16.76124 35.1261,16.76124 35.1261,16.65234 L35.1261,16.14924 C35.1261,15.98904 35.1261,15.98904 35.2863,15.98904" id="Fill-41" fill="#FFFFFF"></path>
                <path d="M17.06481,16.68168 C17.02701,16.87968 16.89201,17.00298 16.68771,17.03448 C16.54551,17.05518 16.40241,17.04438 16.25931,17.04708 C16.18551,17.04798 16.11261,17.04438 16.03881,17.04798 C15.98931,17.05068 15.96771,17.03268 15.97401,16.98318 L15.97401,16.97238 L15.97401,16.52148 C15.97401,16.36848 15.97581,16.21458 15.97311,16.06158 C15.97221,16.00848 15.98481,15.98778 16.04241,15.98778 C16.21431,15.99228 16.38531,15.98598 16.55631,15.99138 C16.87761,16.00218 17.07021,16.20378 17.07291,16.52508 C17.07291,16.57818 17.07471,16.63038 17.06481,16.68168 M17.28891,15.45498 C17.06481,15.34608 16.82451,15.30468 16.57791,15.30468 L15.19191,15.30468 C15.17391,15.30468 15.15681,15.30558 15.13881,15.30468 C15.09291,15.30018 15.07761,15.32448 15.08211,15.36768 C15.08391,15.38838 15.08211,15.40998 15.08211,15.42978 L15.08211,17.14158 L15.08211,18.86328 C15.08211,18.88758 15.08301,18.91278 15.08211,18.93618 C15.08031,18.97308 15.09831,18.98568 15.13341,18.98568 C15.39621,18.98478 15.65811,18.98478 15.92091,18.98568 C15.96141,18.98568 15.97671,18.96768 15.97401,18.92808 C15.97221,18.90828 15.97401,18.88668 15.97401,18.86598 L15.97401,17.84718 C15.97401,17.71848 15.96321,17.73288 16.08381,17.73288 C16.24491,17.73198 16.40601,17.73288 16.56621,17.73288 C16.72101,17.73198 16.87401,17.71758 17.02431,17.68338 C17.21061,17.64108 17.38341,17.57088 17.53731,17.45568 C17.84691,17.22528 17.98551,16.91388 17.97651,16.53048 C17.96481,16.03098 17.73621,15.67368 17.28891,15.45498" id="Fill-43" fill="#FFFFFF"></path>
                <path d="M29.16567,15.30441 C29.14137,15.30531 29.11707,15.30441 29.09277,15.30441 L27.67617,15.30441 L26.21727,15.30441 C26.13267,15.30441 26.13177,15.30621 26.13087,15.39171 L26.13087,15.89481 C26.13177,15.98931 26.13177,15.98931 26.23077,15.98931 C26.52147,15.99021 26.81127,15.98931 27.10197,15.98931 C27.12537,15.98931 27.15057,15.99021 27.17487,15.99021 C27.20007,15.99021 27.21357,16.00191 27.21357,16.02801 C27.21447,16.05591 27.21447,16.08381 27.21447,16.11081 L27.21447,18.75591 C27.21447,18.80541 27.21357,18.85401 27.21447,18.90261 C27.21537,18.98361 27.21537,18.98451 27.29277,18.98451 C27.53757,18.98541 27.78237,18.98541 28.02717,18.98451 C28.10367,18.98451 28.10457,18.98271 28.10547,18.90171 C28.10637,18.88101 28.10547,18.85941 28.10547,18.83871 L28.10547,16.11081 C28.10547,15.96951 28.09737,15.99021 28.23147,15.99021 C28.51857,15.98931 28.80567,15.98931 29.09187,15.98931 L29.16567,15.98931 C29.19537,15.99021 29.20977,15.97761 29.20977,15.94611 C29.20887,15.74631 29.20887,15.54741 29.20977,15.34851 C29.20977,15.31701 29.19627,15.30351 29.16567,15.30441" id="Fill-45" fill="#FFFFFF"></path>
                <path d="M12.08763,15.30351 C11.94813,15.30531 11.80773,15.30441 11.66733,15.30441 C11.54853,15.30441 11.43063,15.30531 11.31093,15.30441 C11.27313,15.30351 11.24973,15.31341 11.25513,15.35751 C11.25783,15.37821 11.25603,15.39891 11.25603,15.42051 L11.25603,17.14131 C11.25603,17.72541 11.25603,18.31041 11.25513,18.89361 C11.25513,18.99171 11.24973,18.98451 11.34693,18.98451 C11.57103,18.98451 11.79423,18.98541 12.01833,18.98451 C12.15963,18.98361 12.14883,19.00971 12.14883,18.85851 L12.14883,15.42681 C12.14883,15.40521 12.14703,15.38451 12.14883,15.36291 C12.15333,15.31791 12.13173,15.30351 12.08763,15.30351" id="Fill-47" fill="#FFFFFF"></path>
            </g>
        </g>
    </g>
</svg>