<?xml version="1.0" encoding="UTF-8" standalone="no"?>
<svg width="79px" height="19px" viewBox="0 0 79 19" version="1.1" xmlns="http://www.w3.org/2000/svg" xmlns:xlink="http://www.w3.org/1999/xlink">
    <!-- Generator: Sketch 42 (36781) - http://www.bohemiancoding.com/sketch -->
    <title>logo_2</title>
    <desc>Created with Sketch.</desc>
    <defs></defs>
    <g id="web_2" stroke="none" stroke-width="1" fill="none" fill-rule="evenodd">
        <g id="common:-menu" transform="translate(-327.000000, -114.000000)">
            <g id="logo_3" transform="translate(327.000000, 114.000000)">
                <g id="logo-white-copy">
                    <g id="Group-3" transform="translate(33.584541, 0.077757)" fill="#FFFFFF">
                        <path d="M3.48405266,5.10555568 C5.56247778,2.28977506 9.39798502,1.47539241 12.4350961,3.05908119 L4.27214444,14.1171054 C1.80406232,11.7637349 1.40562754,7.92133629 3.48405266,5.10555568 L3.48405266,5.10555568 Z M15.7870623,11.4282904 C15.5660913,12.0541029 15.2508546,12.6588797 14.8348643,13.2227119 C12.7564391,16.0384925 8.92093188,16.8524996 5.88382077,15.2695621 L14.0467725,4.21116218 L14.0467725,4.21153782 L15.2271928,2.6124479 C14.9833232,2.394578 14.7264778,2.18647468 14.453985,1.99151869 C10.4291831,-0.886242156 4.79613961,-0.00800108418 1.87237633,3.95309904 C-1.0517686,7.91457481 -0.159488406,13.4586124 3.86493188,16.3367489 C7.88973382,19.2148854 13.5227773,18.3366443 16.4469222,14.3755442 C16.9720623,13.6637107 17.3712604,12.9004147 17.6540575,12.1111998 L15.7870623,11.4282904 Z" id="Fill-1"></path>
                    </g>
                    <g id="Group-11" transform="translate(0.000000, 0.077757)" fill="#FFFFFF">
                        <path d="M3.33257874,5.10555568 C5.41100386,2.28977506 9.24689275,1.47539241 12.2840039,3.05908119 L4.12105217,14.1171054 C1.65258841,11.7637349 1.25415362,7.92133629 3.33257874,5.10555568 L3.33257874,5.10555568 Z M15.6355884,11.4282904 C15.414999,12.0541029 15.0997623,12.6588797 14.683772,13.2227119 C12.6049652,16.0384925 8.76945797,16.8524996 5.73234686,15.2695621 L13.8952986,4.21116218 L13.8952986,4.21153782 L15.0757188,2.6124479 C14.8318493,2.394578 14.5750039,2.18647468 14.3025111,1.99151869 C10.2780908,-0.886242156 4.64504734,-0.00800108418 1.72090242,3.95309904 C-1.20324251,7.91457481 -0.310962319,13.4586124 3.71383961,16.3367489 C7.7382599,19.2148854 13.3713034,18.3366443 16.2954483,14.3755442 C16.8205884,13.6637107 17.2197865,12.9004147 17.5025836,12.1111998 L15.6355884,11.4282904 Z" id="Fill-9"></path>
                    </g>
                    <path d="M66.4785763,17.6410008 L64.3104652,17.6410008 L64.3104652,7.44731901 C64.3104652,4.72957985 62.0637357,2.51782474 59.3017889,2.51782474 C56.5406053,2.51782474 54.2938758,4.72957985 54.2938758,7.44731901 L54.2938758,17.6410008 L52.1257647,17.6410008 L52.1257647,7.44731901 C52.1257647,3.55270676 55.3449193,0.383826658 59.3017889,0.383826658 C63.2594217,0.383826658 66.4785763,3.55270676 66.4785763,7.44731901 L66.4785763,17.6410008 Z" id="Fill-12" fill="#FFFFFF"></path>
                    <path d="M78.6426681,17.6410008 L76.5165377,17.6410008 C76.5047068,17.6410008 76.4955473,17.6319855 76.4955473,17.6199651 L76.4955473,7.63964554 C76.4955473,5.00642487 74.4816198,2.69399885 71.8112671,2.5283426 C68.9031512,2.3472852 66.4785763,4.62402564 66.4785763,7.44731901 L66.4785763,17.6199651 C66.4785763,17.6319855 66.4694169,17.6410008 66.457586,17.6410008 L64.3318372,17.6410008 C64.3200063,17.6410008 64.3104652,17.6319855 64.3104652,17.6199651 L64.3104652,7.67232602 C64.3104652,3.86223227 67.278499,0.569767347 71.1449193,0.392090689 C75.2567357,0.202393622 78.6636585,3.44076671 78.6636585,7.44731901 L78.6636585,17.6199651 C78.6636585,17.6319855 78.6541174,17.6410008 78.6426681,17.6410008" id="Fill-14" fill="#FFFFFF"></path>
                    <polygon id="Fill-18" fill="#FFFFFF" points="24.4388217 3.74458253 22.2928459 0.837521939 16.6441551 0.837521939 21.6146671 7.5708287"></polygon>
                    <polygon id="Fill-20" fill="#E84B1F" points="25.6698478 5.41222634 22.8456932 9.23847251 29.0374614 17.6268392 34.6861522 17.6268392"></polygon>
                    <polygon id="Fill-22" fill="#FFFFFF" points="25.6651918 13.058145 29.037385 17.6266514 34.6860758 17.6266514 28.4893464 9.23189885"></polygon>
                    <polygon id="Fill-24" fill="#BBBBBB" points="25.6651918 13.058145 28.4893464 9.23189885 29.3629261 10.4140309"></polygon>
                    <polygon id="Fill-26" fill="#FFFFFF" points="29.0373469 0.837446811 16.6442696 17.6265763 22.2929604 17.6265763 34.6860377 0.837446811"></polygon>
                </g>
            </g>
        </g>
    </g>
</svg>