<?xml version="1.0" encoding="UTF-8" standalone="no"?>
<svg width="10px" height="10px" viewBox="0 0 10 10" version="1.1" xmlns="http://www.w3.org/2000/svg" xmlns:xlink="http://www.w3.org/1999/xlink">
    <!-- Generator: Sketch 42 (36781) - http://www.bohemiancoding.com/sketch -->
    <title>Page 1</title>
    <desc>Created with Sketch.</desc>
    <defs></defs>
    <g id="web_2" stroke="none" stroke-width="1" fill="none" fill-rule="evenodd">
        <g id="common:-menu" transform="translate(-1032.000000, -125.000000)" fill="#6a6a6a">
            <g id="language" transform="translate(1032.000000, 124.000000)">
                <path d="M5,1 C2.2375,1 0,3.2375 0,6 C0,8.7625 2.2375,11 5,11 C7.7625,11 10,8.7625 10,6 C10,3.2375 7.7625,1 5,1 Z M4.5,9.96500025 C2.5275,9.72000025 1,8.04 1,6 C1,5.6925 1.0375,5.3925 1.105,5.105 L3.5,7.5 L3.5,8 C3.5,8.5525 3.9475,9 4.5,9 L4.5,9.96500025 Z M7.9475,8.6975 C7.82,8.2925 7.445,8 7,8 L6.5,8 L6.5,6.5 C6.5,6.225 6.275,6 6,6 L3,6 L3,5 L4,5 C4.275,5 4.5,4.775 4.5,4.5 L4.5,3.5 L5.5,3.5 C6.0525,3.5 6.5,3.0525 6.5,2.5 L6.5,2.2925 C7.965,2.885 9,4.32 9,6 C9,7.04 8.6,7.985 7.9475,8.6975 Z" id="Page-1"></path>
            </g>
        </g>
    </g>
</svg>
