<?xml version="1.0" encoding="UTF-8" standalone="no"?>
<svg width="14px" height="14px" viewBox="0 0 14 14" version="1.1" xmlns="http://www.w3.org/2000/svg" xmlns:xlink="http://www.w3.org/1999/xlink">
    <!-- Generator: Sketch 43.1 (39012) - http://www.bohemiancoding.com/sketch -->
    <title>noun_428398_cc</title>
    <desc>Created with Sketch.</desc>
    <defs></defs>
    <g id="web_2" stroke="none" stroke-width="1" fill="none" fill-rule="evenodd">
        <g id="common:-menu-copy" transform="translate(-1315.000000, -106.000000)" fill-rule="nonzero" fill="#FFFFFF">
            <g id="noun_428398_cc" transform="translate(1315.000000, 106.000000)">
                <path d="M12.3425,1 L9,1 L9,-4.99600361e-16 L14,-4.99600361e-16 L14,5 L13,5 L13,1.6575 L6.3285,8.329 L5.6715,7.671 L12.3425,1 Z M11.5,14 L1.5,14 C0.673,14 0,13.327 0,12.5 L0,2.5 C0,1.673 0.673,1 1.5,1 L7,1 L7,2 L1.5,2 C1.224,2 1,2.2245 1,2.5 L1,12.5 C1,12.7755 1.224,13 1.5,13 L11.5,13 C11.776,13 12,12.7755 12,12.5 L12,7 L13,7 L13,12.5 C13,13.327 12.327,14 11.5,14 Z" id="Combined-Shape"></path>
            </g>
        </g>
    </g>
</svg>