<?xml version="1.0" encoding="UTF-8" standalone="no"?>
<svg width="18px" height="20px" viewBox="0 0 18 20" version="1.1" xmlns="http://www.w3.org/2000/svg" xmlns:xlink="http://www.w3.org/1999/xlink">
    <!-- Generator: Sketch 42 (36781) - http://www.bohemiancoding.com/sketch -->
    <title>Shape</title>
    <desc>Created with Sketch.</desc>
    <defs></defs>
    <g id="web_2" stroke="none" stroke-width="1" fill="none" fill-rule="evenodd">
        <g id="common:-footer" transform="translate(-212.000000, -47.000000)" fill-rule="nonzero" fill="#626262">
            <g id="공지" transform="translate(210.000000, 47.000000)">
                <path d="M19.3348214,2.63392857 C19.2857143,2.50446429 19.2321429,2.38392857 19.1785714,2.26339286 C18.8883929,1.62053571 18.5357143,1.10267857 18.1339286,0.71875 C17.6339286,0.25 17.0580357,0 16.4642857,0 C16.09375,0 15.7321429,0.0982142857 15.3883929,0.285714286 C15.3883929,0.285714286 15.3883929,0.285714286 15.3839286,0.285714286 C15.3303571,0.316964286 15.2767857,0.34375 15.2232143,0.375 C13.0357143,1.66964286 10.5758929,2.4375 7.96428571,2.58035714 C7.67410714,2.59821429 7.38392857,2.58928571 7.09375,2.58928571 L5.20535714,2.58928571 C3.6875,3.25892857 2.57142857,4.84375 2.57142857,6.67410714 C2.57142857,8.31696429 3.42857143,9.75892857 4.70535714,10.5178571 C5.28571429,11.0044643 6.56696429,11.0401786 6.49107143,11.5848214 C6.40625,12.1741071 6.24553571,12.5625 6.14285714,12.9553571 C6.08482143,13.1696429 5.08928571,16.2098214 5.01339286,19.4151786 C5.01339286,19.5044643 5.01339286,19.5803571 5.02232143,19.7098214 C5.03125,19.8392857 5.12053571,19.9955357 5.40178571,19.9955357 L8.83035714,19.9955357 C9.125,19.9955357 9.26339286,19.8482143 9.24553571,19.5803571 C9.23660714,19.4955357 9.21875,19.3883929 9.20982143,19.2901786 C9.10267857,18.2589286 9.00446429,17.0669643 9.0625,15.6473214 C9.12053571,14.1294643 9.29464286,13.3303571 9.375,12.9107143 C9.46875,12.4464286 9.71428571,11.9107143 9.91517857,11.5580357 C11.2901786,11.5982143 14.0625,12.4196429 15.0535714,12.8482143 C15.0535714,12.8482143 15.375,13 15.5044643,13.0803571 C15.8169643,13.2321429 16.1383929,13.3080357 16.46875,13.3080357 C16.5089286,13.3080357 16.5491071,13.3080357 16.5892857,13.3035714 C17.1383929,13.2723214 17.6696429,12.8705357 18.1383929,12.4330357 C18.5446429,12.0535714 18.8928571,11.53125 19.1830357,10.8883929 C19.2366071,10.7633929 19.2901786,10.6383929 19.3392857,10.5044643 C19.7678571,9.38839286 20,8.00892857 20,6.57142857 C20,5.13392857 19.7678571,3.75 19.3348214,2.63392857 Z M18.3035714,10.5133929 C17.9553571,11.3392857 17.4910714,12 16.9866071,12 C16.4821429,12 16.0223214,11.34375 15.6741071,10.5133929 C15.2678571,9.54910714 15.0089286,8.14285714 15.0089286,6.58035714 C15.0089286,5.00892857 15.2678571,3.59821429 15.6785714,2.63392857 C16.0267857,1.8125 16.4866071,1.31696429 16.9866071,1.31696429 C17.4910714,1.31696429 17.9464286,1.81696429 18.2991071,2.63392857 C18.7098214,3.59821429 18.96875,5.00892857 18.96875,6.58035714 C18.96875,8.14285714 18.7098214,9.54910714 18.3035714,10.5133929 Z" id="Shape"></path>
            </g>
        </g>
    </g>
</svg>