<?xml version="1.0" encoding="utf-8"?>
<!-- Generator: Adobe Illustrator 21.1.0, SVG Export Plug-In . SVG Version: 6.00 Build 0)  -->
<svg version="1.1" id="레이어_1" xmlns="http://www.w3.org/2000/svg" xmlns:xlink="http://www.w3.org/1999/xlink" x="0px"
	 y="0px" viewBox="0 0 612 126.7" style="enable-background:new 0 0 612 126.7;" xml:space="preserve">
<style type="text/css">
	.st0{fill:#FFFFFF;}
	.st1{opacity:0.6;fill:#FFFFFF;}
	.st2{fill:#888888;}
</style>
<path class="st0" d="M411.1,91C411.1,91,411,91,411.1,91c-0.5,0.1-1,0.3-1.5,0.3l0,0c-0.4,0-0.7,0-1.1,0c-0.1,0-0.3,0-0.3,0
	c-0.1,0-0.3,0-0.3,0c-0.4,0-1-0.1-1.4-0.1l0,0c-0.4-0.1-1-0.3-1.4-0.4c-0.1,0-0.1,0-0.3-0.1c-0.4-0.1-0.8-0.3-1.2-0.5
	c0,0-0.1,0-0.1-0.1c-0.4-0.1-0.7-0.4-1.1-0.7c-0.1,0-0.1-0.1-0.3-0.1c-0.4-0.3-0.7-0.5-1.1-0.8l-0.1-0.1c-0.3-0.3-0.5-0.5-0.8-1
	c0-0.1-0.1-0.1-0.1-0.3c-0.3-0.4-0.5-0.8-0.8-1.2c0-0.1-0.1-0.1-0.1-0.3c-0.1-0.4-0.4-0.8-0.5-1.2V84c-0.1-0.4-0.3-1-0.4-1.5
	c0-0.1,0-0.3,0-0.4c-0.1-0.5-0.1-1.1-0.1-1.6V47.3c0-1.4-0.1-2.5-0.4-3.6c-0.7-3.2-2.7-7.8-8.1-10.7c-1.8-0.8-3.7-1.5-5.8-1.8
	c-0.4-0.1-0.8-0.1-1.2-0.1c-1-0.1-1.9-0.3-2.9-0.3h-16.3l-9.6,12.4h25.8c7.3,0,8.6,10.2,1.8,12.2l-21,6c-0.3,0.1-0.7,0.3-1,0.4
	c-19.3,9.1-13.7,39.9,9.3,39.9h21L380,89.5l0,0l-12.4-0.1l0,0c-6.6-0.7-10.6-8.1-6.9-13.7c1.2-1.8,3-3.2,5.6-4l19.1-5.5v14.5
	c0,12.6,10.3,22.9,23.1,22.9c3.8,0,7.5-1,11-2.9C415.9,98.2,413,94.8,411.1,91z"/>
<g>
	<path class="st0" d="M454.1,30.9v43.2c0,7.4-5.1,14-12.4,15.1c-9.3,1.5-17.4-5.6-17.4-14.8V30.9h-19.5c0,0,7.3,2.9,7.3,14.1v28.8
		c0,13.9,10.2,25.9,23.9,27.6c6.9,0.8,13.3-1,18.4-4.4v4.5h12.1V30.9H454.1z"/>
</g>
<path class="st0" d="M139.6,89.3L139.6,89.3c-6.6-0.7-10.6-8.1-6.9-13.7c1.2-1.8,3-3.2,5.6-4l19.1-5.5v14.5
	c0,12.6,10.3,22.9,23.1,22.9c7,0,13.7-3.3,18.1-8.9l14.3-18.4l19.6,25.2h15.6l-27.6-35.4l27.6-35.4h-15.6l-43.9,56.4
	c-0.4,0.4-0.7,0.8-1.1,1.2c-0.1,0.1-0.3,0.1-0.3,0.3c-0.3,0.3-0.7,0.5-1,0.8c-0.1,0-0.1,0.1-0.3,0.1c-0.4,0.3-0.8,0.5-1.2,0.7
	c-0.1,0-0.1,0.1-0.3,0.1c-0.4,0.1-0.7,0.3-1.1,0.4c-0.1,0-0.3,0.1-0.4,0.1c-0.4,0.1-1,0.3-1.4,0.3l0,0c-0.4,0-0.7,0-1.1,0
	c-0.1,0-0.3,0-0.3,0c-0.1,0-0.3,0-0.3,0c-0.4,0-1-0.1-1.4-0.1l0,0c-0.4-0.1-1-0.3-1.4-0.4c-0.1,0-0.1,0-0.3-0.1
	c-0.4-0.1-0.8-0.3-1.2-0.5c0,0-0.1,0-0.1-0.1c-0.4-0.1-0.7-0.4-1.1-0.7c-0.1,0-0.1-0.1-0.3-0.1c-0.4-0.3-0.7-0.5-1.1-0.8l-0.1-0.1
	c-0.3-0.3-0.5-0.5-0.8-1c0-0.1-0.1-0.1-0.1-0.3c-0.3-0.4-0.5-0.8-0.8-1.2c0-0.1-0.1-0.1-0.1-0.3c-0.1-0.4-0.4-0.8-0.5-1.2V84
	c-0.1-0.4-0.3-1-0.4-1.5c0-0.1,0-0.3,0-0.4c-0.1-0.5-0.1-1.1-0.1-1.6V47.3c0-1.4-0.1-2.5-0.4-3.6c-0.7-3.2-2.7-7.8-8.1-10.7
	c-1.8-0.8-3.7-1.5-5.8-1.8c-0.4-0.1-0.8-0.1-1.2-0.1c-1-0.1-1.9-0.3-2.9-0.3H135l-9.6,12.4h25.8c7.3,0,8.6,10.2,1.8,12.2l-20.9,6
	c-0.3,0.1-0.7,0.3-1,0.4c-19.3,9.1-13.7,39.9,9.3,39.9h21l-9.6-12.4l0,0L139.6,89.3z"/>
<polygon class="st1" points="205.1,46 193.2,30.9 177.6,30.9 197.2,56.1 "/>
<path class="st2" d="M520.5,81.6h-20.3l4.9-6.3h5.9c11.1,0,21.1-8,22.8-18.9c0.7-4.8-0.1-9.5-2.2-13.3h8.6l0.7-0.8l0,0l0.1-0.1
	l8.8-11.3h-49.7c-8.2,0-15.5,4.7-19.1,11.5c-1.8,3.2-2.7,6.9-2.7,10.8c0,8.9,5.4,16.5,12.9,20L475.1,94h47.6
	c5.8,0.7,10,6.3,8.6,12.5c-1.1,4.7-5.5,7.8-10.3,7.8h-26.8c-5.6,0-10.2-4.5-10.2-10.2H472c0,12.2,10,22.5,22.2,22.5h27.2
	c12.8,0,23.2-11,22.2-23.9C542.7,90.8,532.3,81.6,520.5,81.6z M490.7,51.2c1-4.8,5.4-8.1,10.3-8.1h10.3c4.8,0,9.3,3.3,10.3,8.1
	c1.4,6.6-3.3,11.8-9.6,11.8h-10.8C494.8,63.1,489.5,57.8,490.7,51.2z"/>
<path class="st0" d="M520.5,81.6h-20.3l4.9-6.3h5.9c11.1,0,21.1-8,22.8-18.9c0.7-4.8-0.1-9.5-2.2-13.3h8.6l0.7-0.8l0,0l0.1-0.1
	l8.8-11.3h-49.7c-8.2,0-15.5,4.7-19.1,11.5c-1.8,3.2-2.7,6.9-2.7,10.8c0,8.9,5.4,16.5,12.9,20L475.1,94h47.6
	c5.8,0.7,10,6.3,8.6,12.5c-1.1,4.7-5.5,7.8-10.3,7.8h-26.8c-5.6,0-10.2-4.5-10.2-10.2H472c0,12.2,10,22.5,22.2,22.5h27.2
	c12.8,0,23.2-11,22.2-23.9C542.7,90.8,532.3,81.6,520.5,81.6z M490.7,51.2c1-4.8,5.4-8.1,10.3-8.1h10.3c4.8,0,9.3,3.3,10.3,8.1
	c1.4,6.6-3.3,11.8-9.6,11.8h-10.8C494.8,63.1,489.5,57.8,490.7,51.2z"/>
<path class="st0" d="M339.3,50.1h-20c0,0,7.8,3,7.7,15.1l0,0l0,0v24.1h-23.2c-20.7,0-38.7-18.2-38.7-39c0-20.3,17.4-37.5,37.6-38
	h15.2L327,0h-23.5c-28,0-50.6,22.8-50.6,50.8c0,28,22.6,50.6,50.6,50.6h35.7V50.1L339.3,50.1L339.3,50.1z"/>
<path class="st0" d="M58,72.6L85.4,0.1h18.8l11,101.4h-13.4c-3.2-28.8-6.2-60.8-9.3-89.5L58,101.5L23.7,12.1
	c-3.2,28.8-6.2,60.8-9.3,89.5H1l9.7-91.1c0.1-1.1,0-2.3-0.5-3.4C8,1.9,3.6,0.1,3.6,0.1h8.2h18.8L58,72.6z"/>
<path class="st0" d="M611.5,63.4c0-17.8-14.5-32.5-32.4-32.5c-17.8,0-32.4,14.8-32.4,32.5v5.9c0,17.8,14.5,32.4,32.4,32.4h29.8
	l-9.6-12.4h-22.9c-9.2-0.4-16.6-7.7-17.4-16.9h52.4L611.5,63.4z M579.1,43.1c9.6,0,19.5,7.5,20,17.2H559
	C559.9,50.8,569.5,43.1,579.1,43.1z"/>
</svg>
