<?xml version="1.0" encoding="UTF-8"?>
<svg width="106px" height="18px" viewBox="0 0 106 18" version="1.1" xmlns="http://www.w3.org/2000/svg" xmlns:xlink="http://www.w3.org/1999/xlink">
    <!-- Generator: Sketch 44.1 (41455) - http://www.bohemiancoding.com/sketch -->
    <title>oracle</title>
    <desc>Created with Sketch.</desc>
    <defs></defs>
    <g id="Page-1" stroke="none" stroke-width="1" fill="none" fill-rule="evenodd">
        <g id="common:-footer" transform="translate(-1222.000000, -226.000000)">
            <g id="Group-2" transform="translate(991.000000, 219.000000)">
                <g id="oracle" transform="translate(227.240000, 6.782609)">
                    <path d="M32.1656035,10.5755652 L36.4132435,10.5755652 L34.1714335,6.84513043 L30.0548935,13.596087 L28.1823485,13.5983478 L33.1881835,5.48408696 C33.4066835,5.16078261 33.7650235,4.95278261 34.1714335,4.95278261 C34.5603635,4.95278261 34.9230735,5.15173913 35.1284635,5.47504348 L40.1605185,13.5983478 L38.2770485,13.596087 L37.4008635,12.0858261 L33.1029685,12.0858261 L32.1656035,10.5755652 L32.1656035,10.5755652 Z M51.6230285,12.0903478 L51.6230285,5.04095652 L50.0389035,5.04095652 L50.0389035,12.7821739 C50.0389035,12.9901739 50.1153785,13.1936522 50.2661435,13.3496522 C50.4256485,13.5056522 50.6310385,13.596087 50.8517235,13.596087 L58.0928135,13.596087 L59.0367335,12.0903478 L51.6230285,12.0903478 Z M25.3309235,10.8287826 C26.8822735,10.8287826 28.1255385,9.52878261 28.1255385,7.93486957 C28.1255385,6.34095652 26.8822735,5.04095652 25.3309235,5.04095652 L18.3782535,5.04095652 L18.3782535,13.596087 L19.9645635,13.596087 L19.9645635,6.558 L25.2238585,6.558 C25.9558335,6.558 26.5610785,7.17069565 26.5610785,7.93486957 C26.5610785,8.69904348 25.9558335,9.314 25.2238585,9.314 L20.7446085,9.314 L25.4882435,13.596087 L27.8021585,13.596087 L24.6076885,10.8287826 L25.3309235,10.8287826 Z M8.5938235,13.596087 C6.3126835,13.596087 4.4598035,11.6788696 4.4598035,9.314 C4.4598035,6.95591304 6.3126835,5.04095652 8.5938235,5.04095652 L13.4008235,5.04095652 C15.6841485,5.04095652 17.5282885,6.95591304 17.5282885,9.314 C17.5282885,11.6788696 15.6841485,13.5983478 13.4008235,13.5983478 L8.5938235,13.596087 Z M13.2872035,12.0903478 C14.7642635,12.0903478 15.9681985,10.8491304 15.9681985,9.314 C15.9681985,7.79469565 14.7642635,6.558 13.2872035,6.558 L8.7008885,6.558 C7.2260135,6.558 6.0242635,7.79469565 6.0242635,9.314 C6.0242635,10.8491304 7.2260135,12.0903478 8.7008885,12.0903478 L13.2872035,12.0903478 Z M43.4729785,13.596087 C41.1896535,13.596087 39.3433285,11.6788696 39.3433285,9.314 C39.3433285,6.95591304 41.1896535,5.04095652 43.4729785,5.04095652 L49.1801985,5.04095652 L48.2428335,6.558 L43.5800435,6.558 C42.1007985,6.558 40.9034185,7.79469565 40.9034185,9.314 C40.9034185,10.8491304 42.1007985,12.0903478 43.5800435,12.0903478 L49.3156685,12.0903478 L48.3783035,13.596087 L43.4729785,13.596087 Z M62.9129235,12.0903478 C61.6915085,12.0903478 60.6601885,11.2357391 60.3433635,10.0736522 L67.1387135,10.0736522 L68.0717085,8.56791304 L60.3368085,8.56791304 C60.6558185,7.40356522 61.6871385,6.558 62.9129235,6.558 L67.5844535,6.558 L68.5174485,5.04095652 L62.8014885,5.04095652 C60.5247185,5.04095652 58.6762085,6.95591304 58.6762085,9.314 C58.6762085,11.6788696 60.5247185,13.596087 62.8014885,13.596087 L67.7089985,13.596087 L68.6398085,12.0903478 L62.9129235,12.0903478 Z" id="Fill-83" fill="#FFFFFF"></path>
                    <path d="M69.3661025,5.94892174 C69.3661025,5.53970435 69.6916675,5.19605217 70.1002625,5.19605217 C70.5023025,5.19605217 70.8300525,5.53970435 70.8300525,5.94892174 C70.8300525,6.37848696 70.5023025,6.71309565 70.1002625,6.71309565 C69.6916675,6.71309565 69.3661025,6.37848696 69.3661025,5.94892174 L69.3661025,5.94892174 Z M70.1002625,6.91657391 C70.6093675,6.91657391 71.0288875,6.48474783 71.0288875,5.96022609 C71.0288875,5.4244 70.6093675,4.99709565 70.1002625,4.99709565 C69.5780475,4.99709565 69.1672675,5.4244 69.1672675,5.96022609 C69.1672675,6.48474783 69.5780475,6.91657391 70.1002625,6.91657391 L70.1002625,6.91657391 Z M70.0084925,5.38822609 C70.1570725,5.38822609 70.2138825,5.38822609 70.2772475,5.41535652 C70.4673425,5.48092174 70.4870075,5.6550087 70.4870075,5.7137913 C70.4870075,5.72735652 70.4826375,5.76353043 70.4760825,5.80422609 C70.4673425,5.84944348 70.4367525,5.93309565 70.3493525,5.98961739 C70.3362425,5.9964 70.3275025,6.00318261 70.3012825,6.01674783 L70.5416325,6.45987826 L70.3056525,6.45987826 L70.1002625,6.04613913 L69.9473125,6.04613913 L69.9473125,6.45987826 L69.7528475,6.45987826 L69.7528475,5.38822609 L70.0084925,5.38822609 Z M70.0827825,5.87431304 C70.1461475,5.87431304 70.2138825,5.86753043 70.2532125,5.80422609 C70.2706925,5.77935652 70.2772475,5.74996522 70.2772475,5.71153043 C70.2772475,5.6550087 70.2466575,5.60074783 70.2051425,5.58492174 C70.1570725,5.56231304 70.1090025,5.56231304 70.0084925,5.56231304 L69.9473125,5.56231304 L69.9473125,5.87431304 L70.0827825,5.87431304 Z" id="Fill-84" fill="#797A81"></path>
                    <path d="M82.226357,2.72876522 C82.215432,2.56146087 82.204507,2.33085217 82.053742,2.07989565 C81.795912,1.65485217 81.306472,1.58476522 81.013682,1.58476522 C79.503847,1.58476522 79.204502,3.04076522 79.204502,4.02650435 C79.204502,4.4605913 79.265682,5.24285217 79.720162,5.74702609 C80.028247,6.10424348 80.439027,6.29867826 81.177557,6.29867826 C81.819947,6.29867826 82.045002,6.21728696 82.189212,6.17433043 L82.189212,4.8245913 L80.989647,4.8245913 L80.989647,3.75972174 L83.519877,3.75972174 L83.519877,6.96563478 C83.133132,7.09902609 82.499482,7.3205913 81.256217,7.3205913 C79.838152,7.3205913 79.110547,6.96563478 78.621107,6.46598261 C77.924092,5.76511304 77.797362,4.74546087 77.797362,4.06946087 C77.797362,1.79502609 79.169542,0.58093913 81.048642,0.58093913 C81.846167,0.58093913 82.669912,0.811547826 83.161537,1.38806957 C83.570132,1.87641739 83.598537,2.38285217 83.605092,2.72876522 L82.226357,2.72876522 Z M87.087108,2.58633043 C88.655938,2.58633043 89.335473,3.68737391 89.335473,4.94215652 C89.335473,6.20146087 88.631903,7.33641739 87.060888,7.33641739 C85.826363,7.33641739 84.847483,6.54737391 84.847483,4.97606957 C84.847483,3.89311304 85.380623,2.58633043 87.087108,2.58633043 Z M87.104588,6.42302609 C86.477493,6.42302609 86.149743,5.98667826 86.149743,4.98511304 C86.149743,4.57589565 86.160668,3.4658087 87.087108,3.4658087 C87.928333,3.4658087 88.039768,4.29102609 88.039768,4.88789565 C88.039768,6.07711304 87.663948,6.42302609 87.104588,6.42302609 Z M90.62943,7.17657391 L90.62943,0.757965217 L91.898915,0.757965217 L91.898915,7.17657391 L90.62943,7.17657391 Z M96.2241225,0.767008696 L97.5023475,0.767008696 L97.5023475,6.45083478 C97.5023475,6.71761739 97.5176425,7.00926957 97.5373075,7.17657391 L96.2503425,7.17657391 L96.2153825,6.52996522 C96.1301675,6.69048696 96.0449525,6.8577913 95.7783825,7.0364 C95.4593725,7.24892174 95.1250675,7.2670087 94.9371575,7.2670087 C93.7791075,7.2670087 93.0908325,6.4417913 93.0908325,5.0377913 C93.0908325,3.55466087 93.8730625,2.63222609 95.0048925,2.63222609 C95.7871225,2.63222609 96.1105025,3.0844 96.2241225,3.24492174 L96.2241225,0.767008696 Z M95.2539825,6.41466087 C94.6203325,6.41466087 94.3777975,5.74996522 94.3777975,5.00387826 C94.3777975,4.54944348 94.4717525,3.49361739 95.3217175,3.49361739 C95.8985575,3.49361739 96.2678225,3.97292174 96.2678225,4.8524 C96.2678225,5.07396522 96.2503425,5.53518261 96.0624325,5.90822609 C95.9225925,6.18405217 95.6232475,6.41466087 95.2539825,6.41466087 Z M78.0291905,11.5249043 L79.9410655,11.5249043 C80.8347305,11.5249043 81.5820005,11.5859478 82.0976605,12.2280348 C82.4232255,12.6327304 82.4734805,13.0962087 82.4734805,13.4262957 C82.4734805,14.1701217 82.1741355,14.8009043 81.6846955,15.1309913 C81.2302155,15.4339478 80.6053055,15.4339478 80.2775555,15.4339478 L79.3751505,15.4339478 L79.3751505,17.927687 L78.0291905,17.927687 L78.0291905,11.5249043 Z M79.3401905,14.4097739 L79.3401905,12.5649043 L80.0109855,12.5649043 C80.3889905,12.5649043 81.0991155,12.5649043 81.0991155,13.4353391 C81.0991155,14.4097739 80.3037755,14.4097739 79.8755155,14.4097739 L79.3401905,14.4097739 Z M85.8750885,17.927687 C85.8313885,17.6518609 85.8313885,17.4483826 85.8313885,17.3149913 C85.3528735,18.0339478 84.7738485,18.0339478 84.5378685,18.0339478 C83.9085885,18.0339478 83.6289085,17.8485565 83.4562935,17.6789913 C83.1962785,17.4099478 83.0761035,17.0459478 83.0761035,16.6909913 C83.0761035,16.3382957 83.1962785,15.6803826 83.9959885,15.2982957 C84.5291285,15.0518609 85.2895085,15.0518609 85.7112135,15.0518609 C85.7112135,14.755687 85.7024735,14.6132522 85.6522185,14.4549913 C85.5429685,14.1249043 85.2042935,14.0819478 85.0863035,14.0819478 C84.9049485,14.0819478 84.7170385,14.1610783 84.6056035,14.3306435 C84.5094635,14.4821217 84.5094635,14.6245565 84.5094635,14.7308174 L83.2683835,14.7308174 C83.2749385,14.4889043 83.3011585,14.0118609 83.7534535,13.6727304 C84.1489385,13.3788174 84.6558585,13.3087304 85.0688235,13.3087304 C85.4293485,13.3087304 86.1853585,13.3720348 86.6136185,13.887513 C86.9064085,14.2492522 86.9151485,14.7828174 86.9151485,14.9885565 L86.9217035,16.7904696 C86.9217035,17.1725565 86.9479235,17.5546435 87.0243985,17.927687 L85.8750885,17.927687 Z M84.3106285,16.5417739 C84.3106285,16.0082087 84.8962085,15.743687 85.7112135,15.811513 C85.7112135,16.2930783 85.6959185,16.6412522 85.4708635,16.9238609 C85.3528735,17.0662957 85.1649635,17.1816 84.9289835,17.1816 C84.5094635,17.1816 84.3106285,16.8447304 84.3106285,16.5417739 Z M88.220249,14.5452 C88.220249,14.3304174 88.185289,13.6815478 88.161254,13.4260696 L89.354264,13.4260696 L89.378299,14.2874609 C89.542174,13.9053739 89.824039,13.3627652 90.855359,13.4147652 L90.855359,14.5949391 C89.568394,14.4728522 89.489734,15.1578957 89.489734,15.7185913 L89.489734,17.9274609 L88.220249,17.9274609 L88.220249,14.5452 Z M94.7964435,17.8659652 C94.3834785,17.9812696 94.0163985,18.0061391 93.8088235,18.0061391 C92.5305985,18.0061391 92.5305985,17.1718783 92.5305985,16.7988348 L92.5305985,14.3390087 L91.6981135,14.3390087 L91.6981135,13.4708348 L92.5305985,13.4708348 L92.5305985,12.5913565 L93.7913435,12.1097913 L93.7913435,13.4708348 L94.8204785,13.4708348 L94.8204785,14.3390087 L93.7913435,14.3390087 L93.7913435,16.3647478 C93.8000835,16.7739652 93.8000835,17.0317043 94.3681835,17.0317043 C94.5560935,17.0317043 94.6434935,17.0226609 94.7964435,17.002313 L94.7964435,17.8659652 Z M95.9466275,14.2429217 C95.9466275,14.2225739 95.9466275,13.736487 95.9204075,13.4267478 L97.1396375,13.4267478 L97.1745975,14.100487 C97.2947725,13.8970087 97.6378175,13.3182261 98.5817375,13.3182261 C99.4317025,13.3182261 99.7922275,13.8517913 99.9036625,14.1637913 C99.9976175,14.4373565 100.023838,14.6679652 100.023838,15.5022261 L100.023838,17.9281391 L98.7259475,17.9281391 L98.7259475,15.1382261 C98.7259475,14.9505739 98.7259475,14.792313 98.6603975,14.6498783 C98.5642575,14.4554435 98.3676075,14.2700522 98.0420425,14.2700522 C97.7689175,14.2700522 97.5176425,14.4011826 97.3799875,14.6159652 C97.3013275,14.7312696 97.2248525,14.9505739 97.2248525,15.2987478 L97.2248525,17.9281391 L95.9466275,17.9281391 L95.9466275,14.2429217 Z M102.540084,16.0179304 C102.540084,16.3118435 102.540084,17.2161913 103.422824,17.2161913 C103.741834,17.2161913 104.058659,17.0918435 104.178834,16.5944522 L105.336884,16.5944522 C105.319404,16.8092348 105.277889,17.1913217 104.926104,17.5711478 C104.607094,17.9193217 104.041179,18.0956696 103.407529,18.0956696 C103.038264,18.0956696 102.332509,18.0255826 101.878029,17.5372348 C101.484729,17.1099304 101.320854,16.5062783 101.320854,15.7850609 C101.320854,15.0593217 101.493469,14.1866261 102.221074,13.6643652 C102.557564,13.4314957 102.968344,13.2913217 103.442489,13.2913217 C104.058659,13.2913217 104.797189,13.5400174 105.190489,14.3742783 C105.483279,14.9869739 105.465799,15.644887 105.448319,16.0179304 L102.540084,16.0179304 Z M104.152614,15.192713 L102.583784,15.192713 C102.607819,14.6659304 102.841614,14.1866261 103.398789,14.1866261 C104.135134,14.1866261 104.152614,14.9869739 104.152614,15.192713 Z M106.634774,14.5452 C106.634774,14.3304174 106.601999,13.6815478 106.577964,13.4260696 L107.768789,13.4260696 L107.792824,14.2874609 C107.956699,13.9053739 108.240749,13.3627652 109.272069,13.4147652 L109.272069,14.5949391 C107.982919,14.4728522 107.906444,15.1578957 107.906444,15.7185913 L107.906444,17.9274609 L106.634774,17.9274609 L106.634774,14.5452 Z" id="Combined-Shape" fill="#FFFFFF"></path>
                </g>
            </g>
        </g>
    </g>
</svg>