<?xml version="1.0" encoding="utf-8"?>
<!-- Generator: Adobe Illustrator 22.0.0, SVG Export Plug-In . SVG Version: 6.00 Build 0)  -->
<svg version="1.1" id="Layer_1" xmlns="http://www.w3.org/2000/svg" xmlns:xlink="http://www.w3.org/1999/xlink" x="0px" y="0px"
	 viewBox="0 0 107 29.4" style="enable-background:new 0 0 107 29.4;" xml:space="preserve">
<style type="text/css">
	.st0{fill:#FFFFFF;}
</style>
<path class="st0" d="M36.9,14.4c0.4,0.2,1.1,0.5,1.9,0.7c0.8,0.2,1.7,0.3,2.5,0.3c0.8,0,1.6-0.1,2.3-0.3c0.7-0.2,1.3-0.5,1.8-0.9
	c0.5-0.4,0.9-0.9,1.2-1.4c0.3-0.6,0.4-1.2,0.4-1.9c0-0.9-0.3-1.6-0.8-2.3c-0.5-0.7-1.3-1.2-2.5-1.6l-2.3-0.7
	c-0.9-0.3-1.5-0.6-1.8-0.9c-0.3-0.3-0.5-0.7-0.5-1.2c0-0.7,0.3-1.2,0.8-1.5c0.5-0.3,1.2-0.5,2.2-0.5c1.2,0,2.2,0.2,3.1,0.6
	C45.5,3,45.7,3,45.9,3c0.2,0,0.4-0.2,0.4-0.5V1.7c0-0.2,0-0.4-0.1-0.5c-0.1-0.1-0.3-0.3-0.5-0.4c-0.2-0.1-0.4-0.2-0.7-0.3
	c-0.3-0.1-0.6-0.2-0.9-0.3c-0.3-0.1-0.7-0.1-1.1-0.2C42.6,0,42.2,0,41.9,0c-0.7,0-1.4,0.1-2.1,0.3c-0.6,0.2-1.2,0.5-1.7,0.8
	c-0.5,0.4-0.9,0.8-1.2,1.3c-0.3,0.5-0.4,1.1-0.4,1.8c0,0.9,0.3,1.6,0.8,2.4c0.5,0.7,1.4,1.3,2.6,1.7l2.4,0.7
	c0.8,0.3,1.3,0.6,1.6,0.9c0.3,0.3,0.4,0.7,0.4,1.1c0,0.7-0.3,1.2-0.8,1.5c-0.6,0.4-1.4,0.5-2.4,0.5c-0.6,0-1.3-0.1-1.9-0.2
	c-0.6-0.1-1.2-0.3-1.8-0.6c-0.2-0.1-0.3-0.1-0.4-0.2c-0.1,0-0.2-0.1-0.3-0.1c-0.2,0-0.4,0.2-0.4,0.5v0.8c0,0.2,0,0.3,0.1,0.5
	C36.5,14.1,36.6,14.3,36.9,14.4"/>
<path class="st0" d="M9.3,6.5C8.7,6.4,8.1,6.3,7.6,6.3c-1.7,0-3,0.4-4,1.3c-1,0.8-1.5,2-1.5,3.4c0,1.3,0.4,2.4,1.2,3.1
	c0.8,0.8,1.9,1.2,3.3,1.2c1.9,0,3.5-0.8,4.8-2.3c0.2,0.4,0.3,0.7,0.5,1c0.2,0.3,0.4,0.5,0.6,0.8c0.2,0.2,0.3,0.2,0.5,0.2
	c0.1,0,0.3,0,0.4-0.1l1-0.7c0.2-0.2,0.3-0.3,0.3-0.5c0-0.1,0-0.2-0.1-0.4c-0.2-0.4-0.4-0.8-0.5-1.2c-0.1-0.4-0.2-0.8-0.2-1.5V5.3
	c0-1.8-0.5-3.1-1.4-4C11.6,0.4,10.2,0,8.2,0C7.3,0,6.5,0.1,5.7,0.3C4.9,0.5,4.2,0.8,3.6,1.1C3.4,1.2,3.2,1.3,3.2,1.4
	C3.1,1.5,3,1.7,3,2v0.8c0,0.3,0.1,0.5,0.3,0.5c0.1,0,0.1,0,0.3,0c0.1,0,0.3-0.1,0.6-0.2C4.8,2.8,5.4,2.6,6,2.5
	c0.6-0.1,1.2-0.2,1.8-0.2C9,2.3,9.9,2.5,10.4,3c0.5,0.5,0.8,1.4,0.8,2.6v1.2C10.5,6.7,9.9,6.6,9.3,6.5 M11.2,9.3
	c0,0.6-0.1,1-0.2,1.4c-0.1,0.4-0.3,0.7-0.6,1c-0.4,0.5-1,0.8-1.5,1c-0.6,0.2-1.2,0.3-1.7,0.3c-0.7,0-1.3-0.2-1.7-0.6
	c-0.4-0.4-0.6-1-0.6-1.7c0-0.8,0.3-1.4,0.8-1.9C6.2,8.5,7,8.3,8.1,8.3c0.5,0,1,0,1.5,0.1c0.5,0.1,1,0.2,1.5,0.3V9.3z"/>
<path class="st0" d="M19.4,14.1c0.1,0.3,0.2,0.5,0.3,0.6c0.1,0.1,0.3,0.2,0.6,0.2h1.4c0.3,0,0.5-0.1,0.7-0.2
	c0.1-0.1,0.2-0.3,0.3-0.7l2.5-10.5l2.5,10.5c0.1,0.3,0.2,0.5,0.3,0.7c0.1,0.1,0.4,0.2,0.7,0.2h1.4c0.3,0,0.5-0.1,0.6-0.2
	c0.1-0.1,0.2-0.3,0.3-0.6L35,1.5c0.1-0.2,0.1-0.3,0.1-0.4c0-0.1,0-0.2,0-0.3c0-0.3-0.1-0.4-0.4-0.4h-1.5c-0.3,0-0.5,0.1-0.6,0.2
	c-0.1,0.1-0.2,0.3-0.3,0.6l-2.8,10.9L26.9,1.2c-0.1-0.3-0.2-0.5-0.3-0.6c-0.1-0.1-0.4-0.2-0.7-0.2h-1.3c-0.3,0-0.5,0.1-0.7,0.2
	c-0.1,0.1-0.2,0.3-0.3,0.6L21.1,12L18.4,1.2c-0.1-0.3-0.2-0.5-0.3-0.6c-0.1-0.1-0.3-0.2-0.6-0.2h-1.6c-0.3,0-0.4,0.1-0.4,0.4
	c0,0.1,0,0.3,0.1,0.7L19.4,14.1z"/>
<path class="st0" d="M43.6,22c-6,2.6-12.6,3.8-18.5,3.8c-8.8,0-17.4-2.4-24.3-6.4c-0.6-0.4-1.1,0.3-0.6,0.7
	c6.4,5.8,14.9,9.3,24.3,9.3c6.7,0,14.5-2.1,19.9-6.1C45.3,22.6,44.5,21.6,43.6,22"/>
<path class="st0" d="M40.2,19.8c-0.5,0.3-0.4,0.8,0.1,0.7c1.7-0.2,5.6-0.7,6.3,0.2c0.7,0.9-0.8,4.5-1.4,6.1
	c-0.2,0.5,0.2,0.7,0.7,0.3c2.9-2.4,3.6-7.5,3-8.2C48.3,18.3,43.3,17.6,40.2,19.8"/>
<path class="st0" d="M61.9,11.5c-0.1,0-0.2-0.1-0.2-0.2V2.5c0-0.1,0.1-0.2,0.2-0.2h0.2c0.1,0,0.2,0.1,0.2,0.2l0.1,0.5
	c0.4-0.3,0.8-0.6,1.2-0.7c0.4-0.1,0.8-0.2,1.2-0.2c0.8,0,1.5,0.3,2,0.9c0.5,0.6,0.7,1.4,0.7,2.5c0,1.1-0.3,1.9-0.8,2.5
	C66.1,8.7,65.4,9,64.6,9c-0.8,0-1.5-0.3-2.2-0.9v3.2c0,0.1-0.1,0.2-0.2,0.2H61.9z M64.5,8.3c0.7,0,1.2-0.2,1.6-0.7s0.5-1.2,0.5-2.1
	c0-1.8-0.7-2.8-2.1-2.8c-0.7,0-1.4,0.3-2.2,0.8v3.8c0.4,0.3,0.7,0.5,1,0.7C63.8,8.3,64.1,8.3,64.5,8.3"/>
<path class="st0" d="M70.6,9c-0.6,0-1.1-0.2-1.4-0.5c-0.4-0.3-0.5-0.8-0.5-1.4c0-0.6,0.2-1.1,0.6-1.5c0.4-0.4,1-0.5,1.8-0.5
	c0.6,0,1.2,0.1,1.9,0.3V4.3c0-0.5-0.1-0.9-0.4-1.1c-0.3-0.2-0.7-0.3-1.2-0.3c-0.6,0-1.2,0.1-1.9,0.3c-0.1,0-0.1,0-0.2,0
	c-0.1,0-0.1-0.1-0.1-0.2V2.8c0-0.1,0-0.1,0-0.2c0,0,0.1-0.1,0.1-0.1c0.7-0.3,1.4-0.4,2.2-0.4c0.8,0,1.3,0.2,1.7,0.5
	c0.4,0.3,0.6,0.8,0.6,1.5v4.6c0,0.1-0.1,0.2-0.2,0.2h-0.3c-0.1,0-0.2-0.1-0.2-0.2L73,8.1C72.2,8.7,71.4,9,70.6,9 M70.7,8.3
	c0.3,0,0.7-0.1,1.1-0.2C72.2,8,72.6,7.8,73,7.6V5.9c-0.6-0.2-1.1-0.2-1.7-0.2c-1.2,0-1.8,0.5-1.8,1.4c0,0.4,0.1,0.7,0.3,0.9
	C70,8.2,70.3,8.3,70.7,8.3"/>
<path class="st0" d="M75.9,8.9c-0.1,0-0.2-0.1-0.2-0.2V2.5c0-0.1,0.1-0.2,0.2-0.2h0.2c0.1,0,0.2,0.1,0.2,0.2l0.1,0.8
	c0.3-0.4,0.7-0.6,1-0.8c0.3-0.2,0.7-0.2,1.1-0.2c0.1,0,0.3,0,0.3,0c0.1,0,0.2,0.1,0.2,0.2v0.3c0,0,0,0.1,0,0.1c0,0-0.1,0-0.1,0
	c-0.1,0-0.1,0-0.2,0c-0.1,0-0.2,0-0.3,0c-0.4,0-0.8,0.1-1.1,0.2c-0.3,0.1-0.6,0.4-0.9,0.7v4.8c0,0.1-0.1,0.2-0.2,0.2H75.9z"/>
<path class="st0" d="M82.4,8.9c-0.5,0-0.9-0.1-1.2-0.4c-0.3-0.3-0.4-0.7-0.4-1.2V3h-1c-0.1,0-0.2-0.1-0.2-0.2V2.7c0-0.1,0-0.1,0-0.2
	c0,0,0.1-0.1,0.2-0.1l1.1-0.1L81,0.6c0-0.1,0-0.1,0.1-0.1c0,0,0.1,0,0.1,0h0.2c0.1,0,0.2,0.1,0.2,0.2v1.7h1.9c0.1,0,0.2,0.1,0.2,0.2
	v0.3c0,0.1-0.1,0.2-0.2,0.2h-1.9v4.3c0,0.4,0.1,0.6,0.2,0.8c0.2,0.1,0.4,0.2,0.8,0.2c0.3,0,0.5,0,0.7-0.1c0.1,0,0.2,0,0.2,0
	c0.1,0,0.1,0,0.1,0c0.1,0,0.1,0.1,0.1,0.2v0.2c0,0.1,0,0.2-0.1,0.3C83.3,8.9,82.9,8.9,82.4,8.9"/>
<path class="st0" d="M85.3,8.9c-0.1,0-0.2-0.1-0.2-0.2V2.5c0-0.1,0.1-0.2,0.2-0.2h0.3c0.1,0,0.2,0.1,0.2,0.2l0.1,0.6
	c0.4-0.3,0.9-0.5,1.3-0.7c0.5-0.2,0.9-0.2,1.4-0.2c0.6,0,1.1,0.2,1.4,0.5c0.3,0.3,0.5,0.8,0.5,1.5v4.6c0,0.1-0.1,0.2-0.2,0.2H90
	c-0.1,0-0.2-0.1-0.2-0.2V4.4c0-0.6-0.1-1-0.3-1.2c-0.2-0.3-0.6-0.4-1-0.4c-0.9,0-1.7,0.3-2.5,0.8v5c0,0.1-0.1,0.2-0.2,0.2H85.3z"/>
<path class="st0" d="M95.3,9.1c-1,0-1.8-0.3-2.3-0.9c-0.5-0.6-0.8-1.5-0.8-2.6c0-1.1,0.3-1.9,0.8-2.5c0.5-0.6,1.3-0.9,2.2-0.9
	c0.8,0,1.4,0.2,1.8,0.7c0.4,0.5,0.6,1.1,0.6,1.9c0,0.3,0,0.6-0.1,0.8c0,0.1-0.1,0.2-0.2,0.2h-4.4c0,0.9,0.2,1.6,0.6,2
	c0.4,0.4,1,0.6,1.8,0.6c0.6,0,1.2-0.1,1.8-0.3C97.2,8,97.3,8,97.3,8c0,0,0.1,0,0.1,0c0,0,0,0.1,0,0.1v0.2c0,0.1,0,0.2-0.1,0.3
	C96.7,8.9,96,9.1,95.3,9.1 M96.9,5.1c0-0.1,0-0.3,0-0.4c0-0.6-0.2-1.1-0.5-1.4c-0.3-0.3-0.7-0.5-1.3-0.5c-1.4,0-2.1,0.8-2.2,2.3
	H96.9z"/>
<path class="st0" d="M99.4,8.9c-0.1,0-0.2-0.1-0.2-0.2V2.5c0-0.1,0.1-0.2,0.2-0.2h0.2c0.1,0,0.2,0.1,0.2,0.2l0.1,0.8
	c0.3-0.4,0.7-0.6,1-0.8c0.3-0.2,0.7-0.2,1.1-0.2c0.1,0,0.3,0,0.3,0c0.1,0,0.2,0.1,0.2,0.2v0.3c0,0,0,0.1,0,0.1c0,0-0.1,0-0.1,0
	c-0.1,0-0.1,0-0.2,0c-0.1,0-0.2,0-0.3,0c-0.4,0-0.8,0.1-1.1,0.2c-0.3,0.1-0.6,0.4-0.9,0.7v4.8c0,0.1-0.1,0.2-0.2,0.2H99.4z"/>
<path class="st0" d="M61.9,23.3c-0.1,0-0.2-0.1-0.2-0.2V17c0-0.1,0.1-0.2,0.2-0.2h0.3c0.1,0,0.2,0.1,0.2,0.2l0.1,0.6
	c0.4-0.3,0.9-0.5,1.3-0.7c0.5-0.2,0.9-0.2,1.4-0.2c0.6,0,1.1,0.2,1.4,0.5c0.3,0.3,0.5,0.8,0.5,1.5v4.6c0,0.1-0.1,0.2-0.2,0.2h-0.4
	c-0.1,0-0.2-0.1-0.2-0.2v-4.2c0-0.6-0.1-1-0.3-1.2c-0.2-0.3-0.6-0.4-1-0.4c-0.9,0-1.7,0.3-2.5,0.8v5c0,0.1-0.1,0.2-0.2,0.2H61.9z"/>
<path class="st0" d="M71.8,23.5c-1,0-1.8-0.3-2.3-0.9C69,22,68.7,21.2,68.7,20c0-1.1,0.3-1.9,0.8-2.5c0.5-0.6,1.3-0.9,2.2-0.9
	c0.8,0,1.4,0.2,1.8,0.7c0.4,0.5,0.6,1.1,0.6,1.9c0,0.3,0,0.6-0.1,0.8c0,0.1-0.1,0.2-0.2,0.2h-4.4c0,0.9,0.2,1.6,0.6,2
	c0.4,0.4,1,0.6,1.8,0.6c0.6,0,1.2-0.1,1.8-0.3c0.1,0,0.2-0.1,0.2-0.1c0,0,0.1,0,0.1,0c0,0,0,0.1,0,0.1v0.2c0,0.1,0,0.2-0.1,0.3
	C73.2,23.3,72.5,23.5,71.8,23.5 M73.4,19.5c0-0.1,0-0.3,0-0.4c0-0.6-0.2-1.1-0.5-1.4c-0.3-0.3-0.7-0.5-1.3-0.5
	c-1.4,0-2.1,0.8-2.2,2.3H73.4z"/>
<path class="st0" d="M77.8,23.4c-0.5,0-0.9-0.1-1.2-0.4c-0.3-0.3-0.4-0.7-0.4-1.2v-4.4h-1c-0.1,0-0.2-0.1-0.2-0.2v-0.1
	c0-0.1,0-0.1,0-0.2c0,0,0.1-0.1,0.2-0.1l1.1-0.1l0.1-1.7c0-0.1,0-0.1,0.1-0.1c0,0,0.1,0,0.1,0h0.2c0.1,0,0.2,0.1,0.2,0.2v1.7h1.9
	c0.1,0,0.2,0.1,0.2,0.2v0.3c0,0.1-0.1,0.2-0.2,0.2h-1.9v4.3c0,0.4,0.1,0.6,0.2,0.8c0.2,0.1,0.4,0.2,0.8,0.2c0.3,0,0.5,0,0.7-0.1
	c0.1,0,0.2,0,0.2,0c0.1,0,0.1,0,0.1,0c0.1,0,0.1,0.1,0.1,0.2v0.2c0,0.1,0,0.2-0.1,0.3C78.6,23.3,78.2,23.4,77.8,23.4"/>
<path class="st0" d="M82,23.3c-0.1,0-0.2-0.1-0.2-0.2l-2.1-6c0-0.1-0.1-0.2-0.1-0.2c0-0.1,0.1-0.1,0.2-0.1h0.4
	c0.1,0,0.2,0.1,0.2,0.2l1.8,5.5l1.6-5.5c0-0.1,0.1-0.2,0.2-0.2h0.5c0.1,0,0.2,0.1,0.2,0.2l1.6,5.5l1.8-5.5c0-0.1,0.1-0.2,0.2-0.2
	h0.4c0.1,0,0.2,0,0.2,0.1c0,0,0,0.1-0.1,0.2l-2.1,6c0,0.1-0.1,0.2-0.2,0.2h-0.4c-0.1,0-0.2-0.1-0.2-0.2l-1.6-5.5l-1.6,5.5
	c0,0.1-0.1,0.2-0.2,0.2H82z"/>
<path class="st0" d="M92.8,23.5c-1,0-1.7-0.3-2.2-0.9C90,22,89.8,21.1,89.8,20c0-1.1,0.3-1.9,0.8-2.5c0.5-0.6,1.3-0.9,2.2-0.9
	c1,0,1.7,0.3,2.2,0.9c0.5,0.6,0.8,1.5,0.8,2.5c0,1.1-0.3,1.9-0.8,2.6C94.5,23.2,93.7,23.5,92.8,23.5 M92.8,22.8
	c1.5,0,2.2-0.9,2.2-2.8c0-1.9-0.7-2.8-2.2-2.8c-1.5,0-2.2,0.9-2.2,2.8C90.5,21.9,91.3,22.8,92.8,22.8"/>
<path class="st0" d="M97.7,23.3c-0.1,0-0.2-0.1-0.2-0.2V17c0-0.1,0.1-0.2,0.2-0.2h0.2c0.1,0,0.2,0.1,0.2,0.2l0.1,0.8
	c0.3-0.4,0.7-0.6,1-0.8c0.3-0.2,0.7-0.2,1.1-0.2c0.1,0,0.3,0,0.3,0c0.1,0,0.2,0.1,0.2,0.2v0.3c0,0,0,0.1,0,0.1c0,0-0.1,0-0.1,0
	c-0.1,0-0.1,0-0.2,0c-0.1,0-0.2,0-0.3,0c-0.4,0-0.8,0.1-1.1,0.2c-0.3,0.1-0.6,0.4-0.9,0.7v4.8c0,0.1-0.1,0.2-0.2,0.2H97.7z"/>
<path class="st0" d="M102.2,23.3c-0.1,0-0.2-0.1-0.2-0.2v-9.2c0-0.1,0.1-0.2,0.2-0.2h0.4c0.1,0,0.2,0.1,0.2,0.2v5.8l3.1-2.8
	c0.1-0.1,0.2-0.1,0.3-0.1h0.5c0.1,0,0.2,0,0.2,0.1c0,0,0,0.1-0.1,0.2l-3.1,2.8l3.4,3.1c0.1,0.1,0.1,0.1,0.1,0.2
	c0,0.1-0.1,0.1-0.2,0.1h-0.6c-0.1,0-0.2,0-0.3-0.1l-3.3-3.1v3c0,0.1-0.1,0.2-0.2,0.2H102.2z"/>
</svg>
