<?xml version="1.0" encoding="UTF-8"?>
<svg width="30px" height="29px" viewBox="0 0 30 29" version="1.1" xmlns="http://www.w3.org/2000/svg" xmlns:xlink="http://www.w3.org/1999/xlink">
    <!-- Generator: Sketch 44 (41411) - http://www.bohemiancoding.com/sketch -->
    <title>Fill 3</title>
    <desc>Created with Sketch.</desc>
    <defs></defs>
    <g id="web" stroke="none" stroke-width="1" fill="none" fill-rule="evenodd">
        <g id="product_max:-banner" transform="translate(-265.000000, -444.000000)" fill="#FFFFFF">
            <g id="shortcut" transform="translate(133.000000, 444.000000)">
                <path d="M132.25534,11.6134825 L140.549612,17.4681215 C140.76823,17.6224754 140.85832,17.9041564 140.770032,18.1570086 L137.335207,27.9701955 C137.142414,28.5215454 137.771241,28.9960186 138.248718,28.6590826 L146.579026,22.7786178 C146.786833,22.6320717 147.06431,22.6320717 147.272117,22.7786178 L155.602425,28.6590826 C156.079901,28.9960186 156.708728,28.5215454 156.515936,27.9701955 L153.08111,18.1570086 C152.992822,17.9041564 153.082912,17.6224754 153.30153,17.4681215 L161.595802,11.6134825 C162.07448,11.2753453 161.835441,10.5221941 161.249257,10.5221941 L150.976011,10.5221941 C150.710546,10.5221941 150.476913,10.3480204 150.400637,10.093967 L147.500945,0.427926785 C147.329774,-0.142642262 146.521368,-0.142642262 146.350197,0.427926785 L143.450506,10.093967 C143.374229,10.3480204 143.140596,10.5221941 142.875132,10.5221941 L132.601886,10.5221941 C132.015701,10.5221941 131.776663,11.2753453 132.25534,11.6134825" id="Fill-3"></path>
            </g>
        </g>
    </g>
</svg>