<?xml version="1.0" encoding="UTF-8"?>
<svg width="81px" height="81px" viewBox="0 0 81 81" version="1.1" xmlns="http://www.w3.org/2000/svg" xmlns:xlink="http://www.w3.org/1999/xlink">
    <!-- Generator: Sketch 44 (41411) - http://www.bohemiancoding.com/sketch -->
    <title>LingoAsset</title>
    <desc>Created with Sketch.</desc>
    <defs></defs>
    <g id="web" stroke="none" stroke-width="1" fill="none" fill-rule="evenodd">
        <g id="product_max:-about" transform="translate(-555.000000, -495.000000)" fill-rule="nonzero">
            <g id="LingoAsset" transform="translate(555.000000, 495.000000)">
                <polygon id="Shape" fill="#4D4D4D" points="10.125 39.6543934 70.875 39.6543934 70.875 73.0942623 10.125 73.0942623"></polygon>
                <g id="Group" transform="translate(0.000000, 67.213115)" fill="#ACB8BF">
                    <polygon id="Shape" points="0 10.9288525 81 10.9288525 81 13.4493443 0 13.4493443"></polygon>
                    <polygon id="Shape" points="10.125 5.88786885 70.875 5.88786885 70.875 8.40836066 10.125 8.40836066"></polygon>
                    <polygon id="Shape" points="20.25 0.840163934 60.75 0.840163934 60.75 3.36065574 20.25 3.36065574"></polygon>
                </g>
                <polygon id="Shape" fill="#89664C" points="52.65 46.9147541 62.1 46.9147541 62.1 63.0459016 52.65 63.0459016"></polygon>
                <polygon id="Shape" fill="#B4D7EE" points="54 48.2590164 60.75 48.2590164 60.75 61.7016393 54 61.7016393"></polygon>
                <g id="Group" transform="translate(18.900000, 45.704918)" fill="#89664C">
                    <polygon id="Shape" points="37.8 1.88196721 39.15 1.88196721 39.15 16.6688525 37.8 16.6688525"></polygon>
                    <polygon id="Shape" points="0 1.20983607 9.45 1.20983607 9.45 17.3409836 0 17.3409836"></polygon>
                </g>
                <polygon id="Shape" fill="#B4D7EE" points="20.25 48.2590164 27 48.2590164 27 61.7016393 20.25 61.7016393"></polygon>
                <polygon id="Shape" fill="#89664C" points="22.95 47.5868852 24.3 47.5868852 24.3 62.3737705 22.95 62.3737705"></polygon>
                <g id="Group" transform="translate(4.050000, 69.901639)" fill="#DAE3EA">
                    <polygon id="Shape" points="1.0125 5.71311475 71.8875 5.71311475 71.8875 8.23360656 1.0125 8.23360656"></polygon>
                    <polygon id="Shape" points="11.1375 0.672131148 61.7625 0.672131148 61.7625 3.19262295 11.1375 3.19262295"></polygon>
                </g>
                <polygon id="Shape" fill="#94989B" points="3.79755 34.6402951 77.21055 34.6402951 77.21055 37.1634754 3.81105 37.1634754"></polygon>
                <polygon id="Shape" fill="#DAE3EA" points="0 37.1634754 81 37.1634754 81 39.6866557 0 39.6866557"></polygon>
                <polygon id="Shape" fill="#94989B" points="40.48515 3.81770492 0 25.8568852 3.3912 30.9032459 40.48515 6.30593443 77.6115 30.9032459 81 25.8568852"></polygon>
                <g id="Group" fill="#DAE3EA">
                    <polygon id="Shape" points="40.48515 0 0 25.8568852 0 29.6409836 40.48515 3.7827541 81 29.6409836 81 25.8568852"></polygon>
                    <polygon id="Shape" points="40.48515 6.30593443 0 32.1655082 0 34.6873443 81 34.6873443 81 32.1655082"></polygon>
                </g>
                <polygon id="Shape" fill="#ACB8BF" points="40.48515 10.0577705 6.8607 32.1655082 74.1393 32.1655082"></polygon>
                <path d="M40.5,20.7029836 C39.17025,20.7029836 38.08755,19.756623 38.08755,18.5911475 C38.08755,17.4256721 39.17025,16.4779672 40.5,16.4779672 C41.82975,16.4779672 42.91245,17.4256721 42.91245,18.5911475 L45.3249,18.5911475 C45.3249,16.6271803 43.7805,14.9898689 41.70555,14.5180328 L41.70555,13.3122295 L39.2931,13.3122295 L39.2931,14.5180328 C37.21815,14.9925574 35.67375,16.6285246 35.67375,18.5911475 C35.67375,20.9194098 37.83915,22.8148197 40.49865,22.8148197 C41.8284,22.8148197 42.9111,23.7625246 42.9111,24.9266557 C42.9111,26.0921311 41.8284,27.0398361 40.49865,27.0398361 C39.1689,27.0398361 38.0862,26.0921311 38.0862,24.9266557 L35.67375,24.9266557 C35.67375,26.890623 37.21815,28.5279344 39.2931,28.9997705 L39.2931,30.2055738 L41.70555,30.2055738 L41.70555,28.9997705 C43.7805,28.5252459 45.3249,26.8892787 45.3249,24.9266557 C45.3249,22.5983934 43.16085,20.7029836 40.5,20.7029836" id="Shape" fill="#FFFFFF"></path>
                <polygon id="Shape" fill="#DAE3EA" points="6.075 42.3079672 14.175 42.3079672 14.175 72.8791803 6.075 72.8791803"></polygon>
                <g id="Group" transform="translate(4.050000, 38.983607)" fill="#94989B">
                    <polygon id="Shape" points="1.0125 33.9022951 11.1375 33.9022951 11.1375 36.6378689 1.0125 36.6378689"></polygon>
                    <polygon id="Shape" points="1.0125 0.670786885 11.1375 0.670786885 11.1375 3.32436066 1.0125 3.32436066"></polygon>
                </g>
                <g id="Group" transform="translate(6.750000, 43.016393)" fill="#C8D0D6">
                    <polygon id="Shape" points="0.13365 0.516196721 1.08945 0.516196721 1.08945 28.7188197 0.13365 28.7188197"></polygon>
                    <polygon id="Shape" points="5.6592 0.516196721 6.615 0.516196721 6.615 28.7188197 5.6592 28.7188197"></polygon>
                    <polygon id="Shape" points="3.8178 0.516196721 4.77225 0.516196721 4.77225 28.7188197 3.8178 28.7188197"></polygon>
                    <polygon id="Shape" points="1.9764 0.516196721 2.93085 0.516196721 2.93085 28.7188197 1.9764 28.7188197"></polygon>
                </g>
                <polygon id="Shape" fill="#DAE3EA" points="66.825 42.3079672 74.925 42.3079672 74.925 72.8791803 66.825 72.8791803"></polygon>
                <g id="Group" transform="translate(64.800000, 38.983607)" fill="#94989B">
                    <polygon id="Shape" points="1.0125 33.9022951 11.1375 33.9022951 11.1375 36.6378689 1.0125 36.6378689"></polygon>
                    <polygon id="Shape" points="1.0125 0.670786885 11.1375 0.670786885 11.1375 3.32436066 1.0125 3.32436066"></polygon>
                </g>
                <g id="Group" transform="translate(67.500000, 43.016393)" fill="#C8D0D6">
                    <polygon id="Shape" points="0.135 0.516196721 1.0908 0.516196721 1.0908 28.7188197 0.135 28.7188197"></polygon>
                    <polygon id="Shape" points="5.6565 0.516196721 6.6123 0.516196721 6.6123 28.7188197 5.6565 28.7188197"></polygon>
                    <polygon id="Shape" points="3.8178 0.516196721 4.77225 0.516196721 4.77225 28.7188197 3.8178 28.7188197"></polygon>
                    <polygon id="Shape" points="1.971 0.516196721 2.92545 0.516196721 2.92545 28.7188197 1.971 28.7188197"></polygon>
                </g>
                <path d="M33.2505,54.12 L33.2505,67.3045246 L47.7495,67.3045246 L47.7495,54.12 C47.7495,44.4224918 33.2505,44.5717049 33.2505,54.12" id="Shape" fill="#89664C"></path>
                <path d="M34.3116,54.6819016 L34.3116,67.3085574 L46.6884,67.3085574 L46.6884,54.6819016 C46.6884,45.6605574 34.3116,45.7976721 34.3116,54.6819016" id="Shape" fill="#594640"></path>
                <path d="M34.51005,54.7840656 L34.51005,67.3072131 L46.4886,67.3072131 L46.4886,54.7840656 C46.48995,45.889082 34.51005,46.0248525 34.51005,54.7840656" id="Shape" fill="#A37D64"></path>
                <polygon id="Shape" fill="#94989B" points="32.4945 67.3072131 48.4947 67.3072131 48.4947 68.0532787 32.4945 68.0532787"></polygon>
                <g id="Group" transform="translate(35.100000, 48.393443)" fill="#594640">
                    <path d="M6.1911,6.09891803 L10.3518,6.09891803 C10.1898,3.09718033 8.27955,1.4652459 6.1911,1.1802623 L6.1911,6.09891803" id="Shape"></path>
                    <path d="M4.79925,6.09891803 L4.79925,1.18967213 C2.7135,1.4975082 0.80325,3.14288525 0.63855,6.09891803 L4.79925,6.09891803" id="Shape"></path>
                </g>
                <g id="Group" transform="translate(35.100000, 48.393443)" fill="#89664C">
                    <path d="M6.0777,6.01691803 L10.23705,6.01691803 C10.07505,3.01518033 8.16345,1.3832459 6.0777,1.0982623 L6.0777,6.01691803" id="Shape"></path>
                    <path d="M4.68315,6.01691803 L4.68315,1.10498361 C2.59875,1.41281967 0.6885,3.05954098 0.52515,6.01691803 L4.68315,6.01691803" id="Shape"></path>
                </g>
                <g id="Group" transform="translate(35.100000, 55.114754)" fill="#594640">
                    <polygon id="Shape" points="6.1911 0.729934426 10.3653 0.729934426 10.3653 4.82590164 6.1911 4.82590164"></polygon>
                    <polygon id="Shape" points="0.62775 0.729934426 4.8006 0.729934426 4.8006 4.82590164 0.62775 4.82590164"></polygon>
                </g>
                <g id="Group" transform="translate(35.100000, 55.114754)" fill="#89664C">
                    <polygon id="Shape" points="6.0777 0.646590164 10.25055 0.646590164 10.25055 4.74255738 6.0777 4.74255738"></polygon>
                    <polygon id="Shape" points="0.513 0.646590164 4.6845 0.646590164 4.6845 4.74255738 0.513 4.74255738"></polygon>
                </g>
                <g id="Group" transform="translate(35.100000, 60.491803)" fill="#594640">
                    <polygon id="Shape" points="6.1911 1.21252459 10.3653 1.21252459 10.3653 5.3084918 6.1911 5.3084918"></polygon>
                    <polygon id="Shape" points="0.62775 1.21252459 4.8006 1.21252459 4.8006 5.3084918 0.62775 5.3084918"></polygon>
                </g>
                <g id="Group" transform="translate(35.100000, 60.491803)" fill="#89664C">
                    <polygon id="Shape" points="6.0777 1.13052459 10.25055 1.13052459 10.25055 5.22783607 6.0777 5.22783607"></polygon>
                    <polygon id="Shape" points="0.513 1.13052459 4.6845 1.13052459 4.6845 5.22783607 0.513 5.22783607"></polygon>
                </g>
                <polygon id="Shape" fill="#DAE3EA" points="44.3637 57.5680328 46.1133 57.5680328 46.1133 61.0510164 44.3637 61.0510164"></polygon>
                <polygon id="Shape" fill="#ACB8BF" points="44.48925 57.6917049 45.9891 57.6917049 45.9891 60.9273443 44.48925 60.9273443"></polygon>
                <path d="M45.49095,60.6396721 L45.387,59.9756066 C45.4491,59.9299016 45.48825,59.8559672 45.48825,59.7753115 C45.48825,59.6368525 45.3762,59.5252787 45.2385,59.5252787 C45.1008,59.5252787 44.98875,59.6368525 44.98875,59.7753115 C44.98875,59.8573115 45.0279,59.9299016 45.08865,59.9756066 L44.9847,60.6396721 L45.49095,60.6396721" id="Shape" fill="#3E4347"></path>
                <ellipse id="Oval" fill="#94989B" cx="45.2385" cy="58.6031148" rx="1" ry="1"></ellipse>
                <ellipse id="Oval" fill="#DAE3EA" cx="45.2385" cy="58.4767541" rx="1" ry="1"></ellipse>
            </g>
        </g>
    </g>
</svg>