<?xml version="1.0" encoding="UTF-8"?>
<svg width="83px" height="83px" viewBox="0 0 83 83" version="1.1" xmlns="http://www.w3.org/2000/svg" xmlns:xlink="http://www.w3.org/1999/xlink">
    <!-- Generator: Sketch 44 (41411) - http://www.bohemiancoding.com/sketch -->
    <title>Group 4</title>
    <desc>Created with Sketch.</desc>
    <defs>
        <path d="M83,41.5 C83,18.5804722 64.4195278,0 41.5,0 C18.5804722,0 0,18.5804722 0,41.5 C0,64.4195278 18.5804722,83 41.5,83 C64.4195278,83 83,64.4195278 83,41.5" id="path-1"></path>
    </defs>
    <g id="web" stroke="none" stroke-width="1" fill="none" fill-rule="evenodd">
        <g id="product_max:-about" transform="translate(-1054.000000, -494.000000)">
            <g id="contents" transform="translate(220.000000, 212.000000)">
                <g id="Group-4" transform="translate(834.000000, 282.000000)">
                    <path d="M83,41.5 C83,18.5804722 64.4195278,0 41.5,0 C18.5804722,0 0,18.5804722 0,41.5 C0,64.4195278 18.5804722,83 41.5,83 C64.4195278,83 83,64.4195278 83,41.5" id="path22" fill="#88C9F9" fill-rule="nonzero"></path>
                    <g id="path34">
                        <mask id="mask-2" fill="white">
                            <use xlink:href="#path-1"></use>
                        </mask>
                        <use id="Mask" fill="#88C9F9" fill-rule="nonzero" xlink:href="#path-1"></use>
                        <path d="M8.36317222,69.7123188 C7.32336667,76.4675966 13.4238667,79.2942077 16.6793111,80.0158466 C19.9347556,80.7420966 23.0795333,81.4475966 23.4415056,80.0043188 C23.8011722,78.5564299 24.1585333,76.6359022 26.1459222,77.357541 C28.1333111,78.0814855 33.1617278,78.6463466 35.5133944,80.4515966 C37.8627556,82.2568466 40.6870611,82.2660688 43.0387278,81.5421244 C45.3880889,80.8204855 51.9773667,81.0187633 50.5317833,78.851541 C49.0862,76.6820133 46.3241444,76.9448466 44.8808667,74.4156522 C43.4352833,71.8818466 45.2774222,70.2057077 47.2648111,70.2057077 C49.2591167,70.2057077 51.2050056,69.8944577 52.4730611,71.8818466 C53.7388111,73.871541 51.5923389,77.5604299 53.2223667,77.316041 C54.8500889,77.0716522 56.6276722,75.3194299 57.9026444,72.605791 C59.1637833,69.8944577 61.1488667,71.5221799 61.8751167,69.8944577 C62.5967556,68.269041 66.57845,65.1934299 64.5887556,65.7352355 C62.5967556,66.2793466 60.6093667,66.6390133 60.0675611,64.6516244 C59.52345,62.6619299 60.9644222,60.6722355 59.52345,60.8543744 C58.0778667,61.0365133 57.5383667,60.6491799 55.5463667,60.8451522 C53.5589778,61.0365133 52.4730611,62.2999577 50.8453389,59.5886244 C49.2199222,56.8795966 47.9541722,55.0674299 47.2325333,53.8039855 C46.5062833,52.5382355 45.4226722,51.8189022 45.9644778,49.2850966 C46.5062833,46.751291 44.5165889,47.4752355 44.5165889,49.6447633 C44.5165889,51.8119855 43.2531444,52.1762633 41.6277278,51.8165966 C40.0000056,51.4546244 37.4708111,51.0949577 37.65295,49.2850966 C37.8304778,47.477541 36.9267,45.3080133 38.3745889,43.8624299 C39.8201722,42.4122355 41.4409778,44.0376522 42.3470611,43.4981522 C43.2531444,42.9517355 45.8630333,43.4451244 44.9592556,42.539041 C44.0531722,41.6375688 40.9014778,40.5078466 42.7090333,39.0599577 C44.5212,37.6166799 46.3472,37.1486522 47.07345,36.9688188 C47.7950889,36.7843744 47.2163944,38.7533188 49.5703667,39.6570966 C51.9151167,40.5608744 55.5832556,42.6312633 56.4870333,41.003541 C57.3885056,39.3781244 57.2663111,39.6317355 60.5217556,39.2743744 C63.7725889,38.9147077 64.6487,37.9256244 66.0942833,34.8546244 C67.5375611,31.7813188 67.1225611,32.1064022 69.4650056,31.209541 C71.8189778,30.3034577 73.3337278,30.6977077 71.1642,28.7057077 C68.9946722,26.7229299 67.3577278,26.8289855 66.0942833,24.4796244 C64.8262278,22.1348744 65.7415333,20.4887077 63.2123389,18.1393466 C60.6808389,15.7899855 58.0432833,13.8141244 55.3342556,12.1840966 C53.9094222,11.331041 50.3496444,7.4115966 48.2262278,6.03517994 C46.3033944,4.78787438 45.7293111,6.03517994 45.7293111,6.03517994 C45.7293111,6.03517994 46.3195333,9.87854105 47.9518667,11.5039577 C49.5749778,13.1293744 50.4995056,19.2137355 49.9553944,21.021291 C49.4158944,22.826541 46.8198389,23.3729577 45.9206722,24.0945966 C45.0168944,24.8139299 42.6537,27.6635966 42.6537,29.4757633 C42.6537,31.2833188 46.5962,35.9520688 46.5962,35.9520688 C47.0988111,33.4436244 44.2007278,36.7105966 42.8450611,37.1601799 C41.76145,37.5221522 39.2898944,40.9781799 37.1757,41.3424577 C35.0638111,41.709041 34.0332278,42.9563466 32.4078111,44.2244022 C30.7800889,45.4901522 26.8030056,47.2954022 26.9828389,49.2850966 C27.1649778,51.2724855 23.0057556,52.9002077 22.2841167,52.9002077 C21.5601722,52.9002077 19.9347556,52.9002077 18.4868667,55.4317077 C17.0412833,57.9632077 14.5097833,60.4947077 15.2337278,62.2999577 C15.9553667,64.1075133 16.1375056,66.2816522 15.7732278,68.269041 C15.4135611,70.2564299 12.7022278,70.9803744 12.1604222,70.4385688 C11.6186167,69.8944577 8.72745,67.3606522 8.36317222,69.7123188" fill="#5C913B" fill-rule="nonzero" mask="url(#mask-2)" transform="translate(40.228335, 43.736215) scale(1, -1) translate(-40.228335, -43.736215) "></path>
                    </g>
                </g>
            </g>
        </g>
    </g>
</svg>