<?xml version="1.0" encoding="UTF-8" standalone="no"?>
<!-- Created with Keyshape -->
<svg xmlns="http://www.w3.org/2000/svg" xmlns:xlink="http://www.w3.org/1999/xlink" viewBox="0 0 150 280" text-rendering="geometricPrecision" shape-rendering="geometricPrecision" style="white-space: pre;">
    <g transform="translate(-59.7,140) translate(-209.7,-130.825)">
        <path id="_a0" class="st2" d="M317.1,251.6C312.8,249.1,305.9,249.1,301.6,251.6C297.3,254.1,297.4,258.1,301.7,260.6C306,263.1,312.9,263.1,317.2,260.6C321.4,258.1,321.4,254.1,317.1,251.6" fill="#000000" fill-opacity="0.35" opacity="0.5" transform="translate(1,-0.824475)"/>
        <g id="_a1" transform="translate(0,-7.83654)">
            <g>
                <g>
                    <path class="st8" d="M306.4,169.9L308.2,167.9C306.9,167.8,305.6,167.7,304.2,167.6L304.2,229.8C304.2,231.4,304.9,233,306,234.1C307.1,235.2,308.7,235.9,310.3,235.9C313.8,236,316.6,233.2,316.6,229.8L316.6,184.3C315.3,171.5,306.4,169.9,306.4,169.9Z" fill="#4fafac"/>
                    <path class="st9" d="M308.2,168L306,170C306,170,314.4,171.4,316.5,184.3L316.5,167.6C313.7,168,310.9,168.1,308.2,168Z" fill="#3b799d"/>
                </g>
                <g class="st10">
                    <g class="st0">
                        <g>
                            <path class="st3" d="M304,73.5C309,70.4,314.3,68.5,319.7,68.3C339.1,67.6,351.8,88.6,348.1,115.2C345.4,134.4,334.8,151.3,321.9,159.4C316.9,162.5,311.6,164.4,306.2,164.6C286.8,165.3,274.1,144.3,277.8,117.7C280.5,98.5,291,81.6,304,73.5Z" fill="#ffffff" fill-opacity="0.5"/>
                        </g>
                    </g>
                </g>
                <g>
                    <g class="st0">
                        <path class="st11" d="M332.6,150.4C333.1,149.9,333.5,149.3,334,148.8C334.1,148.7,334.2,148.6,334.2,148.5C334.6,148,335,147.5,335.4,147C335.5,146.9,335.6,146.8,335.7,146.7C336.1,146.1,336.6,145.5,337,144.9C337.1,144.8,337.2,144.6,337.3,144.5C337.7,144,338.1,143.4,338.4,142.8C338.5,142.7,338.5,142.6,338.6,142.5C339,141.9,339.4,141.2,339.8,140.6C339.9,140.5,340,140.3,340.1,140.1C340.5,139.5,340.9,138.8,341.2,138.1C341.2,138.1,341.2,138.1,341.2,138C341.6,137.3,341.9,136.6,342.3,135.9C342.4,135.7,342.5,135.6,342.5,135.4C342.8,134.7,343.2,134,343.5,133.3C343.5,133.2,343.6,133.1,343.6,133.1C343.9,132.4,344.2,131.8,344.4,131.1C344.5,130.9,344.5,130.8,344.6,130.6C344.9,129.9,345.2,129.1,345.4,128.4C345.4,128.3,345.5,128.1,345.5,128C345.7,127.3,346,126.7,346.2,126C346.2,125.9,346.3,125.7,346.3,125.6C346.5,124.8,346.8,124.1,347,123.3C347,123.1,347.1,123,347.1,122.8C347.3,122.1,347.5,121.4,347.6,120.7C347.6,120.6,347.6,120.5,347.7,120.4C347.9,119.6,348,118.8,348.2,118C348.2,117.8,348.3,117.6,348.3,117.4C348.4,116.6,348.6,115.8,348.7,115C351.6,94.5,344.4,77.3,331.8,71.2L328.7,69.7C341.3,75.8,348.5,93,345.6,113.5C345.5,114.3,345.3,115.1,345.2,115.9C345.2,116.1,345.1,116.3,345.1,116.5C344.9,117.3,344.8,118.1,344.6,118.9C344.6,119,344.6,119.1,344.5,119.2C344.3,119.9,344.2,120.6,344,121.3C344,121.5,343.9,121.6,343.9,121.8C343.7,122.6,343.5,123.3,343.2,124.1C343.2,124.2,343.1,124.4,343.1,124.5C342.9,125.2,342.7,125.8,342.4,126.5C342.4,126.6,342.3,126.8,342.3,126.9C342,127.6,341.8,128.4,341.5,129.1C341.4,129.3,341.4,129.4,341.3,129.6C341,130.3,340.7,130.9,340.5,131.6C340.5,131.7,340.4,131.8,340.4,131.8C340.1,132.5,339.7,133.2,339.4,133.9C339.3,134.1,339.2,134.2,339.2,134.4C338.9,135.1,338.5,135.8,338.1,136.5C338.1,136.5,338.1,136.5,338.1,136.6C337.7,137.3,337.4,137.9,337,138.6C336.9,138.8,336.8,138.9,336.7,139.1C336.3,139.7,335.9,140.4,335.5,141C335.4,141.1,335.4,141.2,335.3,141.3C334.9,141.9,334.5,142.4,334.2,143C334.1,143.1,334,143.3,333.9,143.4C333.5,144,333,144.6,332.6,145.2C332.5,145.3,332.4,145.4,332.3,145.5C331.9,146,331.5,146.5,331.1,147C331,147.1,330.9,147.2,330.9,147.3C330.4,147.8,330,148.4,329.5,148.9C329.4,149,329.3,149.1,329.2,149.3C328.7,149.8,328.3,150.3,327.8,150.7C327.8,150.7,327.7,150.8,327.7,150.8C327.5,151,327.3,151.2,327.1,151.4C326.9,151.6,326.8,151.7,326.6,151.9C326.4,152.1,326.2,152.3,325.9,152.5C325.7,152.6,325.6,152.8,325.4,152.9C325.2,153.1,324.9,153.3,324.7,153.5C324.6,153.6,324.4,153.8,324.3,153.9C324,154.1,323.8,154.3,323.5,154.5C323.4,154.6,323.3,154.7,323.1,154.8C322.6,155.2,322.1,155.6,321.5,156C321.4,156.1,321.2,156.2,321.1,156.3C320.6,156.7,320,157,319.5,157.4C319.4,157.5,319.2,157.6,319.1,157.7C318.6,158,318,158.3,317.5,158.6C317.4,158.6,317.4,158.7,317.3,158.7C316.8,159,316.2,159.3,315.6,159.5C315.6,159.5,315.5,159.5,315.5,159.6C315,159.8,314.5,160.1,313.9,160.3C313.9,160.3,313.8,160.3,313.8,160.3C313.3,160.5,312.8,160.7,312.2,160.9C312.1,160.9,312,161,312,161C311.5,161.2,311,161.3,310.5,161.5C310.4,161.5,310.3,161.6,310.2,161.6C309.7,161.7,309.2,161.9,308.7,162C308.6,162,308.6,162,308.5,162C307.9,162.1,307.4,162.2,306.8,162.3C306.8,162.3,306.8,162.3,306.7,162.3C306.1,162.4,305.6,162.4,305,162.5C304.9,162.5,304.9,162.5,304.8,162.5C304.4,162.5,304.1,162.5,303.7,162.6C303.2,162.6,302.7,162.6,302.2,162.6C302,162.6,301.9,162.6,301.7,162.6C301.4,162.6,301,162.6,300.7,162.5C300.6,162.5,300.4,162.5,300.3,162.5C300,162.5,299.6,162.4,299.3,162.4C299.2,162.4,299,162.4,298.9,162.3C298.6,162.2,298.2,162.2,297.9,162.1C297.8,162.1,297.7,162.1,297.6,162C297.2,161.9,296.7,161.8,296.3,161.7C296.2,161.7,296.1,161.6,296,161.6C295.7,161.5,295.4,161.4,295,161.3C294.9,161.3,294.7,161.2,294.6,161.2C294.3,161.1,294,161,293.7,160.9C293.6,160.8,293.4,160.8,293.3,160.7C292.9,160.5,292.5,160.4,292.1,160.2C292.1,160.2,292.1,160.2,292.1,160.2L292.1,160.2L292.1,160.2L295.2,161.7C295.6,161.9,296,162.1,296.4,162.2C296.5,162.3,296.6,162.3,296.8,162.3C297.1,162.4,297.4,162.5,297.7,162.6C297.8,162.6,298,162.7,298.1,162.7C298.4,162.8,298.7,162.9,299.1,163C299.2,163,299.3,163.1,299.4,163.1C299.4,163.1,299.5,163.1,299.5,163.1C299.9,163.2,300.3,163.3,300.7,163.4C300.8,163.4,300.9,163.4,301,163.5C301.3,163.6,301.7,163.6,302,163.7C302.1,163.7,302.3,163.7,302.4,163.8C302.7,163.8,303.1,163.9,303.4,163.9C303.5,163.9,303.7,163.9,303.8,163.9C303.9,163.9,303.9,163.9,304,163.9C304.3,163.9,304.6,163.9,304.8,163.9C305,163.9,305.1,163.9,305.3,163.9C305.8,163.9,306.3,163.9,306.8,163.9C307.2,163.9,307.5,163.9,307.9,163.8C307.9,163.8,307.9,163.8,308,163.8C308,163.8,308.1,163.8,308.1,163.8C308.7,163.8,309.2,163.7,309.8,163.6C309.8,163.6,309.8,163.6,309.9,163.6C310.5,163.5,311,163.4,311.6,163.3C311.6,163.3,311.7,163.3,311.7,163.3C311.7,163.3,311.8,163.3,311.8,163.3C312.3,163.2,312.8,163.1,313.3,162.9C313.4,162.9,313.5,162.8,313.6,162.8C314.1,162.7,314.6,162.5,315.1,162.3C315.1,162.3,315.2,162.3,315.2,162.3C315.2,162.3,315.3,162.3,315.3,162.2C315.8,162,316.4,161.8,316.9,161.6C316.9,161.6,317,161.6,317,161.6C317.5,161.4,318,161.2,318.6,160.9C318.6,160.9,318.7,160.9,318.7,160.9C318.7,160.9,318.7,160.9,318.7,160.9C319.3,160.6,319.8,160.4,320.4,160.1C320.5,160.1,320.5,160,320.6,160C321.1,159.7,321.7,159.4,322.2,159.1C322.2,159.1,322.3,159.1,322.3,159C322.4,158.9,322.5,158.9,322.6,158.8C323.1,158.5,323.7,158.1,324.2,157.7C324.3,157.6,324.5,157.5,324.6,157.4C325.1,157,325.7,156.6,326.2,156.2C326.2,156.2,326.2,156.2,326.2,156.2C326.3,156.1,326.4,156,326.6,155.9C326.9,155.7,327.1,155.5,327.4,155.3C327.6,155.2,327.7,155,327.8,154.9C328,154.7,328.3,154.5,328.5,154.3C328.7,154.2,328.8,154,329,153.9C329.2,153.7,329.4,153.5,329.7,153.3C329.9,153.1,330,153,330.2,152.8C330.4,152.6,330.6,152.4,330.8,152.2C330.8,152.2,330.8,152.2,330.8,152.2C330.8,152.2,330.9,152.1,330.9,152.1C331.4,151.6,331.8,151.2,332.3,150.7C332.3,150.7,332.4,150.5,332.6,150.4Z" fill="#e49b98"/>
                        <path class="st12" d="M306,67.2C306.6,66.9,307.2,66.6,307.9,66.3C308,66.3,308,66.3,308.1,66.2C308.7,65.9,309.3,65.7,309.9,65.4C309.9,65.4,310,65.4,310,65.3C310.6,65.1,311.2,64.8,311.8,64.6C311.9,64.6,312,64.5,312.1,64.5C312.7,64.3,313.2,64.1,313.8,64C313.9,64,314,63.9,314.1,63.9C314.7,63.7,315.3,63.6,315.8,63.5C315.9,63.5,316,63.5,316,63.5C316.6,63.4,317.3,63.3,317.9,63.2C317.9,63.2,317.9,63.2,318,63.2C318.6,63.1,319.3,63,319.9,63C320,63,320,63,320.1,63C320.5,63,320.9,62.9,321.3,62.9C321.9,62.9,322.4,62.9,323,62.9C323.2,62.9,323.4,62.9,323.5,62.9C323.9,62.9,324.3,62.9,324.6,63C324.7,63,324.9,63,325,63C325.4,63,325.7,63.1,326.1,63.1C326.3,63.1,326.4,63.1,326.6,63.2C327,63.3,327.4,63.3,327.8,63.4C327.9,63.4,328,63.4,328.1,63.5C328.6,63.6,329.1,63.7,329.6,63.9C329.7,63.9,329.8,64,330,64C330.4,64.1,330.7,64.2,331.1,64.3C331.3,64.4,331.4,64.4,331.6,64.5C331.9,64.6,332.3,64.7,332.6,64.9C332.7,65,332.9,65,333,65.1C333.5,65.3,333.9,65.5,334.4,65.7L331.3,64.2C330.9,64,330.4,63.8,329.9,63.6C329.8,63.5,329.6,63.5,329.5,63.4C329.2,63.3,328.8,63.1,328.5,63C328.3,62.9,328.2,62.9,328,62.8C327.6,62.7,327.3,62.6,326.9,62.5C326.8,62.5,326.7,62.4,326.5,62.4C326.5,62.4,326.4,62.4,326.4,62.4C326,62.3,325.5,62.2,325.1,62.1C325,62.1,324.9,62.1,324.8,62C324.4,61.9,324,61.9,323.6,61.8C323.4,61.8,323.3,61.8,323.1,61.7C322.7,61.6,322.4,61.6,322,61.6C321.9,61.6,321.7,61.6,321.6,61.6C321.5,61.6,321.5,61.6,321.4,61.6C321.1,61.6,320.8,61.6,320.5,61.6C320.3,61.6,320.1,61.6,320,61.6C319.4,61.6,318.9,61.6,318.3,61.6C317.9,61.6,317.5,61.6,317.1,61.7C317.1,61.7,317.1,61.7,317,61.7C317,61.7,316.9,61.7,316.9,61.7C316.3,61.8,315.6,61.8,315,61.9C315,61.9,315,61.9,314.9,61.9C314.3,62,313.6,62.1,313,62.2C312.9,62.2,312.9,62.2,312.8,62.2C312.8,62.2,312.7,62.2,312.7,62.2C312.1,62.3,311.5,62.5,311,62.6C310.9,62.6,310.8,62.7,310.7,62.7C310.1,62.9,309.6,63,309,63.2C309,63.2,308.9,63.2,308.9,63.2C308.8,63.2,308.8,63.2,308.7,63.3C308.1,63.5,307.5,63.7,306.9,64C306.9,64,306.8,64,306.8,64.1C306.2,64.3,305.6,64.6,305,64.9C305,64.9,304.9,64.9,304.9,64.9C304.9,64.9,304.9,64.9,304.9,64.9C304.3,65.2,303.7,65.5,303,65.8C302.9,65.8,302.9,65.9,302.8,65.9C302.2,66.2,301.6,66.6,301,66.9C301,66.9,300.9,67,300.8,67C300.7,67.1,300.6,67.1,300.4,67.2C299.8,67.6,299.2,68,298.6,68.4C298.5,68.5,298.3,68.6,298.2,68.7C297.6,69.1,297,69.6,296.4,70C296.4,70,296.4,70,296.4,70C296.3,70.1,296.2,70.2,296,70.3C295.7,70.5,295.4,70.8,295.1,71C294.9,71.1,294.8,71.3,294.6,71.4C294.3,71.6,294.1,71.8,293.8,72.1C293.6,72.3,293.4,72.4,293.3,72.6C293.1,72.8,292.8,73,292.6,73.3C292.4,73.5,292.2,73.7,292,73.8C291.8,74,291.5,74.2,291.3,74.5C291.3,74.5,291.3,74.5,291.3,74.5C291.3,74.5,291.2,74.6,291.2,74.6C290.7,75.1,290.2,75.7,289.6,76.2C289.5,76.3,289.4,76.5,289.2,76.6C288.7,77.2,288.1,77.8,287.6,78.4C287.5,78.5,287.4,78.6,287.3,78.7C286.8,79.3,286.4,79.8,285.9,80.4C285.8,80.5,285.7,80.7,285.6,80.8C285.1,81.4,284.6,82.1,284.1,82.8C284,82.9,283.9,83.1,283.8,83.2C283.4,83.8,282.9,84.4,282.5,85.1C282.4,85.2,282.4,85.3,282.3,85.4C281.8,86.1,281.4,86.8,281,87.6C280.9,87.8,280.8,87.9,280.7,88.1C280.3,88.8,279.9,89.6,279.4,90.3C279.4,90.3,279.4,90.3,279.4,90.4C279,91.2,278.6,91.9,278.2,92.7C278.1,92.9,278,93.1,277.9,93.2C277.5,94,277.1,94.8,276.8,95.6C276.8,95.7,276.7,95.8,276.7,95.9C276.4,96.6,276.1,97.4,275.7,98.2C275.6,98.4,275.6,98.6,275.5,98.7C275.2,99.5,274.9,100.3,274.6,101.2C274.5,101.4,274.5,101.5,274.4,101.7C274.1,102.4,273.9,103.2,273.6,104C273.5,104.2,273.5,104.3,273.4,104.5C273.1,105.4,272.9,106.2,272.7,107.1C272.6,107.3,272.6,107.5,272.5,107.7C272.3,108.5,272.1,109.3,271.9,110.1C271.9,110.2,271.8,110.3,271.8,110.4C271.6,111.3,271.4,112.2,271.2,113.1C271.2,113.3,271.1,113.5,271.1,113.7C270.9,114.6,270.8,115.5,270.6,116.5C268.1,133.9,272.1,149.1,280.2,158.6C282.9,161.8,286.1,164.3,289.6,166L292.7,167.5C278.5,160.6,270.4,141.2,273.7,118C273.8,117.1,274,116.2,274.2,115.2C274.2,115,274.3,114.8,274.3,114.6C274.5,113.7,274.7,112.8,274.9,111.9C274.9,111.8,275,111.7,275,111.6C275.2,110.8,275.4,110,275.6,109.2C275.7,109,275.7,108.8,275.8,108.6C276,107.7,276.3,106.9,276.5,106C276.6,105.8,276.6,105.7,276.7,105.5C276.9,104.7,277.2,104,277.5,103.2C277.6,103,277.6,102.9,277.7,102.7C278,101.9,278.3,101,278.6,100.2C278.7,100,278.7,99.8,278.8,99.7C279.1,98.9,279.4,98.2,279.8,97.4C279.8,97.3,279.9,97.2,279.9,97.1C280.3,96.3,280.6,95.5,281,94.7C281.1,94.5,281.2,94.3,281.3,94.2C281.7,93.4,282.1,92.6,282.5,91.9C282.5,91.9,282.5,91.9,282.5,91.8C282.9,91.1,283.3,90.3,283.8,89.6C283.9,89.4,284,89.3,284.1,89.1C284.5,88.4,285,87.7,285.4,86.9C285.5,86.8,285.5,86.7,285.6,86.6C286,86,286.4,85.3,286.9,84.7C287,84.6,287.1,84.4,287.2,84.3C287.7,83.6,288.2,83,288.7,82.3C288.8,82.2,288.9,82,289,81.9C289.5,81.3,289.9,80.8,290.4,80.2C290.5,80.1,290.6,80,290.7,79.9C291.2,79.3,291.8,78.7,292.3,78.1C292.4,78,292.5,77.8,292.7,77.7C293.2,77.2,293.7,76.6,294.3,76.1C294.4,76,294.4,76,294.5,75.9C294.7,75.7,295,75.5,295.2,75.2C295.4,75,295.6,74.8,295.8,74.7C296,74.5,296.3,74.3,296.5,74C296.7,73.8,296.9,73.7,297.1,73.5C297.4,73.3,297.6,73,297.9,72.8C298.1,72.7,298.2,72.5,298.4,72.4C298.7,72.1,299,71.9,299.4,71.6C299.5,71.5,299.6,71.4,299.7,71.3C300.3,70.8,300.9,70.4,301.5,70C301.6,69.9,301.8,69.8,301.9,69.7C302.5,69.3,303.1,68.9,303.7,68.5C303.9,68.4,304,68.3,304.2,68.2C304.8,67.8,305.4,67.5,306,67.2C305.9,67.3,305.9,67.2,306,67.2Z" fill="#b4d7cb"/>
                        <g>
                            <path class="st8" d="M321.2,62.9C343.1,62.1,357.5,85.5,353.3,115.1C350.3,136.5,338.3,155.3,323.7,164.3C318.1,167.8,312,169.8,306,170C284.1,170.8,269.7,147.4,273.9,117.8C276.9,96.4,288.9,77.6,303.5,68.6C309.1,65.2,315.2,63.1,321.2,62.9ZM348.8,115.2C352.5,89,339.8,68.3,320.4,69C315,69.2,309.7,71,304.7,74.1C291.7,82.1,281.2,98.8,278.5,117.7C274.8,143.9,287.5,164.6,306.9,163.9C312.3,163.7,317.6,161.9,322.6,158.8C335.5,150.8,346.1,134.2,348.8,115.2" fill="#4fafac"/>
                        </g>
                    </g>
                </g>
            </g>
            <g transform="translate(-3.05176e-06,1.37862e-07)">
                <g id="ham" opacity="1">
                    <path id="_a2" d="M0,0L21,-12.1" stroke="#ffffff" fill="none" stroke-linecap="round" stroke-width="1.5" stroke-dashoffset="24" stroke-dasharray="24 27" transform="translate(398.4,35.8)"/>
                    <path id="_a3" d="M0,0L21,-12.1" stroke="#ffffff" fill="none" stroke-linecap="round" stroke-width="1.5" stroke-dasharray="5 3 15 35" stroke-dashoffset="25" transform="translate(398.4,28.9785)"/>
                    <path id="_a4" d="M0,0L21,-12.1" stroke="#ffffff" fill="none" stroke-linecap="round" stroke-width="1.5" stroke-dashoffset="27" stroke-dasharray="10 6 7 30" transform="translate(398.4,21.1)"/>
                    <path id="_a5" d="M0,0L21,-12.1" stroke="#ffffff" fill="none" stroke-linecap="round" stroke-width="1.5" stroke-dasharray="40 40" stroke-dashoffset="41" transform="translate(398.4,12.9)"/>
                </g>
                <g id="warn" opacity="0" transform="translate(298.808,96.0743) scale(0.8,0.8)">
                    <path d="M20.7,33.7C21.2,34,21.4,34.4,21.4,35.1C21.4,35.8,21.2,36.5,20.7,37.3C20.2,38.1,19.7,38.6,19,39C18.3,39.4,17.7,39.5,17.3,39.2C16.8,39,16.6,38.5,16.6,37.8C16.6,37.1,16.8,36.4,17.3,35.6C17.7,34.8,18.3,34.2,19,33.8C19.7,33.5,20.2,33.5,20.7,33.7Z" fill="#ffffff"/>
                    <path class="st0" d="M37.7,29.7C38.6,31.3,37.3,34.5,35.2,35.7L2.8,54.4C0.8,55.6,-0.6,53.9,0.3,51.3L16.4,3.6C16.9,2.1,17.9,1,18.9,0.4C19.9,-0.2,20.9,-0.1,21.4,0.8ZM20.9,12.2L16.9,14.5L17.4,32.4L20.4,30.7L20.9,12.2M20.7,37.4C21.2,36.6,21.4,35.9,21.4,35.2C21.4,34.5,21.2,34,20.7,33.8C20.2,33.5,19.7,33.6,19,34C18.3,34.4,17.7,35,17.3,35.8C16.8,36.6,16.6,37.3,16.6,38C16.6,38.7,16.8,39.2,17.3,39.4C17.7,39.7,18.3,39.6,19,39.2C19.7,38.7,20.2,38.1,20.7,37.4" fill="#ec5f59"/>
                    <path d="M20.4,30.7L17.5,32.4L16.9,14.6L20.9,12.2Z" fill="#ffffff"/>
                </g>
                <g id="safe" opacity="1" transform="translate(299.62,93.6254) scale(0.8,0.8)">
                    <path class="st0" d="M33.4,0.3C34.6,-0.4,35.6,0.2,35.6,1.6L35.7,37.5C35.7,38.9,34.7,40.6,33.5,41.3L2.3,59.3C1.1,60,0.1,59.4,0.1,58L0,22.1C0,20.7,1,19,2.2,18.3ZM14.6,43.7L31.9,9.6L25.6,13.2L13.8,36.5L6.2,34.2L6.2,41.2L14.6,43.7" fill="#ec5f59"/>
                    <path class="st1" d="M31.9,9.6L14.6,43.7L6.2,41.1L6.2,34.2L13.8,36.5L25.7,13.2Z" fill="#ffffff"/>
                </g>
                <path id="no" class="st0" d="M28.8,0.8C38.5,4.3,42.3,18.3,37.3,32C32.3,45.7,20.4,54,10.7,50.4C1,46.9,-2.8,32.9,2.2,19.2C7.2,5.5,19.1,-2.7,28.8,0.8ZM12.4,45.9C19.8,48.6,28.7,42.9,33.2,33.1L4.7,22.8C1.8,33.2,5,43.2,12.4,45.9M27.1,5.4C19.7,2.7,10.8,8.4,6.3,18.2L34.8,28.6C37.7,18.1,34.5,8,27.1,5.4" fill="#ec5f59" opacity="0" transform="translate(300.702,97.4314) scale(0.7,0.7)"/>
                <path id="graph" class="st13" d="M295.8,122.9L301.8,134.1L307.5,115.2L313.2,126L321.9,98.6L331,113.6" fill="none" stroke="#ff5252" stroke-linecap="round" stroke-linejoin="round" opacity="0" transform="translate(3.05176e-06,-1.37862e-07)"/>
                <path class="st6" d="M356.2,82.1L370.6,50.8L383.3,41" fill="none" stroke="#ffffff" stroke-width="2" stroke-linecap="round" stroke-linejoin="round"/>
                <g>
                    <g class="st0">
                        <clipPath id="SVGID_6_">
                            <use overflow="visible"/>
                        </clipPath>
                        <g class="st7">
                            <path class="st5" d="M388.2,31.8C385.7,33.3,383.6,36.8,383.6,39.8C383.6,42.7,385.7,43.9,388.2,42.4C390.7,40.9,392.8,37.4,392.8,34.4L392.1,34.8L391.4,35.2C391.4,36.2,391.1,37.3,390.5,38.3C389.9,39.3,389.1,40.2,388.2,40.7C387.3,41.2,386.5,41.3,385.9,40.9C385.3,40.6,385,39.9,385,38.9C385,37.9,385.4,36.8,385.9,35.8C386.5,34.8,387.3,33.9,388.2,33.4C389.1,32.9,389.9,32.8,390.5,33.2C391.1,33.5,391.4,34.2,391.4,35.3L392.1,34.9L392.8,34.5C392.8,31.5,390.8,30.3,388.2,31.8" fill="#ffffff"/>
                        </g>
                    </g>
                </g>
            </g>
        </g>
    </g>
    <script><![CDATA[var ids=['_a0','_a1','_a2','_a3','_a4','_a5','warn','safe','no','graph'];var anims=[[[8,0,-1,[0,1000,2000],[0.5,1,0.5],[[0.42,0,0.58,1],[0.42,0,0.58,1],[-1]]]],[[1,0,-1,[0,1000,2000],[0,0,0],[[0.42,0,0.58,1],[0.42,0,1,1],[-1]]],[2,0,-1,[0,1000,2000],[-7.83654,1.12553,-7.83621],[[0.42,0,0.58,1],[0.42,0,1,1],[-1]]]],[[14,0,-1,[0,2000],[24,-25]]],[[14,0,3000,[0,3000],[25,-84]]],[[14,0,-1,[0,4000],[27,-80]]],[[14,0,-1,[0,2000],[41,-25]]],[[8,0,-1,[0,900,1000,1900,2000,4000],[0,0,1,1,0,0]]],[[8,0,-1,[0,900,1000,3900,4000],[1,1,0,0,0]]],[[8,0,-1,[0,2900,3000,3900,4000],[0,0,1,1,0]]],[[8,0,-1,[0,1900,2000,2900,3000,4000],[0,0,1,1,0,0]]]];var end=-1;var t="- translate translate scale scale skewX skewY rotate opacity stroke-opacity fill-opacity stroke-width stroke-miterlimit stroke-dasharray stroke-dashoffset stroke fill".split(" "),u=[0,0,0,0,0,0,0,0,0,0,0,0,0,3,0,2,2];
(function(){function v(){0>q&&(q=(new Date).getTime());for(var c=(new Date).getTime()-q+x,a,d=r.length,b=0;b<d;++b){for(var e=r[b],h="",k=anims[b].length,m=0;m<k;++m){var f=anims[b][m],g=f[0];if(2==f.length)a=f[1];else{a=f[1];var n=f[3].length,l=f[3][n-1];a=c<=a?f[4][0]:0<=f[2]&&c>=a+f[2]?0!=l&&f[2]%l?w(f[2]%l,f):f[4][n-1]:w((c-a)%l,f)}0==g?(a=a*f[7]/100,g=f[6].getPointAtLength(a),h+="translate("+g.x+","+g.y+") ",f[8]&&(a?a=f[6].getPointAtLength(a-.001):(a=g,g=f[6].getPointAtLength(.001)),h+="rotate("+
180*Math.atan2(g.y-a.y,g.x-a.x)/Math.PI+") ")):7>=g?(f=t[g]+"(",f=3>g?f+(g&1?a+",0":"0,"+a):5>g?f+(g&1?a+",1":"1,"+a):f+a,h+=f+") "):(n=u[g],f=e,g=t[g],a=2==n&&"number"===typeof a?"#"+("000000"+a.toString(16)).substr(-6):3==n?a.join(","):a,f.getAttribute("id"),f.setAttribute(g,a))}""!=h&&(e.getAttribute("id"),e.setAttribute("transform",h))}(0>end||c<end)&&p(v)}function m(c){return 0<=c?Math.pow(c,1/3):-Math.pow(-c,1/3)}function y(c,a,d,b){if(0==c)return 0==a?a=-b/d:(c=Math.sqrt(d*d-4*a*b),b=(-d+c)/
(2*a),0<=b&&1>=b?a=b:(b=(-d-c)/(2*a),a=0<=b&&1>=b?b:0)),a;var e=d/c-a*a/(c*c)/3;d=a*a*a/(c*c*c)/13.5-a*d/(c*c)/3+b/c;var h=d*d/4+e*e*e/27;a=-a/(3*c);if(0>=h)if(e||d){c=Math.sqrt(d*d/4-h);b=Math.acos(-d/2/c);d=Math.cos(b/3);b=Math.sqrt(3)*Math.sin(b/3);c=m(c);e=2*c*d+a;if(0<=e&&1>=e)return e;e=-c*(d+b)+a;if(0<=e&&1>=e)return e;e=c*(b-d)+a;if(0<=e&&1>=e)return e}else return-m(b/c);else{c=m(-d/2+Math.sqrt(h));d=m(-d/2-Math.sqrt(h));b=c+d+a;if(0<=b&&1>=b)return b;b=-(c+d)/2+a;if(0<=b&&1>=b)return b}return 0}
function z(c,a,d,b){if(0==c)return(d-a)*b+a;if(1==c)return 1>b?a:d;if(2==c){if("number"===typeof a&&"number"===typeof d){c=1-b;var e;return c*(a>>16)+b*(d>>16)<<16|c*(a>>8&255)+b*(d>>8&255)<<8|c*(a&255)+b*(d&255)}return 1>b?a:d}if(3==c){0==a.length&&(a=[0]);0==d.length&&(d=[0]);c=a.length;a.length!=d.length&&(c=a.length*d.length);for(var h=Array(c),k=0;k<c;++k)e=a[k%a.length],e=(d[k%d.length]-e)*b+e,0>e&&(e=0),h[k]=e;return h}return 0}function w(c,a){var d;a:{d=a[3].length;for(var b=0;b<d;++b)if(c<
a[3][b]){d=b;break a}--d}b=a[3][d-1];b=(c-b)/(a[3][d]-b);if(5<a.length&&a[5].length>d-1){var e=a[5][d-1];if(0<=e[0])if(0>=b)b=0;else if(1<=b)b=1;else var h=e[0],k=e[2],b=y(3*h-3*k+1,-6*h+3*k,3*h,-b),b=3*b*(1-b)*(1-b)*e[1]+3*b*b*(1-b)*e[3]+b*b*b;else-1!=e[0]&&(-2==e[0]?(e=e[1],b=Math.ceil(b*e)/e):-3==e[0]?(e=e[1],b=Math.floor(b*e)/e):-4==e[0]&&(e=e[1],b=Math.floor(b*e)/(e-1)))}return z(u[a[0]],a[4][d-1],a[4][d],b)}var p=window.requestAnimationFrame||window.webkitRequestAnimationFrame||window.mozRequestAnimationFrame||
window.oRequestAnimationFrame||window.msRequestAnimationFrame||null;p||(p=function(c){window.setTimeout(c,16)});for(var x=0,q=-1,r=Array(ids.length),l=0;l<ids.length;++l)r[l]=document.getElementById(ids[l]);anims.forEach(function(c){if(0==c[0][0]){var a=document.createElementNS("http://www.w3.org/2000/svg","path");a.setAttribute("d",c[0][6]);c[0][8]=" "==c[0][6].charAt(0);c[0][7]=a.getTotalLength();c[0][6]=a}});p(v)})();
]]></script>
</svg>
