<?xml version="1.0" encoding="UTF-8"?>
<svg width="72px" height="97px" viewBox="0 0 72 97" version="1.1" xmlns="http://www.w3.org/2000/svg" xmlns:xlink="http://www.w3.org/1999/xlink">
    <!-- Generator: Sketch 44 (41411) - http://www.bohemiancoding.com/sketch -->
    <title>Page 1</title>
    <desc>Created with Sketch.</desc>
    <defs></defs>
    <g id="web" stroke="none" stroke-width="1" fill="none" fill-rule="evenodd">
        <g id="product_max:-about" transform="translate(-309.000000, -476.000000)">
            <g id="Page-1" transform="translate(309.000000, 476.000000)">
                <path d="M12.8244,60.6556 C12.1764,60.6556 11.55,60.5116 10.9668,60.2176 C9.396,59.4256 7.5252,57.268 7.5252,51.4768 C7.5252,39.3688 1.1364,32.458 1.0704,32.3896 L0,31.2556 L5.6832,25 L6.6552,26.4664 C6.7776,26.644 9.7488,30.952 14.4948,29.686 L15.1536,32.7808 C10.4784,34.03 7.1004,31.414 5.4696012,29.6968 L4.0212012,31.2916 C6.0360012,33.9592 10.3644,40.9156 10.3644,51.4768 C10.3644,54.6208 11.0088,56.7496 12.132,57.316 C12.984,57.7444 14.25,57.2788 15.4368,56.1004 C18.5448,53.0128 20.8284,45.3172 20.8512,45.2404 L23.5488,46.2328 C23.448,46.582 21.006,54.8224 17.3208,58.4812 C15.8844,59.9068 14.2992,60.6556 12.8244,60.6556" id="Fill-1" fill="#F2B200"></path>
                <path d="M59.172,60.6544 C59.8212,60.6544 60.4476,60.5104 61.0308,60.2164 C62.6016,59.4256 64.4712,57.2668 64.4712,51.4756 C64.4712,39.3676 70.86,32.4568 70.926,32.3896 L71.9964,31.2532 L66.3132,25 L65.34,26.4652 C65.2176,26.6428 62.2464,30.952 57.5004,29.6836 L56.8416,32.7784 C61.5168,34.0276 64.8948,31.4128 66.5256,29.6944 L67.974,31.288 C65.9604,33.9556 61.632,40.912 61.632,51.4732 C61.632,54.6184 60.9876,56.7472 59.8644,57.3124 C59.0112,57.7432 57.7452,57.2764 56.5596,56.098 C53.4516,53.0116 51.1668,45.316 51.1428,45.238 L48.4452,46.2292 C48.5484,46.5784 50.9904,54.8188 54.6744,58.4776 C56.1108,59.9044 57.6972,60.6532 59.172,60.6532" id="Fill-3" fill="#F2B200"></path>
                <polygon id="Fill-4" fill="#F2B200" points="32.34 81.8908 39.6587988 81.8908 39.6587988 52.5172 32.34 52.5172"></polygon>
                <polygon id="Fill-5" fill="#FFCE31" points="33.84 81.8908 38.1587988 81.8908 38.1587988 52.5172 33.84 52.5172"></polygon>
                <path d="M11.79,25 C13.854,43.4584 23.91,58.2616 36.006,58.2616 C48.102,58.2616 58.152,43.4584 60.21,25 L11.79,25" id="Fill-6" fill="#F2B200"></path>
                <path d="M16.4592,25 C18.126,43.6732 26.2416,58.648 36,58.648 C45.7584,58.648 53.8728,43.6708 55.5396,25 L16.4592,25" id="Fill-7" fill="#FFCE31"></path>
                <path d="M54.7776,87.4 L17.2176,87.4 C17.2176,87.4 25.6296,76.564 35.9976,76.564 C46.368,76.564 54.774,87.4 54.774,87.4" id="Fill-8" fill="#F2B200"></path>
                <path d="M50.2476,87.4 L21.75,87.4 C21.75,87.4 28.1292,76.3804 36,76.3804 C43.8708,76.3804 50.2476,87.4 50.2476,87.4" id="Fill-9" fill="#FFCE31"></path>
                <polygon id="Fill-10" fill="#BC845E" points="11.7792 89.8 60.2232 89.8 60.2232 97 11.7792 97"></polygon>
                <polygon id="Fill-11" fill="#916140" points="17.2212 87.4 54.7812 87.4 54.7812 89.8 17.2212 89.8"></polygon>
                <polygon id="Fill-12" fill="#F2B200" points="24 95.2 48 95.2 48 91.6 24 91.6"></polygon>
                <polygon id="Fill-13" fill="#CE9C7A" points="11.7792 97 14.1792 97 14.1792 89.8 11.7792 89.8"></polygon>
                <polygon id="Fill-14" fill="#916140" points="57.816 97 60.216 97 60.216 89.8 57.816 89.8"></polygon>
                <polygon id="Fill-15" fill="#FFCE31" points="25.2 95.2 46.8 95.2 46.8 91.6 25.2 91.6"></polygon>
                <g id="Group-7" transform="translate(15.000000, 0.000000)" fill-rule="nonzero" fill="#4AA9FF">
                    <polygon id="Shape" points="16 0 21 10 26 4.4408921e-16"></polygon>
                    <polygon id="Shape" points="33.674 1 33 12.16 42.33 6"></polygon>
                    <polygon id="Shape" points="0 6 9.33 12.16 8.658 1"></polygon>
                </g>
            </g>
        </g>
    </g>
</svg>