<?xml version="1.0" encoding="UTF-8"?>
<svg width="86px" height="16px" viewBox="0 0 86 16" version="1.1" xmlns="http://www.w3.org/2000/svg" xmlns:xlink="http://www.w3.org/1999/xlink">
    <!-- Generator: Sketch 53.2 (72643) - https://sketchapp.com -->
    <title>Group 35</title>
    <desc>Created with Sketch.</desc>
    <defs>
        <polygon id="path-1" points="0.564125994 0.790680026 27.1617415 0.790680026 27.1617415 15.1270193 0.564125994 15.1270193"></polygon>
    </defs>
    <g id="Page-1" stroke="none" stroke-width="1" fill="none" fill-rule="evenodd">
        <g id="엑셈홈페이지" transform="translate(-2347.000000, -511.000000)">
            <g id="Group-35" transform="translate(2347.000000, 510.659863)">
                <path d="M8.53934428,0.711104089 L1.24344979e-14,15.5016615 L17.076537,15.5016615 L8.53934428,0.711104089 Z M8.219845,2.55172113 L8.53934428,1.99985874 L12.8004104,9.38061474 L8.219845,2.55172113 Z M7.70133103,4.02120265 L8.04987569,3.31120425 L12.2797449,9.61512936 L7.70133103,4.02120265 Z M7.22799876,5.50682049 L7.56471012,4.61717099 L11.5256405,9.45806911 L7.22799876,5.50682049 Z M6.84395418,6.97630201 L7.08062031,5.91775895 L10.574673,9.12996379 L6.84395418,6.97630201 Z M6.59545474,8.09078433 L6.77080283,7.30655883 L11.6611857,10.1282646 L12.2517753,10.6725967 L7.3613924,13.4964539 L6.59545474,13.737423 L6.59545474,8.09078433 Z M5.37769993,7.47652814 L1.75348087,14.8583599 L1.11555808,14.8583599 L5.37769993,7.47652814 Z M5.84242615,7.80893648 L3.28643194,14.5711333 L2.49467616,14.624921 L5.84242615,7.80893648 Z M6.08124379,8.54044998 L4.80754971,14.2398007 L3.86949123,14.3925579 L6.08124379,8.54044998 Z M6.2727282,9.5301447 L6.2727282,13.8374683 L5.23785176,14.1612706 L6.2727282,9.5301447 Z M12.5002747,10.9017325 L13.2995608,11.6364733 L8.76955588,13.0553943 L12.5002747,10.9017325 Z M13.5803328,11.9688816 L14.1827557,12.7036224 L8.00899699,13.7148322 L13.5803328,11.9688816 Z M14.6291941,13.1210153 L15.0702537,13.7783017 L7.49586179,14.2892854 L14.6291941,13.1210153 Z M15.6425554,14.3054218 L15.960979,14.8583599 L7.43561951,14.8583599 L15.6425554,14.3054218 Z" id="Fill-1" fill="#FFFFFF"></path>
                <g id="Group-32" transform="translate(18.287837, 2.086435)" fill="#FFFFFF">
                    <path d="M1.07962786,1.58211308 C1.07962786,2.11783914 1.37008174,2.46745956 1.80683833,2.46745956 C2.23606463,2.46745956 2.52974578,2.11461187 2.52974578,1.58856761 C2.52974578,1.04638702 2.24897369,0.703221133 1.80683833,0.703221133 C1.37546052,0.703221133 1.07962786,1.06252335 1.07962786,1.58211308 M2.8696844,1.57565855 C2.8696844,2.28458118 2.45659443,2.72564079 1.80468682,2.72564079 C1.16138525,2.72564079 0.739689232,2.28135392 0.739689232,1.59179488 C0.739689232,0.891478282 1.16783978,0.450418676 1.83265645,0.450418676 C2.45336717,0.450418676 2.8696844,0.897932813 2.8696844,1.57565855" id="Fill-2"></path>
                    <path d="M3.66079473,1.88784269 C3.66079473,2.20949348 3.86841547,2.4773565 4.13305124,2.4773565 C4.41059606,2.4773565 4.58379264,2.21272074 4.58379264,1.88784269 C4.58379264,1.53176774 4.4073688,1.29187434 4.13305124,1.29187434 C3.86841547,1.29187434 3.66079473,1.55328284 3.66079473,1.88784269 L3.66079473,1.88784269 Z M3.36496207,1.55651011 C3.36496207,1.3865408 3.3617348,1.21657148 3.34882574,1.08102634 L3.63605236,1.08102634 C3.64143114,1.14772316 3.64788567,1.25745018 3.64788567,1.33920757 L3.6543402,1.33920757 C3.78020355,1.13804136 3.96308192,1.04337491 4.20620259,1.04337491 C4.61929256,1.04337491 4.89576163,1.37148022 4.89576163,1.86310032 C4.89576163,2.37300826 4.61606529,2.72585594 4.19974805,2.72585594 C3.95124862,2.72585594 3.75868845,2.59353806 3.66079473,2.41711422 L3.6543402,2.41711422 C3.66079473,2.48058377 3.664022,2.71940141 3.664022,2.81406786 L3.664022,3.34979392 L3.36496207,3.34979392 L3.36496207,1.55651011 Z" id="Fill-4"></path>
                    <path d="M6.42161271,1.72712487 C6.42161271,1.41838315 6.2516434,1.26992894 6.01497727,1.26992894 C5.77831114,1.26992894 5.5922055,1.43989825 5.56746314,1.72712487 L6.42161271,1.72712487 Z M5.55993285,1.95733647 C5.57391767,2.28221452 5.79444747,2.47369894 6.11932552,2.47369894 C6.30543116,2.47369894 6.44420357,2.42959298 6.58835476,2.35429012 L6.59803656,2.62860768 C6.45280961,2.69422874 6.2925221,2.72650139 6.09996193,2.72650139 C5.56423587,2.72650139 5.25872141,2.40162334 5.25872141,1.87235182 C5.25872141,1.36459539 5.56746314,1.04294461 6.02465907,1.04294461 C6.44635508,1.04294461 6.71421811,1.29897433 6.71421811,1.84007916 C6.71421811,1.87235182 6.7120666,1.92291231 6.70883934,1.95733647 L5.55993285,1.95733647 Z" id="Fill-6"></path>
                    <path d="M7.46369672,1.33942272 C7.58310554,1.15654435 7.76598391,1.04359006 7.99942277,1.04359006 C8.45339144,1.04359006 8.59861838,1.34264999 8.59861838,1.76757327 L8.59861838,2.68841966 L8.29740695,2.68841966 L8.29740695,1.89451237 C8.29740695,1.57931612 8.2672858,1.29208949 7.92627142,1.29208949 C7.76921117,1.29208949 7.62290848,1.38352868 7.54115109,1.52230109 C7.49059059,1.61051302 7.46584823,1.72992184 7.46584823,1.91925474 L7.46584823,2.68841966 L7.16786405,2.68841966 L7.16786405,1.55672526 C7.16786405,1.38675595 7.16356103,1.21678664 7.15065197,1.08124149 L7.44433312,1.08124149 C7.4497119,1.15008982 7.45616643,1.25443807 7.45616643,1.33942272 L7.46369672,1.33942272 Z" id="Fill-8"></path>
                    <path d="M10.8811556,0.561006304 C10.8273679,0.548097242 10.7735801,0.541642711 10.7262469,0.541642711 C10.5283079,0.541642711 10.4551566,0.658900021 10.4551566,0.933217581 L10.4551566,1.09027783 L10.8876102,1.09027783 L10.8876102,1.32694396 L10.4551566,1.32694396 L10.4551566,2.68884996 L10.1593239,2.68884996 L10.1593239,1.32694396 L9.77850662,1.32694396 L9.77850662,1.09027783 L10.1593239,1.09027783 L10.1593239,0.939672112 C10.1593239,0.554551773 10.2916418,0.293143275 10.6821409,0.293143275 C10.7617468,0.293143275 10.8241406,0.299597806 10.9037465,0.317885643 L10.8811556,0.561006304 Z" id="Fill-10"></path>
                    <path d="M11.4243044,1.89408207 C11.4243044,2.24692975 11.6319251,2.47714135 11.9385154,2.47714135 C12.2311208,2.47714135 12.445196,2.24370249 12.445196,1.89408207 C12.445196,1.53477985 12.2311208,1.29165919 11.9288336,1.29165919 C11.6351524,1.29165919 11.4243044,1.53800712 11.4243044,1.89408207 M12.757165,1.89408207 C12.757165,2.38570217 12.4172264,2.72564079 11.9320608,2.72564079 C11.4555013,2.72564079 11.1058809,2.37924764 11.1058809,1.89408207 C11.1058809,1.38955291 11.4490468,1.04315976 11.9406669,1.04315976 C12.4172264,1.04315976 12.757165,1.39600744 12.757165,1.89408207" id="Fill-12"></path>
                    <path d="M13.5053527,1.35200906 C13.5967919,1.16913068 13.7517006,1.04326733 13.9560941,1.04326733 C14.0195637,1.04326733 14.0690484,1.04972186 14.1099271,1.06478243 L14.1099271,1.34555453 C14.0722757,1.3294182 14.0195637,1.32081216 13.9496396,1.32081216 C13.6720948,1.32081216 13.5053527,1.55102376 13.5053527,1.95981071 L13.5053527,2.68809694 L13.2062928,2.68809694 L13.2062928,1.55640253 C13.2062928,1.38643322 13.2030655,1.21646391 13.1901565,1.08091876 L13.4859891,1.08091876 C13.4956709,1.16267615 13.4988982,1.27025167 13.4988982,1.35200906 L13.5053527,1.35200906 Z" id="Fill-14"></path>
                    <polygon id="Fill-16" points="15.337041 2.68831209 15.6586918 2.68831209 15.6586918 0.488392832 15.337041 0.488392832"></polygon>
                    <path d="M16.5519988,1.33942272 C16.6714077,1.15654435 16.854286,1.04359006 17.0877249,1.04359006 C17.5416936,1.04359006 17.6869205,1.34264999 17.6869205,1.76757327 L17.6869205,2.68841966 L17.3867848,2.68841966 L17.3867848,1.89451237 C17.3867848,1.57931612 17.3555879,1.29208949 17.0156493,1.29208949 C16.8575133,1.29208949 16.7122864,1.38352868 16.630529,1.52230109 C16.5799685,1.61051302 16.5552261,1.72992184 16.5552261,1.91925474 L16.5552261,2.68841966 L16.2561662,2.68841966 L16.2561662,1.55672526 C16.2561662,1.38675595 16.2529389,1.21678664 16.2400298,1.08124149 L16.5326352,1.08124149 C16.5390898,1.15008982 16.5455443,1.25443807 16.5455443,1.33942272 L16.5519988,1.33942272 Z" id="Fill-18"></path>
                    <path d="M18.5227822,1.33942272 C18.6421911,1.15654435 18.8250694,1.04359006 19.0585083,1.04359006 C19.512477,1.04359006 19.6577039,1.34264999 19.6577039,1.76757327 L19.6577039,2.68841966 L19.3575682,2.68841966 L19.3575682,1.89451237 C19.3575682,1.57931612 19.3263713,1.29208949 18.9864327,1.29208949 C18.8282967,1.29208949 18.6830698,1.38352868 18.6013124,1.52230109 C18.5507519,1.61051302 18.5260095,1.72992184 18.5260095,1.91925474 L18.5260095,2.68841966 L18.2269496,2.68841966 L18.2269496,1.55672526 C18.2269496,1.38675595 18.2237223,1.21678664 18.2108133,1.08124149 L18.5034187,1.08124149 C18.5098732,1.15008982 18.5163277,1.25443807 18.5163277,1.33942272 L18.5227822,1.33942272 Z" id="Fill-19"></path>
                    <path d="M20.4126689,1.89408207 C20.4126689,2.24692975 20.6202896,2.47714135 20.9268798,2.47714135 C21.2194852,2.47714135 21.4335605,2.24370249 21.4335605,1.89408207 C21.4335605,1.53477985 21.2194852,1.29165919 20.917198,1.29165919 C20.6235169,1.29165919 20.4126689,1.53800712 20.4126689,1.89408207 M21.7455295,1.89408207 C21.7455295,2.38570217 21.4055909,2.72564079 20.9204253,2.72564079 C20.4438658,2.72564079 20.0942454,2.37924764 20.0942454,1.89408207 C20.0942454,1.38955291 20.4374112,1.04315976 20.9290313,1.04315976 C21.4055909,1.04315976 21.7455295,1.39600744 21.7455295,1.89408207" id="Fill-20"></path>
                    <path d="M22.5820367,2.06114684 C22.6164608,2.16226783 22.6670213,2.33869167 22.694991,2.44841869 L22.7014455,2.44841869 C22.7337182,2.33869167 22.7896574,2.15581329 22.8219301,2.06114684 L23.1489596,1.08113391 L23.4523226,1.08113391 L22.8628088,2.68831209 L22.5099611,2.68831209 L21.9301291,1.08113391 L22.2539314,1.08113391 L22.5820367,2.06114684 Z" id="Fill-21"></path>
                    <path d="M24.5476565,1.91624263 C24.1507028,1.91624263 23.9538396,2.01090908 23.9538396,2.22498435 C23.9538396,2.38312035 24.0775515,2.47671105 24.2593541,2.47671105 C24.440081,2.47671105 24.5917624,2.38634762 24.6606108,2.24112068 C24.6950349,2.16796933 24.7111712,2.06469683 24.7111712,1.92269716 C24.6756713,1.91946989 24.6186563,1.91624263 24.5476565,1.91624263 L24.5476565,1.91624263 Z M23.81184,1.1782746 C23.9635214,1.08683541 24.1593089,1.04272945 24.347566,1.04272945 C24.8187468,1.04272945 24.9951706,1.31381975 24.9951706,1.6795765 C24.9951706,1.88504573 24.9887161,2.13677243 24.9887161,2.20346925 C24.9887161,2.37989309 24.9951706,2.5713775 25.0080797,2.68863481 L24.7391409,2.68863481 C24.7369894,2.66281669 24.7326864,2.60365016 24.7326864,2.55631693 C24.7326864,2.51543824 24.7369894,2.45842321 24.7391409,2.41431725 L24.7326864,2.41431725 C24.6229593,2.60687742 24.4465355,2.71014992 24.1969603,2.71014992 C23.8559459,2.71014992 23.6354161,2.52081701 23.6354161,2.22498435 C23.6354161,1.89150026 23.9387791,1.70216735 24.4809597,1.70216735 C24.5476565,1.70216735 24.6358684,1.70539462 24.7068682,1.71184915 L24.7068682,1.69894009 C24.7068682,1.42784979 24.5723988,1.28907738 24.2980813,1.28907738 C24.1334907,1.28907738 23.9602942,1.35254693 23.8312035,1.44398612 L23.81184,1.1782746 Z" id="Fill-22"></path>
                    <path d="M25.9701275,1.09049298 L26.4015053,1.09049298 L26.4015053,1.32715911 L25.9701275,1.32715911 L25.9701275,2.03285448 C25.9701275,2.28780845 26.0045517,2.46423229 26.2476723,2.46423229 C26.3100661,2.46423229 26.3638539,2.45239899 26.4208689,2.42658086 L26.4305507,2.66324699 C26.3573993,2.69121663 26.2659601,2.70735295 26.174521,2.70735295 C25.7689613,2.70735295 25.6742948,2.46100503 25.6742948,2.11461187 L25.6742948,1.32715911 L25.3053108,1.32715911 L25.3053108,1.09049298 L25.6742948,1.09049298 L25.6742948,0.711827174 L25.9701275,0.611781946 L25.9701275,1.09049298 Z" id="Fill-23"></path>
                    <path d="M26.8058099,2.68831209 L27.1712416,2.68831209 L27.1712416,1.08113391 L26.8058099,1.08113391 L26.8058099,2.68831209 Z M26.7863029,0.790680026 L27.1907486,0.790680026 L27.1907486,0.459347443 L26.7863029,0.459347443 L26.7863029,0.790680026 Z" id="Fill-24"></path>
                    <path d="M27.8726004,1.89408207 C27.8726004,2.24692975 28.0802212,2.47714135 28.3857356,2.47714135 C28.6794168,2.47714135 28.8934921,2.24370249 28.8934921,1.89408207 C28.8934921,1.53477985 28.6794168,1.29165919 28.3771296,1.29165919 C28.0823727,1.29165919 27.8726004,1.53800712 27.8726004,1.89408207 M29.2054611,1.89408207 C29.2054611,2.38570217 28.8644467,2.72564079 28.3803569,2.72564079 C27.9037973,2.72564079 27.5531012,2.37924764 27.5531012,1.89408207 C27.5531012,1.38955291 27.8973428,1.04315976 28.3889629,1.04315976 C28.8644467,1.04315976 29.2054611,1.39600744 29.2054611,1.89408207" id="Fill-25"></path>
                    <path d="M29.9495609,1.33942272 C30.0689697,1.15654435 30.2518481,1.04359006 30.4852869,1.04359006 C30.9392556,1.04359006 31.0844826,1.34264999 31.0844826,1.76757327 L31.0844826,2.68841966 L30.7854226,2.68841966 L30.7854226,1.89451237 C30.7854226,1.57931612 30.7542257,1.29208949 30.4132114,1.29208949 C30.2561511,1.29208949 30.1109242,1.38352868 30.028091,1.52230109 C29.9786063,1.61051302 29.9527882,1.72992184 29.9527882,1.91925474 L29.9527882,2.68841966 L29.6537282,2.68841966 L29.6537282,1.55672526 C29.6537282,1.38675595 29.650501,1.21678664 29.6375919,1.08124149 L29.9301973,1.08124149 C29.9366518,1.15008982 29.9431064,1.25443807 29.9431064,1.33942272 L29.9495609,1.33942272 Z" id="Fill-26"></path>
                    <polygon id="Fill-27" points="2.38753095 4.94180395 2.38753095 8.86077991 2.42410663 8.86077991 5.53519048 4.94180395 7.39947413 4.94180395 4.24105705 8.93931004 8.3353811 13.429512 6.23335557 13.429512 2.38753095 9.26096082 2.38753095 13.429512 0.747004367 13.429512 0.747004367 4.94180395"></polygon>
                    <polygon id="Fill-28" points="10.5880124 4.94180395 15.6300767 10.8649117 15.6300767 4.94180395 17.2351034 4.94180395 17.2351034 13.429512 15.8247884 13.429512 10.7515271 7.40851048 10.7515271 13.429512 9.14757623 13.429512 9.14757623 4.94180395"></polygon>
                    <polygon id="Fill-29" points="19.0806689 13.4286514 20.7211954 13.4286514 20.7211954 4.94094334 19.0806689 4.94094334"></polygon>
                    <polygon id="Fill-30" points="24.0433425 4.94180395 26.8316998 8.28847818 29.6211328 4.94180395 31.0841598 4.94180395 31.0841598 13.429512 29.444709 13.429512 29.444709 7.46875276 29.3963 7.46875276 26.9414268 10.4582763 26.7101394 10.4582763 24.256342 7.46875276 24.2068572 7.46875276 24.2068572 13.429512 22.5674064 13.429512 22.5674064 4.94180395"></polygon>
                    <polygon id="Fill-31" points="38.4011235 4.94180395 38.4011235 6.22302832 34.5552989 6.22302832 34.5552989 8.45306871 38.2376088 8.45306871 38.2376088 9.73429308 34.5552989 9.73429308 34.5552989 12.1461361 38.4861082 12.1461361 38.4861082 13.429512 32.9147723 13.429512 32.9147723 4.94180395"></polygon>
                </g>
                <text id="®" font-family="Calibri" font-size="3.5636" font-weight="normal" fill="#FFFFFF">
                    <tspan x="55.0861933" y="4.21113761">®</tspan>
                </text>
                <g id="Group-34" transform="translate(61.318043, 0.285398)">
                    <mask id="mask-2" fill="white">
                        <use xlink:href="#path-1"></use>
                    </mask>
                    <g id="Clip-33"></g>
                    <text id="Trusted" mask="url(#mask-2)" font-family="NotoSans-Regular, Noto Sans" font-size="6.8187" font-weight="normal" letter-spacing="-0.330935" fill="#FFFFFF">
                        <tspan x="0.564125994" y="7.56101807">T</tspan>
                        <tspan x="3.68345319" y="7.56101807" letter-spacing="0.01">rusted</tspan>
                    </text>
                    <text id="Partner" mask="url(#mask-2)" font-family="NotoSans-Regular, Noto Sans" font-size="6.8187" font-weight="normal" letter-spacing="0.01" fill="#FFFFFF">
                        <tspan x="0.564125994" y="15.3803962">Partner</tspan>
                    </text>
                </g>
            </g>
        </g>
    </g>
</svg>