<?xml version="1.0" encoding="UTF-8"?>
<svg width="103px" height="20px" viewBox="0 0 103 20" version="1.1" xmlns="http://www.w3.org/2000/svg" xmlns:xlink="http://www.w3.org/1999/xlink">
    <!-- Generator: Sketch 44.1 (41455) - http://www.bohemiancoding.com/sketch -->
    <title>ms</title>
    <desc>Created with Sketch.</desc>
    <defs></defs>
    <g id="Page-1" stroke="none" stroke-width="1" fill="none" fill-rule="evenodd">
        <g id="common:-footer" transform="translate(-1094.000000, -227.000000)" fill="#FFFFFF">
            <g id="Group-2" transform="translate(991.000000, 219.000000)">
                <g id="ms" transform="translate(102.695000, 7.565217)">
                    <path d="M4.0197445,19.916 C3.6220745,20.1511304 3.1807045,20.2641739 2.6978195,20.2641739 C2.3263695,20.2641739 1.9964345,20.1782609 1.7058295,20.0064348 C1.4174095,19.8346087 1.1945395,19.5881739 1.0372195,19.273913 C0.8798995,18.9573913 0.8034245,18.597913 0.8034245,18.2022609 C0.8034245,17.5737391 0.9957045,17.0537391 1.3802645,16.6467826 C1.7648245,16.2375652 2.2542645,16.0318261 2.8551395,16.0318261 C3.2877695,16.0318261 3.6482945,16.1041739 3.9410845,16.2488696 L3.9410845,16.7801739 C3.6198895,16.569913 3.2418845,16.4636522 2.8026995,16.4636522 C2.5142795,16.4636522 2.2542645,16.536 2.0226545,16.6784348 C1.7910445,16.8253913 1.6118745,17.0266087 1.4829595,17.2888696 C1.3540445,17.5511304 1.2884945,17.8427826 1.2884945,18.166087 C1.2884945,18.6793043 1.4195945,19.0885217 1.6817945,19.3869565 C1.9439945,19.6831304 2.3001495,19.8323478 2.7524445,19.8323478 C3.0605295,19.8323478 3.3270995,19.7667826 3.5565245,19.637913 L3.5565245,18.493913 L2.6912645,18.493913 L2.6912645,18.0598261 L4.0197445,18.0598261 L4.0197445,19.916 Z M7.4436395,18.7211304 C7.4436395,19.1846087 7.3147245,19.5576522 7.0612645,19.8425217 C6.8056195,20.1251304 6.4669445,20.2653043 6.0364995,20.2653043 C5.6191645,20.2653043 5.2848595,20.1296522 5.0357695,19.8538261 C4.7888645,19.5802609 4.6599495,19.2162609 4.6599495,18.7663478 C4.6599495,18.2847826 4.7910495,17.9026957 5.0445095,17.6223478 C5.3001545,17.3397391 5.6541245,17.1995652 6.1042345,17.1995652 C6.5237545,17.1995652 6.8493195,17.3352174 7.0874845,17.6110435 C7.3256495,17.8778261 7.4436395,18.2508696 7.4436395,18.7211304 Z M6.9804195,18.7392174 C6.9804195,19.1009565 6.9017595,19.3813043 6.7466245,19.5757391 C6.5893045,19.767913 6.3620645,19.8673913 6.0692745,19.8673913 C5.7808545,19.8673913 5.5514295,19.7656522 5.3809995,19.5734783 C5.2105695,19.3745217 5.1253545,19.0986957 5.1253545,18.7505217 C5.1253545,18.3842609 5.2105695,18.1016522 5.3809995,17.9026957 C5.5492445,17.7014783 5.7786695,17.5997391 6.0692745,17.5997391 C6.3620645,17.5997391 6.5849345,17.6992174 6.7444395,17.8936522 C6.9017595,18.0903478 6.9804195,18.3706957 6.9804195,18.7392174 Z M8.143495,20.194313 L8.143495,15.8670087 L8.59579,15.8670087 L8.59579,20.194313 L8.143495,20.194313 Z M11.897762,20.1965739 L11.447652,20.1965739 L11.447652,19.6991826 L11.436727,19.6991826 C11.226967,20.0767478 10.901402,20.2644 10.464402,20.2644 C10.110432,20.2644 9.826382,20.1355304 9.614437,19.8687478 C9.400307,19.6019652 9.295427,19.2492696 9.295427,18.8061391 C9.295427,18.322313 9.413417,17.9334435 9.645027,17.6395304 C9.883192,17.3456174 10.197832,17.2009217 10.588947,17.2009217 C10.975692,17.2009217 11.259742,17.3591826 11.436727,17.6734435 L11.447652,17.6734435 L11.447652,15.8670087 L11.897762,15.8670087 L11.897762,20.1965739 Z M11.447652,18.8739652 C11.447652,19.1633565 11.366807,19.4007478 11.207302,19.5861391 C11.047797,19.7737913 10.844592,19.866487 10.593317,19.866487 C10.339857,19.866487 10.136652,19.7692696 9.985887,19.5770957 C9.835122,19.3804 9.760832,19.1136174 9.760832,18.7812696 C9.760832,18.410487 9.839492,18.1210957 9.998997,17.9130957 C10.158502,17.7028348 10.374817,17.6010957 10.647942,17.6010957 C10.870812,17.6010957 11.058722,17.6802261 11.213857,17.838487 C11.368992,17.9990087 11.447652,18.2002261 11.447652,18.4444 L11.447652,18.8739652 Z M77.3037705,4.39241739 C77.5790805,4.39241739 77.7975805,4.42406957 77.9527155,4.48963478 L77.9811205,4.50093913 L77.9811205,6.1445913 L77.9090155,6.09485217 C77.8325405,6.0405913 77.7036255,5.9885913 77.5244555,5.94111304 C77.3431005,5.89363478 77.1748555,5.86876522 77.0262755,5.86876522 C76.5849055,5.86876522 76.2265655,6.05641739 75.9556255,6.4272 C75.6825005,6.80024348 75.5426605,7.29537391 75.5426605,7.89902609 L75.5426605,11.4440696 L73.8864305,11.4440696 L73.8864305,4.51224348 L75.5426605,4.51224348 L75.5426605,5.71276522 L75.5601405,5.71276522 C75.7152755,5.32389565 75.9184805,5.01189565 76.1981605,4.78354783 C76.5171705,4.5258087 76.8886205,4.39241739 77.3037705,4.39241739 Z M78.3023155,5.8518087 L78.3023155,4.52241739 L79.3576705,4.52241739 L79.3576705,2.95563478 L79.3904455,2.94885217 L80.9658305,2.4718087 L81.0204555,2.45598261 L81.0204555,4.52241739 L82.6985355,4.52241739 L82.6985355,5.8518087 L81.0204555,5.8518087 L81.0204555,9.12554783 C81.0204555,9.5438087 81.0969305,9.84224348 81.2498805,10.0140696 C81.3984605,10.1858957 81.6388105,10.2718087 81.9600055,10.2718087 C82.0474055,10.2718087 82.1588405,10.2514609 82.2921255,10.215287 C82.4254105,10.1813739 82.5390305,10.1316348 82.6286155,10.0705913 L82.6985355,10.0276348 L82.6985355,11.3683304 L82.6766855,11.3796348 C82.5761755,11.4384174 82.4057455,11.4904174 82.1566555,11.5446783 C81.9141205,11.5944174 81.6737705,11.6215478 81.4443455,11.6215478 C80.0612405,11.6215478 79.3576705,10.8777217 79.3576705,9.41041739 L79.3576705,5.8518087 L78.3023155,5.8518087 Z M102.382108,4.39241739 C102.659603,4.39241739 102.878103,4.42406957 103.031053,4.48963478 L103.059458,4.50093913 L103.059458,6.1445913 L102.987353,6.09485217 C102.910878,6.0405913 102.784148,5.9885913 102.602793,5.94111304 C102.421438,5.89363478 102.253193,5.86876522 102.104613,5.86876522 C101.663243,5.86876522 101.302718,6.05641739 101.033963,6.4272 C100.760838,6.80024348 100.623183,7.29537391 100.623183,7.89902609 L100.623183,11.4440696 L98.966953,11.4440696 L98.966953,4.51224348 L100.623183,4.51224348 L100.623183,5.71276522 L100.638478,5.71276522 C100.793613,5.32389565 100.996818,5.01189565 101.276498,4.78354783 C101.593323,4.5258087 101.969143,4.39241739 102.382108,4.39241739 Z M6.8375205,7.84227826 L9.3611955,1.77410435 L11.6729255,1.77410435 L11.6729255,11.4438435 L9.9795505,11.4438435 L9.9795505,5.2988 C9.9839205,4.90993043 10.0166955,4.26558261 10.0560255,3.56245217 L10.0210655,3.56245217 C9.9533305,3.84506087 9.8855955,4.16384348 9.8178605,4.32662609 L6.8899605,11.4438435 L5.7799805,11.4438435 L2.8258605,4.38993043 C2.7646805,4.2068 2.6816505,3.92871304 2.6008055,3.56245217 L2.5658455,3.56245217 C2.5724005,3.71845217 2.6029905,3.92645217 2.6117305,4.17966957 C2.6270255,4.68836522 2.6335805,5.13375652 2.6335805,5.50001739 L2.6335805,11.4438435 L1.0450855,11.4438435 L1.0450855,1.77410435 L3.4551405,1.77410435 L5.9176355,7.85584348 C6.1295805,8.39166957 6.2694205,8.81445217 6.3502655,9.11288696 L6.3786705,9.11288696 L6.8375205,7.84227826 Z M13.26732,11.4447478 L13.26732,4.51744348 L14.92355,4.51744348 L14.92355,11.4447478 L13.26732,11.4447478 Z M14.1126965,1.5685913 C14.3989315,1.5685913 14.6436515,1.66354783 14.8315615,1.84667826 C15.0238415,2.0365913 15.1199815,2.26267826 15.1199815,2.52041739 C15.1199815,2.7872 15.0216565,3.00876522 14.8250065,3.18963478 C14.6283565,3.36372174 14.3901915,3.45189565 14.1126965,3.45189565 C13.8373865,3.45189565 13.5970365,3.36372174 13.4025715,3.18737391 C13.2102915,3.00876522 13.1119665,2.7872 13.1119665,2.52041739 C13.1119665,2.25137391 13.2124765,2.02076522 13.4069415,1.84215652 C13.6014065,1.66128696 13.8395715,1.5685913 14.1126965,1.5685913 Z M20.7839385,4.44532174 C21.1029485,4.51088696 21.3629635,4.59453913 21.5508735,4.69853913 L21.5727235,4.71210435 L21.5727235,6.28566957 L21.5028035,6.23593043 C21.0002535,5.87645217 20.4714835,5.69784348 19.9252335,5.69784348 C19.2893985,5.69784348 18.7693685,5.90584348 18.3738835,6.32636522 C17.9783985,6.74914783 17.7795635,7.31888696 17.7795635,8.01975652 C17.7795635,8.71836522 17.9696585,9.27001739 18.3520335,9.66793043 C18.7300385,10.0613217 19.2500685,10.2625391 19.9011985,10.2625391 C20.1328085,10.2625391 20.4015635,10.2105391 20.6943535,10.1110609 C20.9849585,10.0093217 21.2580835,9.86914783 21.5028035,9.69506087 L21.5727235,9.64532174 L21.5727235,11.1374957 L21.5508735,11.1533217 C21.0111785,11.4585391 20.3403835,11.6122783 19.5537835,11.6122783 C18.8808035,11.6122783 18.2733735,11.4653217 17.7446035,11.1781913 C17.2158335,10.8910609 16.7984985,10.4750609 16.5057085,9.94601739 C16.2129185,9.41471304 16.0621535,8.81558261 16.0621535,8.15993043 C16.0621535,7.41158261 16.2172885,6.74236522 16.5188185,6.16810435 C16.8225335,5.59158261 17.2704585,5.1394087 17.8472985,4.82288696 C18.4219535,4.50636522 19.0993035,4.34810435 19.8574985,4.34810435 C20.1524735,4.34810435 20.4649285,4.37975652 20.7839385,4.44532174 Z M26.2390095,4.39467826 C26.5121345,4.39467826 26.7328195,4.42406957 26.8879545,4.48963478 L26.9119895,4.50093913 L26.9119895,6.14685217 L26.8442545,6.09485217 C26.7677795,6.0405913 26.6388645,5.9885913 26.4575095,5.94337391 C26.2783395,5.89363478 26.1079095,5.86876522 25.9593295,5.86876522 C25.5201445,5.86876522 25.1596195,6.05867826 24.8886795,6.4272 C24.6155545,6.80250435 24.4757145,7.29763478 24.4757145,7.90128696 L24.4757145,11.4440696 L22.8216695,11.4440696 L22.8216695,4.51450435 L24.4757145,4.51450435 L24.4757145,5.71276522 L24.4953795,5.71276522 C24.6505145,5.32389565 24.8515345,5.01189565 25.1333995,4.78354783 C25.4502245,4.5258087 25.8216745,4.39467826 26.2390095,4.39467826 Z M32.051328,9.68285217 C31.741058,10.0694609 31.273468,10.2616348 30.659483,10.2616348 C30.052053,10.2616348 29.571353,10.0626783 29.234863,9.67154783 C28.894003,9.27815652 28.723573,8.71972174 28.723573,8.00528696 C28.723573,7.27050435 28.894003,6.69624348 29.234863,6.29606957 C29.573538,5.89815652 30.049868,5.69693913 30.646373,5.69693913 C31.227583,5.69693913 31.688618,5.89137391 32.022923,6.2712 C32.352858,6.65102609 32.523288,7.22076522 32.523288,7.96685217 C32.523288,8.71972174 32.363783,9.29624348 32.051328,9.68285217 Z M30.733773,4.3472 C31.828458,4.3472 32.695903,4.66824348 33.312073,5.30128696 C33.928243,5.9298087 34.238513,6.80928696 34.238513,7.91485217 C34.238513,9.02946087 33.908578,9.9338087 33.250893,10.605287 C32.595393,11.2745043 31.688618,11.6113739 30.565528,11.6113739 C29.486138,11.6113739 28.612138,11.2903304 27.971933,10.6550261 C27.331728,10.0197217 27.003978,9.14476522 27.003978,8.0618087 C27.003978,6.9178087 27.338283,6.00215652 27.995968,5.34198261 C28.651468,4.67954783 29.573538,4.3472 30.733773,4.3472 Z M37.90975,7.37857391 C38.56525,7.63631304 39.03721,7.93022609 39.305965,8.25353043 C39.57909,8.57457391 39.716745,8.9770087 39.716745,9.4450087 C39.716745,10.0916174 39.458915,10.6206609 38.95418,11.016313 C38.45163,11.4119652 37.76117,11.6131826 36.902465,11.6131826 C36.62497,11.6131826 36.308145,11.5770087 35.95636,11.5046609 C35.60239,11.432313 35.30523,11.3396174 35.067065,11.2356174 L35.03866,11.224313 L35.03866,9.63266087 L35.110765,9.6824 C35.394815,9.88361739 35.71164,10.0441391 36.04813,10.1504 C36.386805,10.2611826 36.69489,10.3154435 36.96583,10.3154435 C37.693435,10.3154435 38.047405,10.0893565 38.047405,9.62361739 C38.047405,9.46083478 38.012445,9.32744348 37.942525,9.23248696 C37.872605,9.13074783 37.74806,9.03126957 37.571075,8.9317913 C37.38972,8.82553043 37.10567,8.69666087 36.723295,8.54066087 C36.268815,8.34848696 35.927955,8.15857391 35.7029,7.97996522 C35.48003,7.79909565 35.311785,7.58205217 35.20472,7.33335652 C35.09547,7.08918261 35.03866,6.7997913 35.03866,6.47648696 C35.03866,5.85022609 35.29649,5.33474783 35.796855,4.93683478 C36.29722,4.54796522 36.950535,4.34448696 37.737135,4.34448696 C37.97967,4.34448696 38.257165,4.37613913 38.563065,4.43266087 C38.87115,4.48692174 39.12461,4.55474783 39.31689,4.63613913 L39.34311,4.64744348 L39.34311,6.15544348 L39.275375,6.11022609 C39.0678,5.97005217 38.81871,5.8570087 38.53466,5.77335652 C38.25061,5.68518261 37.964375,5.64448696 37.684695,5.64448696 C37.383165,5.64448696 37.142815,5.71005217 36.972385,5.84118261 C36.79977,5.97005217 36.718925,6.13283478 36.718925,6.33405217 C36.718925,6.5624 36.78229,6.7410087 36.91776,6.86761739 C37.055415,7.0010087 37.38972,7.17057391 37.90975,7.37857391 Z M45.485582,9.68285217 C45.173127,10.0694609 44.705537,10.2616348 44.093737,10.2616348 C43.486307,10.2616348 43.005607,10.0626783 42.666932,9.67154783 C42.328257,9.27815652 42.157827,8.71972174 42.157827,8.00528696 C42.157827,7.27050435 42.328257,6.69624348 42.666932,6.29606957 C43.005607,5.89815652 43.481937,5.69693913 44.078442,5.69693913 C44.659652,5.69693913 45.122872,5.89137391 45.452807,6.2712 C45.789297,6.65102609 45.957542,7.22076522 45.957542,7.96685217 C45.957542,8.71972174 45.798037,9.29624348 45.485582,9.68285217 Z M44.168027,4.3472 C45.260527,4.3472 46.125787,4.66824348 46.744142,5.30128696 C47.360312,5.9298087 47.672767,6.80928696 47.672767,7.91485217 C47.672767,9.02946087 47.340647,9.9338087 46.682962,10.605287 C46.027462,11.2745043 45.122872,11.6113739 43.999782,11.6113739 C42.918207,11.6113739 42.046392,11.2903304 41.404002,10.6550261 C40.763797,10.0197217 40.436047,9.14476522 40.436047,8.0618087 C40.436047,6.9178087 40.772537,6.00215652 41.428037,5.34198261 C42.085722,4.67954783 43.007792,4.3472 44.168027,4.3472 Z M56.499293,5.84412174 L54.823398,5.84412174 L54.823398,9.1156 C54.823398,9.53612174 54.899873,9.83681739 55.048453,10.0063826 C55.199218,10.1759478 55.439568,10.2618609 55.762948,10.2618609 C55.848163,10.2618609 55.959598,10.2437739 56.092883,10.2053391 C56.226168,10.1691652 56.339788,10.121687 56.431558,10.0606435 L56.499293,10.017687 L56.499293,11.3606435 L56.477443,11.3742087 C56.376933,11.4307304 56.208688,11.4827304 55.959598,11.5347304 C55.714878,11.5867304 55.474528,11.6116 55.247288,11.6116 C53.861998,11.6116 53.160613,10.8677739 53.160613,9.4049913 L53.160613,5.84412174 L50.676268,5.84412174 L50.676268,11.4442957 L49.000373,11.4442957 L49.000373,5.84412174 L47.833583,5.84412174 L47.833583,4.5169913 L49.000373,4.5169913 L49.000373,3.5516 C49.000373,3.07229565 49.107438,2.64046957 49.323753,2.26064348 C49.535698,1.88081739 49.841598,1.58464348 50.228343,1.37664348 C50.615088,1.17090435 51.060828,1.06464348 51.548083,1.06464348 C51.937013,1.06464348 52.249468,1.1076 52.481078,1.18673043 L52.509483,1.19803478 L52.509483,2.59977391 L52.448303,2.57038261 C52.201398,2.46412174 51.954493,2.4076 51.718513,2.4076 C51.390763,2.4076 51.132933,2.50933913 50.949393,2.71733913 C50.770223,2.92533913 50.676268,3.23507826 50.676268,3.64203478 L50.676268,4.5169913 L53.160613,4.5169913 L53.160613,2.94568696 L53.191203,2.93890435 L54.766588,2.46412174 L54.823398,2.44603478 L54.823398,4.5169913 L56.499293,4.5169913 L56.499293,5.84412174 Z M66.8065935,4.7788 C66.8065935,5.38923478 66.6514585,5.93862609 66.3411885,6.42471304 C66.0331035,6.91306087 65.5895485,7.29288696 65.0214485,7.55966957 C64.4489785,7.83097391 63.7978485,7.96662609 63.0658735,7.96662609 L61.8990835,7.96662609 L61.8990835,11.4438435 L60.2712585,11.4438435 L60.2712585,1.77862609 L63.3018535,1.77862609 C64.4293135,1.77862609 65.2945735,2.03862609 65.8976335,2.55410435 C66.5050635,3.06958261 66.8065935,3.81114783 66.8065935,4.7788 Z M65.0957385,4.83306087 C65.0957385,5.41636522 64.9078285,5.86175652 64.5276385,6.15793043 C64.1474485,6.46314783 63.6230485,6.61236522 62.9478835,6.61236522 L61.8990835,6.61236522 L61.8990835,3.13288696 L63.0243585,3.13288696 C63.6973385,3.13288696 64.2129985,3.27984348 64.5647835,3.57375652 C64.9187535,3.86993043 65.0957385,4.28593043 65.0957385,4.83306087 Z M71.076302,11.4445217 L71.076302,10.4926957 L71.050082,10.4926957 C70.560642,11.2387826 69.867997,11.6118261 68.974332,11.6118261 C68.286057,11.6118261 67.744177,11.4286957 67.346507,11.0601739 C66.948837,10.6916522 66.752187,10.192 66.752187,9.56121739 C66.752187,8.91686957 66.944467,8.39686957 67.331212,8.00573913 C67.720142,7.61686957 68.290427,7.37269565 69.044252,7.27773913 L71.089412,7.00191304 C71.089412,6.06365217 70.648042,5.59565217 69.763117,5.59565217 C69.334857,5.59565217 68.917522,5.66121739 68.513297,5.8013913 C68.109072,5.94156522 67.748547,6.12921739 67.436092,6.36208696 L67.436092,4.98747826 C67.685182,4.83147826 68.065372,4.68904348 68.570107,4.56243478 C69.072657,4.43582609 69.524952,4.37478261 69.924807,4.37478261 C70.827212,4.37478261 71.502377,4.6053913 71.954672,5.0666087 C72.409152,5.52556522 72.634207,6.19478261 72.634207,7.06973913 L72.634207,11.4445217 L71.076302,11.4445217 Z M68.305722,9.40295652 C68.305722,9.05704348 68.395307,8.80156522 68.581032,8.63426087 C68.766757,8.46695652 69.098877,8.3493913 69.577392,8.28382609 L71.089412,8.08713043 L71.089412,8.7066087 C71.089412,9.19043478 70.936462,9.58608696 70.632747,9.9026087 C70.326847,10.2191304 69.937917,10.3796522 69.468142,10.3796522 C69.129467,10.3796522 68.849787,10.2892174 68.631287,10.1128696 C68.412787,9.93652174 68.305722,9.69913043 68.305722,9.40295652 Z M88.5892955,11.4445217 L88.5892955,7.5693913 C88.5892955,6.92278261 88.4778605,6.43895652 88.2549905,6.12243478 C88.0343055,5.80365217 87.6781505,5.64765217 87.1843405,5.64765217 C86.7080105,5.64765217 86.3125255,5.82626087 85.9978855,6.18121739 C85.6876155,6.54069565 85.5302955,6.98608696 85.5302955,7.52191304 L85.5302955,11.4445217 L83.9483555,11.4445217 L83.9483555,4.54434783 L85.5302955,4.54434783 L85.5302955,5.64765217 L85.5587005,5.64765217 C86.0852855,4.79756522 86.8391105,4.37478261 87.8289155,4.37478261 C88.5740005,4.37478261 89.1486555,4.60991304 89.5572505,5.0733913 C89.9658455,5.5413913 90.1690505,6.25356522 90.1690505,7.20313043 L90.1690505,11.4445217 L88.5892955,11.4445217 Z M92.899645,8.45045217 C92.930235,9.07897391 93.1247,9.55827826 93.480855,9.88610435 C93.83701,10.2139304 94.34393,10.3789739 95.005985,10.3789739 C95.403655,10.3789739 95.78603,10.3156696 96.14874,10.1935826 C96.513635,10.0692348 96.83483,9.91097391 97.107955,9.7188 L97.107955,11.0346261 C96.841385,11.2041913 96.4896,11.3421043 96.03949,11.4483652 C95.591565,11.5591478 95.12179,11.6111478 94.62361,11.6111478 C93.559515,11.6111478 92.737955,11.2991478 92.15456,10.672887 C91.56898,10.0466261 91.27619,9.1761913 91.27619,8.05932174 C91.27619,7.32453913 91.4204,6.67793043 91.71319,6.12627826 C92.00161,5.57462609 92.40365,5.1428 92.91494,4.83532174 C93.428415,4.52784348 93.99433,4.37410435 94.608315,4.37410435 C95.57627,4.37410435 96.32791,4.66801739 96.863235,5.24906087 C97.400745,5.83236522 97.6695,6.64175652 97.6695,7.67497391 L97.6695,8.45045217 L92.899645,8.45045217 Z M96.094115,7.27706087 L92.899645,7.27706087 C92.98049,6.77966957 93.179325,6.37497391 93.493965,6.06071304 C93.81079,5.74871304 94.17787,5.59497391 94.608315,5.59497391 C95.080275,5.59497391 95.44517,5.7374087 95.705185,6.0268 C95.963015,6.31393043 96.094115,6.72993043 96.094115,7.27706087 Z M14.716412,16.1319826 C15.026682,16.0822435 15.395947,16.0460696 15.802357,16.0460696 C16.534332,16.0460696 17.056547,16.2246783 17.403962,16.559287 C17.753562,16.9006783 17.961137,17.3777217 17.961137,18.0492 C17.961137,18.7229391 17.760117,19.2745913 17.390852,19.6544174 C17.021587,20.043287 16.411972,20.251287 15.640667,20.251287 C15.277957,20.251287 14.974242,20.2332 14.716412,20.2038087 L14.716412,16.1319826 Z M15.225517,19.7923304 L15.225517,16.5253739 C15.360987,16.4937217 15.559822,16.4688522 15.824207,16.4688522 C16.905782,16.4688522 17.432367,17.0905913 17.425812,18.0650261 C17.425812,19.1818957 16.833677,19.8239826 15.741177,19.8239826 C15.544527,19.8239826 15.356617,19.8149391 15.225517,19.7923304 Z M20.1690795,20.2166957 L20.1275645,19.8413913 L20.1100845,19.8413913 C19.9527645,20.0742609 19.6468645,20.2822609 19.2404545,20.2822609 C18.6679845,20.2822609 18.3730095,19.8594783 18.3730095,19.429913 C18.3730095,18.7109565 18.9826245,18.3175652 20.0794945,18.3243478 L20.0794945,18.2633043 C20.0794945,18.0168696 20.0161295,17.576 19.4349195,17.576 C19.1705345,17.576 18.8952245,17.6596522 18.6963895,17.7975652 L18.5783995,17.438087 C18.8121945,17.2798261 19.1530545,17.1758261 19.5113945,17.1758261 C20.3810245,17.1758261 20.5929695,17.7975652 20.5929695,18.3921739 L20.5929695,19.5022609 C20.5929695,19.7622609 20.6017095,20.0132174 20.6388545,20.2166957 L20.1690795,20.2166957 Z M20.0926045,18.6973913 L20.0926045,19.2151304 C20.0926045,19.2693913 20.0794945,19.3304348 20.0620145,19.3869565 C19.9811695,19.637913 19.7473745,19.8843478 19.3759245,19.8843478 C19.1137245,19.8843478 18.8886695,19.7170435 18.8886695,19.3688696 C18.8886695,18.790087 19.5288745,18.686087 20.0926045,18.6973913 Z M22.015186,16.3901739 L22.015186,17.2447826 L22.755901,17.2447826 L22.755901,17.6562609 L22.015186,17.6562609 L22.015186,19.2592174 C22.015186,19.6254783 22.115696,19.8334783 22.404116,19.8334783 C22.537401,19.8334783 22.637911,19.8153913 22.701276,19.7973043 L22.725311,20.2042609 C22.624801,20.2472174 22.467481,20.2788696 22.268646,20.2788696 C22.028296,20.2788696 21.833831,20.1974783 21.709286,20.0482609 C21.565076,19.89 21.512636,19.6254783 21.512636,19.2750435 L21.512636,17.6562609 L21.069081,17.6562609 L21.069081,17.2447826 L21.512636,17.2447826 L21.512636,16.5303478 L22.015186,16.3901739 Z M24.9039745,20.2166957 L24.8646445,19.8413913 L24.8449795,19.8413913 C24.6876595,20.0742609 24.3817595,20.2822609 23.9753495,20.2822609 C23.4028795,20.2822609 23.1079045,19.8594783 23.1079045,19.429913 C23.1079045,18.7109565 23.7175195,18.3175652 24.8165745,18.3243478 L24.8165745,18.2633043 C24.8165745,18.0168696 24.7510245,17.576 24.1698145,17.576 C23.9054295,17.576 23.6301195,17.6596522 23.4290995,17.7975652 L23.3154795,17.438087 C23.5492745,17.2798261 23.8879495,17.1758261 24.2462895,17.1758261 C25.1159195,17.1758261 25.3278645,17.7975652 25.3278645,18.3921739 L25.3278645,19.5022609 C25.3278645,19.7622609 25.3366045,20.0132174 25.3737495,20.2166957 L24.9039745,20.2166957 Z M24.8274995,18.6973913 L24.8274995,19.2151304 C24.8274995,19.2693913 24.8165745,19.3304348 24.7969095,19.3869565 C24.7160645,19.637913 24.4822695,19.8843478 24.1130045,19.8843478 C23.8486195,19.8843478 23.6235645,19.7170435 23.6235645,19.3688696 C23.6235645,18.790087 24.2637695,18.686087 24.8274995,18.6973913 Z M28.0652325,16.1247478 C28.3121375,16.0840522 28.6333325,16.0456174 29.0441125,16.0456174 C29.5488475,16.0456174 29.9181125,16.1677043 30.1540925,16.3892696 C30.3704075,16.5859652 30.4993225,16.8866609 30.4993225,17.2551826 C30.4993225,17.6282261 30.3944425,17.9244 30.1934225,18.1414435 C29.9246675,18.4421391 29.4854825,18.5936174 28.9851175,18.5936174 C28.8321675,18.5936174 28.6923275,18.5868348 28.5743375,18.5551826 L28.5743375,20.2169217 L28.0652325,20.2169217 L28.0652325,16.1247478 Z M28.5743375,18.1210957 L28.5743375,16.5113565 C28.6617375,16.4887478 28.8321675,16.4706609 29.0572225,16.4706609 C29.6209525,16.4706609 29.9880325,16.7329217 29.9880325,17.2800522 C29.9880325,17.8497913 29.6143975,18.1640522 28.9960425,18.1640522 C28.8277975,18.1640522 28.6879575,18.1527478 28.5743375,18.1210957 Z M31.129695,20.2169217 L31.129695,15.8557043 L31.645355,15.8557043 L31.645355,20.2169217 L31.129695,20.2169217 Z M34.0835965,20.2166957 L34.0442665,19.8413913 L34.0246015,19.8413913 C33.8672815,20.0742609 33.5613815,20.2822609 33.1549715,20.2822609 C32.5825015,20.2822609 32.2875265,19.8594783 32.2875265,19.429913 C32.2875265,18.7109565 32.8971415,18.3175652 33.9961965,18.3243478 L33.9961965,18.2633043 C33.9961965,18.0168696 33.9306465,17.576 33.3494365,17.576 C33.0850515,17.576 32.8097415,17.6596522 32.6087215,17.7975652 L32.4951015,17.438087 C32.7288965,17.2798261 33.0675715,17.1758261 33.4259115,17.1758261 C34.2955415,17.1758261 34.5074865,17.7975652 34.5074865,18.3921739 L34.5074865,19.5022609 C34.5074865,19.7622609 34.5162265,20.0132174 34.5533715,20.2166957 L34.0835965,20.2166957 Z M34.0071215,18.6973913 L34.0071215,19.2151304 C34.0071215,19.2693913 33.9961965,19.3304348 33.9765315,19.3869565 C33.8956865,19.637913 33.6618915,19.8843478 33.2926265,19.8843478 C33.0282415,19.8843478 32.8031865,19.7170435 32.8031865,19.3688696 C32.8031865,18.790087 33.4433915,18.686087 34.0071215,18.6973913 Z M35.9294845,16.3901739 L35.9294845,17.2447826 L36.6701995,17.2447826 L36.6701995,17.6562609 L35.9294845,17.6562609 L35.9294845,19.2592174 C35.9294845,19.6254783 36.0299945,19.8334783 36.3184145,19.8334783 C36.4516995,19.8334783 36.5522095,19.8153913 36.6155745,19.7973043 L36.6396095,20.2042609 C36.5390995,20.2472174 36.3817795,20.2788696 36.1807595,20.2788696 C35.9425945,20.2788696 35.7481295,20.1974783 35.6235845,20.0482609 C35.4771895,19.89 35.4269345,19.6254783 35.4269345,19.2750435 L35.4269345,17.6562609 L34.9855645,17.6562609 L34.9855645,17.2447826 L35.4269345,17.2447826 L35.4269345,16.5303478 L35.9294845,16.3901739 Z M37.2994795,20.2162435 L37.2994795,17.6546783 L36.8974395,17.6546783 L36.8974395,17.2454609 L37.2994795,17.2454609 L37.2994795,17.1030261 C37.2994795,16.6847652 37.3868795,16.3049391 37.6272295,16.065287 C37.8195095,15.8663304 38.0773395,15.7872 38.3198745,15.7872 C38.5012295,15.7872 38.6607345,15.8324174 38.7590595,15.873113 L38.6891395,16.2913739 C38.6148495,16.2552 38.5077845,16.2235478 38.3592045,16.2235478 C37.9200195,16.2235478 37.8085845,16.6282435 37.8085845,17.0826783 L37.8085845,17.2454609 L38.4946745,17.2454609 L38.4946745,17.6546783 L37.8085845,17.6546783 L37.8085845,20.2162435 L37.2994795,20.2162435 Z M41.506697,18.7055304 C41.506697,19.804313 40.779092,20.2836174 40.095187,20.2836174 C39.323882,20.2836174 38.733932,19.6935304 38.733932,18.7552696 C38.733932,17.7582261 39.354472,17.1771826 40.141072,17.1771826 C40.956077,17.1771826 41.506697,17.7966609 41.506697,18.7055304 Z M39.253962,18.7349217 C39.253962,18.1719652 39.518347,17.5796174 40.127962,17.5796174 C40.739762,17.5796174 40.980112,18.2194435 40.980112,18.7236174 C40.980112,19.3928348 40.610847,19.8766609 40.117037,19.8766609 C39.612302,19.8766609 39.253962,19.3860522 39.253962,18.7349217 Z M42.2113595,18.1717391 C42.2113595,17.8213043 42.2048045,17.5183478 42.1873245,17.2447826 L42.6374345,17.2447826 L42.6570995,17.828087 L42.6811345,17.828087 C42.8078645,17.427913 43.1203195,17.1769565 43.4655495,17.1769565 C43.5267295,17.1769565 43.5660595,17.1837391 43.6141295,17.1927826 L43.6141295,17.7037391 C43.5595045,17.6901739 43.5092495,17.6856522 43.4371445,17.6856522 C43.0744345,17.6856522 42.8144195,17.9727826 42.7444995,18.3797391 C42.7313895,18.4543478 42.7204645,18.538 42.7204645,18.6306957 L42.7204645,20.2155652 L42.2113595,20.2155652 L42.2113595,18.1717391 Z M44.206483,18.0480696 C44.206483,17.7383304 44.199928,17.4873739 44.182448,17.2454609 L44.634743,17.2454609 L44.656593,17.7202435 L44.676258,17.7202435 C44.833578,17.4376348 45.097963,17.1753739 45.567738,17.1753739 C45.954483,17.1753739 46.249458,17.4218087 46.371818,17.7699826 L46.382743,17.7699826 C46.470143,17.6072 46.581578,17.4760696 46.701753,17.3856348 C46.869998,17.2477217 47.057908,17.1753739 47.328848,17.1753739 C47.704668,17.1753739 48.259658,17.4353739 48.259658,18.4663304 L48.259658,20.2162435 L47.754923,20.2162435 L47.754923,18.5341565 C47.754923,17.9621565 47.556088,17.6185043 47.140938,17.6185043 C46.845963,17.6185043 46.618723,17.8445913 46.529138,18.109113 C46.507288,18.1837217 46.487623,18.2832 46.487623,18.3781565 L46.487623,20.2162435 L45.982888,20.2162435 L45.982888,18.4346783 C45.982888,17.9621565 45.784053,17.6185043 45.390753,17.6185043 C45.069558,17.6185043 44.833578,17.8898087 44.750548,18.1588522 C44.722143,18.2379826 44.709033,18.3306783 44.709033,18.4233739 L44.709033,20.2162435 L44.206483,20.2162435 L44.206483,18.0480696 Z" id="Combined-Shape"></path>
                </g>
            </g>
        </g>
    </g>
</svg>