<?xml version="1.0" encoding="UTF-8"?>
<svg width="11px" height="9px" viewBox="0 0 11 9" version="1.1" xmlns="http://www.w3.org/2000/svg" xmlns:xlink="http://www.w3.org/1999/xlink">
    <!-- Generator: Sketch 44.1 (41455) - http://www.bohemiancoding.com/sketch -->
    <title>utube</title>
    <desc>Created with Sketch.</desc>
    <defs></defs>
    <g id="web" stroke="none" stroke-width="1" fill="none" fill-rule="evenodd" opacity="0.662081069">
        <g id="index-v2:-client" transform="translate(-32.000000, -779.000000)" fill="#121212">
            <g id="sns" transform="translate(17.000000, 778.000000)">
                <g id="utube" transform="translate(15.157895, 1.421053)">
                    <path d="M7.08880241,3.95713746 L4.30980183,5.44786213 L4.30902649,3.15288819 L4.30902649,2.45517424 L5.56229822,3.13241248 L7.08880241,3.95713746 Z M10.4131824,1.93619946 C10.4131824,1.93619946 10.3130075,1.20153684 10.0048844,0.87838998 C9.61333394,0.454711959 9.17479738,0.452094762 8.97444758,0.427462319 C7.53354175,0.320311192 5.37419891,0.320311192 5.37419891,0.320311192 L5.36954682,0.320311192 C5.36954682,0.320311192 3.20896343,0.320311192 1.76960829,0.42807813 C1.56848315,0.452094762 1.13056687,0.454711959 0.738396091,0.878697886 C0.430583126,1.2019987 0.330098087,1.93650736 0.330098087,1.93650736 C0.330098087,1.93650736 0.226821798,2.79802706 0.226821798,3.66031652 L0.226821798,3.76423464 L0.226821798,4.46795275 C0.226821798,5.33055012 0.330098087,6.19253167 0.330098087,6.19253167 C0.330098087,6.19253167 0.430583126,6.92673243 0.738396091,7.24972534 C1.13056687,7.67401917 1.64508748,7.66047133 1.87334979,7.70450182 C2.69676886,7.78609679 5.3717178,7.8118069 5.3717178,7.8118069 C5.3717178,7.8118069 7.53354175,7.80795808 8.97444758,7.70080695 C9.17479738,7.6758666 9.61333394,7.67401917 10.0048844,7.24926348 C10.3130075,6.92627057 10.4131824,6.19237772 10.4131824,6.19237772 C10.4131824,6.19237772 10.5166138,5.33055012 10.5166138,4.46795275 L10.5166138,3.8090349 L10.5166138,3.66031652 C10.5166138,2.79802706 10.4131824,1.93619946 10.4131824,1.93619946 L10.4131824,1.93619946 Z" id="Fill-4"></path>
                </g>
            </g>
        </g>
    </g>
</svg>
